<?xml version="1.0" encoding="utf-8" standalone="no"?>
<!DOCTYPE svg PUBLIC "-//W3C//DTD SVG 1.1//EN"
  "http://www.w3.org/Graphics/SVG/1.1/DTD/svg11.dtd">
<svg xmlns:xlink="http://www.w3.org/1999/xlink" width="364.411125pt" height="328.1131pt" viewBox="0 0 364.411125 328.1131" xmlns="http://www.w3.org/2000/svg" version="1.1">
 <metadata>
  <rdf:RDF xmlns:dc="http://purl.org/dc/elements/1.1/" xmlns:cc="http://creativecommons.org/ns#" xmlns:rdf="http://www.w3.org/1999/02/22-rdf-syntax-ns#">
   <cc:Work>
    <dc:type rdf:resource="http://purl.org/dc/dcmitype/StillImage"/>
    <dc:date>2024-12-15T11:39:40.040416</dc:date>
    <dc:format>image/svg+xml</dc:format>
    <dc:creator>
     <cc:Agent>
      <dc:title>Matplotlib v3.9.3, https://matplotlib.org/</dc:title>
     </cc:Agent>
    </dc:creator>
   </cc:Work>
  </rdf:RDF>
 </metadata>
 <defs>
  <style type="text/css">*{stroke-linejoin: round; stroke-linecap: butt}</style>
 </defs>
 <g id="figure_1">
  <g id="patch_1">
   <path d="M 0 328.1131 
L 364.411125 328.1131 
L 364.411125 0 
L 0 0 
z
" style="fill: #ffffff"/>
  </g>
  <g id="axes_1">
   <g id="patch_2">
    <path d="M 67.040625 271.2006 
L 352.736625 271.2006 
L 352.736625 58.311 
L 67.040625 58.311 
L 67.040625 271.2006 
z
" style="fill: none"/>
   </g>
   <g id="PathCollection_1">
    <defs>
     <path id="ma71b162ad7" d="M 0 3 
C 0.795609 3 1.55874 2.683901 2.12132 2.12132 
C 2.683901 1.55874 3 0.795609 3 0 
C 3 -0.795609 2.683901 -1.55874 2.12132 -2.12132 
C 1.55874 -2.683901 0.795609 -3 0 -3 
C -0.795609 -3 -1.55874 -2.683901 -2.12132 -2.12132 
C -2.683901 -1.55874 -3 -0.795609 -3 0 
C -3 0.795609 -2.683901 1.55874 -2.12132 2.12132 
C -1.55874 2.683901 -0.795609 3 0 3 
z
" style="stroke: #ffffff; stroke-opacity: 0.5; stroke-width: 0.48"/>
    </defs>
    <g clip-path="url(#p20228b688f)">
     <use xlink:href="#ma71b162ad7" x="80.026807" y="261.5238" style="fill-opacity: 0.5; stroke: #ffffff; stroke-opacity: 0.5; stroke-width: 0.48"/>
     <use xlink:href="#ma71b162ad7" x="83.748175" y="230.624032" style="fill-opacity: 0.5; stroke: #ffffff; stroke-opacity: 0.5; stroke-width: 0.48"/>
     <use xlink:href="#ma71b162ad7" x="84.096103" y="234.267777" style="fill-opacity: 0.5; stroke: #ffffff; stroke-opacity: 0.5; stroke-width: 0.48"/>
     <use xlink:href="#ma71b162ad7" x="84.125372" y="254.929144" style="fill-opacity: 0.5; stroke: #ffffff; stroke-opacity: 0.5; stroke-width: 0.48"/>
     <use xlink:href="#ma71b162ad7" x="89.13392" y="211.649327" style="fill-opacity: 0.5; stroke: #ffffff; stroke-opacity: 0.5; stroke-width: 0.48"/>
     <use xlink:href="#ma71b162ad7" x="94.688563" y="195.163271" style="fill-opacity: 0.5; stroke: #ffffff; stroke-opacity: 0.5; stroke-width: 0.48"/>
     <use xlink:href="#ma71b162ad7" x="95.724107" y="200.416402" style="fill-opacity: 0.5; stroke: #ffffff; stroke-opacity: 0.5; stroke-width: 0.48"/>
     <use xlink:href="#ma71b162ad7" x="97.542916" y="210.753891" style="fill-opacity: 0.5; stroke: #ffffff; stroke-opacity: 0.5; stroke-width: 0.48"/>
     <use xlink:href="#ma71b162ad7" x="101.792064" y="211.663417" style="fill-opacity: 0.5; stroke: #ffffff; stroke-opacity: 0.5; stroke-width: 0.48"/>
     <use xlink:href="#ma71b162ad7" x="103.590449" y="186.30132" style="fill-opacity: 0.5; stroke: #ffffff; stroke-opacity: 0.5; stroke-width: 0.48"/>
     <use xlink:href="#ma71b162ad7" x="104.160205" y="200.356828" style="fill-opacity: 0.5; stroke: #ffffff; stroke-opacity: 0.5; stroke-width: 0.48"/>
     <use xlink:href="#ma71b162ad7" x="104.424996" y="183.039678" style="fill-opacity: 0.5; stroke: #ffffff; stroke-opacity: 0.5; stroke-width: 0.48"/>
     <use xlink:href="#ma71b162ad7" x="105.730252" y="191.205494" style="fill-opacity: 0.5; stroke: #ffffff; stroke-opacity: 0.5; stroke-width: 0.48"/>
     <use xlink:href="#ma71b162ad7" x="107.929735" y="179.422556" style="fill-opacity: 0.5; stroke: #ffffff; stroke-opacity: 0.5; stroke-width: 0.48"/>
     <use xlink:href="#ma71b162ad7" x="110.015408" y="182.35064" style="fill-opacity: 0.5; stroke: #ffffff; stroke-opacity: 0.5; stroke-width: 0.48"/>
     <use xlink:href="#ma71b162ad7" x="110.135092" y="178.52674" style="fill-opacity: 0.5; stroke: #ffffff; stroke-opacity: 0.5; stroke-width: 0.48"/>
     <use xlink:href="#ma71b162ad7" x="110.522915" y="185.101105" style="fill-opacity: 0.5; stroke: #ffffff; stroke-opacity: 0.5; stroke-width: 0.48"/>
     <use xlink:href="#ma71b162ad7" x="112.827854" y="163.028713" style="fill-opacity: 0.5; stroke: #ffffff; stroke-opacity: 0.5; stroke-width: 0.48"/>
     <use xlink:href="#ma71b162ad7" x="113.586042" y="179.031257" style="fill-opacity: 0.5; stroke: #ffffff; stroke-opacity: 0.5; stroke-width: 0.48"/>
     <use xlink:href="#ma71b162ad7" x="115.271917" y="173.617286" style="fill-opacity: 0.5; stroke: #ffffff; stroke-opacity: 0.5; stroke-width: 0.48"/>
     <use xlink:href="#ma71b162ad7" x="116.637057" y="156.257146" style="fill-opacity: 0.5; stroke: #ffffff; stroke-opacity: 0.5; stroke-width: 0.48"/>
     <use xlink:href="#ma71b162ad7" x="120.760276" y="183.924058" style="fill-opacity: 0.5; stroke: #ffffff; stroke-opacity: 0.5; stroke-width: 0.48"/>
     <use xlink:href="#ma71b162ad7" x="121.378096" y="182.293992" style="fill-opacity: 0.5; stroke: #ffffff; stroke-opacity: 0.5; stroke-width: 0.48"/>
     <use xlink:href="#ma71b162ad7" x="127.155627" y="151.808227" style="fill-opacity: 0.5; stroke: #ffffff; stroke-opacity: 0.5; stroke-width: 0.48"/>
     <use xlink:href="#ma71b162ad7" x="130.691294" y="169.945974" style="fill-opacity: 0.5; stroke: #ffffff; stroke-opacity: 0.5; stroke-width: 0.48"/>
     <use xlink:href="#ma71b162ad7" x="133.937421" y="134.20608" style="fill-opacity: 0.5; stroke: #ffffff; stroke-opacity: 0.5; stroke-width: 0.48"/>
     <use xlink:href="#ma71b162ad7" x="134.335003" y="158.213072" style="fill-opacity: 0.5; stroke: #ffffff; stroke-opacity: 0.5; stroke-width: 0.48"/>
     <use xlink:href="#ma71b162ad7" x="143.32349" y="153.399955" style="fill-opacity: 0.5; stroke: #ffffff; stroke-opacity: 0.5; stroke-width: 0.48"/>
     <use xlink:href="#ma71b162ad7" x="145.66441" y="123.868414" style="fill-opacity: 0.5; stroke: #ffffff; stroke-opacity: 0.5; stroke-width: 0.48"/>
     <use xlink:href="#ma71b162ad7" x="148.638481" y="126.227018" style="fill-opacity: 0.5; stroke: #ffffff; stroke-opacity: 0.5; stroke-width: 0.48"/>
     <use xlink:href="#ma71b162ad7" x="148.858653" y="122.060621" style="fill-opacity: 0.5; stroke: #ffffff; stroke-opacity: 0.5; stroke-width: 0.48"/>
     <use xlink:href="#ma71b162ad7" x="153.457442" y="128.932237" style="fill-opacity: 0.5; stroke: #ffffff; stroke-opacity: 0.5; stroke-width: 0.48"/>
     <use xlink:href="#ma71b162ad7" x="155.19983" y="146.16738" style="fill-opacity: 0.5; stroke: #ffffff; stroke-opacity: 0.5; stroke-width: 0.48"/>
     <use xlink:href="#ma71b162ad7" x="156.977857" y="116.42981" style="fill-opacity: 0.5; stroke: #ffffff; stroke-opacity: 0.5; stroke-width: 0.48"/>
     <use xlink:href="#ma71b162ad7" x="162.070568" y="136.31871" style="fill-opacity: 0.5; stroke: #ffffff; stroke-opacity: 0.5; stroke-width: 0.48"/>
     <use xlink:href="#ma71b162ad7" x="162.745127" y="124.91003" style="fill-opacity: 0.5; stroke: #ffffff; stroke-opacity: 0.5; stroke-width: 0.48"/>
     <use xlink:href="#ma71b162ad7" x="162.89979" y="123.337586" style="fill-opacity: 0.5; stroke: #ffffff; stroke-opacity: 0.5; stroke-width: 0.48"/>
     <use xlink:href="#ma71b162ad7" x="173.709027" y="130.545662" style="fill-opacity: 0.5; stroke: #ffffff; stroke-opacity: 0.5; stroke-width: 0.48"/>
     <use xlink:href="#ma71b162ad7" x="174.818724" y="122.239733" style="fill-opacity: 0.5; stroke: #ffffff; stroke-opacity: 0.5; stroke-width: 0.48"/>
     <use xlink:href="#ma71b162ad7" x="176.142691" y="118.662812" style="fill-opacity: 0.5; stroke: #ffffff; stroke-opacity: 0.5; stroke-width: 0.48"/>
     <use xlink:href="#ma71b162ad7" x="180.028294" y="123.307525" style="fill-opacity: 0.5; stroke: #ffffff; stroke-opacity: 0.5; stroke-width: 0.48"/>
     <use xlink:href="#ma71b162ad7" x="188.166184" y="137.026421" style="fill-opacity: 0.5; stroke: #ffffff; stroke-opacity: 0.5; stroke-width: 0.48"/>
     <use xlink:href="#ma71b162ad7" x="188.271519" y="122.535167" style="fill-opacity: 0.5; stroke: #ffffff; stroke-opacity: 0.5; stroke-width: 0.48"/>
     <use xlink:href="#ma71b162ad7" x="190.645931" y="111.556084" style="fill-opacity: 0.5; stroke: #ffffff; stroke-opacity: 0.5; stroke-width: 0.48"/>
     <use xlink:href="#ma71b162ad7" x="194.177942" y="132.086923" style="fill-opacity: 0.5; stroke: #ffffff; stroke-opacity: 0.5; stroke-width: 0.48"/>
     <use xlink:href="#ma71b162ad7" x="194.324549" y="126.428651" style="fill-opacity: 0.5; stroke: #ffffff; stroke-opacity: 0.5; stroke-width: 0.48"/>
     <use xlink:href="#ma71b162ad7" x="194.592358" y="129.359946" style="fill-opacity: 0.5; stroke: #ffffff; stroke-opacity: 0.5; stroke-width: 0.48"/>
     <use xlink:href="#ma71b162ad7" x="199.225827" y="105.338709" style="fill-opacity: 0.5; stroke: #ffffff; stroke-opacity: 0.5; stroke-width: 0.48"/>
     <use xlink:href="#ma71b162ad7" x="200.632867" y="117.448622" style="fill-opacity: 0.5; stroke: #ffffff; stroke-opacity: 0.5; stroke-width: 0.48"/>
     <use xlink:href="#ma71b162ad7" x="201.908519" y="120.129949" style="fill-opacity: 0.5; stroke: #ffffff; stroke-opacity: 0.5; stroke-width: 0.48"/>
     <use xlink:href="#ma71b162ad7" x="202.52647" y="132.297852" style="fill-opacity: 0.5; stroke: #ffffff; stroke-opacity: 0.5; stroke-width: 0.48"/>
     <use xlink:href="#ma71b162ad7" x="216.57227" y="118.639146" style="fill-opacity: 0.5; stroke: #ffffff; stroke-opacity: 0.5; stroke-width: 0.48"/>
     <use xlink:href="#ma71b162ad7" x="216.941846" y="131.215168" style="fill-opacity: 0.5; stroke: #ffffff; stroke-opacity: 0.5; stroke-width: 0.48"/>
     <use xlink:href="#ma71b162ad7" x="218.432805" y="123.932504" style="fill-opacity: 0.5; stroke: #ffffff; stroke-opacity: 0.5; stroke-width: 0.48"/>
     <use xlink:href="#ma71b162ad7" x="222.654236" y="130.957043" style="fill-opacity: 0.5; stroke: #ffffff; stroke-opacity: 0.5; stroke-width: 0.48"/>
     <use xlink:href="#ma71b162ad7" x="223.69197" y="117.395946" style="fill-opacity: 0.5; stroke: #ffffff; stroke-opacity: 0.5; stroke-width: 0.48"/>
     <use xlink:href="#ma71b162ad7" x="228.388578" y="118.572108" style="fill-opacity: 0.5; stroke: #ffffff; stroke-opacity: 0.5; stroke-width: 0.48"/>
     <use xlink:href="#ma71b162ad7" x="228.769606" y="126.712653" style="fill-opacity: 0.5; stroke: #ffffff; stroke-opacity: 0.5; stroke-width: 0.48"/>
     <use xlink:href="#ma71b162ad7" x="228.872417" y="120.456916" style="fill-opacity: 0.5; stroke: #ffffff; stroke-opacity: 0.5; stroke-width: 0.48"/>
     <use xlink:href="#ma71b162ad7" x="229.33786" y="135.893048" style="fill-opacity: 0.5; stroke: #ffffff; stroke-opacity: 0.5; stroke-width: 0.48"/>
     <use xlink:href="#ma71b162ad7" x="230.855978" y="140.061056" style="fill-opacity: 0.5; stroke: #ffffff; stroke-opacity: 0.5; stroke-width: 0.48"/>
     <use xlink:href="#ma71b162ad7" x="233.645868" y="120.138848" style="fill-opacity: 0.5; stroke: #ffffff; stroke-opacity: 0.5; stroke-width: 0.48"/>
     <use xlink:href="#ma71b162ad7" x="237.936522" y="123.047933" style="fill-opacity: 0.5; stroke: #ffffff; stroke-opacity: 0.5; stroke-width: 0.48"/>
     <use xlink:href="#ma71b162ad7" x="238.486277" y="118.204627" style="fill-opacity: 0.5; stroke: #ffffff; stroke-opacity: 0.5; stroke-width: 0.48"/>
     <use xlink:href="#ma71b162ad7" x="240.40057" y="100.118213" style="fill-opacity: 0.5; stroke: #ffffff; stroke-opacity: 0.5; stroke-width: 0.48"/>
     <use xlink:href="#ma71b162ad7" x="241.678035" y="115.024194" style="fill-opacity: 0.5; stroke: #ffffff; stroke-opacity: 0.5; stroke-width: 0.48"/>
     <use xlink:href="#ma71b162ad7" x="241.863254" y="134.260644" style="fill-opacity: 0.5; stroke: #ffffff; stroke-opacity: 0.5; stroke-width: 0.48"/>
     <use xlink:href="#ma71b162ad7" x="247.74737" y="113.171967" style="fill-opacity: 0.5; stroke: #ffffff; stroke-opacity: 0.5; stroke-width: 0.48"/>
     <use xlink:href="#ma71b162ad7" x="249.324464" y="138.323473" style="fill-opacity: 0.5; stroke: #ffffff; stroke-opacity: 0.5; stroke-width: 0.48"/>
     <use xlink:href="#ma71b162ad7" x="251.229254" y="129.400483" style="fill-opacity: 0.5; stroke: #ffffff; stroke-opacity: 0.5; stroke-width: 0.48"/>
     <use xlink:href="#ma71b162ad7" x="252.079775" y="125.286193" style="fill-opacity: 0.5; stroke: #ffffff; stroke-opacity: 0.5; stroke-width: 0.48"/>
     <use xlink:href="#ma71b162ad7" x="254.835521" y="106.67114" style="fill-opacity: 0.5; stroke: #ffffff; stroke-opacity: 0.5; stroke-width: 0.48"/>
     <use xlink:href="#ma71b162ad7" x="255.00547" y="132.117971" style="fill-opacity: 0.5; stroke: #ffffff; stroke-opacity: 0.5; stroke-width: 0.48"/>
     <use xlink:href="#ma71b162ad7" x="255.857634" y="132.901979" style="fill-opacity: 0.5; stroke: #ffffff; stroke-opacity: 0.5; stroke-width: 0.48"/>
     <use xlink:href="#ma71b162ad7" x="258.810165" y="125.105746" style="fill-opacity: 0.5; stroke: #ffffff; stroke-opacity: 0.5; stroke-width: 0.48"/>
     <use xlink:href="#ma71b162ad7" x="261.622598" y="130.648863" style="fill-opacity: 0.5; stroke: #ffffff; stroke-opacity: 0.5; stroke-width: 0.48"/>
     <use xlink:href="#ma71b162ad7" x="262.984765" y="111.934692" style="fill-opacity: 0.5; stroke: #ffffff; stroke-opacity: 0.5; stroke-width: 0.48"/>
     <use xlink:href="#ma71b162ad7" x="267.620703" y="134.067285" style="fill-opacity: 0.5; stroke: #ffffff; stroke-opacity: 0.5; stroke-width: 0.48"/>
     <use xlink:href="#ma71b162ad7" x="267.92113" y="134.712788" style="fill-opacity: 0.5; stroke: #ffffff; stroke-opacity: 0.5; stroke-width: 0.48"/>
     <use xlink:href="#ma71b162ad7" x="273.977092" y="126.068842" style="fill-opacity: 0.5; stroke: #ffffff; stroke-opacity: 0.5; stroke-width: 0.48"/>
     <use xlink:href="#ma71b162ad7" x="283.210358" y="123.873422" style="fill-opacity: 0.5; stroke: #ffffff; stroke-opacity: 0.5; stroke-width: 0.48"/>
     <use xlink:href="#ma71b162ad7" x="284.246176" y="98.343933" style="fill-opacity: 0.5; stroke: #ffffff; stroke-opacity: 0.5; stroke-width: 0.48"/>
     <use xlink:href="#ma71b162ad7" x="284.872575" y="108.253443" style="fill-opacity: 0.5; stroke: #ffffff; stroke-opacity: 0.5; stroke-width: 0.48"/>
     <use xlink:href="#ma71b162ad7" x="287.828653" y="115.962699" style="fill-opacity: 0.5; stroke: #ffffff; stroke-opacity: 0.5; stroke-width: 0.48"/>
     <use xlink:href="#ma71b162ad7" x="289.79135" y="128.680493" style="fill-opacity: 0.5; stroke: #ffffff; stroke-opacity: 0.5; stroke-width: 0.48"/>
     <use xlink:href="#ma71b162ad7" x="295.556424" y="104.301065" style="fill-opacity: 0.5; stroke: #ffffff; stroke-opacity: 0.5; stroke-width: 0.48"/>
     <use xlink:href="#ma71b162ad7" x="297.654642" y="122.196285" style="fill-opacity: 0.5; stroke: #ffffff; stroke-opacity: 0.5; stroke-width: 0.48"/>
     <use xlink:href="#ma71b162ad7" x="298.626235" y="127.250302" style="fill-opacity: 0.5; stroke: #ffffff; stroke-opacity: 0.5; stroke-width: 0.48"/>
     <use xlink:href="#ma71b162ad7" x="300.032228" y="98.068837" style="fill-opacity: 0.5; stroke: #ffffff; stroke-opacity: 0.5; stroke-width: 0.48"/>
     <use xlink:href="#ma71b162ad7" x="308.499041" y="101.021459" style="fill-opacity: 0.5; stroke: #ffffff; stroke-opacity: 0.5; stroke-width: 0.48"/>
     <use xlink:href="#ma71b162ad7" x="314.244626" y="89.83036" style="fill-opacity: 0.5; stroke: #ffffff; stroke-opacity: 0.5; stroke-width: 0.48"/>
     <use xlink:href="#ma71b162ad7" x="323.175185" y="86.956574" style="fill-opacity: 0.5; stroke: #ffffff; stroke-opacity: 0.5; stroke-width: 0.48"/>
     <use xlink:href="#ma71b162ad7" x="324.151991" y="80.274618" style="fill-opacity: 0.5; stroke: #ffffff; stroke-opacity: 0.5; stroke-width: 0.48"/>
     <use xlink:href="#ma71b162ad7" x="327.967766" y="91.337416" style="fill-opacity: 0.5; stroke: #ffffff; stroke-opacity: 0.5; stroke-width: 0.48"/>
     <use xlink:href="#ma71b162ad7" x="328.210898" y="95.004009" style="fill-opacity: 0.5; stroke: #ffffff; stroke-opacity: 0.5; stroke-width: 0.48"/>
     <use xlink:href="#ma71b162ad7" x="333.225901" y="70.659181" style="fill-opacity: 0.5; stroke: #ffffff; stroke-opacity: 0.5; stroke-width: 0.48"/>
     <use xlink:href="#ma71b162ad7" x="336.604654" y="81.238522" style="fill-opacity: 0.5; stroke: #ffffff; stroke-opacity: 0.5; stroke-width: 0.48"/>
     <use xlink:href="#ma71b162ad7" x="336.684293" y="79.942406" style="fill-opacity: 0.5; stroke: #ffffff; stroke-opacity: 0.5; stroke-width: 0.48"/>
     <use xlink:href="#ma71b162ad7" x="337.174669" y="76.795267" style="fill-opacity: 0.5; stroke: #ffffff; stroke-opacity: 0.5; stroke-width: 0.48"/>
     <use xlink:href="#ma71b162ad7" x="339.750443" y="67.9878" style="fill-opacity: 0.5; stroke: #ffffff; stroke-opacity: 0.5; stroke-width: 0.48"/>
    </g>
   </g>
   <g id="matplotlib.axis_1">
    <g id="xtick_1">
     <g id="line2d_1">
      <defs>
       <path id="m8afd15678f" d="M 0 0 
L 0 3.5 
" style="stroke: #000000; stroke-width: 0.8"/>
      </defs>
      <g>
       <use xlink:href="#m8afd15678f" x="116.506058" y="271.2006" style="stroke: #000000; stroke-width: 0.8"/>
      </g>
     </g>
     <g id="text_1">
      <!-- −1 -->
      <g transform="translate(101.763871 293.397475) scale(0.2 -0.2)">
       <defs>
        <path id="DejaVuSans-2212" d="M 678 2272 
L 4684 2272 
L 4684 1741 
L 678 1741 
L 678 2272 
z
" transform="scale(0.015625)"/>
        <path id="DejaVuSans-31" d="M 794 531 
L 1825 531 
L 1825 4091 
L 703 3866 
L 703 4441 
L 1819 4666 
L 2450 4666 
L 2450 531 
L 3481 531 
L 3481 0 
L 794 0 
L 794 531 
z
" transform="scale(0.015625)"/>
       </defs>
       <use xlink:href="#DejaVuSans-2212"/>
       <use xlink:href="#DejaVuSans-31" x="83.789062"/>
      </g>
     </g>
    </g>
    <g id="xtick_2">
     <g id="line2d_2">
      <g>
       <use xlink:href="#m8afd15678f" x="210.80359" y="271.2006" style="stroke: #000000; stroke-width: 0.8"/>
      </g>
     </g>
     <g id="text_2">
      <!-- 0 -->
      <g transform="translate(204.44109 293.397475) scale(0.2 -0.2)">
       <defs>
        <path id="DejaVuSans-30" d="M 2034 4250 
Q 1547 4250 1301 3770 
Q 1056 3291 1056 2328 
Q 1056 1369 1301 889 
Q 1547 409 2034 409 
Q 2525 409 2770 889 
Q 3016 1369 3016 2328 
Q 3016 3291 2770 3770 
Q 2525 4250 2034 4250 
z
M 2034 4750 
Q 2819 4750 3233 4129 
Q 3647 3509 3647 2328 
Q 3647 1150 3233 529 
Q 2819 -91 2034 -91 
Q 1250 -91 836 529 
Q 422 1150 422 2328 
Q 422 3509 836 4129 
Q 1250 4750 2034 4750 
z
" transform="scale(0.015625)"/>
       </defs>
       <use xlink:href="#DejaVuSans-30"/>
      </g>
     </g>
    </g>
    <g id="xtick_3">
     <g id="line2d_3">
      <g>
       <use xlink:href="#m8afd15678f" x="305.101122" y="271.2006" style="stroke: #000000; stroke-width: 0.8"/>
      </g>
     </g>
     <g id="text_3">
      <!-- 1 -->
      <g transform="translate(298.738622 293.397475) scale(0.2 -0.2)">
       <use xlink:href="#DejaVuSans-31"/>
      </g>
     </g>
    </g>
    <g id="text_4">
     <!-- X -->
     <g transform="translate(203.038625 316.753725) scale(0.2 -0.2)">
      <defs>
       <path id="DejaVuSans-58" d="M 403 4666 
L 1081 4666 
L 2241 2931 
L 3406 4666 
L 4084 4666 
L 2584 2425 
L 4184 0 
L 3506 0 
L 2194 1984 
L 872 0 
L 191 0 
L 1856 2491 
L 403 4666 
z
" transform="scale(0.015625)"/>
      </defs>
      <use xlink:href="#DejaVuSans-58"/>
     </g>
    </g>
   </g>
   <g id="matplotlib.axis_2">
    <g id="ytick_1">
     <g id="line2d_4">
      <defs>
       <path id="md1865c6a08" d="M 0 0 
L -3.5 0 
" style="stroke: #000000; stroke-width: 0.8"/>
      </defs>
      <g>
       <use xlink:href="#md1865c6a08" x="67.040625" y="262.261134" style="stroke: #000000; stroke-width: 0.8"/>
      </g>
     </g>
     <g id="text_5">
      <!-- −4 -->
      <g transform="translate(30.55625 269.859571) scale(0.2 -0.2)">
       <defs>
        <path id="DejaVuSans-34" d="M 2419 4116 
L 825 1625 
L 2419 1625 
L 2419 4116 
z
M 2253 4666 
L 3047 4666 
L 3047 1625 
L 3713 1625 
L 3713 1100 
L 3047 1100 
L 3047 0 
L 2419 0 
L 2419 1100 
L 313 1100 
L 313 1709 
L 2253 4666 
z
" transform="scale(0.015625)"/>
       </defs>
       <use xlink:href="#DejaVuSans-2212"/>
       <use xlink:href="#DejaVuSans-34" x="83.789062"/>
      </g>
     </g>
    </g>
    <g id="ytick_2">
     <g id="line2d_5">
      <g>
       <use xlink:href="#md1865c6a08" x="67.040625" y="193.2143" style="stroke: #000000; stroke-width: 0.8"/>
      </g>
     </g>
     <g id="text_6">
      <!-- −2 -->
      <g transform="translate(30.55625 200.812738) scale(0.2 -0.2)">
       <defs>
        <path id="DejaVuSans-32" d="M 1228 531 
L 3431 531 
L 3431 0 
L 469 0 
L 469 531 
Q 828 903 1448 1529 
Q 2069 2156 2228 2338 
Q 2531 2678 2651 2914 
Q 2772 3150 2772 3378 
Q 2772 3750 2511 3984 
Q 2250 4219 1831 4219 
Q 1534 4219 1204 4116 
Q 875 4013 500 3803 
L 500 4441 
Q 881 4594 1212 4672 
Q 1544 4750 1819 4750 
Q 2544 4750 2975 4387 
Q 3406 4025 3406 3419 
Q 3406 3131 3298 2873 
Q 3191 2616 2906 2266 
Q 2828 2175 2409 1742 
Q 1991 1309 1228 531 
z
" transform="scale(0.015625)"/>
       </defs>
       <use xlink:href="#DejaVuSans-2212"/>
       <use xlink:href="#DejaVuSans-32" x="83.789062"/>
      </g>
     </g>
    </g>
    <g id="ytick_3">
     <g id="line2d_6">
      <g>
       <use xlink:href="#md1865c6a08" x="67.040625" y="124.167467" style="stroke: #000000; stroke-width: 0.8"/>
      </g>
     </g>
     <g id="text_7">
      <!-- 0 -->
      <g transform="translate(47.315625 131.765904) scale(0.2 -0.2)">
       <use xlink:href="#DejaVuSans-30"/>
      </g>
     </g>
    </g>
    <g id="text_8">
     <!-- Y -->
     <g transform="translate(22.396875 170.863613) rotate(-90) scale(0.2 -0.2)">
      <defs>
       <path id="DejaVuSans-59" d="M -13 4666 
L 666 4666 
L 1959 2747 
L 3244 4666 
L 3922 4666 
L 2272 2222 
L 2272 0 
L 1638 0 
L 1638 2222 
L -13 4666 
z
" transform="scale(0.015625)"/>
      </defs>
      <use xlink:href="#DejaVuSans-59"/>
     </g>
    </g>
   </g>
   <g id="line2d_7">
    <path d="M 80.026807 247.426148 
L 83.748175 237.52439 
L 84.096103 236.625474 
L 84.125372 236.550063 
L 89.13392 224.11326 
L 94.688563 211.381152 
L 95.724107 209.127409 
L 97.542916 205.258259 
L 101.792064 196.654377 
L 103.590449 193.192778 
L 104.160205 192.11801 
L 104.424996 191.622084 
L 105.730252 189.210327 
L 107.929735 185.268622 
L 110.015408 181.670512 
L 110.135092 181.468111 
L 110.522915 180.815267 
L 112.827854 177.029527 
L 113.586042 175.819172 
L 115.271917 173.188987 
L 116.637057 171.120261 
L 120.760276 165.196625 
L 121.378096 164.350268 
L 127.155627 156.938635 
L 130.691294 152.836863 
L 133.937421 149.34891 
L 134.335003 148.93954 
L 143.32349 140.676025 
L 145.66441 138.821893 
L 148.638481 136.633917 
L 148.858653 136.479228 
L 153.457442 133.470214 
L 155.19983 132.437661 
L 156.977857 131.442653 
L 162.070568 128.907371 
L 162.745127 128.605251 
L 162.89979 128.537058 
L 173.709027 124.705867 
L 174.818724 124.409838 
L 176.142691 124.07847 
L 180.028294 123.237423 
L 188.166184 122.053871 
L 188.271519 122.043216 
L 190.645931 121.831916 
L 194.177942 121.614397 
L 194.324549 121.607727 
L 194.592358 121.596008 
L 199.225827 121.483586 
L 200.632867 121.480889 
L 201.908519 121.490002 
L 202.52647 121.498198 
L 216.57227 122.205583 
L 216.941846 122.234148 
L 218.432805 122.352623 
L 222.654236 122.709762 
L 223.69197 122.800844 
L 228.388578 123.217478 
L 228.769606 123.251075 
L 228.872417 123.260124 
L 229.33786 123.30099 
L 230.855978 123.432875 
L 233.645868 123.667101 
L 237.936522 123.995243 
L 238.486277 124.033583 
L 240.40057 124.159116 
L 241.678035 124.235328 
L 241.863254 124.245835 
L 247.74737 124.496548 
L 249.324464 124.532407 
L 251.229254 124.555317 
L 252.079775 124.557893 
L 254.835521 124.531362 
L 255.00547 124.527898 
L 255.857634 124.507184 
L 258.810165 124.390292 
L 261.622598 124.209093 
L 262.984765 124.095048 
L 267.620703 123.567594 
L 267.92113 123.525572 
L 273.977092 122.456316 
L 283.210358 119.914377 
L 284.246176 119.552872 
L 284.872575 119.326284 
L 287.828653 118.173738 
L 289.79135 117.33026 
L 295.556424 114.470673 
L 297.654642 113.2813 
L 298.626235 112.702527 
L 300.032228 111.832914 
L 308.499041 105.75427 
L 314.244626 100.750722 
L 323.175185 91.429797 
L 324.151991 90.289637 
L 327.967766 85.596687 
L 328.210898 85.284545 
L 333.225901 78.485002 
L 336.604654 73.504816 
L 336.684293 73.383452 
L 337.174669 72.632064 
L 339.750443 68.568724 
" clip-path="url(#p20228b688f)" style="fill: none; stroke: #1f77b4; stroke-width: 3; stroke-linecap: square"/>
   </g>
   <g id="patch_3">
    <path d="M 67.040625 271.2006 
L 67.040625 58.311 
" style="fill: none; stroke: #000000; stroke-width: 0.8; stroke-linejoin: miter; stroke-linecap: square"/>
   </g>
   <g id="patch_4">
    <path d="M 352.736625 271.2006 
L 352.736625 58.311 
" style="fill: none; stroke: #000000; stroke-width: 0.8; stroke-linejoin: miter; stroke-linecap: square"/>
   </g>
   <g id="patch_5">
    <path d="M 67.040625 271.2006 
L 352.736625 271.2006 
" style="fill: none; stroke: #000000; stroke-width: 0.8; stroke-linejoin: miter; stroke-linecap: square"/>
   </g>
   <g id="patch_6">
    <path d="M 67.040625 58.311 
L 352.736625 58.311 
" style="fill: none; stroke: #000000; stroke-width: 0.8; stroke-linejoin: miter; stroke-linecap: square"/>
   </g>
   <g id="text_9">
    <!-- Polynomial regression -->
    <g transform="translate(78.342375 25.43625) scale(0.24 -0.24)">
     <defs>
      <path id="DejaVuSans-50" d="M 1259 4147 
L 1259 2394 
L 2053 2394 
Q 2494 2394 2734 2622 
Q 2975 2850 2975 3272 
Q 2975 3691 2734 3919 
Q 2494 4147 2053 4147 
L 1259 4147 
z
M 628 4666 
L 2053 4666 
Q 2838 4666 3239 4311 
Q 3641 3956 3641 3272 
Q 3641 2581 3239 2228 
Q 2838 1875 2053 1875 
L 1259 1875 
L 1259 0 
L 628 0 
L 628 4666 
z
" transform="scale(0.015625)"/>
      <path id="DejaVuSans-6f" d="M 1959 3097 
Q 1497 3097 1228 2736 
Q 959 2375 959 1747 
Q 959 1119 1226 758 
Q 1494 397 1959 397 
Q 2419 397 2687 759 
Q 2956 1122 2956 1747 
Q 2956 2369 2687 2733 
Q 2419 3097 1959 3097 
z
M 1959 3584 
Q 2709 3584 3137 3096 
Q 3566 2609 3566 1747 
Q 3566 888 3137 398 
Q 2709 -91 1959 -91 
Q 1206 -91 779 398 
Q 353 888 353 1747 
Q 353 2609 779 3096 
Q 1206 3584 1959 3584 
z
" transform="scale(0.015625)"/>
      <path id="DejaVuSans-6c" d="M 603 4863 
L 1178 4863 
L 1178 0 
L 603 0 
L 603 4863 
z
" transform="scale(0.015625)"/>
      <path id="DejaVuSans-79" d="M 2059 -325 
Q 1816 -950 1584 -1140 
Q 1353 -1331 966 -1331 
L 506 -1331 
L 506 -850 
L 844 -850 
Q 1081 -850 1212 -737 
Q 1344 -625 1503 -206 
L 1606 56 
L 191 3500 
L 800 3500 
L 1894 763 
L 2988 3500 
L 3597 3500 
L 2059 -325 
z
" transform="scale(0.015625)"/>
      <path id="DejaVuSans-6e" d="M 3513 2113 
L 3513 0 
L 2938 0 
L 2938 2094 
Q 2938 2591 2744 2837 
Q 2550 3084 2163 3084 
Q 1697 3084 1428 2787 
Q 1159 2491 1159 1978 
L 1159 0 
L 581 0 
L 581 3500 
L 1159 3500 
L 1159 2956 
Q 1366 3272 1645 3428 
Q 1925 3584 2291 3584 
Q 2894 3584 3203 3211 
Q 3513 2838 3513 2113 
z
" transform="scale(0.015625)"/>
      <path id="DejaVuSans-6d" d="M 3328 2828 
Q 3544 3216 3844 3400 
Q 4144 3584 4550 3584 
Q 5097 3584 5394 3201 
Q 5691 2819 5691 2113 
L 5691 0 
L 5113 0 
L 5113 2094 
Q 5113 2597 4934 2840 
Q 4756 3084 4391 3084 
Q 3944 3084 3684 2787 
Q 3425 2491 3425 1978 
L 3425 0 
L 2847 0 
L 2847 2094 
Q 2847 2600 2669 2842 
Q 2491 3084 2119 3084 
Q 1678 3084 1418 2786 
Q 1159 2488 1159 1978 
L 1159 0 
L 581 0 
L 581 3500 
L 1159 3500 
L 1159 2956 
Q 1356 3278 1631 3431 
Q 1906 3584 2284 3584 
Q 2666 3584 2933 3390 
Q 3200 3197 3328 2828 
z
" transform="scale(0.015625)"/>
      <path id="DejaVuSans-69" d="M 603 3500 
L 1178 3500 
L 1178 0 
L 603 0 
L 603 3500 
z
M 603 4863 
L 1178 4863 
L 1178 4134 
L 603 4134 
L 603 4863 
z
" transform="scale(0.015625)"/>
      <path id="DejaVuSans-61" d="M 2194 1759 
Q 1497 1759 1228 1600 
Q 959 1441 959 1056 
Q 959 750 1161 570 
Q 1363 391 1709 391 
Q 2188 391 2477 730 
Q 2766 1069 2766 1631 
L 2766 1759 
L 2194 1759 
z
M 3341 1997 
L 3341 0 
L 2766 0 
L 2766 531 
Q 2569 213 2275 61 
Q 1981 -91 1556 -91 
Q 1019 -91 701 211 
Q 384 513 384 1019 
Q 384 1609 779 1909 
Q 1175 2209 1959 2209 
L 2766 2209 
L 2766 2266 
Q 2766 2663 2505 2880 
Q 2244 3097 1772 3097 
Q 1472 3097 1187 3025 
Q 903 2953 641 2809 
L 641 3341 
Q 956 3463 1253 3523 
Q 1550 3584 1831 3584 
Q 2591 3584 2966 3190 
Q 3341 2797 3341 1997 
z
" transform="scale(0.015625)"/>
      <path id="DejaVuSans-20" transform="scale(0.015625)"/>
      <path id="DejaVuSans-72" d="M 2631 2963 
Q 2534 3019 2420 3045 
Q 2306 3072 2169 3072 
Q 1681 3072 1420 2755 
Q 1159 2438 1159 1844 
L 1159 0 
L 581 0 
L 581 3500 
L 1159 3500 
L 1159 2956 
Q 1341 3275 1631 3429 
Q 1922 3584 2338 3584 
Q 2397 3584 2469 3576 
Q 2541 3569 2628 3553 
L 2631 2963 
z
" transform="scale(0.015625)"/>
      <path id="DejaVuSans-65" d="M 3597 1894 
L 3597 1613 
L 953 1613 
Q 991 1019 1311 708 
Q 1631 397 2203 397 
Q 2534 397 2845 478 
Q 3156 559 3463 722 
L 3463 178 
Q 3153 47 2828 -22 
Q 2503 -91 2169 -91 
Q 1331 -91 842 396 
Q 353 884 353 1716 
Q 353 2575 817 3079 
Q 1281 3584 2069 3584 
Q 2775 3584 3186 3129 
Q 3597 2675 3597 1894 
z
M 3022 2063 
Q 3016 2534 2758 2815 
Q 2500 3097 2075 3097 
Q 1594 3097 1305 2825 
Q 1016 2553 972 2059 
L 3022 2063 
z
" transform="scale(0.015625)"/>
      <path id="DejaVuSans-67" d="M 2906 1791 
Q 2906 2416 2648 2759 
Q 2391 3103 1925 3103 
Q 1463 3103 1205 2759 
Q 947 2416 947 1791 
Q 947 1169 1205 825 
Q 1463 481 1925 481 
Q 2391 481 2648 825 
Q 2906 1169 2906 1791 
z
M 3481 434 
Q 3481 -459 3084 -895 
Q 2688 -1331 1869 -1331 
Q 1566 -1331 1297 -1286 
Q 1028 -1241 775 -1147 
L 775 -588 
Q 1028 -725 1275 -790 
Q 1522 -856 1778 -856 
Q 2344 -856 2625 -561 
Q 2906 -266 2906 331 
L 2906 616 
Q 2728 306 2450 153 
Q 2172 0 1784 0 
Q 1141 0 747 490 
Q 353 981 353 1791 
Q 353 2603 747 3093 
Q 1141 3584 1784 3584 
Q 2172 3584 2450 3431 
Q 2728 3278 2906 2969 
L 2906 3500 
L 3481 3500 
L 3481 434 
z
" transform="scale(0.015625)"/>
      <path id="DejaVuSans-73" d="M 2834 3397 
L 2834 2853 
Q 2591 2978 2328 3040 
Q 2066 3103 1784 3103 
Q 1356 3103 1142 2972 
Q 928 2841 928 2578 
Q 928 2378 1081 2264 
Q 1234 2150 1697 2047 
L 1894 2003 
Q 2506 1872 2764 1633 
Q 3022 1394 3022 966 
Q 3022 478 2636 193 
Q 2250 -91 1575 -91 
Q 1294 -91 989 -36 
Q 684 19 347 128 
L 347 722 
Q 666 556 975 473 
Q 1284 391 1588 391 
Q 1994 391 2212 530 
Q 2431 669 2431 922 
Q 2431 1156 2273 1281 
Q 2116 1406 1581 1522 
L 1381 1569 
Q 847 1681 609 1914 
Q 372 2147 372 2553 
Q 372 3047 722 3315 
Q 1072 3584 1716 3584 
Q 2034 3584 2315 3537 
Q 2597 3491 2834 3397 
z
" transform="scale(0.015625)"/>
     </defs>
     <use xlink:href="#DejaVuSans-50"/>
     <use xlink:href="#DejaVuSans-6f" x="56.677734"/>
     <use xlink:href="#DejaVuSans-6c" x="117.859375"/>
     <use xlink:href="#DejaVuSans-79" x="145.642578"/>
     <use xlink:href="#DejaVuSans-6e" x="204.822266"/>
     <use xlink:href="#DejaVuSans-6f" x="268.201172"/>
     <use xlink:href="#DejaVuSans-6d" x="329.382812"/>
     <use xlink:href="#DejaVuSans-69" x="426.794922"/>
     <use xlink:href="#DejaVuSans-61" x="454.578125"/>
     <use xlink:href="#DejaVuSans-6c" x="515.857422"/>
     <use xlink:href="#DejaVuSans-20" x="543.640625"/>
     <use xlink:href="#DejaVuSans-72" x="575.427734"/>
     <use xlink:href="#DejaVuSans-65" x="614.291016"/>
     <use xlink:href="#DejaVuSans-67" x="675.814453"/>
     <use xlink:href="#DejaVuSans-72" x="739.291016"/>
     <use xlink:href="#DejaVuSans-65" x="778.154297"/>
     <use xlink:href="#DejaVuSans-73" x="839.677734"/>
     <use xlink:href="#DejaVuSans-73" x="891.777344"/>
     <use xlink:href="#DejaVuSans-69" x="943.876953"/>
     <use xlink:href="#DejaVuSans-6f" x="971.660156"/>
     <use xlink:href="#DejaVuSans-6e" x="1032.841797"/>
    </g>
    <!-- (MSE = 0.09, R2 = 0.93) -->
    <g transform="translate(62.566125 52.311) scale(0.24 -0.24)">
     <defs>
      <path id="DejaVuSans-28" d="M 1984 4856 
Q 1566 4138 1362 3434 
Q 1159 2731 1159 2009 
Q 1159 1288 1364 580 
Q 1569 -128 1984 -844 
L 1484 -844 
Q 1016 -109 783 600 
Q 550 1309 550 2009 
Q 550 2706 781 3412 
Q 1013 4119 1484 4856 
L 1984 4856 
z
" transform="scale(0.015625)"/>
      <path id="DejaVuSans-4d" d="M 628 4666 
L 1569 4666 
L 2759 1491 
L 3956 4666 
L 4897 4666 
L 4897 0 
L 4281 0 
L 4281 4097 
L 3078 897 
L 2444 897 
L 1241 4097 
L 1241 0 
L 628 0 
L 628 4666 
z
" transform="scale(0.015625)"/>
      <path id="DejaVuSans-53" d="M 3425 4513 
L 3425 3897 
Q 3066 4069 2747 4153 
Q 2428 4238 2131 4238 
Q 1616 4238 1336 4038 
Q 1056 3838 1056 3469 
Q 1056 3159 1242 3001 
Q 1428 2844 1947 2747 
L 2328 2669 
Q 3034 2534 3370 2195 
Q 3706 1856 3706 1288 
Q 3706 609 3251 259 
Q 2797 -91 1919 -91 
Q 1588 -91 1214 -16 
Q 841 59 441 206 
L 441 856 
Q 825 641 1194 531 
Q 1563 422 1919 422 
Q 2459 422 2753 634 
Q 3047 847 3047 1241 
Q 3047 1584 2836 1778 
Q 2625 1972 2144 2069 
L 1759 2144 
Q 1053 2284 737 2584 
Q 422 2884 422 3419 
Q 422 4038 858 4394 
Q 1294 4750 2059 4750 
Q 2388 4750 2728 4690 
Q 3069 4631 3425 4513 
z
" transform="scale(0.015625)"/>
      <path id="DejaVuSans-45" d="M 628 4666 
L 3578 4666 
L 3578 4134 
L 1259 4134 
L 1259 2753 
L 3481 2753 
L 3481 2222 
L 1259 2222 
L 1259 531 
L 3634 531 
L 3634 0 
L 628 0 
L 628 4666 
z
" transform="scale(0.015625)"/>
      <path id="DejaVuSans-3d" d="M 678 2906 
L 4684 2906 
L 4684 2381 
L 678 2381 
L 678 2906 
z
M 678 1631 
L 4684 1631 
L 4684 1100 
L 678 1100 
L 678 1631 
z
" transform="scale(0.015625)"/>
      <path id="DejaVuSans-2e" d="M 684 794 
L 1344 794 
L 1344 0 
L 684 0 
L 684 794 
z
" transform="scale(0.015625)"/>
      <path id="DejaVuSans-39" d="M 703 97 
L 703 672 
Q 941 559 1184 500 
Q 1428 441 1663 441 
Q 2288 441 2617 861 
Q 2947 1281 2994 2138 
Q 2813 1869 2534 1725 
Q 2256 1581 1919 1581 
Q 1219 1581 811 2004 
Q 403 2428 403 3163 
Q 403 3881 828 4315 
Q 1253 4750 1959 4750 
Q 2769 4750 3195 4129 
Q 3622 3509 3622 2328 
Q 3622 1225 3098 567 
Q 2575 -91 1691 -91 
Q 1453 -91 1209 -44 
Q 966 3 703 97 
z
M 1959 2075 
Q 2384 2075 2632 2365 
Q 2881 2656 2881 3163 
Q 2881 3666 2632 3958 
Q 2384 4250 1959 4250 
Q 1534 4250 1286 3958 
Q 1038 3666 1038 3163 
Q 1038 2656 1286 2365 
Q 1534 2075 1959 2075 
z
" transform="scale(0.015625)"/>
      <path id="DejaVuSans-2c" d="M 750 794 
L 1409 794 
L 1409 256 
L 897 -744 
L 494 -744 
L 750 256 
L 750 794 
z
" transform="scale(0.015625)"/>
      <path id="DejaVuSans-52" d="M 2841 2188 
Q 3044 2119 3236 1894 
Q 3428 1669 3622 1275 
L 4263 0 
L 3584 0 
L 2988 1197 
Q 2756 1666 2539 1819 
Q 2322 1972 1947 1972 
L 1259 1972 
L 1259 0 
L 628 0 
L 628 4666 
L 2053 4666 
Q 2853 4666 3247 4331 
Q 3641 3997 3641 3322 
Q 3641 2881 3436 2590 
Q 3231 2300 2841 2188 
z
M 1259 4147 
L 1259 2491 
L 2053 2491 
Q 2509 2491 2742 2702 
Q 2975 2913 2975 3322 
Q 2975 3731 2742 3939 
Q 2509 4147 2053 4147 
L 1259 4147 
z
" transform="scale(0.015625)"/>
      <path id="DejaVuSans-33" d="M 2597 2516 
Q 3050 2419 3304 2112 
Q 3559 1806 3559 1356 
Q 3559 666 3084 287 
Q 2609 -91 1734 -91 
Q 1441 -91 1130 -33 
Q 819 25 488 141 
L 488 750 
Q 750 597 1062 519 
Q 1375 441 1716 441 
Q 2309 441 2620 675 
Q 2931 909 2931 1356 
Q 2931 1769 2642 2001 
Q 2353 2234 1838 2234 
L 1294 2234 
L 1294 2753 
L 1863 2753 
Q 2328 2753 2575 2939 
Q 2822 3125 2822 3475 
Q 2822 3834 2567 4026 
Q 2313 4219 1838 4219 
Q 1578 4219 1281 4162 
Q 984 4106 628 3988 
L 628 4550 
Q 988 4650 1302 4700 
Q 1616 4750 1894 4750 
Q 2613 4750 3031 4423 
Q 3450 4097 3450 3541 
Q 3450 3153 3228 2886 
Q 3006 2619 2597 2516 
z
" transform="scale(0.015625)"/>
      <path id="DejaVuSans-29" d="M 513 4856 
L 1013 4856 
Q 1481 4119 1714 3412 
Q 1947 2706 1947 2009 
Q 1947 1309 1714 600 
Q 1481 -109 1013 -844 
L 513 -844 
Q 928 -128 1133 580 
Q 1338 1288 1338 2009 
Q 1338 2731 1133 3434 
Q 928 4138 513 4856 
z
" transform="scale(0.015625)"/>
     </defs>
     <use xlink:href="#DejaVuSans-28"/>
     <use xlink:href="#DejaVuSans-4d" x="39.013672"/>
     <use xlink:href="#DejaVuSans-53" x="125.292969"/>
     <use xlink:href="#DejaVuSans-45" x="188.769531"/>
     <use xlink:href="#DejaVuSans-20" x="251.953125"/>
     <use xlink:href="#DejaVuSans-3d" x="283.740234"/>
     <use xlink:href="#DejaVuSans-20" x="367.529297"/>
     <use xlink:href="#DejaVuSans-30" x="399.316406"/>
     <use xlink:href="#DejaVuSans-2e" x="462.939453"/>
     <use xlink:href="#DejaVuSans-30" x="494.726562"/>
     <use xlink:href="#DejaVuSans-39" x="558.349609"/>
     <use xlink:href="#DejaVuSans-2c" x="621.972656"/>
     <use xlink:href="#DejaVuSans-20" x="653.759766"/>
     <use xlink:href="#DejaVuSans-52" x="685.546875"/>
     <use xlink:href="#DejaVuSans-32" x="755.029297"/>
     <use xlink:href="#DejaVuSans-20" x="818.652344"/>
     <use xlink:href="#DejaVuSans-3d" x="850.439453"/>
     <use xlink:href="#DejaVuSans-20" x="934.228516"/>
     <use xlink:href="#DejaVuSans-30" x="966.015625"/>
     <use xlink:href="#DejaVuSans-2e" x="1029.638672"/>
     <use xlink:href="#DejaVuSans-39" x="1061.425781"/>
     <use xlink:href="#DejaVuSans-33" x="1125.048828"/>
     <use xlink:href="#DejaVuSans-29" x="1188.671875"/>
    </g>
   </g>
  </g>
 </g>
 <defs>
  <clipPath id="p20228b688f">
   <rect x="67.040625" y="58.311" width="285.696" height="212.8896"/>
  </clipPath>
 </defs>
</svg>
