<?xml version="1.0" encoding="utf-8" standalone="no"?>
<!DOCTYPE svg PUBLIC "-//W3C//DTD SVG 1.1//EN"
  "http://www.w3.org/Graphics/SVG/1.1/DTD/svg11.dtd">
<svg xmlns:xlink="http://www.w3.org/1999/xlink" width="592.125pt" height="380.994687pt" viewBox="0 0 592.125 380.994687" xmlns="http://www.w3.org/2000/svg" version="1.1">
 <metadata>
  <rdf:RDF xmlns:dc="http://purl.org/dc/elements/1.1/" xmlns:cc="http://creativecommons.org/ns#" xmlns:rdf="http://www.w3.org/1999/02/22-rdf-syntax-ns#">
   <cc:Work>
    <dc:type rdf:resource="http://purl.org/dc/dcmitype/StillImage"/>
    <dc:date>2025-03-10T17:41:23.697119</dc:date>
    <dc:format>image/svg+xml</dc:format>
    <dc:creator>
     <cc:Agent>
      <dc:title>Matplotlib v3.10.0, https://matplotlib.org/</dc:title>
     </cc:Agent>
    </dc:creator>
   </cc:Work>
  </rdf:RDF>
 </metadata>
 <defs>
  <style type="text/css">*{stroke-linejoin: round; stroke-linecap: butt}</style>
 </defs>
 <g id="figure_1">
  <g id="patch_1">
   <path d="M 0 380.994687 
L 592.125 380.994687 
L 592.125 0 
L 0 0 
z
" style="fill: #ffffff"/>
  </g>
  <g id="axes_1">
   <g id="patch_2">
    <path d="M 26.925 347.438437 
L 584.925 347.438437 
L 584.925 14.798437 
L 26.925 14.798437 
L 26.925 347.438437 
z
" style="fill: none"/>
   </g>
   <g id="patch_3">
    <path d="M 462.525 278.908588 
Q 462.525 264.27926 462.525 249.649932 
" clip-path="url(#pbca076407e)" style="fill: none; stroke: #000000; stroke-width: 2; stroke-linecap: round"/>
    <path d="M 461.525 278.908588 
L 461.525 278.908588 
L 463.525 278.908588 
L 463.525 278.908588 
" clip-path="url(#pbca076407e)" style="fill: none; stroke: #000000; stroke-width: 2; stroke-linecap: round"/>
    <path d="M 463.525 249.649932 
L 463.525 249.649932 
L 461.525 249.649932 
L 461.525 249.649932 
" clip-path="url(#pbca076407e)" style="fill: none; stroke: #000000; stroke-width: 2; stroke-linecap: round"/>
   </g>
   <g id="matplotlib.axis_1">
    <g id="xtick_1">
     <g id="line2d_1">
      <defs>
       <path id="mf90067705b" d="M 0 0 
L 0 3.5 
" style="stroke: #000000; stroke-width: 0.8"/>
      </defs>
      <g>
       <use xlink:href="#mf90067705b" x="98.925" y="347.438437" style="stroke: #000000; stroke-width: 0.8"/>
      </g>
     </g>
     <g id="text_1">
      <!-- t = 1 -->
      <g transform="translate(73.90625 369.635312) scale(0.2 -0.2)">
       <defs>
        <path id="DejaVuSans-74" d="M 1172 4494 
L 1172 3500 
L 2356 3500 
L 2356 3053 
L 1172 3053 
L 1172 1153 
Q 1172 725 1289 603 
Q 1406 481 1766 481 
L 2356 481 
L 2356 0 
L 1766 0 
Q 1100 0 847 248 
Q 594 497 594 1153 
L 594 3053 
L 172 3053 
L 172 3500 
L 594 3500 
L 594 4494 
L 1172 4494 
z
" transform="scale(0.015625)"/>
        <path id="DejaVuSans-20" transform="scale(0.015625)"/>
        <path id="DejaVuSans-3d" d="M 678 2906 
L 4684 2906 
L 4684 2381 
L 678 2381 
L 678 2906 
z
M 678 1631 
L 4684 1631 
L 4684 1100 
L 678 1100 
L 678 1631 
z
" transform="scale(0.015625)"/>
        <path id="DejaVuSans-31" d="M 794 531 
L 1825 531 
L 1825 4091 
L 703 3866 
L 703 4441 
L 1819 4666 
L 2450 4666 
L 2450 531 
L 3481 531 
L 3481 0 
L 794 0 
L 794 531 
z
" transform="scale(0.015625)"/>
       </defs>
       <use xlink:href="#DejaVuSans-74"/>
       <use xlink:href="#DejaVuSans-20" transform="translate(39.208984 0)"/>
       <use xlink:href="#DejaVuSans-3d" transform="translate(70.996094 0)"/>
       <use xlink:href="#DejaVuSans-20" transform="translate(154.785156 0)"/>
       <use xlink:href="#DejaVuSans-31" transform="translate(186.572266 0)"/>
      </g>
     </g>
    </g>
    <g id="xtick_2">
     <g id="line2d_2">
      <g>
       <use xlink:href="#mf90067705b" x="458.925" y="347.438437" style="stroke: #000000; stroke-width: 0.8"/>
      </g>
     </g>
     <g id="text_2">
      <!-- t = 2 -->
      <g transform="translate(433.90625 369.635312) scale(0.2 -0.2)">
       <defs>
        <path id="DejaVuSans-32" d="M 1228 531 
L 3431 531 
L 3431 0 
L 469 0 
L 469 531 
Q 828 903 1448 1529 
Q 2069 2156 2228 2338 
Q 2531 2678 2651 2914 
Q 2772 3150 2772 3378 
Q 2772 3750 2511 3984 
Q 2250 4219 1831 4219 
Q 1534 4219 1204 4116 
Q 875 4013 500 3803 
L 500 4441 
Q 881 4594 1212 4672 
Q 1544 4750 1819 4750 
Q 2544 4750 2975 4387 
Q 3406 4025 3406 3419 
Q 3406 3131 3298 2873 
Q 3191 2616 2906 2266 
Q 2828 2175 2409 1742 
Q 1991 1309 1228 531 
z
" transform="scale(0.015625)"/>
       </defs>
       <use xlink:href="#DejaVuSans-74"/>
       <use xlink:href="#DejaVuSans-20" transform="translate(39.208984 0)"/>
       <use xlink:href="#DejaVuSans-3d" transform="translate(70.996094 0)"/>
       <use xlink:href="#DejaVuSans-20" transform="translate(154.785156 0)"/>
       <use xlink:href="#DejaVuSans-32" transform="translate(186.572266 0)"/>
      </g>
     </g>
    </g>
   </g>
   <g id="matplotlib.axis_2">
    <g id="ytick_1">
     <g id="line2d_3">
      <defs>
       <path id="m02b1f37762" d="M 0 0 
L -3.5 0 
" style="stroke: #000000; stroke-width: 0.8"/>
      </defs>
      <g>
       <use xlink:href="#m02b1f37762" x="26.925" y="347.438437" style="stroke: #000000; stroke-width: 0.8"/>
      </g>
     </g>
     <g id="text_3">
      <!-- 0 -->
      <g transform="translate(7.2 355.036875) scale(0.2 -0.2)">
       <defs>
        <path id="DejaVuSans-30" d="M 2034 4250 
Q 1547 4250 1301 3770 
Q 1056 3291 1056 2328 
Q 1056 1369 1301 889 
Q 1547 409 2034 409 
Q 2525 409 2770 889 
Q 3016 1369 3016 2328 
Q 3016 3291 2770 3770 
Q 2525 4250 2034 4250 
z
M 2034 4750 
Q 2819 4750 3233 4129 
Q 3647 3509 3647 2328 
Q 3647 1150 3233 529 
Q 2819 -91 2034 -91 
Q 1250 -91 836 529 
Q 422 1150 422 2328 
Q 422 3509 836 4129 
Q 1250 4750 2034 4750 
z
" transform="scale(0.015625)"/>
       </defs>
       <use xlink:href="#DejaVuSans-30"/>
      </g>
     </g>
    </g>
    <g id="ytick_2">
     <g id="line2d_4">
      <g>
       <use xlink:href="#m02b1f37762" x="26.925" y="280.910437" style="stroke: #000000; stroke-width: 0.8"/>
      </g>
     </g>
     <g id="text_4">
      <!-- 1 -->
      <g transform="translate(7.2 288.508875) scale(0.2 -0.2)">
       <use xlink:href="#DejaVuSans-31"/>
      </g>
     </g>
    </g>
    <g id="ytick_3">
     <g id="line2d_5">
      <g>
       <use xlink:href="#m02b1f37762" x="26.925" y="214.382437" style="stroke: #000000; stroke-width: 0.8"/>
      </g>
     </g>
     <g id="text_5">
      <!-- 2 -->
      <g transform="translate(7.2 221.980875) scale(0.2 -0.2)">
       <use xlink:href="#DejaVuSans-32"/>
      </g>
     </g>
    </g>
    <g id="ytick_4">
     <g id="line2d_6">
      <g>
       <use xlink:href="#m02b1f37762" x="26.925" y="147.854437" style="stroke: #000000; stroke-width: 0.8"/>
      </g>
     </g>
     <g id="text_6">
      <!-- 3 -->
      <g transform="translate(7.2 155.452875) scale(0.2 -0.2)">
       <defs>
        <path id="DejaVuSans-33" d="M 2597 2516 
Q 3050 2419 3304 2112 
Q 3559 1806 3559 1356 
Q 3559 666 3084 287 
Q 2609 -91 1734 -91 
Q 1441 -91 1130 -33 
Q 819 25 488 141 
L 488 750 
Q 750 597 1062 519 
Q 1375 441 1716 441 
Q 2309 441 2620 675 
Q 2931 909 2931 1356 
Q 2931 1769 2642 2001 
Q 2353 2234 1838 2234 
L 1294 2234 
L 1294 2753 
L 1863 2753 
Q 2328 2753 2575 2939 
Q 2822 3125 2822 3475 
Q 2822 3834 2567 4026 
Q 2313 4219 1838 4219 
Q 1578 4219 1281 4162 
Q 984 4106 628 3988 
L 628 4550 
Q 988 4650 1302 4700 
Q 1616 4750 1894 4750 
Q 2613 4750 3031 4423 
Q 3450 4097 3450 3541 
Q 3450 3153 3228 2886 
Q 3006 2619 2597 2516 
z
" transform="scale(0.015625)"/>
       </defs>
       <use xlink:href="#DejaVuSans-33"/>
      </g>
     </g>
    </g>
    <g id="ytick_5">
     <g id="line2d_7">
      <g>
       <use xlink:href="#m02b1f37762" x="26.925" y="81.326437" style="stroke: #000000; stroke-width: 0.8"/>
      </g>
     </g>
     <g id="text_7">
      <!-- 4 -->
      <g transform="translate(7.2 88.924875) scale(0.2 -0.2)">
       <defs>
        <path id="DejaVuSans-34" d="M 2419 4116 
L 825 1625 
L 2419 1625 
L 2419 4116 
z
M 2253 4666 
L 3047 4666 
L 3047 1625 
L 3713 1625 
L 3713 1100 
L 3047 1100 
L 3047 0 
L 2419 0 
L 2419 1100 
L 313 1100 
L 313 1709 
L 2253 4666 
z
" transform="scale(0.015625)"/>
       </defs>
       <use xlink:href="#DejaVuSans-34"/>
      </g>
     </g>
    </g>
    <g id="ytick_6">
     <g id="line2d_8">
      <g>
       <use xlink:href="#m02b1f37762" x="26.925" y="14.798437" style="stroke: #000000; stroke-width: 0.8"/>
      </g>
     </g>
     <g id="text_8">
      <!-- 5 -->
      <g transform="translate(7.2 22.396875) scale(0.2 -0.2)">
       <defs>
        <path id="DejaVuSans-35" d="M 691 4666 
L 3169 4666 
L 3169 4134 
L 1269 4134 
L 1269 2991 
Q 1406 3038 1543 3061 
Q 1681 3084 1819 3084 
Q 2600 3084 3056 2656 
Q 3513 2228 3513 1497 
Q 3513 744 3044 326 
Q 2575 -91 1722 -91 
Q 1428 -91 1123 -41 
Q 819 9 494 109 
L 494 744 
Q 775 591 1075 516 
Q 1375 441 1709 441 
Q 2250 441 2565 725 
Q 2881 1009 2881 1497 
Q 2881 1984 2565 2268 
Q 2250 2553 1709 2553 
Q 1456 2553 1204 2497 
Q 953 2441 691 2322 
L 691 4666 
z
" transform="scale(0.015625)"/>
       </defs>
       <use xlink:href="#DejaVuSans-35"/>
      </g>
     </g>
    </g>
   </g>
   <g id="line2d_9">
    <path d="M 26.925 347.438437 
L 584.925 347.438437 
" clip-path="url(#pbca076407e)" style="fill: none; stroke: #000000; stroke-width: 0.5; stroke-linecap: square"/>
   </g>
   <g id="line2d_10">
    <path clip-path="url(#pbca076407e)" style="fill: none; stroke: #000000; stroke-width: 0.5; stroke-linecap: square"/>
   </g>
   <g id="LineCollection_1">
    <path d="M 278.925 347.438437 
L 278.925 14.798437 
" clip-path="url(#pbca076407e)" style="fill: none; stroke-dasharray: 11.1,4.8; stroke-dashoffset: 0; stroke: #808080; stroke-opacity: 0.5; stroke-width: 3"/>
   </g>
   <g id="line2d_11">
    <defs>
     <path id="m497c27d76c" d="M 0 3 
C 0.795609 3 1.55874 2.683901 2.12132 2.12132 
C 2.683901 1.55874 3 0.795609 3 0 
C 3 -0.795609 2.683901 -1.55874 2.12132 -2.12132 
C 1.55874 -2.683901 0.795609 -3 0 -3 
C -0.795609 -3 -1.55874 -2.683901 -2.12132 -2.12132 
C -2.683901 -1.55874 -3 -0.795609 -3 0 
C -3 0.795609 -2.683901 1.55874 -2.12132 2.12132 
C -1.55874 2.683901 -0.795609 3 0 3 
z
" style="stroke: #ff7f0e"/>
    </defs>
    <g clip-path="url(#pbca076407e)">
     <use xlink:href="#m497c27d76c" x="98.925" y="81.326437" style="fill: #ff7f0e; stroke: #ff7f0e"/>
    </g>
   </g>
   <g id="line2d_12">
    <defs>
     <path id="m0d70422b45" d="M 0 3 
C 0.795609 3 1.55874 2.683901 2.12132 2.12132 
C 2.683901 1.55874 3 0.795609 3 0 
C 3 -0.795609 2.683901 -1.55874 2.12132 -2.12132 
C 1.55874 -2.683901 0.795609 -3 0 -3 
C -0.795609 -3 -1.55874 -2.683901 -2.12132 -2.12132 
C -2.683901 -1.55874 -3 -0.795609 -3 0 
C -3 0.795609 -2.683901 1.55874 -2.12132 2.12132 
C -1.55874 2.683901 -0.795609 3 0 3 
z
" style="stroke: #1f77b4"/>
    </defs>
    <g clip-path="url(#pbca076407e)">
     <use xlink:href="#m0d70422b45" x="98.925" y="214.382437" style="fill: #1f77b4; stroke: #1f77b4"/>
    </g>
   </g>
   <g id="line2d_13">
    <g clip-path="url(#pbca076407e)">
     <use xlink:href="#m497c27d76c" x="458.925" y="147.854437" style="fill: #ff7f0e; stroke: #ff7f0e"/>
    </g>
   </g>
   <g id="line2d_14">
    <g clip-path="url(#pbca076407e)">
     <use xlink:href="#m0d70422b45" x="458.925" y="247.646437" style="fill: #1f77b4; stroke: #1f77b4"/>
    </g>
   </g>
   <g id="line2d_15">
    <path d="M 98.925 214.382437 
L 458.925 247.646437 
" clip-path="url(#pbca076407e)" style="fill: none; stroke: #1f77b4; stroke-width: 3; stroke-linecap: square"/>
   </g>
   <g id="line2d_16">
    <path d="M 98.925 81.326437 
L 458.925 147.854437 
" clip-path="url(#pbca076407e)" style="fill: none; stroke: #ff7f0e; stroke-width: 3; stroke-linecap: square"/>
   </g>
   <g id="line2d_17">
    <path d="M 98.925 81.326437 
L 458.925 147.854437 
" clip-path="url(#pbca076407e)" style="fill: none; stroke-dasharray: 11.1,4.8; stroke-dashoffset: 0; stroke: #000000; stroke-opacity: 0.5; stroke-width: 3"/>
   </g>
   <g id="line2d_18">
    <path d="M 98.925 214.382437 
L 458.925 280.910437 
" clip-path="url(#pbca076407e)" style="fill: none; stroke-dasharray: 11.1,4.8; stroke-dashoffset: 0; stroke: #000000; stroke-opacity: 0.5; stroke-width: 3"/>
   </g>
   <g id="line2d_19">
    <g clip-path="url(#pbca076407e)">
     <use xlink:href="#m0d70422b45" x="458.925" y="280.910437" style="fill: #1f77b4; stroke: #1f77b4"/>
    </g>
   </g>
   <g id="LineCollection_2">
    <path d="M 98.925 81.326437 
L 98.925 147.854437 
" clip-path="url(#pbca076407e)" style="fill: none; stroke-dasharray: 3,4.95; stroke-dashoffset: 0; stroke: #ff7f0e; stroke-width: 3"/>
   </g>
   <g id="LineCollection_3">
    <path d="M 98.925 214.382437 
L 98.925 247.646437 
" clip-path="url(#pbca076407e)" style="fill: none; stroke-dasharray: 3,4.95; stroke-dashoffset: 0; stroke: #1f77b4; stroke-width: 3"/>
   </g>
   <g id="patch_4">
    <path d="M 26.925 347.438437 
L 26.925 14.798437 
" style="fill: none; stroke: #000000; stroke-width: 0.8; stroke-linejoin: miter; stroke-linecap: square"/>
   </g>
   <g id="patch_5">
    <path d="M 584.925 347.438437 
L 584.925 14.798437 
" style="fill: none; stroke: #000000; stroke-width: 0.8; stroke-linejoin: miter; stroke-linecap: square"/>
   </g>
   <g id="patch_6">
    <path d="M 26.925 347.438437 
L 584.925 347.438437 
" style="fill: none; stroke: #000000; stroke-width: 0.8; stroke-linejoin: miter; stroke-linecap: square"/>
   </g>
   <g id="patch_7">
    <path d="M 26.925 14.798437 
L 584.925 14.798437 
" style="fill: none; stroke: #000000; stroke-width: 0.8; stroke-linejoin: miter; stroke-linecap: square"/>
   </g>
   <g id="text_9">
    <!-- Treatment -->
    <g transform="translate(286.125 344.112037) scale(0.15 -0.15)">
     <defs>
      <path id="DejaVuSans-54" d="M -19 4666 
L 3928 4666 
L 3928 4134 
L 2272 4134 
L 2272 0 
L 1638 0 
L 1638 4134 
L -19 4134 
L -19 4666 
z
" transform="scale(0.015625)"/>
      <path id="DejaVuSans-72" d="M 2631 2963 
Q 2534 3019 2420 3045 
Q 2306 3072 2169 3072 
Q 1681 3072 1420 2755 
Q 1159 2438 1159 1844 
L 1159 0 
L 581 0 
L 581 3500 
L 1159 3500 
L 1159 2956 
Q 1341 3275 1631 3429 
Q 1922 3584 2338 3584 
Q 2397 3584 2469 3576 
Q 2541 3569 2628 3553 
L 2631 2963 
z
" transform="scale(0.015625)"/>
      <path id="DejaVuSans-65" d="M 3597 1894 
L 3597 1613 
L 953 1613 
Q 991 1019 1311 708 
Q 1631 397 2203 397 
Q 2534 397 2845 478 
Q 3156 559 3463 722 
L 3463 178 
Q 3153 47 2828 -22 
Q 2503 -91 2169 -91 
Q 1331 -91 842 396 
Q 353 884 353 1716 
Q 353 2575 817 3079 
Q 1281 3584 2069 3584 
Q 2775 3584 3186 3129 
Q 3597 2675 3597 1894 
z
M 3022 2063 
Q 3016 2534 2758 2815 
Q 2500 3097 2075 3097 
Q 1594 3097 1305 2825 
Q 1016 2553 972 2059 
L 3022 2063 
z
" transform="scale(0.015625)"/>
      <path id="DejaVuSans-61" d="M 2194 1759 
Q 1497 1759 1228 1600 
Q 959 1441 959 1056 
Q 959 750 1161 570 
Q 1363 391 1709 391 
Q 2188 391 2477 730 
Q 2766 1069 2766 1631 
L 2766 1759 
L 2194 1759 
z
M 3341 1997 
L 3341 0 
L 2766 0 
L 2766 531 
Q 2569 213 2275 61 
Q 1981 -91 1556 -91 
Q 1019 -91 701 211 
Q 384 513 384 1019 
Q 384 1609 779 1909 
Q 1175 2209 1959 2209 
L 2766 2209 
L 2766 2266 
Q 2766 2663 2505 2880 
Q 2244 3097 1772 3097 
Q 1472 3097 1187 3025 
Q 903 2953 641 2809 
L 641 3341 
Q 956 3463 1253 3523 
Q 1550 3584 1831 3584 
Q 2591 3584 2966 3190 
Q 3341 2797 3341 1997 
z
" transform="scale(0.015625)"/>
      <path id="DejaVuSans-6d" d="M 3328 2828 
Q 3544 3216 3844 3400 
Q 4144 3584 4550 3584 
Q 5097 3584 5394 3201 
Q 5691 2819 5691 2113 
L 5691 0 
L 5113 0 
L 5113 2094 
Q 5113 2597 4934 2840 
Q 4756 3084 4391 3084 
Q 3944 3084 3684 2787 
Q 3425 2491 3425 1978 
L 3425 0 
L 2847 0 
L 2847 2094 
Q 2847 2600 2669 2842 
Q 2491 3084 2119 3084 
Q 1678 3084 1418 2786 
Q 1159 2488 1159 1978 
L 1159 0 
L 581 0 
L 581 3500 
L 1159 3500 
L 1159 2956 
Q 1356 3278 1631 3431 
Q 1906 3584 2284 3584 
Q 2666 3584 2933 3390 
Q 3200 3197 3328 2828 
z
" transform="scale(0.015625)"/>
      <path id="DejaVuSans-6e" d="M 3513 2113 
L 3513 0 
L 2938 0 
L 2938 2094 
Q 2938 2591 2744 2837 
Q 2550 3084 2163 3084 
Q 1697 3084 1428 2787 
Q 1159 2491 1159 1978 
L 1159 0 
L 581 0 
L 581 3500 
L 1159 3500 
L 1159 2956 
Q 1366 3272 1645 3428 
Q 1925 3584 2291 3584 
Q 2894 3584 3203 3211 
Q 3513 2838 3513 2113 
z
" transform="scale(0.015625)"/>
     </defs>
     <use xlink:href="#DejaVuSans-54"/>
     <use xlink:href="#DejaVuSans-72" transform="translate(46.333984 0)"/>
     <use xlink:href="#DejaVuSans-65" transform="translate(85.197266 0)"/>
     <use xlink:href="#DejaVuSans-61" transform="translate(146.720703 0)"/>
     <use xlink:href="#DejaVuSans-74" transform="translate(208 0)"/>
     <use xlink:href="#DejaVuSans-6d" transform="translate(247.208984 0)"/>
     <use xlink:href="#DejaVuSans-65" transform="translate(344.621094 0)"/>
     <use xlink:href="#DejaVuSans-6e" transform="translate(406.144531 0)"/>
     <use xlink:href="#DejaVuSans-74" transform="translate(469.523438 0)"/>
    </g>
   </g>
   <g id="text_10">
    <!-- $E[Y_1(0)|D=0]$ -->
    <g style="fill: #ff7f0e" transform="translate(98.925 71.347237) scale(0.15 -0.15)">
     <defs>
      <path id="DejaVuSans-Oblique-45" d="M 1081 4666 
L 4031 4666 
L 3928 4134 
L 1606 4134 
L 1338 2753 
L 3566 2753 
L 3463 2222 
L 1234 2222 
L 909 531 
L 3284 531 
L 3181 0 
L 172 0 
L 1081 4666 
z
" transform="scale(0.015625)"/>
      <path id="DejaVuSans-5b" d="M 550 4863 
L 1875 4863 
L 1875 4416 
L 1125 4416 
L 1125 -397 
L 1875 -397 
L 1875 -844 
L 550 -844 
L 550 4863 
z
" transform="scale(0.015625)"/>
      <path id="DejaVuSans-Oblique-59" d="M 403 4666 
L 1081 4666 
L 1953 2747 
L 3616 4666 
L 4325 4666 
L 2209 2222 
L 1778 0 
L 1147 0 
L 1575 2222 
L 403 4666 
z
" transform="scale(0.015625)"/>
      <path id="DejaVuSans-28" d="M 1984 4856 
Q 1566 4138 1362 3434 
Q 1159 2731 1159 2009 
Q 1159 1288 1364 580 
Q 1569 -128 1984 -844 
L 1484 -844 
Q 1016 -109 783 600 
Q 550 1309 550 2009 
Q 550 2706 781 3412 
Q 1013 4119 1484 4856 
L 1984 4856 
z
" transform="scale(0.015625)"/>
      <path id="DejaVuSans-29" d="M 513 4856 
L 1013 4856 
Q 1481 4119 1714 3412 
Q 1947 2706 1947 2009 
Q 1947 1309 1714 600 
Q 1481 -109 1013 -844 
L 513 -844 
Q 928 -128 1133 580 
Q 1338 1288 1338 2009 
Q 1338 2731 1133 3434 
Q 928 4138 513 4856 
z
" transform="scale(0.015625)"/>
      <path id="DejaVuSans-7c" d="M 1344 4891 
L 1344 -1509 
L 813 -1509 
L 813 4891 
L 1344 4891 
z
" transform="scale(0.015625)"/>
      <path id="DejaVuSans-Oblique-44" d="M 1081 4666 
L 2438 4666 
Q 3519 4666 4070 4208 
Q 4622 3750 4622 2847 
Q 4622 2250 4412 1698 
Q 4203 1147 3834 769 
Q 3463 381 2891 190 
Q 2319 0 1538 0 
L 172 0 
L 1081 4666 
z
M 1613 4147 
L 909 519 
L 1734 519 
Q 2794 519 3375 1128 
Q 3956 1738 3956 2847 
Q 3956 3519 3581 3833 
Q 3206 4147 2406 4147 
L 1613 4147 
z
" transform="scale(0.015625)"/>
      <path id="DejaVuSans-5d" d="M 1947 4863 
L 1947 -844 
L 622 -844 
L 622 -397 
L 1369 -397 
L 1369 4416 
L 622 4416 
L 622 4863 
L 1947 4863 
z
" transform="scale(0.015625)"/>
     </defs>
     <use xlink:href="#DejaVuSans-Oblique-45" transform="translate(0 0.578125)"/>
     <use xlink:href="#DejaVuSans-5b" transform="translate(63.183594 0.578125)"/>
     <use xlink:href="#DejaVuSans-Oblique-59" transform="translate(102.197266 0.578125)"/>
     <use xlink:href="#DejaVuSans-31" transform="translate(163.28125 -15.828125) scale(0.7)"/>
     <use xlink:href="#DejaVuSans-28" transform="translate(210.551758 0.578125)"/>
     <use xlink:href="#DejaVuSans-30" transform="translate(249.56543 0.578125)"/>
     <use xlink:href="#DejaVuSans-29" transform="translate(313.188477 0.578125)"/>
     <use xlink:href="#DejaVuSans-7c" transform="translate(352.202148 0.578125)"/>
     <use xlink:href="#DejaVuSans-Oblique-44" transform="translate(385.893555 0.578125)"/>
     <use xlink:href="#DejaVuSans-3d" transform="translate(482.37793 0.578125)"/>
     <use xlink:href="#DejaVuSans-30" transform="translate(585.649414 0.578125)"/>
     <use xlink:href="#DejaVuSans-5d" transform="translate(649.272461 0.578125)"/>
    </g>
   </g>
   <g id="text_11">
    <!-- $E[Y_2(0)|D=0]$ -->
    <g style="fill: #ff7f0e" transform="translate(458.925 137.875237) scale(0.15 -0.15)">
     <use xlink:href="#DejaVuSans-Oblique-45" transform="translate(0 0.578125)"/>
     <use xlink:href="#DejaVuSans-5b" transform="translate(63.183594 0.578125)"/>
     <use xlink:href="#DejaVuSans-Oblique-59" transform="translate(102.197266 0.578125)"/>
     <use xlink:href="#DejaVuSans-32" transform="translate(163.28125 -15.828125) scale(0.7)"/>
     <use xlink:href="#DejaVuSans-28" transform="translate(210.551758 0.578125)"/>
     <use xlink:href="#DejaVuSans-30" transform="translate(249.56543 0.578125)"/>
     <use xlink:href="#DejaVuSans-29" transform="translate(313.188477 0.578125)"/>
     <use xlink:href="#DejaVuSans-7c" transform="translate(352.202148 0.578125)"/>
     <use xlink:href="#DejaVuSans-Oblique-44" transform="translate(385.893555 0.578125)"/>
     <use xlink:href="#DejaVuSans-3d" transform="translate(482.37793 0.578125)"/>
     <use xlink:href="#DejaVuSans-30" transform="translate(585.649414 0.578125)"/>
     <use xlink:href="#DejaVuSans-5d" transform="translate(649.272461 0.578125)"/>
    </g>
   </g>
   <g id="text_12">
    <!-- $E[Y_2(1)|D=1]$ -->
    <g style="fill: #1f77b4" transform="translate(458.925 237.667237) scale(0.15 -0.15)">
     <use xlink:href="#DejaVuSans-Oblique-45" transform="translate(0 0.578125)"/>
     <use xlink:href="#DejaVuSans-5b" transform="translate(63.183594 0.578125)"/>
     <use xlink:href="#DejaVuSans-Oblique-59" transform="translate(102.197266 0.578125)"/>
     <use xlink:href="#DejaVuSans-32" transform="translate(163.28125 -15.828125) scale(0.7)"/>
     <use xlink:href="#DejaVuSans-28" transform="translate(210.551758 0.578125)"/>
     <use xlink:href="#DejaVuSans-31" transform="translate(249.56543 0.578125)"/>
     <use xlink:href="#DejaVuSans-29" transform="translate(313.188477 0.578125)"/>
     <use xlink:href="#DejaVuSans-7c" transform="translate(352.202148 0.578125)"/>
     <use xlink:href="#DejaVuSans-Oblique-44" transform="translate(385.893555 0.578125)"/>
     <use xlink:href="#DejaVuSans-3d" transform="translate(482.37793 0.578125)"/>
     <use xlink:href="#DejaVuSans-31" transform="translate(585.649414 0.578125)"/>
     <use xlink:href="#DejaVuSans-5d" transform="translate(649.272461 0.578125)"/>
    </g>
   </g>
   <g id="text_13">
    <!-- $E[Y_2(0)|D=1]$ -->
    <g style="fill: #1f77b4" transform="translate(458.925 295.786837) scale(0.15 -0.15)">
     <use xlink:href="#DejaVuSans-Oblique-45" transform="translate(0 0.578125)"/>
     <use xlink:href="#DejaVuSans-5b" transform="translate(63.183594 0.578125)"/>
     <use xlink:href="#DejaVuSans-Oblique-59" transform="translate(102.197266 0.578125)"/>
     <use xlink:href="#DejaVuSans-32" transform="translate(163.28125 -15.828125) scale(0.7)"/>
     <use xlink:href="#DejaVuSans-28" transform="translate(210.551758 0.578125)"/>
     <use xlink:href="#DejaVuSans-30" transform="translate(249.56543 0.578125)"/>
     <use xlink:href="#DejaVuSans-29" transform="translate(313.188477 0.578125)"/>
     <use xlink:href="#DejaVuSans-7c" transform="translate(352.202148 0.578125)"/>
     <use xlink:href="#DejaVuSans-Oblique-44" transform="translate(385.893555 0.578125)"/>
     <use xlink:href="#DejaVuSans-3d" transform="translate(482.37793 0.578125)"/>
     <use xlink:href="#DejaVuSans-31" transform="translate(585.649414 0.578125)"/>
     <use xlink:href="#DejaVuSans-5d" transform="translate(649.272461 0.578125)"/>
    </g>
    <!--  counterfactual -->
    <g style="fill: #1f77b4" transform="translate(458.925 313.064025) scale(0.15 -0.15)">
     <defs>
      <path id="DejaVuSans-63" d="M 3122 3366 
L 3122 2828 
Q 2878 2963 2633 3030 
Q 2388 3097 2138 3097 
Q 1578 3097 1268 2742 
Q 959 2388 959 1747 
Q 959 1106 1268 751 
Q 1578 397 2138 397 
Q 2388 397 2633 464 
Q 2878 531 3122 666 
L 3122 134 
Q 2881 22 2623 -34 
Q 2366 -91 2075 -91 
Q 1284 -91 818 406 
Q 353 903 353 1747 
Q 353 2603 823 3093 
Q 1294 3584 2113 3584 
Q 2378 3584 2631 3529 
Q 2884 3475 3122 3366 
z
" transform="scale(0.015625)"/>
      <path id="DejaVuSans-6f" d="M 1959 3097 
Q 1497 3097 1228 2736 
Q 959 2375 959 1747 
Q 959 1119 1226 758 
Q 1494 397 1959 397 
Q 2419 397 2687 759 
Q 2956 1122 2956 1747 
Q 2956 2369 2687 2733 
Q 2419 3097 1959 3097 
z
M 1959 3584 
Q 2709 3584 3137 3096 
Q 3566 2609 3566 1747 
Q 3566 888 3137 398 
Q 2709 -91 1959 -91 
Q 1206 -91 779 398 
Q 353 888 353 1747 
Q 353 2609 779 3096 
Q 1206 3584 1959 3584 
z
" transform="scale(0.015625)"/>
      <path id="DejaVuSans-75" d="M 544 1381 
L 544 3500 
L 1119 3500 
L 1119 1403 
Q 1119 906 1312 657 
Q 1506 409 1894 409 
Q 2359 409 2629 706 
Q 2900 1003 2900 1516 
L 2900 3500 
L 3475 3500 
L 3475 0 
L 2900 0 
L 2900 538 
Q 2691 219 2414 64 
Q 2138 -91 1772 -91 
Q 1169 -91 856 284 
Q 544 659 544 1381 
z
M 1991 3584 
L 1991 3584 
z
" transform="scale(0.015625)"/>
      <path id="DejaVuSans-66" d="M 2375 4863 
L 2375 4384 
L 1825 4384 
Q 1516 4384 1395 4259 
Q 1275 4134 1275 3809 
L 1275 3500 
L 2222 3500 
L 2222 3053 
L 1275 3053 
L 1275 0 
L 697 0 
L 697 3053 
L 147 3053 
L 147 3500 
L 697 3500 
L 697 3744 
Q 697 4328 969 4595 
Q 1241 4863 1831 4863 
L 2375 4863 
z
" transform="scale(0.015625)"/>
      <path id="DejaVuSans-6c" d="M 603 4863 
L 1178 4863 
L 1178 0 
L 603 0 
L 603 4863 
z
" transform="scale(0.015625)"/>
     </defs>
     <use xlink:href="#DejaVuSans-20"/>
     <use xlink:href="#DejaVuSans-63" transform="translate(31.787109 0)"/>
     <use xlink:href="#DejaVuSans-6f" transform="translate(86.767578 0)"/>
     <use xlink:href="#DejaVuSans-75" transform="translate(147.949219 0)"/>
     <use xlink:href="#DejaVuSans-6e" transform="translate(211.328125 0)"/>
     <use xlink:href="#DejaVuSans-74" transform="translate(274.707031 0)"/>
     <use xlink:href="#DejaVuSans-65" transform="translate(313.916016 0)"/>
     <use xlink:href="#DejaVuSans-72" transform="translate(375.439453 0)"/>
     <use xlink:href="#DejaVuSans-66" transform="translate(416.552734 0)"/>
     <use xlink:href="#DejaVuSans-61" transform="translate(451.757812 0)"/>
     <use xlink:href="#DejaVuSans-63" transform="translate(513.037109 0)"/>
     <use xlink:href="#DejaVuSans-74" transform="translate(568.017578 0)"/>
     <use xlink:href="#DejaVuSans-75" transform="translate(607.226562 0)"/>
     <use xlink:href="#DejaVuSans-61" transform="translate(670.605469 0)"/>
     <use xlink:href="#DejaVuSans-6c" transform="translate(731.884766 0)"/>
    </g>
   </g>
   <g id="text_14">
    <!-- Trend(0) -->
    <g style="fill: #ff7f0e" transform="translate(102.525 114.590437) scale(0.15 -0.15)">
     <defs>
      <path id="DejaVuSans-64" d="M 2906 2969 
L 2906 4863 
L 3481 4863 
L 3481 0 
L 2906 0 
L 2906 525 
Q 2725 213 2448 61 
Q 2172 -91 1784 -91 
Q 1150 -91 751 415 
Q 353 922 353 1747 
Q 353 2572 751 3078 
Q 1150 3584 1784 3584 
Q 2172 3584 2448 3432 
Q 2725 3281 2906 2969 
z
M 947 1747 
Q 947 1113 1208 752 
Q 1469 391 1925 391 
Q 2381 391 2643 752 
Q 2906 1113 2906 1747 
Q 2906 2381 2643 2742 
Q 2381 3103 1925 3103 
Q 1469 3103 1208 2742 
Q 947 2381 947 1747 
z
" transform="scale(0.015625)"/>
     </defs>
     <use xlink:href="#DejaVuSans-54"/>
     <use xlink:href="#DejaVuSans-72" transform="translate(46.333984 0)"/>
     <use xlink:href="#DejaVuSans-65" transform="translate(85.197266 0)"/>
     <use xlink:href="#DejaVuSans-6e" transform="translate(146.720703 0)"/>
     <use xlink:href="#DejaVuSans-64" transform="translate(210.099609 0)"/>
     <use xlink:href="#DejaVuSans-28" transform="translate(273.576172 0)"/>
     <use xlink:href="#DejaVuSans-30" transform="translate(312.589844 0)"/>
     <use xlink:href="#DejaVuSans-29" transform="translate(376.212891 0)"/>
    </g>
   </g>
   <g id="text_15">
    <!-- $E[Y_1(0)|D=1]$ -->
    <g style="fill: #1f77b4" transform="translate(98.925 204.403237) scale(0.15 -0.15)">
     <use xlink:href="#DejaVuSans-Oblique-45" transform="translate(0 0.578125)"/>
     <use xlink:href="#DejaVuSans-5b" transform="translate(63.183594 0.578125)"/>
     <use xlink:href="#DejaVuSans-Oblique-59" transform="translate(102.197266 0.578125)"/>
     <use xlink:href="#DejaVuSans-31" transform="translate(163.28125 -15.828125) scale(0.7)"/>
     <use xlink:href="#DejaVuSans-28" transform="translate(210.551758 0.578125)"/>
     <use xlink:href="#DejaVuSans-30" transform="translate(249.56543 0.578125)"/>
     <use xlink:href="#DejaVuSans-29" transform="translate(313.188477 0.578125)"/>
     <use xlink:href="#DejaVuSans-7c" transform="translate(352.202148 0.578125)"/>
     <use xlink:href="#DejaVuSans-Oblique-44" transform="translate(385.893555 0.578125)"/>
     <use xlink:href="#DejaVuSans-3d" transform="translate(482.37793 0.578125)"/>
     <use xlink:href="#DejaVuSans-31" transform="translate(585.649414 0.578125)"/>
     <use xlink:href="#DejaVuSans-5d" transform="translate(649.272461 0.578125)"/>
    </g>
   </g>
   <g id="text_16">
    <!-- $\tau_{ATT}$ -->
    <g transform="translate(466.125 264.278437) scale(0.2 -0.2)">
     <defs>
      <path id="DejaVuSans-Oblique-3c4" d="M 2103 638 
Q 2188 488 2525 488 
L 2800 488 
L 2706 0 
L 2363 0 
Q 1800 0 1600 300 
Q 1403 606 1534 1269 
L 1856 2925 
L 541 2925 
L 653 3500 
L 3881 3500 
L 3769 2925 
L 2444 2925 
L 2113 1234 
Q 2025 781 2103 638 
z
" transform="scale(0.015625)"/>
      <path id="DejaVuSans-Oblique-41" d="M 2356 4666 
L 3072 4666 
L 3938 0 
L 3278 0 
L 3084 1197 
L 984 1197 
L 325 0 
L -341 0 
L 2356 4666 
z
M 2584 4044 
L 1275 1722 
L 2988 1722 
L 2584 4044 
z
" transform="scale(0.015625)"/>
      <path id="DejaVuSans-Oblique-54" d="M 378 4666 
L 4325 4666 
L 4225 4134 
L 2559 4134 
L 1759 0 
L 1125 0 
L 1925 4134 
L 275 4134 
L 378 4666 
z
" transform="scale(0.015625)"/>
     </defs>
     <use xlink:href="#DejaVuSans-Oblique-3c4" transform="translate(0 0.3125)"/>
     <use xlink:href="#DejaVuSans-Oblique-41" transform="translate(60.205078 -16.09375) scale(0.7)"/>
     <use xlink:href="#DejaVuSans-Oblique-54" transform="translate(108.09082 -16.09375) scale(0.7)"/>
     <use xlink:href="#DejaVuSans-Oblique-54" transform="translate(150.849609 -16.09375) scale(0.7)"/>
    </g>
   </g>
   <g id="text_17">
    <!-- Factual Trend(1) -->
    <g style="fill: #1f77b4" transform="translate(102.525 248.311717) scale(0.15 -0.15)">
     <defs>
      <path id="DejaVuSans-46" d="M 628 4666 
L 3309 4666 
L 3309 4134 
L 1259 4134 
L 1259 2759 
L 3109 2759 
L 3109 2228 
L 1259 2228 
L 1259 0 
L 628 0 
L 628 4666 
z
" transform="scale(0.015625)"/>
     </defs>
     <use xlink:href="#DejaVuSans-46"/>
     <use xlink:href="#DejaVuSans-61" transform="translate(48.394531 0)"/>
     <use xlink:href="#DejaVuSans-63" transform="translate(109.673828 0)"/>
     <use xlink:href="#DejaVuSans-74" transform="translate(164.654297 0)"/>
     <use xlink:href="#DejaVuSans-75" transform="translate(203.863281 0)"/>
     <use xlink:href="#DejaVuSans-61" transform="translate(267.242188 0)"/>
     <use xlink:href="#DejaVuSans-6c" transform="translate(328.521484 0)"/>
     <use xlink:href="#DejaVuSans-20" transform="translate(356.304688 0)"/>
     <use xlink:href="#DejaVuSans-54" transform="translate(388.091797 0)"/>
     <use xlink:href="#DejaVuSans-72" transform="translate(434.425781 0)"/>
     <use xlink:href="#DejaVuSans-65" transform="translate(473.289062 0)"/>
     <use xlink:href="#DejaVuSans-6e" transform="translate(534.8125 0)"/>
     <use xlink:href="#DejaVuSans-64" transform="translate(598.191406 0)"/>
     <use xlink:href="#DejaVuSans-28" transform="translate(661.667969 0)"/>
     <use xlink:href="#DejaVuSans-31" transform="translate(700.681641 0)"/>
     <use xlink:href="#DejaVuSans-29" transform="translate(764.304688 0)"/>
    </g>
   </g>
  </g>
 </g>
 <defs>
  <clipPath id="pbca076407e">
   <rect x="26.925" y="14.798438" width="558" height="332.64"/>
  </clipPath>
 </defs>
</svg>
