<?xml version="1.0" encoding="utf-8" standalone="no"?>
<!DOCTYPE svg PUBLIC "-//W3C//DTD SVG 1.1//EN"
  "http://www.w3.org/Graphics/SVG/1.1/DTD/svg11.dtd">
<svg xmlns:xlink="http://www.w3.org/1999/xlink" width="288pt" height="216pt" viewBox="0 0 288 216" xmlns="http://www.w3.org/2000/svg" version="1.1">
 <metadata>
  <rdf:RDF xmlns:dc="http://purl.org/dc/elements/1.1/" xmlns:cc="http://creativecommons.org/ns#" xmlns:rdf="http://www.w3.org/1999/02/22-rdf-syntax-ns#">
   <cc:Work>
    <dc:type rdf:resource="http://purl.org/dc/dcmitype/StillImage"/>
    <dc:date>2025-02-01T16:14:21.439338</dc:date>
    <dc:format>image/svg+xml</dc:format>
    <dc:creator>
     <cc:Agent>
      <dc:title>Matplotlib v3.10.0, https://matplotlib.org/</dc:title>
     </cc:Agent>
    </dc:creator>
   </cc:Work>
  </rdf:RDF>
 </metadata>
 <defs>
  <style type="text/css">*{stroke-linejoin: round; stroke-linecap: butt}</style>
 </defs>
 <g id="figure_1">
  <g id="patch_1">
   <path d="M 0 216 
L 288 216 
L 288 0 
L 0 0 
L 0 216 
z
" style="fill: none"/>
  </g>
  <g id="axes_1">
   <g id="patch_2">
    <path d="M 28.8 194.4 
L 288 194.4 
L 288 0 
L 28.8 0 
L 28.8 194.4 
z
" style="fill: none"/>
   </g>
   <g id="matplotlib.axis_1">
    <g id="text_1">
     <!-- x -->
     <g transform="translate(151.305 215.116562) scale(0.22 -0.22)">
      <defs>
       <path id="DejaVuSans-Bold-78" d="M 1422 1791 
L 159 3500 
L 1344 3500 
L 2059 2463 
L 2784 3500 
L 3969 3500 
L 2706 1797 
L 4031 0 
L 2847 0 
L 2059 1106 
L 1281 0 
L 97 0 
L 1422 1791 
z
" transform="scale(0.015625)"/>
      </defs>
      <use xlink:href="#DejaVuSans-Bold-78"/>
     </g>
    </g>
   </g>
   <g id="matplotlib.axis_2">
    <g id="text_2">
     <!-- y -->
     <g transform="translate(20.052813 104.370625) rotate(-90) scale(0.22 -0.22)">
      <defs>
       <path id="DejaVuSans-Bold-79" d="M 78 3500 
L 1197 3500 
L 2138 1125 
L 2938 3500 
L 4056 3500 
L 2584 -331 
Q 2363 -916 2067 -1148 
Q 1772 -1381 1288 -1381 
L 641 -1381 
L 641 -647 
L 991 -647 
Q 1275 -647 1404 -556 
Q 1534 -466 1606 -231 
L 1638 -134 
L 78 3500 
z
" transform="scale(0.015625)"/>
      </defs>
      <use xlink:href="#DejaVuSans-Bold-79"/>
     </g>
    </g>
   </g>
   <g id="line2d_1">
    <defs>
     <path id="md60df53bfc" d="M 0 7.5 
C 1.989023 7.5 3.896849 6.709753 5.303301 5.303301 
C 6.709753 3.896849 7.5 1.989023 7.5 0 
C 7.5 -1.989023 6.709753 -3.896849 5.303301 -5.303301 
C 3.896849 -6.709753 1.989023 -7.5 0 -7.5 
C -1.989023 -7.5 -3.896849 -6.709753 -5.303301 -5.303301 
C -6.709753 -3.896849 -7.5 -1.989023 -7.5 0 
C -7.5 1.989023 -6.709753 3.896849 -5.303301 5.303301 
C -3.896849 6.709753 -1.989023 7.5 0 7.5 
z
" style="stroke: #808080; stroke-opacity: 0.2"/>
    </defs>
    <g clip-path="url(#p5a01c88bd3)">
     <use xlink:href="#md60df53bfc" x="183.732555" y="98.886242" style="fill: #808080; fill-opacity: 0.2; stroke: #808080; stroke-opacity: 0.2"/>
     <use xlink:href="#md60df53bfc" x="155.755881" y="110.781163" style="fill: #808080; fill-opacity: 0.2; stroke: #808080; stroke-opacity: 0.2"/>
     <use xlink:href="#md60df53bfc" x="190.384373" y="116.088853" style="fill: #808080; fill-opacity: 0.2; stroke: #808080; stroke-opacity: 0.2"/>
     <use xlink:href="#md60df53bfc" x="228.951254" y="76.640459" style="fill: #808080; fill-opacity: 0.2; stroke: #808080; stroke-opacity: 0.2"/>
     <use xlink:href="#md60df53bfc" x="151.53108" y="114.075072" style="fill: #808080; fill-opacity: 0.2; stroke: #808080; stroke-opacity: 0.2"/>
     <use xlink:href="#md60df53bfc" x="151.531804" y="136.30609" style="fill: #808080; fill-opacity: 0.2; stroke: #808080; stroke-opacity: 0.2"/>
     <use xlink:href="#md60df53bfc" x="231.426633" y="39.352831" style="fill: #808080; fill-opacity: 0.2; stroke: #808080; stroke-opacity: 0.2"/>
     <use xlink:href="#md60df53bfc" x="195.6603" y="87.983533" style="fill: #808080; fill-opacity: 0.2; stroke: #808080; stroke-opacity: 0.2"/>
     <use xlink:href="#md60df53bfc" x="141.163013" y="152.024577" style="fill: #808080; fill-opacity: 0.2; stroke: #808080; stroke-opacity: 0.2"/>
     <use xlink:href="#md60df53bfc" x="185.75249" y="88.913768" style="fill: #808080; fill-opacity: 0.2; stroke: #808080; stroke-opacity: 0.2"/>
     <use xlink:href="#md60df53bfc" x="141.429867" y="147.110607" style="fill: #808080; fill-opacity: 0.2; stroke: #808080; stroke-opacity: 0.2"/>
     <use xlink:href="#md60df53bfc" x="141.327999" y="108.283757" style="fill: #808080; fill-opacity: 0.2; stroke: #808080; stroke-opacity: 0.2"/>
     <use xlink:href="#md60df53bfc" x="172.508378" y="84.468388" style="fill: #808080; fill-opacity: 0.2; stroke: #808080; stroke-opacity: 0.2"/>
     <use xlink:href="#md60df53bfc" x="77.550011" y="175.707137" style="fill: #808080; fill-opacity: 0.2; stroke: #808080; stroke-opacity: 0.2"/>
     <use xlink:href="#md60df53bfc" x="85.849117" y="132.180635" style="fill: #808080; fill-opacity: 0.2; stroke: #808080; stroke-opacity: 0.2"/>
     <use xlink:href="#md60df53bfc" x="137.073736" y="118.674517" style="fill: #808080; fill-opacity: 0.2; stroke: #808080; stroke-opacity: 0.2"/>
     <use xlink:href="#md60df53bfc" x="117.223123" y="119.585121" style="fill: #808080; fill-opacity: 0.2; stroke: #808080; stroke-opacity: 0.2"/>
     <use xlink:href="#md60df53bfc" x="175.693204" y="66.583023" style="fill: #808080; fill-opacity: 0.2; stroke: #808080; stroke-opacity: 0.2"/>
     <use xlink:href="#md60df53bfc" x="121.840843" y="140.828257" style="fill: #808080; fill-opacity: 0.2; stroke: #808080; stroke-opacity: 0.2"/>
     <use xlink:href="#md60df53bfc" x="99.622661" y="163.174473" style="fill: #808080; fill-opacity: 0.2; stroke: #808080; stroke-opacity: 0.2"/>
     <use xlink:href="#md60df53bfc" x="226.423087" y="102.661397" style="fill: #808080; fill-opacity: 0.2; stroke: #808080; stroke-opacity: 0.2"/>
     <use xlink:href="#md60df53bfc" x="151.900168" y="138.36054" style="fill: #808080; fill-opacity: 0.2; stroke: #808080; stroke-opacity: 0.2"/>
     <use xlink:href="#md60df53bfc" x="164.822944" y="115.586536" style="fill: #808080; fill-opacity: 0.2; stroke: #808080; stroke-opacity: 0.2"/>
     <use xlink:href="#md60df53bfc" x="99.074367" y="139.28759" style="fill: #808080; fill-opacity: 0.2; stroke: #808080; stroke-opacity: 0.2"/>
     <use xlink:href="#md60df53bfc" x="137.862608" y="121.282578" style="fill: #808080; fill-opacity: 0.2; stroke: #808080; stroke-opacity: 0.2"/>
     <use xlink:href="#md60df53bfc" x="166.734868" y="94.673572" style="fill: #808080; fill-opacity: 0.2; stroke: #808080; stroke-opacity: 0.2"/>
     <use xlink:href="#md60df53bfc" x="111.135789" y="140.487965" style="fill: #808080; fill-opacity: 0.2; stroke: #808080; stroke-opacity: 0.2"/>
     <use xlink:href="#md60df53bfc" x="178.400675" y="75.008596" style="fill: #808080; fill-opacity: 0.2; stroke: #808080; stroke-opacity: 0.2"/>
     <use xlink:href="#md60df53bfc" x="135.384012" y="134.470228" style="fill: #808080; fill-opacity: 0.2; stroke: #808080; stroke-opacity: 0.2"/>
     <use xlink:href="#md60df53bfc" x="148.995895" y="61.784762" style="fill: #808080; fill-opacity: 0.2; stroke: #808080; stroke-opacity: 0.2"/>
     <use xlink:href="#md60df53bfc" x="135.336961" y="114.846518" style="fill: #808080; fill-opacity: 0.2; stroke: #808080; stroke-opacity: 0.2"/>
     <use xlink:href="#md60df53bfc" x="243.457688" y="93.415395" style="fill: #808080; fill-opacity: 0.2; stroke: #808080; stroke-opacity: 0.2"/>
     <use xlink:href="#md60df53bfc" x="161.253025" y="139.3051" style="fill: #808080; fill-opacity: 0.2; stroke: #808080; stroke-opacity: 0.2"/>
     <use xlink:href="#md60df53bfc" x="115.245753" y="128.069379" style="fill: #808080; fill-opacity: 0.2; stroke: #808080; stroke-opacity: 0.2"/>
     <use xlink:href="#md60df53bfc" x="198.088413" y="102.154996" style="fill: #808080; fill-opacity: 0.2; stroke: #808080; stroke-opacity: 0.2"/>
     <use xlink:href="#md60df53bfc" x="108.058248" y="126.560061" style="fill: #808080; fill-opacity: 0.2; stroke: #808080; stroke-opacity: 0.2"/>
     <use xlink:href="#md60df53bfc" x="171.050075" y="100.322968" style="fill: #808080; fill-opacity: 0.2; stroke: #808080; stroke-opacity: 0.2"/>
     <use xlink:href="#md60df53bfc" x="75.506108" y="160.227553" style="fill: #808080; fill-opacity: 0.2; stroke: #808080; stroke-opacity: 0.2"/>
     <use xlink:href="#md60df53bfc" x="103.328822" y="163.371754" style="fill: #808080; fill-opacity: 0.2; stroke: #808080; stroke-opacity: 0.2"/>
     <use xlink:href="#md60df53bfc" x="170.52126" y="144.459998" style="fill: #808080; fill-opacity: 0.2; stroke: #808080; stroke-opacity: 0.2"/>
     <use xlink:href="#md60df53bfc" x="194.383985" y="108.932614" style="fill: #808080; fill-opacity: 0.2; stroke: #808080; stroke-opacity: 0.2"/>
     <use xlink:href="#md60df53bfc" x="169.39806" y="92.694968" style="fill: #808080; fill-opacity: 0.2; stroke: #808080; stroke-opacity: 0.2"/>
     <use xlink:href="#md60df53bfc" x="156.752326" y="113.202822" style="fill: #808080; fill-opacity: 0.2; stroke: #808080; stroke-opacity: 0.2"/>
     <use xlink:href="#md60df53bfc" x="148.581299" y="149.510301" style="fill: #808080; fill-opacity: 0.2; stroke: #808080; stroke-opacity: 0.2"/>
     <use xlink:href="#md60df53bfc" x="96.705133" y="144.180956" style="fill: #808080; fill-opacity: 0.2; stroke: #808080; stroke-opacity: 0.2"/>
     <use xlink:href="#md60df53bfc" x="130.131907" y="122.757461" style="fill: #808080; fill-opacity: 0.2; stroke: #808080; stroke-opacity: 0.2"/>
     <use xlink:href="#md60df53bfc" x="141.552304" y="145.045014" style="fill: #808080; fill-opacity: 0.2; stroke: #808080; stroke-opacity: 0.2"/>
     <use xlink:href="#md60df53bfc" x="208.423714" y="88.654835" style="fill: #808080; fill-opacity: 0.2; stroke: #808080; stroke-opacity: 0.2"/>
     <use xlink:href="#md60df53bfc" x="176.987266" y="106.507934" style="fill: #808080; fill-opacity: 0.2; stroke: #808080; stroke-opacity: 0.2"/>
     <use xlink:href="#md60df53bfc" x="84.169477" y="179.503813" style="fill: #808080; fill-opacity: 0.2; stroke: #808080; stroke-opacity: 0.2"/>
     <use xlink:href="#md60df53bfc" x="176.126599" y="100.328041" style="fill: #808080; fill-opacity: 0.2; stroke: #808080; stroke-opacity: 0.2"/>
     <use xlink:href="#md60df53bfc" x="144.881266" y="111.497954" style="fill: #808080; fill-opacity: 0.2; stroke: #808080; stroke-opacity: 0.2"/>
     <use xlink:href="#md60df53bfc" x="132.023027" y="106.412994" style="fill: #808080; fill-opacity: 0.2; stroke: #808080; stroke-opacity: 0.2"/>
     <use xlink:href="#md60df53bfc" x="188.7977" y="78.622241" style="fill: #808080; fill-opacity: 0.2; stroke: #808080; stroke-opacity: 0.2"/>
     <use xlink:href="#md60df53bfc" x="207.272767" y="123.025428" style="fill: #808080; fill-opacity: 0.2; stroke: #808080; stroke-opacity: 0.2"/>
     <use xlink:href="#md60df53bfc" x="202.879205" y="115.519703" style="fill: #808080; fill-opacity: 0.2; stroke: #808080; stroke-opacity: 0.2"/>
     <use xlink:href="#md60df53bfc" x="124.872408" y="122.529182" style="fill: #808080; fill-opacity: 0.2; stroke: #808080; stroke-opacity: 0.2"/>
     <use xlink:href="#md60df53bfc" x="148.224037" y="110.860834" style="fill: #808080; fill-opacity: 0.2; stroke: #808080; stroke-opacity: 0.2"/>
     <use xlink:href="#md60df53bfc" x="176.44292" y="96.699257" style="fill: #808080; fill-opacity: 0.2; stroke: #808080; stroke-opacity: 0.2"/>
     <use xlink:href="#md60df53bfc" x="204.829488" y="8.827021" style="fill: #808080; fill-opacity: 0.2; stroke: #808080; stroke-opacity: 0.2"/>
     <use xlink:href="#md60df53bfc" x="140.735645" y="113.351319" style="fill: #808080; fill-opacity: 0.2; stroke: #808080; stroke-opacity: 0.2"/>
     <use xlink:href="#md60df53bfc" x="153.667707" y="94.413157" style="fill: #808080; fill-opacity: 0.2; stroke: #808080; stroke-opacity: 0.2"/>
     <use xlink:href="#md60df53bfc" x="113.103414" y="118.736894" style="fill: #808080; fill-opacity: 0.2; stroke: #808080; stroke-opacity: 0.2"/>
     <use xlink:href="#md60df53bfc" x="109.143736" y="127.398015" style="fill: #808080; fill-opacity: 0.2; stroke: #808080; stroke-opacity: 0.2"/>
     <use xlink:href="#md60df53bfc" x="197.64698" y="104.402037" style="fill: #808080; fill-opacity: 0.2; stroke: #808080; stroke-opacity: 0.2"/>
     <use xlink:href="#md60df53bfc" x="221.60262" y="68.69778" style="fill: #808080; fill-opacity: 0.2; stroke: #808080; stroke-opacity: 0.2"/>
     <use xlink:href="#md60df53bfc" x="158.67499" y="134.018721" style="fill: #808080; fill-opacity: 0.2; stroke: #808080; stroke-opacity: 0.2"/>
     <use xlink:href="#md60df53bfc" x="206.062608" y="98.455764" style="fill: #808080; fill-opacity: 0.2; stroke: #808080; stroke-opacity: 0.2"/>
     <use xlink:href="#md60df53bfc" x="177.781114" y="118.105636" style="fill: #808080; fill-opacity: 0.2; stroke: #808080; stroke-opacity: 0.2"/>
     <use xlink:href="#md60df53bfc" x="133.42421" y="127.804725" style="fill: #808080; fill-opacity: 0.2; stroke: #808080; stroke-opacity: 0.2"/>
     <use xlink:href="#md60df53bfc" x="177.770521" y="56.321305" style="fill: #808080; fill-opacity: 0.2; stroke: #808080; stroke-opacity: 0.2"/>
     <use xlink:href="#md60df53bfc" x="229.612439" y="122.640543" style="fill: #808080; fill-opacity: 0.2; stroke: #808080; stroke-opacity: 0.2"/>
     <use xlink:href="#md60df53bfc" x="160.269234" y="101.021782" style="fill: #808080; fill-opacity: 0.2; stroke: #808080; stroke-opacity: 0.2"/>
     <use xlink:href="#md60df53bfc" x="230.784727" y="116.436109" style="fill: #808080; fill-opacity: 0.2; stroke: #808080; stroke-opacity: 0.2"/>
     <use xlink:href="#md60df53bfc" x="46.4237" y="183.601019" style="fill: #808080; fill-opacity: 0.2; stroke: #808080; stroke-opacity: 0.2"/>
     <use xlink:href="#md60df53bfc" x="198.060109" y="73.20742" style="fill: #808080; fill-opacity: 0.2; stroke: #808080; stroke-opacity: 0.2"/>
     <use xlink:href="#md60df53bfc" x="165.682931" y="112.035854" style="fill: #808080; fill-opacity: 0.2; stroke: #808080; stroke-opacity: 0.2"/>
     <use xlink:href="#md60df53bfc" x="148.673663" y="145.756823" style="fill: #808080; fill-opacity: 0.2; stroke: #808080; stroke-opacity: 0.2"/>
     <use xlink:href="#md60df53bfc" x="165.890613" y="129.135339" style="fill: #808080; fill-opacity: 0.2; stroke: #808080; stroke-opacity: 0.2"/>
     <use xlink:href="#md60df53bfc" x="74.276908" y="144.238996" style="fill: #808080; fill-opacity: 0.2; stroke: #808080; stroke-opacity: 0.2"/>
     <use xlink:href="#md60df53bfc" x="152.169124" y="136.340298" style="fill: #808080; fill-opacity: 0.2; stroke: #808080; stroke-opacity: 0.2"/>
     <use xlink:href="#md60df53bfc" x="177.581814" y="102.71796" style="fill: #808080; fill-opacity: 0.2; stroke: #808080; stroke-opacity: 0.2"/>
     <use xlink:href="#md60df53bfc" x="226.962604" y="81.756108" style="fill: #808080; fill-opacity: 0.2; stroke: #808080; stroke-opacity: 0.2"/>
     <use xlink:href="#md60df53bfc" x="139.013105" y="141.191454" style="fill: #808080; fill-opacity: 0.2; stroke: #808080; stroke-opacity: 0.2"/>
     <use xlink:href="#md60df53bfc" x="126.226081" y="85.905148" style="fill: #808080; fill-opacity: 0.2; stroke: #808080; stroke-opacity: 0.2"/>
     <use xlink:href="#md60df53bfc" x="139.740664" y="112.458781" style="fill: #808080; fill-opacity: 0.2; stroke: #808080; stroke-opacity: 0.2"/>
     <use xlink:href="#md60df53bfc" x="202.179632" y="139.864529" style="fill: #808080; fill-opacity: 0.2; stroke: #808080; stroke-opacity: 0.2"/>
     <use xlink:href="#md60df53bfc" x="176.332229" y="104.005949" style="fill: #808080; fill-opacity: 0.2; stroke: #808080; stroke-opacity: 0.2"/>
     <use xlink:href="#md60df53bfc" x="138.506865" y="141.669792" style="fill: #808080; fill-opacity: 0.2; stroke: #808080; stroke-opacity: 0.2"/>
     <use xlink:href="#md60df53bfc" x="184.46188" y="85.237598" style="fill: #808080; fill-opacity: 0.2; stroke: #808080; stroke-opacity: 0.2"/>
     <use xlink:href="#md60df53bfc" x="166.124866" y="130.722002" style="fill: #808080; fill-opacity: 0.2; stroke: #808080; stroke-opacity: 0.2"/>
     <use xlink:href="#md60df53bfc" x="204.525473" y="96.5316" style="fill: #808080; fill-opacity: 0.2; stroke: #808080; stroke-opacity: 0.2"/>
     <use xlink:href="#md60df53bfc" x="130.91577" y="119.724033" style="fill: #808080; fill-opacity: 0.2; stroke: #808080; stroke-opacity: 0.2"/>
     <use xlink:href="#md60df53bfc" x="147.411154" y="103.500876" style="fill: #808080; fill-opacity: 0.2; stroke: #808080; stroke-opacity: 0.2"/>
     <use xlink:href="#md60df53bfc" x="144.571711" y="150.515745" style="fill: #808080; fill-opacity: 0.2; stroke: #808080; stroke-opacity: 0.2"/>
     <use xlink:href="#md60df53bfc" x="97.366332" y="155.05309" style="fill: #808080; fill-opacity: 0.2; stroke: #808080; stroke-opacity: 0.2"/>
     <use xlink:href="#md60df53bfc" x="174.894539" y="119.321503" style="fill: #808080; fill-opacity: 0.2; stroke: #808080; stroke-opacity: 0.2"/>
     <use xlink:href="#md60df53bfc" x="173.349601" y="124.031799" style="fill: #808080; fill-opacity: 0.2; stroke: #808080; stroke-opacity: 0.2"/>
     <use xlink:href="#md60df53bfc" x="162.072997" y="76.303176" style="fill: #808080; fill-opacity: 0.2; stroke: #808080; stroke-opacity: 0.2"/>
     <use xlink:href="#md60df53bfc" x="151.511969" y="111.615081" style="fill: #808080; fill-opacity: 0.2; stroke: #808080; stroke-opacity: 0.2"/>
     <use xlink:href="#md60df53bfc" x="99.48753" y="174.433665" style="fill: #808080; fill-opacity: 0.2; stroke: #808080; stroke-opacity: 0.2"/>
     <use xlink:href="#md60df53bfc" x="143.314385" y="104.402918" style="fill: #808080; fill-opacity: 0.2; stroke: #808080; stroke-opacity: 0.2"/>
     <use xlink:href="#md60df53bfc" x="146.747958" y="76.107349" style="fill: #808080; fill-opacity: 0.2; stroke: #808080; stroke-opacity: 0.2"/>
     <use xlink:href="#md60df53bfc" x="126.499968" y="110.295587" style="fill: #808080; fill-opacity: 0.2; stroke: #808080; stroke-opacity: 0.2"/>
     <use xlink:href="#md60df53bfc" x="154.741575" y="152.463231" style="fill: #808080; fill-opacity: 0.2; stroke: #808080; stroke-opacity: 0.2"/>
     <use xlink:href="#md60df53bfc" x="179.64988" y="117.14472" style="fill: #808080; fill-opacity: 0.2; stroke: #808080; stroke-opacity: 0.2"/>
     <use xlink:href="#md60df53bfc" x="244.951637" y="45.794136" style="fill: #808080; fill-opacity: 0.2; stroke: #808080; stroke-opacity: 0.2"/>
     <use xlink:href="#md60df53bfc" x="169.53947" y="127.139301" style="fill: #808080; fill-opacity: 0.2; stroke: #808080; stroke-opacity: 0.2"/>
     <use xlink:href="#md60df53bfc" x="173.195179" y="99.897757" style="fill: #808080; fill-opacity: 0.2; stroke: #808080; stroke-opacity: 0.2"/>
     <use xlink:href="#md60df53bfc" x="158.567671" y="99.923834" style="fill: #808080; fill-opacity: 0.2; stroke: #808080; stroke-opacity: 0.2"/>
     <use xlink:href="#md60df53bfc" x="77.308083" y="178.172946" style="fill: #808080; fill-opacity: 0.2; stroke: #808080; stroke-opacity: 0.2"/>
     <use xlink:href="#md60df53bfc" x="160.679521" y="117.273948" style="fill: #808080; fill-opacity: 0.2; stroke: #808080; stroke-opacity: 0.2"/>
     <use xlink:href="#md60df53bfc" x="164.5014" y="185.572979" style="fill: #808080; fill-opacity: 0.2; stroke: #808080; stroke-opacity: 0.2"/>
     <use xlink:href="#md60df53bfc" x="270.3763" y="83.623275" style="fill: #808080; fill-opacity: 0.2; stroke: #808080; stroke-opacity: 0.2"/>
     <use xlink:href="#md60df53bfc" x="153.372422" y="125.193769" style="fill: #808080; fill-opacity: 0.2; stroke: #808080; stroke-opacity: 0.2"/>
     <use xlink:href="#md60df53bfc" x="175.133652" y="136.256382" style="fill: #808080; fill-opacity: 0.2; stroke: #808080; stroke-opacity: 0.2"/>
     <use xlink:href="#md60df53bfc" x="160.318328" y="80.117953" style="fill: #808080; fill-opacity: 0.2; stroke: #808080; stroke-opacity: 0.2"/>
     <use xlink:href="#md60df53bfc" x="110.356625" y="172.724858" style="fill: #808080; fill-opacity: 0.2; stroke: #808080; stroke-opacity: 0.2"/>
     <use xlink:href="#md60df53bfc" x="212.199617" y="99.866674" style="fill: #808080; fill-opacity: 0.2; stroke: #808080; stroke-opacity: 0.2"/>
     <use xlink:href="#md60df53bfc" x="194.977307" y="95.896826" style="fill: #808080; fill-opacity: 0.2; stroke: #808080; stroke-opacity: 0.2"/>
     <use xlink:href="#md60df53bfc" x="196.699976" y="66.113758" style="fill: #808080; fill-opacity: 0.2; stroke: #808080; stroke-opacity: 0.2"/>
     <use xlink:href="#md60df53bfc" x="121.780774" y="167.129193" style="fill: #808080; fill-opacity: 0.2; stroke: #808080; stroke-opacity: 0.2"/>
     <use xlink:href="#md60df53bfc" x="223.653766" y="58.750856" style="fill: #808080; fill-opacity: 0.2; stroke: #808080; stroke-opacity: 0.2"/>
     <use xlink:href="#md60df53bfc" x="100.083197" y="146.084877" style="fill: #808080; fill-opacity: 0.2; stroke: #808080; stroke-opacity: 0.2"/>
     <use xlink:href="#md60df53bfc" x="187.704185" y="124.084267" style="fill: #808080; fill-opacity: 0.2; stroke: #808080; stroke-opacity: 0.2"/>
     <use xlink:href="#md60df53bfc" x="258.357533" y="56.839783" style="fill: #808080; fill-opacity: 0.2; stroke: #808080; stroke-opacity: 0.2"/>
     <use xlink:href="#md60df53bfc" x="118.205415" y="132.841225" style="fill: #808080; fill-opacity: 0.2; stroke: #808080; stroke-opacity: 0.2"/>
     <use xlink:href="#md60df53bfc" x="136.897049" y="141.117396" style="fill: #808080; fill-opacity: 0.2; stroke: #808080; stroke-opacity: 0.2"/>
     <use xlink:href="#md60df53bfc" x="166.238266" y="111.63585" style="fill: #808080; fill-opacity: 0.2; stroke: #808080; stroke-opacity: 0.2"/>
     <use xlink:href="#md60df53bfc" x="139.664943" y="134.988677" style="fill: #808080; fill-opacity: 0.2; stroke: #808080; stroke-opacity: 0.2"/>
     <use xlink:href="#md60df53bfc" x="93.526636" y="147.08957" style="fill: #808080; fill-opacity: 0.2; stroke: #808080; stroke-opacity: 0.2"/>
     <use xlink:href="#md60df53bfc" x="164.868535" y="99.250652" style="fill: #808080; fill-opacity: 0.2; stroke: #808080; stroke-opacity: 0.2"/>
     <use xlink:href="#md60df53bfc" x="115.043398" y="103.818206" style="fill: #808080; fill-opacity: 0.2; stroke: #808080; stroke-opacity: 0.2"/>
     <use xlink:href="#md60df53bfc" x="182.713829" y="132.239806" style="fill: #808080; fill-opacity: 0.2; stroke: #808080; stroke-opacity: 0.2"/>
     <use xlink:href="#md60df53bfc" x="121.338561" y="88.593888" style="fill: #808080; fill-opacity: 0.2; stroke: #808080; stroke-opacity: 0.2"/>
     <use xlink:href="#md60df53bfc" x="230.136648" y="124.249814" style="fill: #808080; fill-opacity: 0.2; stroke: #808080; stroke-opacity: 0.2"/>
     <use xlink:href="#md60df53bfc" x="127.33815" y="136.009282" style="fill: #808080; fill-opacity: 0.2; stroke: #808080; stroke-opacity: 0.2"/>
     <use xlink:href="#md60df53bfc" x="147.657914" y="109.499661" style="fill: #808080; fill-opacity: 0.2; stroke: #808080; stroke-opacity: 0.2"/>
     <use xlink:href="#md60df53bfc" x="197.69066" y="91.222135" style="fill: #808080; fill-opacity: 0.2; stroke: #808080; stroke-opacity: 0.2"/>
     <use xlink:href="#md60df53bfc" x="107.616744" y="156.278891" style="fill: #808080; fill-opacity: 0.2; stroke: #808080; stroke-opacity: 0.2"/>
     <use xlink:href="#md60df53bfc" x="171.869416" y="114.948537" style="fill: #808080; fill-opacity: 0.2; stroke: #808080; stroke-opacity: 0.2"/>
     <use xlink:href="#md60df53bfc" x="219.439431" y="97.409155" style="fill: #808080; fill-opacity: 0.2; stroke: #808080; stroke-opacity: 0.2"/>
     <use xlink:href="#md60df53bfc" x="91.023198" y="163.854333" style="fill: #808080; fill-opacity: 0.2; stroke: #808080; stroke-opacity: 0.2"/>
     <use xlink:href="#md60df53bfc" x="169.982531" y="92.552216" style="fill: #808080; fill-opacity: 0.2; stroke: #808080; stroke-opacity: 0.2"/>
     <use xlink:href="#md60df53bfc" x="173.297943" y="101.761837" style="fill: #808080; fill-opacity: 0.2; stroke: #808080; stroke-opacity: 0.2"/>
     <use xlink:href="#md60df53bfc" x="196.294231" y="113.413174" style="fill: #808080; fill-opacity: 0.2; stroke: #808080; stroke-opacity: 0.2"/>
     <use xlink:href="#md60df53bfc" x="107.348582" y="122.81978" style="fill: #808080; fill-opacity: 0.2; stroke: #808080; stroke-opacity: 0.2"/>
     <use xlink:href="#md60df53bfc" x="103.669375" y="137.733171" style="fill: #808080; fill-opacity: 0.2; stroke: #808080; stroke-opacity: 0.2"/>
     <use xlink:href="#md60df53bfc" x="184.844056" y="85.919421" style="fill: #808080; fill-opacity: 0.2; stroke: #808080; stroke-opacity: 0.2"/>
     <use xlink:href="#md60df53bfc" x="174.932624" y="94.927179" style="fill: #808080; fill-opacity: 0.2; stroke: #808080; stroke-opacity: 0.2"/>
    </g>
   </g>
   <g id="line2d_2">
    <path d="M 46.4237 177.584597 
L 48.685847 176.129386 
L 50.947995 174.674174 
L 53.210142 173.218962 
L 55.47229 171.76375 
L 57.734437 170.308539 
L 59.996585 168.853327 
L 62.258732 167.398115 
L 64.52088 165.942904 
L 66.783027 164.487692 
L 69.045175 163.03248 
L 71.307322 161.577268 
L 73.569469 160.122057 
L 75.831617 158.666845 
L 78.093764 157.211633 
L 80.355912 155.756421 
L 82.618059 154.30121 
L 84.880207 152.845998 
L 87.142354 151.390786 
L 89.404502 149.935575 
L 91.666649 148.480363 
L 93.928797 147.025151 
L 96.190944 145.569939 
L 98.453092 144.114728 
L 100.715239 142.659516 
L 102.977387 141.204304 
L 105.239534 139.749092 
L 107.501682 138.293881 
L 109.763829 136.838669 
L 112.025977 135.383457 
L 114.288124 133.928245 
L 116.550272 132.473034 
L 118.812419 131.017822 
L 121.074567 129.56261 
L 123.336714 128.107399 
L 125.598862 126.652187 
L 127.861009 125.196975 
L 130.123156 123.741763 
L 132.385304 122.286552 
L 134.647451 120.83134 
L 136.909599 119.376128 
L 139.171746 117.920916 
L 141.433894 116.465705 
L 143.696041 115.010493 
L 145.958189 113.555281 
L 148.220336 112.100069 
L 150.482484 110.644858 
L 152.744631 109.189646 
L 155.006779 107.734434 
L 157.268926 106.279223 
L 159.531074 104.824011 
L 161.793221 103.368799 
L 164.055369 101.913587 
L 166.317516 100.458376 
L 168.579664 99.003164 
L 170.841811 97.547952 
L 173.103959 96.09274 
L 175.366106 94.637529 
L 177.628254 93.182317 
L 179.890401 91.727105 
L 182.152549 90.271893 
L 184.414696 88.816682 
L 186.676844 87.36147 
L 188.938991 85.906258 
L 191.201138 84.451047 
L 193.463286 82.995835 
L 195.725433 81.540623 
L 197.987581 80.085411 
L 200.249728 78.6302 
L 202.511876 77.174988 
L 204.774023 75.719776 
L 207.036171 74.264564 
L 209.298318 72.809353 
L 211.560466 71.354141 
L 213.822613 69.898929 
L 216.084761 68.443718 
L 218.346908 66.988506 
L 220.609056 65.533294 
L 222.871203 64.078082 
L 225.133351 62.622871 
L 227.395498 61.167659 
L 229.657646 59.712447 
L 231.919793 58.257235 
L 234.181941 56.802024 
L 236.444088 55.346812 
L 238.706236 53.8916 
L 240.968383 52.436388 
L 243.230531 50.981177 
L 245.492678 49.525965 
L 247.754825 48.070753 
L 250.016973 46.615542 
L 252.27912 45.16033 
L 254.541268 43.705118 
L 256.803415 42.249906 
L 259.065563 40.794695 
L 261.32771 39.339483 
L 263.589858 37.884271 
L 265.852005 36.429059 
L 268.114153 34.973848 
L 270.3763 33.518636 
" clip-path="url(#p5a01c88bd3)" style="fill: none; stroke: #1f77b4; stroke-width: 1.5; stroke-linecap: square"/>
   </g>
   <g id="line2d_3">
    <path d="M 46.4237 114.772527 
L 48.685847 114.772527 
L 50.947995 114.772527 
L 53.210142 114.772527 
L 55.47229 114.772527 
L 57.734437 114.772527 
L 59.996585 114.772527 
L 62.258732 114.772527 
L 64.52088 114.772527 
L 66.783027 114.772527 
L 69.045175 114.772527 
L 71.307322 114.772527 
L 73.569469 114.772527 
L 75.831617 114.772527 
L 78.093764 114.772527 
L 80.355912 114.772527 
L 82.618059 114.772527 
L 84.880207 114.772527 
L 87.142354 114.772527 
L 89.404502 114.772527 
L 91.666649 114.772527 
L 93.928797 114.772527 
L 96.190944 114.772527 
L 98.453092 114.772527 
L 100.715239 114.772527 
L 102.977387 114.772527 
L 105.239534 114.772527 
L 107.501682 114.772527 
L 109.763829 114.772527 
L 112.025977 114.772527 
L 114.288124 114.772527 
L 116.550272 114.772527 
L 118.812419 114.772527 
L 121.074567 114.772527 
L 123.336714 114.772527 
L 125.598862 114.772527 
L 127.861009 114.772527 
L 130.123156 114.772527 
L 132.385304 114.772527 
L 134.647451 114.772527 
L 136.909599 114.772527 
L 139.171746 114.772527 
L 141.433894 114.772527 
L 143.696041 114.772527 
L 145.958189 114.772527 
L 148.220336 114.772527 
L 150.482484 114.772527 
L 152.744631 114.772527 
L 155.006779 114.772527 
L 157.268926 114.772527 
L 159.531074 114.772527 
L 161.793221 114.772527 
L 164.055369 114.772527 
L 166.317516 114.772527 
L 168.579664 114.772527 
L 170.841811 114.772527 
L 173.103959 114.772527 
L 175.366106 114.772527 
L 177.628254 114.772527 
L 179.890401 114.772527 
L 182.152549 114.772527 
L 184.414696 114.772527 
L 186.676844 114.772527 
L 188.938991 114.772527 
L 191.201138 114.772527 
L 193.463286 114.772527 
L 195.725433 114.772527 
L 197.987581 114.772527 
L 200.249728 114.772527 
L 202.511876 114.772527 
L 204.774023 114.772527 
L 207.036171 114.772527 
L 209.298318 114.772527 
L 211.560466 114.772527 
L 213.822613 114.772527 
L 216.084761 114.772527 
L 218.346908 114.772527 
L 220.609056 114.772527 
L 222.871203 114.772527 
L 225.133351 114.772527 
L 227.395498 114.772527 
L 229.657646 114.772527 
L 231.919793 114.772527 
L 234.181941 114.772527 
L 236.444088 114.772527 
L 238.706236 114.772527 
L 240.968383 114.772527 
L 243.230531 114.772527 
L 245.492678 114.772527 
L 247.754825 114.772527 
L 250.016973 114.772527 
L 252.27912 114.772527 
L 254.541268 114.772527 
L 256.803415 114.772527 
L 259.065563 114.772527 
L 261.32771 114.772527 
L 263.589858 114.772527 
L 265.852005 114.772527 
L 268.114153 114.772527 
L 270.3763 114.772527 
" clip-path="url(#p5a01c88bd3)" style="fill: none; stroke: #ff7f0e; stroke-width: 1.5; stroke-linecap: square"/>
   </g>
   <g id="line2d_4">
    <path d="M 46.4237 161.576607 
L 48.685847 160.506099 
L 50.947995 159.435591 
L 53.210142 158.365083 
L 55.47229 157.294575 
L 57.734437 156.224067 
L 59.996585 155.153559 
L 62.258732 154.083051 
L 64.52088 153.012543 
L 66.783027 151.942035 
L 69.045175 150.871528 
L 71.307322 149.80102 
L 73.569469 148.730512 
L 75.831617 147.660004 
L 78.093764 146.589496 
L 80.355912 145.518988 
L 82.618059 144.44848 
L 84.880207 143.377972 
L 87.142354 142.307464 
L 89.404502 141.236956 
L 91.666649 140.166448 
L 93.928797 139.09594 
L 96.190944 138.025432 
L 98.453092 136.954924 
L 100.715239 135.884416 
L 102.977387 134.813908 
L 105.239534 133.7434 
L 107.501682 132.672892 
L 109.763829 131.602384 
L 112.025977 130.531876 
L 114.288124 129.461368 
L 116.550272 128.39086 
L 118.812419 127.320352 
L 121.074567 126.249844 
L 123.336714 125.179337 
L 125.598862 124.108829 
L 127.861009 123.038321 
L 130.123156 121.967813 
L 132.385304 120.897305 
L 134.647451 119.826797 
L 136.909599 118.756289 
L 139.171746 117.685781 
L 141.433894 116.615273 
L 143.696041 115.544765 
L 145.958189 114.474257 
L 148.220336 113.403749 
L 150.482484 112.333241 
L 152.744631 111.262733 
L 155.006779 110.192225 
L 157.268926 109.121717 
L 159.531074 108.051209 
L 161.793221 106.980701 
L 164.055369 105.910193 
L 166.317516 104.839685 
L 168.579664 103.769177 
L 170.841811 102.698669 
L 173.103959 101.628161 
L 175.366106 100.557653 
L 177.628254 99.487146 
L 179.890401 98.416638 
L 182.152549 97.34613 
L 184.414696 96.275622 
L 186.676844 95.205114 
L 188.938991 94.134606 
L 191.201138 93.064098 
L 193.463286 91.99359 
L 195.725433 90.923082 
L 197.987581 89.852574 
L 200.249728 88.782066 
L 202.511876 87.711558 
L 204.774023 86.64105 
L 207.036171 85.570542 
L 209.298318 84.500034 
L 211.560466 83.429526 
L 213.822613 82.359018 
L 216.084761 81.28851 
L 218.346908 80.218002 
L 220.609056 79.147494 
L 222.871203 78.076986 
L 225.133351 77.006478 
L 227.395498 75.93597 
L 229.657646 74.865462 
L 231.919793 73.794955 
L 234.181941 72.724447 
L 236.444088 71.653939 
L 238.706236 70.583431 
L 240.968383 69.512923 
L 243.230531 68.442415 
L 245.492678 67.371907 
L 247.754825 66.301399 
L 250.016973 65.230891 
L 252.27912 64.160383 
L 254.541268 63.089875 
L 256.803415 62.019367 
L 259.065563 60.948859 
L 261.32771 59.878351 
L 263.589858 58.807843 
L 265.852005 57.737335 
L 268.114153 56.666827 
L 270.3763 55.596319 
" clip-path="url(#p5a01c88bd3)" style="fill: none; stroke: #2ca02c; stroke-width: 1.5; stroke-linecap: square"/>
   </g>
   <g id="line2d_5">
    <path d="M 46.4237 161.541418 
L 48.685847 160.851073 
L 50.947995 160.160729 
L 53.210142 159.470384 
L 55.47229 158.780039 
L 57.734437 158.089695 
L 59.996585 157.39935 
L 62.258732 156.709006 
L 64.52088 156.018661 
L 66.783027 155.328317 
L 69.045175 154.637972 
L 71.307322 153.947628 
L 73.569469 153.257283 
L 75.831617 152.566939 
L 78.093764 151.876594 
L 80.355912 151.18625 
L 82.618059 150.495905 
L 84.880207 149.805561 
L 87.142354 149.115216 
L 89.404502 148.424872 
L 91.666649 147.734527 
L 93.928797 147.044183 
L 96.190944 146.353838 
L 98.453092 145.663494 
L 100.715239 144.973149 
L 102.977387 144.282805 
L 105.239534 143.59246 
L 107.501682 142.902115 
L 109.763829 142.211771 
L 112.025977 141.521426 
L 114.288124 140.831082 
L 116.550272 140.140737 
L 118.812419 139.450393 
L 121.074567 138.760048 
L 123.336714 138.069704 
L 125.598862 137.379359 
L 127.861009 136.689015 
L 130.123156 135.99867 
L 132.385304 135.308326 
L 134.647451 134.617981 
L 136.909599 133.927637 
L 139.171746 133.237292 
L 141.433894 132.546948 
L 143.696041 131.856603 
L 145.958189 131.166259 
L 148.220336 130.475914 
L 150.482484 129.78557 
L 152.744631 129.095225 
L 155.006779 128.404881 
L 157.268926 127.714536 
L 159.531074 127.024192 
L 161.793221 126.333847 
L 164.055369 125.643502 
L 166.317516 124.953158 
L 168.579664 124.262813 
L 170.841811 123.572469 
L 173.103959 122.882124 
L 175.366106 122.19178 
L 177.628254 121.501435 
L 179.890401 120.811091 
L 182.152549 120.120746 
L 184.414696 119.430402 
L 186.676844 118.740057 
L 188.938991 118.049713 
L 191.201138 117.359368 
L 193.463286 116.669024 
L 195.725433 115.978679 
L 197.987581 115.288335 
L 200.249728 114.59799 
L 202.511876 113.907646 
L 204.774023 113.217301 
L 207.036171 112.526957 
L 209.298318 111.836612 
L 211.560466 111.146268 
L 213.822613 110.455923 
L 216.084761 109.765578 
L 218.346908 109.075234 
L 220.609056 108.384889 
L 222.871203 107.694545 
L 225.133351 107.0042 
L 227.395498 106.313856 
L 229.657646 105.623511 
L 231.919793 104.933167 
L 234.181941 104.242822 
L 236.444088 103.552478 
L 238.706236 102.862133 
L 240.968383 102.171789 
L 243.230531 101.481444 
L 245.492678 100.7911 
L 247.754825 100.100755 
L 250.016973 99.410411 
L 252.27912 98.720066 
L 254.541268 98.029722 
L 256.803415 97.339377 
L 259.065563 96.649033 
L 261.32771 95.958688 
L 263.589858 95.268344 
L 265.852005 94.577999 
L 268.114153 93.887655 
L 270.3763 93.19731 
" clip-path="url(#p5a01c88bd3)" style="fill: none; stroke: #d62728; stroke-width: 1.5; stroke-linecap: square"/>
   </g>
   <g id="line2d_6">
    <path d="M 46.4237 173.576909 
L 48.685847 172.340058 
L 50.947995 171.103208 
L 53.210142 169.866358 
L 55.47229 168.629507 
L 57.734437 167.392657 
L 59.996585 166.155806 
L 62.258732 164.918956 
L 64.52088 163.682106 
L 66.783027 162.445255 
L 69.045175 161.208405 
L 71.307322 159.971554 
L 73.569469 158.734704 
L 75.831617 157.497854 
L 78.093764 156.261003 
L 80.355912 155.024153 
L 82.618059 153.787303 
L 84.880207 152.550452 
L 87.142354 151.313602 
L 89.404502 150.076751 
L 91.666649 148.839901 
L 93.928797 147.603051 
L 96.190944 146.3662 
L 98.453092 145.12935 
L 100.715239 143.8925 
L 102.977387 142.655649 
L 105.239534 141.418799 
L 107.501682 140.181948 
L 109.763829 138.945098 
L 112.025977 137.708248 
L 114.288124 136.471397 
L 116.550272 135.234547 
L 118.812419 133.997697 
L 121.074567 132.760846 
L 123.336714 131.523996 
L 125.598862 130.287145 
L 127.861009 129.050295 
L 130.123156 127.813445 
L 132.385304 126.576594 
L 134.647451 125.339744 
L 136.909599 124.102893 
L 139.171746 122.866043 
L 141.433894 121.629193 
L 143.696041 120.392342 
L 145.958189 119.155492 
L 148.220336 117.918642 
L 150.482484 116.681791 
L 152.744631 115.444941 
L 155.006779 114.20809 
L 157.268926 112.97124 
L 159.531074 111.73439 
L 161.793221 110.497539 
L 164.055369 109.260689 
L 166.317516 108.023839 
L 168.579664 106.786988 
L 170.841811 105.550138 
L 173.103959 104.313287 
L 175.366106 103.076437 
L 177.628254 101.839587 
L 179.890401 100.602736 
L 182.152549 99.365886 
L 184.414696 98.129035 
L 186.676844 96.892185 
L 188.938991 95.655335 
L 191.201138 94.418484 
L 193.463286 93.181634 
L 195.725433 91.944784 
L 197.987581 90.707933 
L 200.249728 89.471083 
L 202.511876 88.234232 
L 204.774023 86.997382 
L 207.036171 85.760532 
L 209.298318 84.523681 
L 211.560466 83.286831 
L 213.822613 82.049981 
L 216.084761 80.81313 
L 218.346908 79.57628 
L 220.609056 78.339429 
L 222.871203 77.102579 
L 225.133351 75.865729 
L 227.395498 74.628878 
L 229.657646 73.392028 
L 231.919793 72.155178 
L 234.181941 70.918327 
L 236.444088 69.681477 
L 238.706236 68.444626 
L 240.968383 67.207776 
L 243.230531 65.970926 
L 245.492678 64.734075 
L 247.754825 63.497225 
L 250.016973 62.260374 
L 252.27912 61.023524 
L 254.541268 59.786674 
L 256.803415 58.549823 
L 259.065563 57.312973 
L 261.32771 56.076123 
L 263.589858 54.839272 
L 265.852005 53.602422 
L 268.114153 52.365571 
L 270.3763 51.128721 
" clip-path="url(#p5a01c88bd3)" style="fill: none; stroke: #9467bd; stroke-width: 1.5; stroke-linecap: square"/>
   </g>
   <g id="line2d_7">
    <path d="M 46.4237 111.664707 
L 48.685847 111.664707 
L 50.947995 111.664707 
L 53.210142 111.664707 
L 55.47229 111.664707 
L 57.734437 111.664707 
L 59.996585 111.664707 
L 62.258732 111.664707 
L 64.52088 111.664707 
L 66.783027 111.664707 
L 69.045175 111.664707 
L 71.307322 111.664707 
L 73.569469 111.664707 
L 75.831617 111.664707 
L 78.093764 111.664707 
L 80.355912 111.664707 
L 82.618059 111.664707 
L 84.880207 111.664707 
L 87.142354 111.664707 
L 89.404502 111.664707 
L 91.666649 111.664707 
L 93.928797 111.664707 
L 96.190944 111.664707 
L 98.453092 111.664707 
L 100.715239 111.664707 
L 102.977387 111.664707 
L 105.239534 111.664707 
L 107.501682 111.664707 
L 109.763829 111.664707 
L 112.025977 111.664707 
L 114.288124 111.664707 
L 116.550272 111.664707 
L 118.812419 111.664707 
L 121.074567 111.664707 
L 123.336714 111.664707 
L 125.598862 111.664707 
L 127.861009 111.664707 
L 130.123156 111.664707 
L 132.385304 111.664707 
L 134.647451 111.664707 
L 136.909599 111.664707 
L 139.171746 111.664707 
L 141.433894 111.664707 
L 143.696041 111.664707 
L 145.958189 111.664707 
L 148.220336 111.664707 
L 150.482484 111.664707 
L 152.744631 111.664707 
L 155.006779 111.664707 
L 157.268926 111.664707 
L 159.531074 111.664707 
L 161.793221 111.664707 
L 164.055369 111.664707 
L 166.317516 111.664707 
L 168.579664 111.664707 
L 170.841811 111.664707 
L 173.103959 111.664707 
L 175.366106 111.664707 
L 177.628254 111.664707 
L 179.890401 111.664707 
L 182.152549 111.664707 
L 184.414696 111.664707 
L 186.676844 111.664707 
L 188.938991 111.664707 
L 191.201138 111.664707 
L 193.463286 111.664707 
L 195.725433 111.664707 
L 197.987581 111.664707 
L 200.249728 111.664707 
L 202.511876 111.664707 
L 204.774023 111.664707 
L 207.036171 111.664707 
L 209.298318 111.664707 
L 211.560466 111.664707 
L 213.822613 111.664707 
L 216.084761 111.664707 
L 218.346908 111.664707 
L 220.609056 111.664707 
L 222.871203 111.664707 
L 225.133351 111.664707 
L 227.395498 111.664707 
L 229.657646 111.664707 
L 231.919793 111.664707 
L 234.181941 111.664707 
L 236.444088 111.664707 
L 238.706236 111.664707 
L 240.968383 111.664707 
L 243.230531 111.664707 
L 245.492678 111.664707 
L 247.754825 111.664707 
L 250.016973 111.664707 
L 252.27912 111.664707 
L 254.541268 111.664707 
L 256.803415 111.664707 
L 259.065563 111.664707 
L 261.32771 111.664707 
L 263.589858 111.664707 
L 265.852005 111.664707 
L 268.114153 111.664707 
L 270.3763 111.664707 
" clip-path="url(#p5a01c88bd3)" style="fill: none; stroke: #8c564b; stroke-width: 1.5; stroke-linecap: square"/>
   </g>
   <g id="patch_3">
    <path d="M 28.8 194.4 
L 28.8 0 
" style="fill: none; stroke: #000000; stroke-width: 0.8; stroke-linejoin: miter; stroke-linecap: square"/>
   </g>
   <g id="patch_4">
    <path d="M 28.8 194.4 
L 288 194.4 
" style="fill: none; stroke: #000000; stroke-width: 0.8; stroke-linejoin: miter; stroke-linecap: square"/>
   </g>
  </g>
 </g>
 <defs>
  <clipPath id="p5a01c88bd3">
   <rect x="28.8" y="0" width="259.2" height="194.4"/>
  </clipPath>
 </defs>
</svg>
