<?xml version="1.0" encoding="utf-8" standalone="no"?>
<!DOCTYPE svg PUBLIC "-//W3C//DTD SVG 1.1//EN"
  "http://www.w3.org/Graphics/SVG/1.1/DTD/svg11.dtd">
<svg xmlns:xlink="http://www.w3.org/1999/xlink" width="288pt" height="216pt" viewBox="0 0 288 216" xmlns="http://www.w3.org/2000/svg" version="1.1">
 <metadata>
  <rdf:RDF xmlns:dc="http://purl.org/dc/elements/1.1/" xmlns:cc="http://creativecommons.org/ns#" xmlns:rdf="http://www.w3.org/1999/02/22-rdf-syntax-ns#">
   <cc:Work>
    <dc:type rdf:resource="http://purl.org/dc/dcmitype/StillImage"/>
    <dc:date>2024-12-15T13:39:16.956188</dc:date>
    <dc:format>image/svg+xml</dc:format>
    <dc:creator>
     <cc:Agent>
      <dc:title>Matplotlib v3.9.3, https://matplotlib.org/</dc:title>
     </cc:Agent>
    </dc:creator>
   </cc:Work>
  </rdf:RDF>
 </metadata>
 <defs>
  <style type="text/css">*{stroke-linejoin: round; stroke-linecap: butt}</style>
 </defs>
 <g id="figure_1">
  <g id="patch_1">
   <path d="M 0 216 
L 288 216 
L 288 0 
L 0 0 
L 0 216 
z
" style="fill: none"/>
  </g>
  <g id="axes_1">
   <g id="patch_2">
    <path d="M 28.8 194.4 
L 288 194.4 
L 288 0 
L 28.8 0 
L 28.8 194.4 
z
" style="fill: none"/>
   </g>
   <g id="matplotlib.axis_1">
    <g id="text_1">
     <!-- x -->
     <g transform="translate(151.305 215.116562) scale(0.22 -0.22)">
      <defs>
       <path id="DejaVuSans-Bold-78" d="M 1422 1791 
L 159 3500 
L 1344 3500 
L 2059 2463 
L 2784 3500 
L 3969 3500 
L 2706 1797 
L 4031 0 
L 2847 0 
L 2059 1106 
L 1281 0 
L 97 0 
L 1422 1791 
z
" transform="scale(0.015625)"/>
      </defs>
      <use xlink:href="#DejaVuSans-Bold-78"/>
     </g>
    </g>
   </g>
   <g id="matplotlib.axis_2">
    <g id="text_2">
     <!-- y -->
     <g transform="translate(20.052813 104.370625) rotate(-90) scale(0.22 -0.22)">
      <defs>
       <path id="DejaVuSans-Bold-79" d="M 78 3500 
L 1197 3500 
L 2138 1125 
L 2938 3500 
L 4056 3500 
L 2584 -331 
Q 2363 -916 2067 -1148 
Q 1772 -1381 1288 -1381 
L 641 -1381 
L 641 -647 
L 991 -647 
Q 1275 -647 1404 -556 
Q 1534 -466 1606 -231 
L 1638 -134 
L 78 3500 
z
" transform="scale(0.015625)"/>
      </defs>
      <use xlink:href="#DejaVuSans-Bold-79"/>
     </g>
    </g>
   </g>
   <g id="line2d_1">
    <defs>
     <path id="m254161fbea" d="M 0 7.5 
C 1.989023 7.5 3.896849 6.709753 5.303301 5.303301 
C 6.709753 3.896849 7.5 1.989023 7.5 0 
C 7.5 -1.989023 6.709753 -3.896849 5.303301 -5.303301 
C 3.896849 -6.709753 1.989023 -7.5 0 -7.5 
C -1.989023 -7.5 -3.896849 -6.709753 -5.303301 -5.303301 
C -6.709753 -3.896849 -7.5 -1.989023 -7.5 0 
C -7.5 1.989023 -6.709753 3.896849 -5.303301 5.303301 
C -3.896849 6.709753 -1.989023 7.5 0 7.5 
z
" style="stroke: #808080; stroke-opacity: 0.2"/>
    </defs>
    <g clip-path="url(#pfb66463878)">
     <use xlink:href="#m254161fbea" x="183.732555" y="98.886242" style="fill: #808080; fill-opacity: 0.2; stroke: #808080; stroke-opacity: 0.2"/>
     <use xlink:href="#m254161fbea" x="155.755881" y="110.781163" style="fill: #808080; fill-opacity: 0.2; stroke: #808080; stroke-opacity: 0.2"/>
     <use xlink:href="#m254161fbea" x="190.384373" y="116.088853" style="fill: #808080; fill-opacity: 0.2; stroke: #808080; stroke-opacity: 0.2"/>
     <use xlink:href="#m254161fbea" x="228.951254" y="76.640459" style="fill: #808080; fill-opacity: 0.2; stroke: #808080; stroke-opacity: 0.2"/>
     <use xlink:href="#m254161fbea" x="151.53108" y="114.075072" style="fill: #808080; fill-opacity: 0.2; stroke: #808080; stroke-opacity: 0.2"/>
     <use xlink:href="#m254161fbea" x="151.531804" y="136.30609" style="fill: #808080; fill-opacity: 0.2; stroke: #808080; stroke-opacity: 0.2"/>
     <use xlink:href="#m254161fbea" x="231.426633" y="39.352831" style="fill: #808080; fill-opacity: 0.2; stroke: #808080; stroke-opacity: 0.2"/>
     <use xlink:href="#m254161fbea" x="195.6603" y="87.983533" style="fill: #808080; fill-opacity: 0.2; stroke: #808080; stroke-opacity: 0.2"/>
     <use xlink:href="#m254161fbea" x="141.163013" y="152.024577" style="fill: #808080; fill-opacity: 0.2; stroke: #808080; stroke-opacity: 0.2"/>
     <use xlink:href="#m254161fbea" x="185.75249" y="88.913768" style="fill: #808080; fill-opacity: 0.2; stroke: #808080; stroke-opacity: 0.2"/>
     <use xlink:href="#m254161fbea" x="141.429867" y="147.110607" style="fill: #808080; fill-opacity: 0.2; stroke: #808080; stroke-opacity: 0.2"/>
     <use xlink:href="#m254161fbea" x="141.327999" y="108.283757" style="fill: #808080; fill-opacity: 0.2; stroke: #808080; stroke-opacity: 0.2"/>
     <use xlink:href="#m254161fbea" x="172.508378" y="84.468388" style="fill: #808080; fill-opacity: 0.2; stroke: #808080; stroke-opacity: 0.2"/>
     <use xlink:href="#m254161fbea" x="77.550011" y="175.707137" style="fill: #808080; fill-opacity: 0.2; stroke: #808080; stroke-opacity: 0.2"/>
     <use xlink:href="#m254161fbea" x="85.849117" y="132.180635" style="fill: #808080; fill-opacity: 0.2; stroke: #808080; stroke-opacity: 0.2"/>
     <use xlink:href="#m254161fbea" x="137.073736" y="118.674517" style="fill: #808080; fill-opacity: 0.2; stroke: #808080; stroke-opacity: 0.2"/>
     <use xlink:href="#m254161fbea" x="117.223123" y="119.585121" style="fill: #808080; fill-opacity: 0.2; stroke: #808080; stroke-opacity: 0.2"/>
     <use xlink:href="#m254161fbea" x="175.693204" y="66.583023" style="fill: #808080; fill-opacity: 0.2; stroke: #808080; stroke-opacity: 0.2"/>
     <use xlink:href="#m254161fbea" x="121.840843" y="140.828257" style="fill: #808080; fill-opacity: 0.2; stroke: #808080; stroke-opacity: 0.2"/>
     <use xlink:href="#m254161fbea" x="99.622661" y="163.174473" style="fill: #808080; fill-opacity: 0.2; stroke: #808080; stroke-opacity: 0.2"/>
     <use xlink:href="#m254161fbea" x="226.423087" y="102.661397" style="fill: #808080; fill-opacity: 0.2; stroke: #808080; stroke-opacity: 0.2"/>
     <use xlink:href="#m254161fbea" x="151.900168" y="138.36054" style="fill: #808080; fill-opacity: 0.2; stroke: #808080; stroke-opacity: 0.2"/>
     <use xlink:href="#m254161fbea" x="164.822944" y="115.586536" style="fill: #808080; fill-opacity: 0.2; stroke: #808080; stroke-opacity: 0.2"/>
     <use xlink:href="#m254161fbea" x="99.074367" y="139.28759" style="fill: #808080; fill-opacity: 0.2; stroke: #808080; stroke-opacity: 0.2"/>
     <use xlink:href="#m254161fbea" x="137.862608" y="121.282578" style="fill: #808080; fill-opacity: 0.2; stroke: #808080; stroke-opacity: 0.2"/>
     <use xlink:href="#m254161fbea" x="166.734868" y="94.673572" style="fill: #808080; fill-opacity: 0.2; stroke: #808080; stroke-opacity: 0.2"/>
     <use xlink:href="#m254161fbea" x="111.135789" y="140.487965" style="fill: #808080; fill-opacity: 0.2; stroke: #808080; stroke-opacity: 0.2"/>
     <use xlink:href="#m254161fbea" x="178.400675" y="75.008596" style="fill: #808080; fill-opacity: 0.2; stroke: #808080; stroke-opacity: 0.2"/>
     <use xlink:href="#m254161fbea" x="135.384012" y="134.470228" style="fill: #808080; fill-opacity: 0.2; stroke: #808080; stroke-opacity: 0.2"/>
     <use xlink:href="#m254161fbea" x="148.995895" y="61.784762" style="fill: #808080; fill-opacity: 0.2; stroke: #808080; stroke-opacity: 0.2"/>
     <use xlink:href="#m254161fbea" x="135.336961" y="114.846518" style="fill: #808080; fill-opacity: 0.2; stroke: #808080; stroke-opacity: 0.2"/>
     <use xlink:href="#m254161fbea" x="243.457688" y="93.415395" style="fill: #808080; fill-opacity: 0.2; stroke: #808080; stroke-opacity: 0.2"/>
     <use xlink:href="#m254161fbea" x="161.253025" y="139.3051" style="fill: #808080; fill-opacity: 0.2; stroke: #808080; stroke-opacity: 0.2"/>
     <use xlink:href="#m254161fbea" x="115.245753" y="128.069379" style="fill: #808080; fill-opacity: 0.2; stroke: #808080; stroke-opacity: 0.2"/>
     <use xlink:href="#m254161fbea" x="198.088413" y="102.154996" style="fill: #808080; fill-opacity: 0.2; stroke: #808080; stroke-opacity: 0.2"/>
     <use xlink:href="#m254161fbea" x="108.058248" y="126.560061" style="fill: #808080; fill-opacity: 0.2; stroke: #808080; stroke-opacity: 0.2"/>
     <use xlink:href="#m254161fbea" x="171.050075" y="100.322968" style="fill: #808080; fill-opacity: 0.2; stroke: #808080; stroke-opacity: 0.2"/>
     <use xlink:href="#m254161fbea" x="75.506108" y="160.227553" style="fill: #808080; fill-opacity: 0.2; stroke: #808080; stroke-opacity: 0.2"/>
     <use xlink:href="#m254161fbea" x="103.328822" y="163.371754" style="fill: #808080; fill-opacity: 0.2; stroke: #808080; stroke-opacity: 0.2"/>
     <use xlink:href="#m254161fbea" x="170.52126" y="144.459998" style="fill: #808080; fill-opacity: 0.2; stroke: #808080; stroke-opacity: 0.2"/>
     <use xlink:href="#m254161fbea" x="194.383985" y="108.932614" style="fill: #808080; fill-opacity: 0.2; stroke: #808080; stroke-opacity: 0.2"/>
     <use xlink:href="#m254161fbea" x="169.39806" y="92.694968" style="fill: #808080; fill-opacity: 0.2; stroke: #808080; stroke-opacity: 0.2"/>
     <use xlink:href="#m254161fbea" x="156.752326" y="113.202822" style="fill: #808080; fill-opacity: 0.2; stroke: #808080; stroke-opacity: 0.2"/>
     <use xlink:href="#m254161fbea" x="148.581299" y="149.510301" style="fill: #808080; fill-opacity: 0.2; stroke: #808080; stroke-opacity: 0.2"/>
     <use xlink:href="#m254161fbea" x="96.705133" y="144.180956" style="fill: #808080; fill-opacity: 0.2; stroke: #808080; stroke-opacity: 0.2"/>
     <use xlink:href="#m254161fbea" x="130.131907" y="122.757461" style="fill: #808080; fill-opacity: 0.2; stroke: #808080; stroke-opacity: 0.2"/>
     <use xlink:href="#m254161fbea" x="141.552304" y="145.045014" style="fill: #808080; fill-opacity: 0.2; stroke: #808080; stroke-opacity: 0.2"/>
     <use xlink:href="#m254161fbea" x="208.423714" y="88.654835" style="fill: #808080; fill-opacity: 0.2; stroke: #808080; stroke-opacity: 0.2"/>
     <use xlink:href="#m254161fbea" x="176.987266" y="106.507934" style="fill: #808080; fill-opacity: 0.2; stroke: #808080; stroke-opacity: 0.2"/>
     <use xlink:href="#m254161fbea" x="84.169477" y="179.503813" style="fill: #808080; fill-opacity: 0.2; stroke: #808080; stroke-opacity: 0.2"/>
     <use xlink:href="#m254161fbea" x="176.126599" y="100.328041" style="fill: #808080; fill-opacity: 0.2; stroke: #808080; stroke-opacity: 0.2"/>
     <use xlink:href="#m254161fbea" x="144.881266" y="111.497954" style="fill: #808080; fill-opacity: 0.2; stroke: #808080; stroke-opacity: 0.2"/>
     <use xlink:href="#m254161fbea" x="132.023027" y="106.412994" style="fill: #808080; fill-opacity: 0.2; stroke: #808080; stroke-opacity: 0.2"/>
     <use xlink:href="#m254161fbea" x="188.7977" y="78.622241" style="fill: #808080; fill-opacity: 0.2; stroke: #808080; stroke-opacity: 0.2"/>
     <use xlink:href="#m254161fbea" x="207.272767" y="123.025428" style="fill: #808080; fill-opacity: 0.2; stroke: #808080; stroke-opacity: 0.2"/>
     <use xlink:href="#m254161fbea" x="202.879205" y="115.519703" style="fill: #808080; fill-opacity: 0.2; stroke: #808080; stroke-opacity: 0.2"/>
     <use xlink:href="#m254161fbea" x="124.872408" y="122.529182" style="fill: #808080; fill-opacity: 0.2; stroke: #808080; stroke-opacity: 0.2"/>
     <use xlink:href="#m254161fbea" x="148.224037" y="110.860834" style="fill: #808080; fill-opacity: 0.2; stroke: #808080; stroke-opacity: 0.2"/>
     <use xlink:href="#m254161fbea" x="176.44292" y="96.699257" style="fill: #808080; fill-opacity: 0.2; stroke: #808080; stroke-opacity: 0.2"/>
     <use xlink:href="#m254161fbea" x="204.829488" y="8.827021" style="fill: #808080; fill-opacity: 0.2; stroke: #808080; stroke-opacity: 0.2"/>
     <use xlink:href="#m254161fbea" x="140.735645" y="113.351319" style="fill: #808080; fill-opacity: 0.2; stroke: #808080; stroke-opacity: 0.2"/>
     <use xlink:href="#m254161fbea" x="153.667707" y="94.413157" style="fill: #808080; fill-opacity: 0.2; stroke: #808080; stroke-opacity: 0.2"/>
     <use xlink:href="#m254161fbea" x="113.103414" y="118.736894" style="fill: #808080; fill-opacity: 0.2; stroke: #808080; stroke-opacity: 0.2"/>
     <use xlink:href="#m254161fbea" x="109.143736" y="127.398015" style="fill: #808080; fill-opacity: 0.2; stroke: #808080; stroke-opacity: 0.2"/>
     <use xlink:href="#m254161fbea" x="197.64698" y="104.402037" style="fill: #808080; fill-opacity: 0.2; stroke: #808080; stroke-opacity: 0.2"/>
     <use xlink:href="#m254161fbea" x="221.60262" y="68.69778" style="fill: #808080; fill-opacity: 0.2; stroke: #808080; stroke-opacity: 0.2"/>
     <use xlink:href="#m254161fbea" x="158.67499" y="134.018721" style="fill: #808080; fill-opacity: 0.2; stroke: #808080; stroke-opacity: 0.2"/>
     <use xlink:href="#m254161fbea" x="206.062608" y="98.455764" style="fill: #808080; fill-opacity: 0.2; stroke: #808080; stroke-opacity: 0.2"/>
     <use xlink:href="#m254161fbea" x="177.781114" y="118.105636" style="fill: #808080; fill-opacity: 0.2; stroke: #808080; stroke-opacity: 0.2"/>
     <use xlink:href="#m254161fbea" x="133.42421" y="127.804725" style="fill: #808080; fill-opacity: 0.2; stroke: #808080; stroke-opacity: 0.2"/>
     <use xlink:href="#m254161fbea" x="177.770521" y="56.321305" style="fill: #808080; fill-opacity: 0.2; stroke: #808080; stroke-opacity: 0.2"/>
     <use xlink:href="#m254161fbea" x="229.612439" y="122.640543" style="fill: #808080; fill-opacity: 0.2; stroke: #808080; stroke-opacity: 0.2"/>
     <use xlink:href="#m254161fbea" x="160.269234" y="101.021782" style="fill: #808080; fill-opacity: 0.2; stroke: #808080; stroke-opacity: 0.2"/>
     <use xlink:href="#m254161fbea" x="230.784727" y="116.436109" style="fill: #808080; fill-opacity: 0.2; stroke: #808080; stroke-opacity: 0.2"/>
     <use xlink:href="#m254161fbea" x="46.4237" y="183.601019" style="fill: #808080; fill-opacity: 0.2; stroke: #808080; stroke-opacity: 0.2"/>
     <use xlink:href="#m254161fbea" x="198.060109" y="73.20742" style="fill: #808080; fill-opacity: 0.2; stroke: #808080; stroke-opacity: 0.2"/>
     <use xlink:href="#m254161fbea" x="165.682931" y="112.035854" style="fill: #808080; fill-opacity: 0.2; stroke: #808080; stroke-opacity: 0.2"/>
     <use xlink:href="#m254161fbea" x="148.673663" y="145.756823" style="fill: #808080; fill-opacity: 0.2; stroke: #808080; stroke-opacity: 0.2"/>
     <use xlink:href="#m254161fbea" x="165.890613" y="129.135339" style="fill: #808080; fill-opacity: 0.2; stroke: #808080; stroke-opacity: 0.2"/>
     <use xlink:href="#m254161fbea" x="74.276908" y="144.238996" style="fill: #808080; fill-opacity: 0.2; stroke: #808080; stroke-opacity: 0.2"/>
     <use xlink:href="#m254161fbea" x="152.169124" y="136.340298" style="fill: #808080; fill-opacity: 0.2; stroke: #808080; stroke-opacity: 0.2"/>
     <use xlink:href="#m254161fbea" x="177.581814" y="102.71796" style="fill: #808080; fill-opacity: 0.2; stroke: #808080; stroke-opacity: 0.2"/>
     <use xlink:href="#m254161fbea" x="226.962604" y="81.756108" style="fill: #808080; fill-opacity: 0.2; stroke: #808080; stroke-opacity: 0.2"/>
     <use xlink:href="#m254161fbea" x="139.013105" y="141.191454" style="fill: #808080; fill-opacity: 0.2; stroke: #808080; stroke-opacity: 0.2"/>
     <use xlink:href="#m254161fbea" x="126.226081" y="85.905148" style="fill: #808080; fill-opacity: 0.2; stroke: #808080; stroke-opacity: 0.2"/>
     <use xlink:href="#m254161fbea" x="139.740664" y="112.458781" style="fill: #808080; fill-opacity: 0.2; stroke: #808080; stroke-opacity: 0.2"/>
     <use xlink:href="#m254161fbea" x="202.179632" y="139.864529" style="fill: #808080; fill-opacity: 0.2; stroke: #808080; stroke-opacity: 0.2"/>
     <use xlink:href="#m254161fbea" x="176.332229" y="104.005949" style="fill: #808080; fill-opacity: 0.2; stroke: #808080; stroke-opacity: 0.2"/>
     <use xlink:href="#m254161fbea" x="138.506865" y="141.669792" style="fill: #808080; fill-opacity: 0.2; stroke: #808080; stroke-opacity: 0.2"/>
     <use xlink:href="#m254161fbea" x="184.46188" y="85.237598" style="fill: #808080; fill-opacity: 0.2; stroke: #808080; stroke-opacity: 0.2"/>
     <use xlink:href="#m254161fbea" x="166.124866" y="130.722002" style="fill: #808080; fill-opacity: 0.2; stroke: #808080; stroke-opacity: 0.2"/>
     <use xlink:href="#m254161fbea" x="204.525473" y="96.5316" style="fill: #808080; fill-opacity: 0.2; stroke: #808080; stroke-opacity: 0.2"/>
     <use xlink:href="#m254161fbea" x="130.91577" y="119.724033" style="fill: #808080; fill-opacity: 0.2; stroke: #808080; stroke-opacity: 0.2"/>
     <use xlink:href="#m254161fbea" x="147.411154" y="103.500876" style="fill: #808080; fill-opacity: 0.2; stroke: #808080; stroke-opacity: 0.2"/>
     <use xlink:href="#m254161fbea" x="144.571711" y="150.515745" style="fill: #808080; fill-opacity: 0.2; stroke: #808080; stroke-opacity: 0.2"/>
     <use xlink:href="#m254161fbea" x="97.366332" y="155.05309" style="fill: #808080; fill-opacity: 0.2; stroke: #808080; stroke-opacity: 0.2"/>
     <use xlink:href="#m254161fbea" x="174.894539" y="119.321503" style="fill: #808080; fill-opacity: 0.2; stroke: #808080; stroke-opacity: 0.2"/>
     <use xlink:href="#m254161fbea" x="173.349601" y="124.031799" style="fill: #808080; fill-opacity: 0.2; stroke: #808080; stroke-opacity: 0.2"/>
     <use xlink:href="#m254161fbea" x="162.072997" y="76.303176" style="fill: #808080; fill-opacity: 0.2; stroke: #808080; stroke-opacity: 0.2"/>
     <use xlink:href="#m254161fbea" x="151.511969" y="111.615081" style="fill: #808080; fill-opacity: 0.2; stroke: #808080; stroke-opacity: 0.2"/>
     <use xlink:href="#m254161fbea" x="99.48753" y="174.433665" style="fill: #808080; fill-opacity: 0.2; stroke: #808080; stroke-opacity: 0.2"/>
     <use xlink:href="#m254161fbea" x="143.314385" y="104.402918" style="fill: #808080; fill-opacity: 0.2; stroke: #808080; stroke-opacity: 0.2"/>
     <use xlink:href="#m254161fbea" x="146.747958" y="76.107349" style="fill: #808080; fill-opacity: 0.2; stroke: #808080; stroke-opacity: 0.2"/>
     <use xlink:href="#m254161fbea" x="126.499968" y="110.295587" style="fill: #808080; fill-opacity: 0.2; stroke: #808080; stroke-opacity: 0.2"/>
     <use xlink:href="#m254161fbea" x="154.741575" y="152.463231" style="fill: #808080; fill-opacity: 0.2; stroke: #808080; stroke-opacity: 0.2"/>
     <use xlink:href="#m254161fbea" x="179.64988" y="117.14472" style="fill: #808080; fill-opacity: 0.2; stroke: #808080; stroke-opacity: 0.2"/>
     <use xlink:href="#m254161fbea" x="244.951637" y="45.794136" style="fill: #808080; fill-opacity: 0.2; stroke: #808080; stroke-opacity: 0.2"/>
     <use xlink:href="#m254161fbea" x="169.53947" y="127.139301" style="fill: #808080; fill-opacity: 0.2; stroke: #808080; stroke-opacity: 0.2"/>
     <use xlink:href="#m254161fbea" x="173.195179" y="99.897757" style="fill: #808080; fill-opacity: 0.2; stroke: #808080; stroke-opacity: 0.2"/>
     <use xlink:href="#m254161fbea" x="158.567671" y="99.923834" style="fill: #808080; fill-opacity: 0.2; stroke: #808080; stroke-opacity: 0.2"/>
     <use xlink:href="#m254161fbea" x="77.308083" y="178.172946" style="fill: #808080; fill-opacity: 0.2; stroke: #808080; stroke-opacity: 0.2"/>
     <use xlink:href="#m254161fbea" x="160.679521" y="117.273948" style="fill: #808080; fill-opacity: 0.2; stroke: #808080; stroke-opacity: 0.2"/>
     <use xlink:href="#m254161fbea" x="164.5014" y="185.572979" style="fill: #808080; fill-opacity: 0.2; stroke: #808080; stroke-opacity: 0.2"/>
     <use xlink:href="#m254161fbea" x="270.3763" y="83.623275" style="fill: #808080; fill-opacity: 0.2; stroke: #808080; stroke-opacity: 0.2"/>
     <use xlink:href="#m254161fbea" x="153.372422" y="125.193769" style="fill: #808080; fill-opacity: 0.2; stroke: #808080; stroke-opacity: 0.2"/>
     <use xlink:href="#m254161fbea" x="175.133652" y="136.256382" style="fill: #808080; fill-opacity: 0.2; stroke: #808080; stroke-opacity: 0.2"/>
     <use xlink:href="#m254161fbea" x="160.318328" y="80.117953" style="fill: #808080; fill-opacity: 0.2; stroke: #808080; stroke-opacity: 0.2"/>
     <use xlink:href="#m254161fbea" x="110.356625" y="172.724858" style="fill: #808080; fill-opacity: 0.2; stroke: #808080; stroke-opacity: 0.2"/>
     <use xlink:href="#m254161fbea" x="212.199617" y="99.866674" style="fill: #808080; fill-opacity: 0.2; stroke: #808080; stroke-opacity: 0.2"/>
     <use xlink:href="#m254161fbea" x="194.977307" y="95.896826" style="fill: #808080; fill-opacity: 0.2; stroke: #808080; stroke-opacity: 0.2"/>
     <use xlink:href="#m254161fbea" x="196.699976" y="66.113758" style="fill: #808080; fill-opacity: 0.2; stroke: #808080; stroke-opacity: 0.2"/>
     <use xlink:href="#m254161fbea" x="121.780774" y="167.129193" style="fill: #808080; fill-opacity: 0.2; stroke: #808080; stroke-opacity: 0.2"/>
     <use xlink:href="#m254161fbea" x="223.653766" y="58.750856" style="fill: #808080; fill-opacity: 0.2; stroke: #808080; stroke-opacity: 0.2"/>
     <use xlink:href="#m254161fbea" x="100.083197" y="146.084877" style="fill: #808080; fill-opacity: 0.2; stroke: #808080; stroke-opacity: 0.2"/>
     <use xlink:href="#m254161fbea" x="187.704185" y="124.084267" style="fill: #808080; fill-opacity: 0.2; stroke: #808080; stroke-opacity: 0.2"/>
     <use xlink:href="#m254161fbea" x="258.357533" y="56.839783" style="fill: #808080; fill-opacity: 0.2; stroke: #808080; stroke-opacity: 0.2"/>
     <use xlink:href="#m254161fbea" x="118.205415" y="132.841225" style="fill: #808080; fill-opacity: 0.2; stroke: #808080; stroke-opacity: 0.2"/>
     <use xlink:href="#m254161fbea" x="136.897049" y="141.117396" style="fill: #808080; fill-opacity: 0.2; stroke: #808080; stroke-opacity: 0.2"/>
     <use xlink:href="#m254161fbea" x="166.238266" y="111.63585" style="fill: #808080; fill-opacity: 0.2; stroke: #808080; stroke-opacity: 0.2"/>
     <use xlink:href="#m254161fbea" x="139.664943" y="134.988677" style="fill: #808080; fill-opacity: 0.2; stroke: #808080; stroke-opacity: 0.2"/>
     <use xlink:href="#m254161fbea" x="93.526636" y="147.08957" style="fill: #808080; fill-opacity: 0.2; stroke: #808080; stroke-opacity: 0.2"/>
     <use xlink:href="#m254161fbea" x="164.868535" y="99.250652" style="fill: #808080; fill-opacity: 0.2; stroke: #808080; stroke-opacity: 0.2"/>
     <use xlink:href="#m254161fbea" x="115.043398" y="103.818206" style="fill: #808080; fill-opacity: 0.2; stroke: #808080; stroke-opacity: 0.2"/>
     <use xlink:href="#m254161fbea" x="182.713829" y="132.239806" style="fill: #808080; fill-opacity: 0.2; stroke: #808080; stroke-opacity: 0.2"/>
     <use xlink:href="#m254161fbea" x="121.338561" y="88.593888" style="fill: #808080; fill-opacity: 0.2; stroke: #808080; stroke-opacity: 0.2"/>
     <use xlink:href="#m254161fbea" x="230.136648" y="124.249814" style="fill: #808080; fill-opacity: 0.2; stroke: #808080; stroke-opacity: 0.2"/>
     <use xlink:href="#m254161fbea" x="127.33815" y="136.009282" style="fill: #808080; fill-opacity: 0.2; stroke: #808080; stroke-opacity: 0.2"/>
     <use xlink:href="#m254161fbea" x="147.657914" y="109.499661" style="fill: #808080; fill-opacity: 0.2; stroke: #808080; stroke-opacity: 0.2"/>
     <use xlink:href="#m254161fbea" x="197.69066" y="91.222135" style="fill: #808080; fill-opacity: 0.2; stroke: #808080; stroke-opacity: 0.2"/>
     <use xlink:href="#m254161fbea" x="107.616744" y="156.278891" style="fill: #808080; fill-opacity: 0.2; stroke: #808080; stroke-opacity: 0.2"/>
     <use xlink:href="#m254161fbea" x="171.869416" y="114.948537" style="fill: #808080; fill-opacity: 0.2; stroke: #808080; stroke-opacity: 0.2"/>
     <use xlink:href="#m254161fbea" x="219.439431" y="97.409155" style="fill: #808080; fill-opacity: 0.2; stroke: #808080; stroke-opacity: 0.2"/>
     <use xlink:href="#m254161fbea" x="91.023198" y="163.854333" style="fill: #808080; fill-opacity: 0.2; stroke: #808080; stroke-opacity: 0.2"/>
     <use xlink:href="#m254161fbea" x="169.982531" y="92.552216" style="fill: #808080; fill-opacity: 0.2; stroke: #808080; stroke-opacity: 0.2"/>
     <use xlink:href="#m254161fbea" x="173.297943" y="101.761837" style="fill: #808080; fill-opacity: 0.2; stroke: #808080; stroke-opacity: 0.2"/>
     <use xlink:href="#m254161fbea" x="196.294231" y="113.413174" style="fill: #808080; fill-opacity: 0.2; stroke: #808080; stroke-opacity: 0.2"/>
     <use xlink:href="#m254161fbea" x="107.348582" y="122.81978" style="fill: #808080; fill-opacity: 0.2; stroke: #808080; stroke-opacity: 0.2"/>
     <use xlink:href="#m254161fbea" x="103.669375" y="137.733171" style="fill: #808080; fill-opacity: 0.2; stroke: #808080; stroke-opacity: 0.2"/>
     <use xlink:href="#m254161fbea" x="184.844056" y="85.919421" style="fill: #808080; fill-opacity: 0.2; stroke: #808080; stroke-opacity: 0.2"/>
     <use xlink:href="#m254161fbea" x="174.932624" y="94.927179" style="fill: #808080; fill-opacity: 0.2; stroke: #808080; stroke-opacity: 0.2"/>
    </g>
   </g>
   <g id="line2d_2">
    <path d="M 46.4237 128.369931 
L 48.685847 128.369931 
L 50.947995 128.369931 
L 53.210142 128.369931 
L 55.47229 128.369931 
L 57.734437 128.369931 
L 59.996585 128.369931 
L 62.258732 128.369931 
L 64.52088 128.369931 
L 66.783027 128.369931 
L 69.045175 128.369931 
L 71.307322 128.369931 
L 73.569469 128.369931 
L 75.831617 128.369931 
L 78.093764 128.369931 
L 80.355912 128.369931 
L 82.618059 128.369931 
L 84.880207 128.369931 
L 87.142354 128.369931 
L 89.404502 128.369931 
L 91.666649 128.369931 
L 93.928797 128.369931 
L 96.190944 128.369931 
L 98.453092 128.369931 
L 100.715239 128.369931 
L 102.977387 128.369931 
L 105.239534 128.369931 
L 107.501682 128.369931 
L 109.763829 128.369931 
L 112.025977 128.369931 
L 114.288124 128.369931 
L 116.550272 128.369931 
L 118.812419 128.369931 
L 121.074567 128.369931 
L 123.336714 128.369931 
L 125.598862 128.369931 
L 127.861009 128.369931 
L 130.123156 128.369931 
L 132.385304 128.369931 
L 134.647451 128.369931 
L 136.909599 128.369931 
L 139.171746 128.369931 
L 141.433894 128.369931 
L 143.696041 128.369931 
L 145.958189 128.369931 
L 148.220336 128.369931 
L 150.482484 128.369931 
L 152.744631 128.369931 
L 155.006779 128.369931 
L 157.268926 128.369931 
L 159.531074 128.369931 
L 161.793221 128.369931 
L 164.055369 128.369931 
L 166.317516 128.369931 
L 168.579664 128.369931 
L 170.841811 128.369931 
L 173.103959 128.369931 
L 175.366106 128.369931 
L 177.628254 128.369931 
L 179.890401 128.369931 
L 182.152549 128.369931 
L 184.414696 128.369931 
L 186.676844 128.369931 
L 188.938991 128.369931 
L 191.201138 128.369931 
L 193.463286 128.369931 
L 195.725433 128.369931 
L 197.987581 128.369931 
L 200.249728 128.369931 
L 202.511876 128.369931 
L 204.774023 128.369931 
L 207.036171 128.369931 
L 209.298318 128.369931 
L 211.560466 128.369931 
L 213.822613 128.369931 
L 216.084761 128.369931 
L 218.346908 128.369931 
L 220.609056 128.369931 
L 222.871203 128.369931 
L 225.133351 128.369931 
L 227.395498 128.369931 
L 229.657646 128.369931 
L 231.919793 128.369931 
L 234.181941 128.369931 
L 236.444088 128.369931 
L 238.706236 128.369931 
L 240.968383 128.369931 
L 243.230531 128.369931 
L 245.492678 128.369931 
L 247.754825 128.369931 
L 250.016973 128.369931 
L 252.27912 128.369931 
L 254.541268 128.369931 
L 256.803415 128.369931 
L 259.065563 128.369931 
L 261.32771 128.369931 
L 263.589858 128.369931 
L 265.852005 128.369931 
L 268.114153 128.369931 
L 270.3763 128.369931 
" clip-path="url(#pfb66463878)" style="fill: none; stroke: #1f77b4; stroke-width: 1.5; stroke-linecap: square"/>
   </g>
   <g id="line2d_3">
    <path d="M 46.4237 114.772527 
L 48.685847 114.772527 
L 50.947995 114.772527 
L 53.210142 114.772527 
L 55.47229 114.772527 
L 57.734437 114.772527 
L 59.996585 114.772527 
L 62.258732 114.772527 
L 64.52088 114.772527 
L 66.783027 114.772527 
L 69.045175 114.772527 
L 71.307322 114.772527 
L 73.569469 114.772527 
L 75.831617 114.772527 
L 78.093764 114.772527 
L 80.355912 114.772527 
L 82.618059 114.772527 
L 84.880207 114.772527 
L 87.142354 114.772527 
L 89.404502 114.772527 
L 91.666649 114.772527 
L 93.928797 114.772527 
L 96.190944 114.772527 
L 98.453092 114.772527 
L 100.715239 114.772527 
L 102.977387 114.772527 
L 105.239534 114.772527 
L 107.501682 114.772527 
L 109.763829 114.772527 
L 112.025977 114.772527 
L 114.288124 114.772527 
L 116.550272 114.772527 
L 118.812419 114.772527 
L 121.074567 114.772527 
L 123.336714 114.772527 
L 125.598862 114.772527 
L 127.861009 114.772527 
L 130.123156 114.772527 
L 132.385304 114.772527 
L 134.647451 114.772527 
L 136.909599 114.772527 
L 139.171746 114.772527 
L 141.433894 114.772527 
L 143.696041 114.772527 
L 145.958189 114.772527 
L 148.220336 114.772527 
L 150.482484 114.772527 
L 152.744631 114.772527 
L 155.006779 114.772527 
L 157.268926 114.772527 
L 159.531074 114.772527 
L 161.793221 114.772527 
L 164.055369 114.772527 
L 166.317516 114.772527 
L 168.579664 114.772527 
L 170.841811 114.772527 
L 173.103959 114.772527 
L 175.366106 114.772527 
L 177.628254 114.772527 
L 179.890401 114.772527 
L 182.152549 114.772527 
L 184.414696 114.772527 
L 186.676844 114.772527 
L 188.938991 114.772527 
L 191.201138 114.772527 
L 193.463286 114.772527 
L 195.725433 114.772527 
L 197.987581 114.772527 
L 200.249728 114.772527 
L 202.511876 114.772527 
L 204.774023 114.772527 
L 207.036171 114.772527 
L 209.298318 114.772527 
L 211.560466 114.772527 
L 213.822613 114.772527 
L 216.084761 114.772527 
L 218.346908 114.772527 
L 220.609056 114.772527 
L 222.871203 114.772527 
L 225.133351 114.772527 
L 227.395498 114.772527 
L 229.657646 114.772527 
L 231.919793 114.772527 
L 234.181941 114.772527 
L 236.444088 114.772527 
L 238.706236 114.772527 
L 240.968383 114.772527 
L 243.230531 114.772527 
L 245.492678 114.772527 
L 247.754825 114.772527 
L 250.016973 114.772527 
L 252.27912 114.772527 
L 254.541268 114.772527 
L 256.803415 114.772527 
L 259.065563 114.772527 
L 261.32771 114.772527 
L 263.589858 114.772527 
L 265.852005 114.772527 
L 268.114153 114.772527 
L 270.3763 114.772527 
" clip-path="url(#pfb66463878)" style="fill: none; stroke: #ff7f0e; stroke-width: 1.5; stroke-linecap: square"/>
   </g>
   <g id="line2d_4">
    <path d="M 46.4237 95.194697 
L 48.685847 95.194697 
L 50.947995 95.194697 
L 53.210142 95.194697 
L 55.47229 95.194697 
L 57.734437 95.194697 
L 59.996585 95.194697 
L 62.258732 95.194697 
L 64.52088 95.194697 
L 66.783027 95.194697 
L 69.045175 95.194697 
L 71.307322 95.194697 
L 73.569469 95.194697 
L 75.831617 95.194697 
L 78.093764 95.194697 
L 80.355912 95.194697 
L 82.618059 95.194697 
L 84.880207 95.194697 
L 87.142354 95.194697 
L 89.404502 95.194697 
L 91.666649 95.194697 
L 93.928797 95.194697 
L 96.190944 95.194697 
L 98.453092 95.194697 
L 100.715239 95.194697 
L 102.977387 95.194697 
L 105.239534 95.194697 
L 107.501682 95.194697 
L 109.763829 95.194697 
L 112.025977 95.194697 
L 114.288124 95.194697 
L 116.550272 95.194697 
L 118.812419 95.194697 
L 121.074567 95.194697 
L 123.336714 95.194697 
L 125.598862 95.194697 
L 127.861009 95.194697 
L 130.123156 95.194697 
L 132.385304 95.194697 
L 134.647451 95.194697 
L 136.909599 95.194697 
L 139.171746 95.194697 
L 141.433894 95.194697 
L 143.696041 95.194697 
L 145.958189 95.194697 
L 148.220336 95.194697 
L 150.482484 95.194697 
L 152.744631 95.194697 
L 155.006779 95.194697 
L 157.268926 95.194697 
L 159.531074 95.194697 
L 161.793221 95.194697 
L 164.055369 95.194697 
L 166.317516 95.194697 
L 168.579664 95.194697 
L 170.841811 95.194697 
L 173.103959 95.194697 
L 175.366106 95.194697 
L 177.628254 95.194697 
L 179.890401 95.194697 
L 182.152549 95.194697 
L 184.414696 95.194697 
L 186.676844 95.194697 
L 188.938991 95.194697 
L 191.201138 95.194697 
L 193.463286 95.194697 
L 195.725433 95.194697 
L 197.987581 95.194697 
L 200.249728 95.194697 
L 202.511876 95.194697 
L 204.774023 95.194697 
L 207.036171 95.194697 
L 209.298318 95.194697 
L 211.560466 95.194697 
L 213.822613 95.194697 
L 216.084761 95.194697 
L 218.346908 95.194697 
L 220.609056 95.194697 
L 222.871203 95.194697 
L 225.133351 95.194697 
L 227.395498 95.194697 
L 229.657646 95.194697 
L 231.919793 95.194697 
L 234.181941 95.194697 
L 236.444088 95.194697 
L 238.706236 95.194697 
L 240.968383 95.194697 
L 243.230531 95.194697 
L 245.492678 95.194697 
L 247.754825 95.194697 
L 250.016973 95.194697 
L 252.27912 95.194697 
L 254.541268 95.194697 
L 256.803415 95.194697 
L 259.065563 95.194697 
L 261.32771 95.194697 
L 263.589858 95.194697 
L 265.852005 95.194697 
L 268.114153 95.194697 
L 270.3763 95.194697 
" clip-path="url(#pfb66463878)" style="fill: none; stroke: #2ca02c; stroke-width: 1.5; stroke-linecap: square"/>
   </g>
   <g id="line2d_5">
    <path d="M 46.4237 136.921288 
L 48.685847 136.921288 
L 50.947995 136.921288 
L 53.210142 136.921288 
L 55.47229 136.921288 
L 57.734437 136.921288 
L 59.996585 136.921288 
L 62.258732 136.921288 
L 64.52088 136.921288 
L 66.783027 136.921288 
L 69.045175 136.921288 
L 71.307322 136.921288 
L 73.569469 136.921288 
L 75.831617 136.921288 
L 78.093764 136.921288 
L 80.355912 136.921288 
L 82.618059 136.921288 
L 84.880207 136.921288 
L 87.142354 136.921288 
L 89.404502 136.921288 
L 91.666649 136.921288 
L 93.928797 136.921288 
L 96.190944 136.921288 
L 98.453092 136.921288 
L 100.715239 136.921288 
L 102.977387 136.921288 
L 105.239534 136.921288 
L 107.501682 136.921288 
L 109.763829 136.921288 
L 112.025977 136.921288 
L 114.288124 136.921288 
L 116.550272 136.921288 
L 118.812419 136.921288 
L 121.074567 136.921288 
L 123.336714 136.921288 
L 125.598862 136.921288 
L 127.861009 136.921288 
L 130.123156 136.921288 
L 132.385304 136.921288 
L 134.647451 136.921288 
L 136.909599 136.921288 
L 139.171746 136.921288 
L 141.433894 136.921288 
L 143.696041 136.921288 
L 145.958189 136.921288 
L 148.220336 136.921288 
L 150.482484 136.921288 
L 152.744631 136.921288 
L 155.006779 136.921288 
L 157.268926 136.921288 
L 159.531074 136.921288 
L 161.793221 136.921288 
L 164.055369 136.921288 
L 166.317516 136.921288 
L 168.579664 136.921288 
L 170.841811 136.921288 
L 173.103959 136.921288 
L 175.366106 136.921288 
L 177.628254 136.921288 
L 179.890401 136.921288 
L 182.152549 136.921288 
L 184.414696 136.921288 
L 186.676844 136.921288 
L 188.938991 136.921288 
L 191.201138 136.921288 
L 193.463286 136.921288 
L 195.725433 136.921288 
L 197.987581 136.921288 
L 200.249728 136.921288 
L 202.511876 136.921288 
L 204.774023 136.921288 
L 207.036171 136.921288 
L 209.298318 136.921288 
L 211.560466 136.921288 
L 213.822613 136.921288 
L 216.084761 136.921288 
L 218.346908 136.921288 
L 220.609056 136.921288 
L 222.871203 136.921288 
L 225.133351 136.921288 
L 227.395498 136.921288 
L 229.657646 136.921288 
L 231.919793 136.921288 
L 234.181941 136.921288 
L 236.444088 136.921288 
L 238.706236 136.921288 
L 240.968383 136.921288 
L 243.230531 136.921288 
L 245.492678 136.921288 
L 247.754825 136.921288 
L 250.016973 136.921288 
L 252.27912 136.921288 
L 254.541268 136.921288 
L 256.803415 136.921288 
L 259.065563 136.921288 
L 261.32771 136.921288 
L 263.589858 136.921288 
L 265.852005 136.921288 
L 268.114153 136.921288 
L 270.3763 136.921288 
" clip-path="url(#pfb66463878)" style="fill: none; stroke: #d62728; stroke-width: 1.5; stroke-linecap: square"/>
   </g>
   <g id="line2d_6">
    <path d="M 46.4237 116.24776 
L 48.685847 116.24776 
L 50.947995 116.24776 
L 53.210142 116.24776 
L 55.47229 116.24776 
L 57.734437 116.24776 
L 59.996585 116.24776 
L 62.258732 116.24776 
L 64.52088 116.24776 
L 66.783027 116.24776 
L 69.045175 116.24776 
L 71.307322 116.24776 
L 73.569469 116.24776 
L 75.831617 116.24776 
L 78.093764 116.24776 
L 80.355912 116.24776 
L 82.618059 116.24776 
L 84.880207 116.24776 
L 87.142354 116.24776 
L 89.404502 116.24776 
L 91.666649 116.24776 
L 93.928797 116.24776 
L 96.190944 116.24776 
L 98.453092 116.24776 
L 100.715239 116.24776 
L 102.977387 116.24776 
L 105.239534 116.24776 
L 107.501682 116.24776 
L 109.763829 116.24776 
L 112.025977 116.24776 
L 114.288124 116.24776 
L 116.550272 116.24776 
L 118.812419 116.24776 
L 121.074567 116.24776 
L 123.336714 116.24776 
L 125.598862 116.24776 
L 127.861009 116.24776 
L 130.123156 116.24776 
L 132.385304 116.24776 
L 134.647451 116.24776 
L 136.909599 116.24776 
L 139.171746 116.24776 
L 141.433894 116.24776 
L 143.696041 116.24776 
L 145.958189 116.24776 
L 148.220336 116.24776 
L 150.482484 116.24776 
L 152.744631 116.24776 
L 155.006779 116.24776 
L 157.268926 116.24776 
L 159.531074 116.24776 
L 161.793221 116.24776 
L 164.055369 116.24776 
L 166.317516 116.24776 
L 168.579664 116.24776 
L 170.841811 116.24776 
L 173.103959 116.24776 
L 175.366106 116.24776 
L 177.628254 116.24776 
L 179.890401 116.24776 
L 182.152549 116.24776 
L 184.414696 116.24776 
L 186.676844 116.24776 
L 188.938991 116.24776 
L 191.201138 116.24776 
L 193.463286 116.24776 
L 195.725433 116.24776 
L 197.987581 116.24776 
L 200.249728 116.24776 
L 202.511876 116.24776 
L 204.774023 116.24776 
L 207.036171 116.24776 
L 209.298318 116.24776 
L 211.560466 116.24776 
L 213.822613 116.24776 
L 216.084761 116.24776 
L 218.346908 116.24776 
L 220.609056 116.24776 
L 222.871203 116.24776 
L 225.133351 116.24776 
L 227.395498 116.24776 
L 229.657646 116.24776 
L 231.919793 116.24776 
L 234.181941 116.24776 
L 236.444088 116.24776 
L 238.706236 116.24776 
L 240.968383 116.24776 
L 243.230531 116.24776 
L 245.492678 116.24776 
L 247.754825 116.24776 
L 250.016973 116.24776 
L 252.27912 116.24776 
L 254.541268 116.24776 
L 256.803415 116.24776 
L 259.065563 116.24776 
L 261.32771 116.24776 
L 263.589858 116.24776 
L 265.852005 116.24776 
L 268.114153 116.24776 
L 270.3763 116.24776 
" clip-path="url(#pfb66463878)" style="fill: none; stroke: #9467bd; stroke-width: 1.5; stroke-linecap: square"/>
   </g>
   <g id="line2d_7">
    <path d="M 46.4237 111.664707 
L 48.685847 111.664707 
L 50.947995 111.664707 
L 53.210142 111.664707 
L 55.47229 111.664707 
L 57.734437 111.664707 
L 59.996585 111.664707 
L 62.258732 111.664707 
L 64.52088 111.664707 
L 66.783027 111.664707 
L 69.045175 111.664707 
L 71.307322 111.664707 
L 73.569469 111.664707 
L 75.831617 111.664707 
L 78.093764 111.664707 
L 80.355912 111.664707 
L 82.618059 111.664707 
L 84.880207 111.664707 
L 87.142354 111.664707 
L 89.404502 111.664707 
L 91.666649 111.664707 
L 93.928797 111.664707 
L 96.190944 111.664707 
L 98.453092 111.664707 
L 100.715239 111.664707 
L 102.977387 111.664707 
L 105.239534 111.664707 
L 107.501682 111.664707 
L 109.763829 111.664707 
L 112.025977 111.664707 
L 114.288124 111.664707 
L 116.550272 111.664707 
L 118.812419 111.664707 
L 121.074567 111.664707 
L 123.336714 111.664707 
L 125.598862 111.664707 
L 127.861009 111.664707 
L 130.123156 111.664707 
L 132.385304 111.664707 
L 134.647451 111.664707 
L 136.909599 111.664707 
L 139.171746 111.664707 
L 141.433894 111.664707 
L 143.696041 111.664707 
L 145.958189 111.664707 
L 148.220336 111.664707 
L 150.482484 111.664707 
L 152.744631 111.664707 
L 155.006779 111.664707 
L 157.268926 111.664707 
L 159.531074 111.664707 
L 161.793221 111.664707 
L 164.055369 111.664707 
L 166.317516 111.664707 
L 168.579664 111.664707 
L 170.841811 111.664707 
L 173.103959 111.664707 
L 175.366106 111.664707 
L 177.628254 111.664707 
L 179.890401 111.664707 
L 182.152549 111.664707 
L 184.414696 111.664707 
L 186.676844 111.664707 
L 188.938991 111.664707 
L 191.201138 111.664707 
L 193.463286 111.664707 
L 195.725433 111.664707 
L 197.987581 111.664707 
L 200.249728 111.664707 
L 202.511876 111.664707 
L 204.774023 111.664707 
L 207.036171 111.664707 
L 209.298318 111.664707 
L 211.560466 111.664707 
L 213.822613 111.664707 
L 216.084761 111.664707 
L 218.346908 111.664707 
L 220.609056 111.664707 
L 222.871203 111.664707 
L 225.133351 111.664707 
L 227.395498 111.664707 
L 229.657646 111.664707 
L 231.919793 111.664707 
L 234.181941 111.664707 
L 236.444088 111.664707 
L 238.706236 111.664707 
L 240.968383 111.664707 
L 243.230531 111.664707 
L 245.492678 111.664707 
L 247.754825 111.664707 
L 250.016973 111.664707 
L 252.27912 111.664707 
L 254.541268 111.664707 
L 256.803415 111.664707 
L 259.065563 111.664707 
L 261.32771 111.664707 
L 263.589858 111.664707 
L 265.852005 111.664707 
L 268.114153 111.664707 
L 270.3763 111.664707 
" clip-path="url(#pfb66463878)" style="fill: none; stroke: #8c564b; stroke-width: 1.5; stroke-linecap: square"/>
   </g>
   <g id="patch_3">
    <path d="M 28.8 194.4 
L 28.8 0 
" style="fill: none; stroke: #000000; stroke-width: 0.8; stroke-linejoin: miter; stroke-linecap: square"/>
   </g>
   <g id="patch_4">
    <path d="M 28.8 194.4 
L 288 194.4 
" style="fill: none; stroke: #000000; stroke-width: 0.8; stroke-linejoin: miter; stroke-linecap: square"/>
   </g>
  </g>
 </g>
 <defs>
  <clipPath id="pfb66463878">
   <rect x="28.8" y="0" width="259.2" height="194.4"/>
  </clipPath>
 </defs>
</svg>
