<?xml version="1.0" encoding="utf-8" standalone="no"?>
<!DOCTYPE svg PUBLIC "-//W3C//DTD SVG 1.1//EN"
  "http://www.w3.org/Graphics/SVG/1.1/DTD/svg11.dtd">
<svg xmlns:xlink="http://www.w3.org/1999/xlink" width="288pt" height="216pt" viewBox="0 0 288 216" xmlns="http://www.w3.org/2000/svg" version="1.1">
 <metadata>
  <rdf:RDF xmlns:dc="http://purl.org/dc/elements/1.1/" xmlns:cc="http://creativecommons.org/ns#" xmlns:rdf="http://www.w3.org/1999/02/22-rdf-syntax-ns#">
   <cc:Work>
    <dc:type rdf:resource="http://purl.org/dc/dcmitype/StillImage"/>
    <dc:date>2025-02-01T16:14:21.284502</dc:date>
    <dc:format>image/svg+xml</dc:format>
    <dc:creator>
     <cc:Agent>
      <dc:title>Matplotlib v3.10.0, https://matplotlib.org/</dc:title>
     </cc:Agent>
    </dc:creator>
   </cc:Work>
  </rdf:RDF>
 </metadata>
 <defs>
  <style type="text/css">*{stroke-linejoin: round; stroke-linecap: butt}</style>
 </defs>
 <g id="figure_1">
  <g id="patch_1">
   <path d="M 0 216 
L 288 216 
L 288 0 
L 0 0 
L 0 216 
z
" style="fill: none"/>
  </g>
  <g id="axes_1">
   <g id="patch_2">
    <path d="M 28.8 194.4 
L 288 194.4 
L 288 0 
L 28.8 0 
L 28.8 194.4 
z
" style="fill: none"/>
   </g>
   <g id="matplotlib.axis_1">
    <g id="text_1">
     <!-- x -->
     <g transform="translate(151.305 215.116562) scale(0.22 -0.22)">
      <defs>
       <path id="DejaVuSans-Bold-78" d="M 1422 1791 
L 159 3500 
L 1344 3500 
L 2059 2463 
L 2784 3500 
L 3969 3500 
L 2706 1797 
L 4031 0 
L 2847 0 
L 2059 1106 
L 1281 0 
L 97 0 
L 1422 1791 
z
" transform="scale(0.015625)"/>
      </defs>
      <use xlink:href="#DejaVuSans-Bold-78"/>
     </g>
    </g>
   </g>
   <g id="matplotlib.axis_2">
    <g id="text_2">
     <!-- y -->
     <g transform="translate(20.052813 104.370625) rotate(-90) scale(0.22 -0.22)">
      <defs>
       <path id="DejaVuSans-Bold-79" d="M 78 3500 
L 1197 3500 
L 2138 1125 
L 2938 3500 
L 4056 3500 
L 2584 -331 
Q 2363 -916 2067 -1148 
Q 1772 -1381 1288 -1381 
L 641 -1381 
L 641 -647 
L 991 -647 
Q 1275 -647 1404 -556 
Q 1534 -466 1606 -231 
L 1638 -134 
L 78 3500 
z
" transform="scale(0.015625)"/>
      </defs>
      <use xlink:href="#DejaVuSans-Bold-79"/>
     </g>
    </g>
   </g>
   <g id="line2d_1">
    <defs>
     <path id="me19b86bb69" d="M 0 7.5 
C 1.989023 7.5 3.896849 6.709753 5.303301 5.303301 
C 6.709753 3.896849 7.5 1.989023 7.5 0 
C 7.5 -1.989023 6.709753 -3.896849 5.303301 -5.303301 
C 3.896849 -6.709753 1.989023 -7.5 0 -7.5 
C -1.989023 -7.5 -3.896849 -6.709753 -5.303301 -5.303301 
C -6.709753 -3.896849 -7.5 -1.989023 -7.5 0 
C -7.5 1.989023 -6.709753 3.896849 -5.303301 5.303301 
C -3.896849 6.709753 -1.989023 7.5 0 7.5 
z
" style="stroke: #808080; stroke-opacity: 0.2"/>
    </defs>
    <g clip-path="url(#p47529f6e94)">
     <use xlink:href="#me19b86bb69" x="183.732555" y="98.886242" style="fill: #808080; fill-opacity: 0.2; stroke: #808080; stroke-opacity: 0.2"/>
     <use xlink:href="#me19b86bb69" x="155.755881" y="110.781163" style="fill: #808080; fill-opacity: 0.2; stroke: #808080; stroke-opacity: 0.2"/>
     <use xlink:href="#me19b86bb69" x="190.384373" y="116.088853" style="fill: #808080; fill-opacity: 0.2; stroke: #808080; stroke-opacity: 0.2"/>
     <use xlink:href="#me19b86bb69" x="228.951254" y="76.640459" style="fill: #808080; fill-opacity: 0.2; stroke: #808080; stroke-opacity: 0.2"/>
     <use xlink:href="#me19b86bb69" x="151.53108" y="114.075072" style="fill: #808080; fill-opacity: 0.2; stroke: #808080; stroke-opacity: 0.2"/>
     <use xlink:href="#me19b86bb69" x="151.531804" y="136.30609" style="fill: #808080; fill-opacity: 0.2; stroke: #808080; stroke-opacity: 0.2"/>
     <use xlink:href="#me19b86bb69" x="231.426633" y="39.352831" style="fill: #808080; fill-opacity: 0.2; stroke: #808080; stroke-opacity: 0.2"/>
     <use xlink:href="#me19b86bb69" x="195.6603" y="87.983533" style="fill: #808080; fill-opacity: 0.2; stroke: #808080; stroke-opacity: 0.2"/>
     <use xlink:href="#me19b86bb69" x="141.163013" y="152.024577" style="fill: #808080; fill-opacity: 0.2; stroke: #808080; stroke-opacity: 0.2"/>
     <use xlink:href="#me19b86bb69" x="185.75249" y="88.913768" style="fill: #808080; fill-opacity: 0.2; stroke: #808080; stroke-opacity: 0.2"/>
     <use xlink:href="#me19b86bb69" x="141.429867" y="147.110607" style="fill: #808080; fill-opacity: 0.2; stroke: #808080; stroke-opacity: 0.2"/>
     <use xlink:href="#me19b86bb69" x="141.327999" y="108.283757" style="fill: #808080; fill-opacity: 0.2; stroke: #808080; stroke-opacity: 0.2"/>
     <use xlink:href="#me19b86bb69" x="172.508378" y="84.468388" style="fill: #808080; fill-opacity: 0.2; stroke: #808080; stroke-opacity: 0.2"/>
     <use xlink:href="#me19b86bb69" x="77.550011" y="175.707137" style="fill: #808080; fill-opacity: 0.2; stroke: #808080; stroke-opacity: 0.2"/>
     <use xlink:href="#me19b86bb69" x="85.849117" y="132.180635" style="fill: #808080; fill-opacity: 0.2; stroke: #808080; stroke-opacity: 0.2"/>
     <use xlink:href="#me19b86bb69" x="137.073736" y="118.674517" style="fill: #808080; fill-opacity: 0.2; stroke: #808080; stroke-opacity: 0.2"/>
     <use xlink:href="#me19b86bb69" x="117.223123" y="119.585121" style="fill: #808080; fill-opacity: 0.2; stroke: #808080; stroke-opacity: 0.2"/>
     <use xlink:href="#me19b86bb69" x="175.693204" y="66.583023" style="fill: #808080; fill-opacity: 0.2; stroke: #808080; stroke-opacity: 0.2"/>
     <use xlink:href="#me19b86bb69" x="121.840843" y="140.828257" style="fill: #808080; fill-opacity: 0.2; stroke: #808080; stroke-opacity: 0.2"/>
     <use xlink:href="#me19b86bb69" x="99.622661" y="163.174473" style="fill: #808080; fill-opacity: 0.2; stroke: #808080; stroke-opacity: 0.2"/>
     <use xlink:href="#me19b86bb69" x="226.423087" y="102.661397" style="fill: #808080; fill-opacity: 0.2; stroke: #808080; stroke-opacity: 0.2"/>
     <use xlink:href="#me19b86bb69" x="151.900168" y="138.36054" style="fill: #808080; fill-opacity: 0.2; stroke: #808080; stroke-opacity: 0.2"/>
     <use xlink:href="#me19b86bb69" x="164.822944" y="115.586536" style="fill: #808080; fill-opacity: 0.2; stroke: #808080; stroke-opacity: 0.2"/>
     <use xlink:href="#me19b86bb69" x="99.074367" y="139.28759" style="fill: #808080; fill-opacity: 0.2; stroke: #808080; stroke-opacity: 0.2"/>
     <use xlink:href="#me19b86bb69" x="137.862608" y="121.282578" style="fill: #808080; fill-opacity: 0.2; stroke: #808080; stroke-opacity: 0.2"/>
     <use xlink:href="#me19b86bb69" x="166.734868" y="94.673572" style="fill: #808080; fill-opacity: 0.2; stroke: #808080; stroke-opacity: 0.2"/>
     <use xlink:href="#me19b86bb69" x="111.135789" y="140.487965" style="fill: #808080; fill-opacity: 0.2; stroke: #808080; stroke-opacity: 0.2"/>
     <use xlink:href="#me19b86bb69" x="178.400675" y="75.008596" style="fill: #808080; fill-opacity: 0.2; stroke: #808080; stroke-opacity: 0.2"/>
     <use xlink:href="#me19b86bb69" x="135.384012" y="134.470228" style="fill: #808080; fill-opacity: 0.2; stroke: #808080; stroke-opacity: 0.2"/>
     <use xlink:href="#me19b86bb69" x="148.995895" y="61.784762" style="fill: #808080; fill-opacity: 0.2; stroke: #808080; stroke-opacity: 0.2"/>
     <use xlink:href="#me19b86bb69" x="135.336961" y="114.846518" style="fill: #808080; fill-opacity: 0.2; stroke: #808080; stroke-opacity: 0.2"/>
     <use xlink:href="#me19b86bb69" x="243.457688" y="93.415395" style="fill: #808080; fill-opacity: 0.2; stroke: #808080; stroke-opacity: 0.2"/>
     <use xlink:href="#me19b86bb69" x="161.253025" y="139.3051" style="fill: #808080; fill-opacity: 0.2; stroke: #808080; stroke-opacity: 0.2"/>
     <use xlink:href="#me19b86bb69" x="115.245753" y="128.069379" style="fill: #808080; fill-opacity: 0.2; stroke: #808080; stroke-opacity: 0.2"/>
     <use xlink:href="#me19b86bb69" x="198.088413" y="102.154996" style="fill: #808080; fill-opacity: 0.2; stroke: #808080; stroke-opacity: 0.2"/>
     <use xlink:href="#me19b86bb69" x="108.058248" y="126.560061" style="fill: #808080; fill-opacity: 0.2; stroke: #808080; stroke-opacity: 0.2"/>
     <use xlink:href="#me19b86bb69" x="171.050075" y="100.322968" style="fill: #808080; fill-opacity: 0.2; stroke: #808080; stroke-opacity: 0.2"/>
     <use xlink:href="#me19b86bb69" x="75.506108" y="160.227553" style="fill: #808080; fill-opacity: 0.2; stroke: #808080; stroke-opacity: 0.2"/>
     <use xlink:href="#me19b86bb69" x="103.328822" y="163.371754" style="fill: #808080; fill-opacity: 0.2; stroke: #808080; stroke-opacity: 0.2"/>
     <use xlink:href="#me19b86bb69" x="170.52126" y="144.459998" style="fill: #808080; fill-opacity: 0.2; stroke: #808080; stroke-opacity: 0.2"/>
     <use xlink:href="#me19b86bb69" x="194.383985" y="108.932614" style="fill: #808080; fill-opacity: 0.2; stroke: #808080; stroke-opacity: 0.2"/>
     <use xlink:href="#me19b86bb69" x="169.39806" y="92.694968" style="fill: #808080; fill-opacity: 0.2; stroke: #808080; stroke-opacity: 0.2"/>
     <use xlink:href="#me19b86bb69" x="156.752326" y="113.202822" style="fill: #808080; fill-opacity: 0.2; stroke: #808080; stroke-opacity: 0.2"/>
     <use xlink:href="#me19b86bb69" x="148.581299" y="149.510301" style="fill: #808080; fill-opacity: 0.2; stroke: #808080; stroke-opacity: 0.2"/>
     <use xlink:href="#me19b86bb69" x="96.705133" y="144.180956" style="fill: #808080; fill-opacity: 0.2; stroke: #808080; stroke-opacity: 0.2"/>
     <use xlink:href="#me19b86bb69" x="130.131907" y="122.757461" style="fill: #808080; fill-opacity: 0.2; stroke: #808080; stroke-opacity: 0.2"/>
     <use xlink:href="#me19b86bb69" x="141.552304" y="145.045014" style="fill: #808080; fill-opacity: 0.2; stroke: #808080; stroke-opacity: 0.2"/>
     <use xlink:href="#me19b86bb69" x="208.423714" y="88.654835" style="fill: #808080; fill-opacity: 0.2; stroke: #808080; stroke-opacity: 0.2"/>
     <use xlink:href="#me19b86bb69" x="176.987266" y="106.507934" style="fill: #808080; fill-opacity: 0.2; stroke: #808080; stroke-opacity: 0.2"/>
     <use xlink:href="#me19b86bb69" x="84.169477" y="179.503813" style="fill: #808080; fill-opacity: 0.2; stroke: #808080; stroke-opacity: 0.2"/>
     <use xlink:href="#me19b86bb69" x="176.126599" y="100.328041" style="fill: #808080; fill-opacity: 0.2; stroke: #808080; stroke-opacity: 0.2"/>
     <use xlink:href="#me19b86bb69" x="144.881266" y="111.497954" style="fill: #808080; fill-opacity: 0.2; stroke: #808080; stroke-opacity: 0.2"/>
     <use xlink:href="#me19b86bb69" x="132.023027" y="106.412994" style="fill: #808080; fill-opacity: 0.2; stroke: #808080; stroke-opacity: 0.2"/>
     <use xlink:href="#me19b86bb69" x="188.7977" y="78.622241" style="fill: #808080; fill-opacity: 0.2; stroke: #808080; stroke-opacity: 0.2"/>
     <use xlink:href="#me19b86bb69" x="207.272767" y="123.025428" style="fill: #808080; fill-opacity: 0.2; stroke: #808080; stroke-opacity: 0.2"/>
     <use xlink:href="#me19b86bb69" x="202.879205" y="115.519703" style="fill: #808080; fill-opacity: 0.2; stroke: #808080; stroke-opacity: 0.2"/>
     <use xlink:href="#me19b86bb69" x="124.872408" y="122.529182" style="fill: #808080; fill-opacity: 0.2; stroke: #808080; stroke-opacity: 0.2"/>
     <use xlink:href="#me19b86bb69" x="148.224037" y="110.860834" style="fill: #808080; fill-opacity: 0.2; stroke: #808080; stroke-opacity: 0.2"/>
     <use xlink:href="#me19b86bb69" x="176.44292" y="96.699257" style="fill: #808080; fill-opacity: 0.2; stroke: #808080; stroke-opacity: 0.2"/>
     <use xlink:href="#me19b86bb69" x="204.829488" y="8.827021" style="fill: #808080; fill-opacity: 0.2; stroke: #808080; stroke-opacity: 0.2"/>
     <use xlink:href="#me19b86bb69" x="140.735645" y="113.351319" style="fill: #808080; fill-opacity: 0.2; stroke: #808080; stroke-opacity: 0.2"/>
     <use xlink:href="#me19b86bb69" x="153.667707" y="94.413157" style="fill: #808080; fill-opacity: 0.2; stroke: #808080; stroke-opacity: 0.2"/>
     <use xlink:href="#me19b86bb69" x="113.103414" y="118.736894" style="fill: #808080; fill-opacity: 0.2; stroke: #808080; stroke-opacity: 0.2"/>
     <use xlink:href="#me19b86bb69" x="109.143736" y="127.398015" style="fill: #808080; fill-opacity: 0.2; stroke: #808080; stroke-opacity: 0.2"/>
     <use xlink:href="#me19b86bb69" x="197.64698" y="104.402037" style="fill: #808080; fill-opacity: 0.2; stroke: #808080; stroke-opacity: 0.2"/>
     <use xlink:href="#me19b86bb69" x="221.60262" y="68.69778" style="fill: #808080; fill-opacity: 0.2; stroke: #808080; stroke-opacity: 0.2"/>
     <use xlink:href="#me19b86bb69" x="158.67499" y="134.018721" style="fill: #808080; fill-opacity: 0.2; stroke: #808080; stroke-opacity: 0.2"/>
     <use xlink:href="#me19b86bb69" x="206.062608" y="98.455764" style="fill: #808080; fill-opacity: 0.2; stroke: #808080; stroke-opacity: 0.2"/>
     <use xlink:href="#me19b86bb69" x="177.781114" y="118.105636" style="fill: #808080; fill-opacity: 0.2; stroke: #808080; stroke-opacity: 0.2"/>
     <use xlink:href="#me19b86bb69" x="133.42421" y="127.804725" style="fill: #808080; fill-opacity: 0.2; stroke: #808080; stroke-opacity: 0.2"/>
     <use xlink:href="#me19b86bb69" x="177.770521" y="56.321305" style="fill: #808080; fill-opacity: 0.2; stroke: #808080; stroke-opacity: 0.2"/>
     <use xlink:href="#me19b86bb69" x="229.612439" y="122.640543" style="fill: #808080; fill-opacity: 0.2; stroke: #808080; stroke-opacity: 0.2"/>
     <use xlink:href="#me19b86bb69" x="160.269234" y="101.021782" style="fill: #808080; fill-opacity: 0.2; stroke: #808080; stroke-opacity: 0.2"/>
     <use xlink:href="#me19b86bb69" x="230.784727" y="116.436109" style="fill: #808080; fill-opacity: 0.2; stroke: #808080; stroke-opacity: 0.2"/>
     <use xlink:href="#me19b86bb69" x="46.4237" y="183.601019" style="fill: #808080; fill-opacity: 0.2; stroke: #808080; stroke-opacity: 0.2"/>
     <use xlink:href="#me19b86bb69" x="198.060109" y="73.20742" style="fill: #808080; fill-opacity: 0.2; stroke: #808080; stroke-opacity: 0.2"/>
     <use xlink:href="#me19b86bb69" x="165.682931" y="112.035854" style="fill: #808080; fill-opacity: 0.2; stroke: #808080; stroke-opacity: 0.2"/>
     <use xlink:href="#me19b86bb69" x="148.673663" y="145.756823" style="fill: #808080; fill-opacity: 0.2; stroke: #808080; stroke-opacity: 0.2"/>
     <use xlink:href="#me19b86bb69" x="165.890613" y="129.135339" style="fill: #808080; fill-opacity: 0.2; stroke: #808080; stroke-opacity: 0.2"/>
     <use xlink:href="#me19b86bb69" x="74.276908" y="144.238996" style="fill: #808080; fill-opacity: 0.2; stroke: #808080; stroke-opacity: 0.2"/>
     <use xlink:href="#me19b86bb69" x="152.169124" y="136.340298" style="fill: #808080; fill-opacity: 0.2; stroke: #808080; stroke-opacity: 0.2"/>
     <use xlink:href="#me19b86bb69" x="177.581814" y="102.71796" style="fill: #808080; fill-opacity: 0.2; stroke: #808080; stroke-opacity: 0.2"/>
     <use xlink:href="#me19b86bb69" x="226.962604" y="81.756108" style="fill: #808080; fill-opacity: 0.2; stroke: #808080; stroke-opacity: 0.2"/>
     <use xlink:href="#me19b86bb69" x="139.013105" y="141.191454" style="fill: #808080; fill-opacity: 0.2; stroke: #808080; stroke-opacity: 0.2"/>
     <use xlink:href="#me19b86bb69" x="126.226081" y="85.905148" style="fill: #808080; fill-opacity: 0.2; stroke: #808080; stroke-opacity: 0.2"/>
     <use xlink:href="#me19b86bb69" x="139.740664" y="112.458781" style="fill: #808080; fill-opacity: 0.2; stroke: #808080; stroke-opacity: 0.2"/>
     <use xlink:href="#me19b86bb69" x="202.179632" y="139.864529" style="fill: #808080; fill-opacity: 0.2; stroke: #808080; stroke-opacity: 0.2"/>
     <use xlink:href="#me19b86bb69" x="176.332229" y="104.005949" style="fill: #808080; fill-opacity: 0.2; stroke: #808080; stroke-opacity: 0.2"/>
     <use xlink:href="#me19b86bb69" x="138.506865" y="141.669792" style="fill: #808080; fill-opacity: 0.2; stroke: #808080; stroke-opacity: 0.2"/>
     <use xlink:href="#me19b86bb69" x="184.46188" y="85.237598" style="fill: #808080; fill-opacity: 0.2; stroke: #808080; stroke-opacity: 0.2"/>
     <use xlink:href="#me19b86bb69" x="166.124866" y="130.722002" style="fill: #808080; fill-opacity: 0.2; stroke: #808080; stroke-opacity: 0.2"/>
     <use xlink:href="#me19b86bb69" x="204.525473" y="96.5316" style="fill: #808080; fill-opacity: 0.2; stroke: #808080; stroke-opacity: 0.2"/>
     <use xlink:href="#me19b86bb69" x="130.91577" y="119.724033" style="fill: #808080; fill-opacity: 0.2; stroke: #808080; stroke-opacity: 0.2"/>
     <use xlink:href="#me19b86bb69" x="147.411154" y="103.500876" style="fill: #808080; fill-opacity: 0.2; stroke: #808080; stroke-opacity: 0.2"/>
     <use xlink:href="#me19b86bb69" x="144.571711" y="150.515745" style="fill: #808080; fill-opacity: 0.2; stroke: #808080; stroke-opacity: 0.2"/>
     <use xlink:href="#me19b86bb69" x="97.366332" y="155.05309" style="fill: #808080; fill-opacity: 0.2; stroke: #808080; stroke-opacity: 0.2"/>
     <use xlink:href="#me19b86bb69" x="174.894539" y="119.321503" style="fill: #808080; fill-opacity: 0.2; stroke: #808080; stroke-opacity: 0.2"/>
     <use xlink:href="#me19b86bb69" x="173.349601" y="124.031799" style="fill: #808080; fill-opacity: 0.2; stroke: #808080; stroke-opacity: 0.2"/>
     <use xlink:href="#me19b86bb69" x="162.072997" y="76.303176" style="fill: #808080; fill-opacity: 0.2; stroke: #808080; stroke-opacity: 0.2"/>
     <use xlink:href="#me19b86bb69" x="151.511969" y="111.615081" style="fill: #808080; fill-opacity: 0.2; stroke: #808080; stroke-opacity: 0.2"/>
     <use xlink:href="#me19b86bb69" x="99.48753" y="174.433665" style="fill: #808080; fill-opacity: 0.2; stroke: #808080; stroke-opacity: 0.2"/>
     <use xlink:href="#me19b86bb69" x="143.314385" y="104.402918" style="fill: #808080; fill-opacity: 0.2; stroke: #808080; stroke-opacity: 0.2"/>
     <use xlink:href="#me19b86bb69" x="146.747958" y="76.107349" style="fill: #808080; fill-opacity: 0.2; stroke: #808080; stroke-opacity: 0.2"/>
     <use xlink:href="#me19b86bb69" x="126.499968" y="110.295587" style="fill: #808080; fill-opacity: 0.2; stroke: #808080; stroke-opacity: 0.2"/>
     <use xlink:href="#me19b86bb69" x="154.741575" y="152.463231" style="fill: #808080; fill-opacity: 0.2; stroke: #808080; stroke-opacity: 0.2"/>
     <use xlink:href="#me19b86bb69" x="179.64988" y="117.14472" style="fill: #808080; fill-opacity: 0.2; stroke: #808080; stroke-opacity: 0.2"/>
     <use xlink:href="#me19b86bb69" x="244.951637" y="45.794136" style="fill: #808080; fill-opacity: 0.2; stroke: #808080; stroke-opacity: 0.2"/>
     <use xlink:href="#me19b86bb69" x="169.53947" y="127.139301" style="fill: #808080; fill-opacity: 0.2; stroke: #808080; stroke-opacity: 0.2"/>
     <use xlink:href="#me19b86bb69" x="173.195179" y="99.897757" style="fill: #808080; fill-opacity: 0.2; stroke: #808080; stroke-opacity: 0.2"/>
     <use xlink:href="#me19b86bb69" x="158.567671" y="99.923834" style="fill: #808080; fill-opacity: 0.2; stroke: #808080; stroke-opacity: 0.2"/>
     <use xlink:href="#me19b86bb69" x="77.308083" y="178.172946" style="fill: #808080; fill-opacity: 0.2; stroke: #808080; stroke-opacity: 0.2"/>
     <use xlink:href="#me19b86bb69" x="160.679521" y="117.273948" style="fill: #808080; fill-opacity: 0.2; stroke: #808080; stroke-opacity: 0.2"/>
     <use xlink:href="#me19b86bb69" x="164.5014" y="185.572979" style="fill: #808080; fill-opacity: 0.2; stroke: #808080; stroke-opacity: 0.2"/>
     <use xlink:href="#me19b86bb69" x="270.3763" y="83.623275" style="fill: #808080; fill-opacity: 0.2; stroke: #808080; stroke-opacity: 0.2"/>
     <use xlink:href="#me19b86bb69" x="153.372422" y="125.193769" style="fill: #808080; fill-opacity: 0.2; stroke: #808080; stroke-opacity: 0.2"/>
     <use xlink:href="#me19b86bb69" x="175.133652" y="136.256382" style="fill: #808080; fill-opacity: 0.2; stroke: #808080; stroke-opacity: 0.2"/>
     <use xlink:href="#me19b86bb69" x="160.318328" y="80.117953" style="fill: #808080; fill-opacity: 0.2; stroke: #808080; stroke-opacity: 0.2"/>
     <use xlink:href="#me19b86bb69" x="110.356625" y="172.724858" style="fill: #808080; fill-opacity: 0.2; stroke: #808080; stroke-opacity: 0.2"/>
     <use xlink:href="#me19b86bb69" x="212.199617" y="99.866674" style="fill: #808080; fill-opacity: 0.2; stroke: #808080; stroke-opacity: 0.2"/>
     <use xlink:href="#me19b86bb69" x="194.977307" y="95.896826" style="fill: #808080; fill-opacity: 0.2; stroke: #808080; stroke-opacity: 0.2"/>
     <use xlink:href="#me19b86bb69" x="196.699976" y="66.113758" style="fill: #808080; fill-opacity: 0.2; stroke: #808080; stroke-opacity: 0.2"/>
     <use xlink:href="#me19b86bb69" x="121.780774" y="167.129193" style="fill: #808080; fill-opacity: 0.2; stroke: #808080; stroke-opacity: 0.2"/>
     <use xlink:href="#me19b86bb69" x="223.653766" y="58.750856" style="fill: #808080; fill-opacity: 0.2; stroke: #808080; stroke-opacity: 0.2"/>
     <use xlink:href="#me19b86bb69" x="100.083197" y="146.084877" style="fill: #808080; fill-opacity: 0.2; stroke: #808080; stroke-opacity: 0.2"/>
     <use xlink:href="#me19b86bb69" x="187.704185" y="124.084267" style="fill: #808080; fill-opacity: 0.2; stroke: #808080; stroke-opacity: 0.2"/>
     <use xlink:href="#me19b86bb69" x="258.357533" y="56.839783" style="fill: #808080; fill-opacity: 0.2; stroke: #808080; stroke-opacity: 0.2"/>
     <use xlink:href="#me19b86bb69" x="118.205415" y="132.841225" style="fill: #808080; fill-opacity: 0.2; stroke: #808080; stroke-opacity: 0.2"/>
     <use xlink:href="#me19b86bb69" x="136.897049" y="141.117396" style="fill: #808080; fill-opacity: 0.2; stroke: #808080; stroke-opacity: 0.2"/>
     <use xlink:href="#me19b86bb69" x="166.238266" y="111.63585" style="fill: #808080; fill-opacity: 0.2; stroke: #808080; stroke-opacity: 0.2"/>
     <use xlink:href="#me19b86bb69" x="139.664943" y="134.988677" style="fill: #808080; fill-opacity: 0.2; stroke: #808080; stroke-opacity: 0.2"/>
     <use xlink:href="#me19b86bb69" x="93.526636" y="147.08957" style="fill: #808080; fill-opacity: 0.2; stroke: #808080; stroke-opacity: 0.2"/>
     <use xlink:href="#me19b86bb69" x="164.868535" y="99.250652" style="fill: #808080; fill-opacity: 0.2; stroke: #808080; stroke-opacity: 0.2"/>
     <use xlink:href="#me19b86bb69" x="115.043398" y="103.818206" style="fill: #808080; fill-opacity: 0.2; stroke: #808080; stroke-opacity: 0.2"/>
     <use xlink:href="#me19b86bb69" x="182.713829" y="132.239806" style="fill: #808080; fill-opacity: 0.2; stroke: #808080; stroke-opacity: 0.2"/>
     <use xlink:href="#me19b86bb69" x="121.338561" y="88.593888" style="fill: #808080; fill-opacity: 0.2; stroke: #808080; stroke-opacity: 0.2"/>
     <use xlink:href="#me19b86bb69" x="230.136648" y="124.249814" style="fill: #808080; fill-opacity: 0.2; stroke: #808080; stroke-opacity: 0.2"/>
     <use xlink:href="#me19b86bb69" x="127.33815" y="136.009282" style="fill: #808080; fill-opacity: 0.2; stroke: #808080; stroke-opacity: 0.2"/>
     <use xlink:href="#me19b86bb69" x="147.657914" y="109.499661" style="fill: #808080; fill-opacity: 0.2; stroke: #808080; stroke-opacity: 0.2"/>
     <use xlink:href="#me19b86bb69" x="197.69066" y="91.222135" style="fill: #808080; fill-opacity: 0.2; stroke: #808080; stroke-opacity: 0.2"/>
     <use xlink:href="#me19b86bb69" x="107.616744" y="156.278891" style="fill: #808080; fill-opacity: 0.2; stroke: #808080; stroke-opacity: 0.2"/>
     <use xlink:href="#me19b86bb69" x="171.869416" y="114.948537" style="fill: #808080; fill-opacity: 0.2; stroke: #808080; stroke-opacity: 0.2"/>
     <use xlink:href="#me19b86bb69" x="219.439431" y="97.409155" style="fill: #808080; fill-opacity: 0.2; stroke: #808080; stroke-opacity: 0.2"/>
     <use xlink:href="#me19b86bb69" x="91.023198" y="163.854333" style="fill: #808080; fill-opacity: 0.2; stroke: #808080; stroke-opacity: 0.2"/>
     <use xlink:href="#me19b86bb69" x="169.982531" y="92.552216" style="fill: #808080; fill-opacity: 0.2; stroke: #808080; stroke-opacity: 0.2"/>
     <use xlink:href="#me19b86bb69" x="173.297943" y="101.761837" style="fill: #808080; fill-opacity: 0.2; stroke: #808080; stroke-opacity: 0.2"/>
     <use xlink:href="#me19b86bb69" x="196.294231" y="113.413174" style="fill: #808080; fill-opacity: 0.2; stroke: #808080; stroke-opacity: 0.2"/>
     <use xlink:href="#me19b86bb69" x="107.348582" y="122.81978" style="fill: #808080; fill-opacity: 0.2; stroke: #808080; stroke-opacity: 0.2"/>
     <use xlink:href="#me19b86bb69" x="103.669375" y="137.733171" style="fill: #808080; fill-opacity: 0.2; stroke: #808080; stroke-opacity: 0.2"/>
     <use xlink:href="#me19b86bb69" x="184.844056" y="85.919421" style="fill: #808080; fill-opacity: 0.2; stroke: #808080; stroke-opacity: 0.2"/>
     <use xlink:href="#me19b86bb69" x="174.932624" y="94.927179" style="fill: #808080; fill-opacity: 0.2; stroke: #808080; stroke-opacity: 0.2"/>
    </g>
   </g>
   <g id="line2d_2">
    <path d="M 48.343537 217 
L 48.685847 216.593229 
L 50.947995 213.9051 
L 53.210142 211.216971 
L 55.47229 208.528842 
L 57.734437 205.840713 
L 59.996585 203.152584 
L 62.258732 200.464455 
L 64.52088 197.776326 
L 66.783027 195.088197 
L 69.045175 192.400068 
L 71.307322 189.711939 
L 73.569469 187.02381 
L 75.831617 184.335681 
L 78.093764 181.647552 
L 80.355912 178.959422 
L 82.618059 176.271293 
L 84.880207 173.583164 
L 87.142354 170.895035 
L 89.404502 168.206906 
L 91.666649 165.518777 
L 93.928797 162.830648 
L 96.190944 160.142519 
L 98.453092 157.45439 
L 100.715239 154.766261 
L 102.977387 152.078132 
L 105.239534 149.390003 
L 107.501682 146.701874 
L 109.763829 144.013745 
L 112.025977 141.325615 
L 114.288124 138.637486 
L 116.550272 135.949357 
L 118.812419 133.261228 
L 121.074567 130.573099 
L 123.336714 127.88497 
L 125.598862 125.196841 
L 127.861009 122.508712 
L 130.123156 119.820583 
L 132.385304 117.132454 
L 134.647451 114.444325 
L 136.909599 111.756196 
L 139.171746 109.068067 
L 141.433894 106.379938 
L 143.696041 103.691808 
L 145.958189 101.003679 
L 148.220336 98.31555 
L 150.482484 95.627421 
L 152.744631 92.939292 
L 155.006779 90.251163 
L 157.268926 87.563034 
L 159.531074 84.874905 
L 161.793221 82.186776 
L 164.055369 79.498647 
L 166.317516 76.810518 
L 168.579664 74.122389 
L 170.841811 71.43426 
L 173.103959 68.746131 
L 175.366106 66.058002 
L 177.628254 63.369872 
L 179.890401 60.681743 
L 182.152549 57.993614 
L 184.414696 55.305485 
L 186.676844 52.617356 
L 188.938991 49.929227 
L 191.201138 47.241098 
L 193.463286 44.552969 
L 195.725433 41.86484 
L 197.987581 39.176711 
L 200.249728 36.488582 
L 202.511876 33.800453 
L 204.774023 31.112324 
L 207.036171 28.424195 
L 209.298318 25.736065 
L 211.560466 23.047936 
L 213.822613 20.359807 
L 216.084761 17.671678 
L 218.346908 14.983549 
L 220.609056 12.29542 
L 222.871203 9.607291 
L 225.133351 6.919162 
L 227.395498 4.231033 
L 229.657646 1.542904 
L 231.797581 -1 
" clip-path="url(#p47529f6e94)" style="fill: none; stroke: #1f77b4; stroke-width: 1.5; stroke-linecap: square"/>
   </g>
   <g id="line2d_3">
    <path d="M 46.4237 138.940823 
L 48.685847 138.502732 
L 50.947995 138.064641 
L 53.210142 137.62655 
L 55.47229 137.188459 
L 57.734437 136.750369 
L 59.996585 136.312278 
L 62.258732 135.874187 
L 64.52088 135.436096 
L 66.783027 134.998005 
L 69.045175 134.559914 
L 71.307322 134.121824 
L 73.569469 133.683733 
L 75.831617 133.245642 
L 78.093764 132.807551 
L 80.355912 132.36946 
L 82.618059 131.931369 
L 84.880207 131.493278 
L 87.142354 131.055188 
L 89.404502 130.617097 
L 91.666649 130.179006 
L 93.928797 129.740915 
L 96.190944 129.302824 
L 98.453092 128.864733 
L 100.715239 128.426643 
L 102.977387 127.988552 
L 105.239534 127.550461 
L 107.501682 127.11237 
L 109.763829 126.674279 
L 112.025977 126.236188 
L 114.288124 125.798098 
L 116.550272 125.360007 
L 118.812419 124.921916 
L 121.074567 124.483825 
L 123.336714 124.045734 
L 125.598862 123.607643 
L 127.861009 123.169552 
L 130.123156 122.731462 
L 132.385304 122.293371 
L 134.647451 121.85528 
L 136.909599 121.417189 
L 139.171746 120.979098 
L 141.433894 120.541007 
L 143.696041 120.102917 
L 145.958189 119.664826 
L 148.220336 119.226735 
L 150.482484 118.788644 
L 152.744631 118.350553 
L 155.006779 117.912462 
L 157.268926 117.474371 
L 159.531074 117.036281 
L 161.793221 116.59819 
L 164.055369 116.160099 
L 166.317516 115.722008 
L 168.579664 115.283917 
L 170.841811 114.845826 
L 173.103959 114.407736 
L 175.366106 113.969645 
L 177.628254 113.531554 
L 179.890401 113.093463 
L 182.152549 112.655372 
L 184.414696 112.217281 
L 186.676844 111.77919 
L 188.938991 111.3411 
L 191.201138 110.903009 
L 193.463286 110.464918 
L 195.725433 110.026827 
L 197.987581 109.588736 
L 200.249728 109.150645 
L 202.511876 108.712555 
L 204.774023 108.274464 
L 207.036171 107.836373 
L 209.298318 107.398282 
L 211.560466 106.960191 
L 213.822613 106.5221 
L 216.084761 106.08401 
L 218.346908 105.645919 
L 220.609056 105.207828 
L 222.871203 104.769737 
L 225.133351 104.331646 
L 227.395498 103.893555 
L 229.657646 103.455464 
L 231.919793 103.017374 
L 234.181941 102.579283 
L 236.444088 102.141192 
L 238.706236 101.703101 
L 240.968383 101.26501 
L 243.230531 100.826919 
L 245.492678 100.388829 
L 247.754825 99.950738 
L 250.016973 99.512647 
L 252.27912 99.074556 
L 254.541268 98.636465 
L 256.803415 98.198374 
L 259.065563 97.760283 
L 261.32771 97.322193 
L 263.589858 96.884102 
L 265.852005 96.446011 
L 268.114153 96.00792 
L 270.3763 95.569829 
" clip-path="url(#p47529f6e94)" style="fill: none; stroke: #ff7f0e; stroke-width: 1.5; stroke-linecap: square"/>
   </g>
   <g id="line2d_4">
    <path d="M 46.4237 198.754659 
L 48.685847 197.084599 
L 50.947995 195.414539 
L 53.210142 193.74448 
L 55.47229 192.07442 
L 57.734437 190.40436 
L 59.996585 188.7343 
L 62.258732 187.06424 
L 64.52088 185.39418 
L 66.783027 183.72412 
L 69.045175 182.05406 
L 71.307322 180.384001 
L 73.569469 178.713941 
L 75.831617 177.043881 
L 78.093764 175.373821 
L 80.355912 173.703761 
L 82.618059 172.033701 
L 84.880207 170.363641 
L 87.142354 168.693582 
L 89.404502 167.023522 
L 91.666649 165.353462 
L 93.928797 163.683402 
L 96.190944 162.013342 
L 98.453092 160.343282 
L 100.715239 158.673222 
L 102.977387 157.003163 
L 105.239534 155.333103 
L 107.501682 153.663043 
L 109.763829 151.992983 
L 112.025977 150.322923 
L 114.288124 148.652863 
L 116.550272 146.982803 
L 118.812419 145.312743 
L 121.074567 143.642684 
L 123.336714 141.972624 
L 125.598862 140.302564 
L 127.861009 138.632504 
L 130.123156 136.962444 
L 132.385304 135.292384 
L 134.647451 133.622324 
L 136.909599 131.952265 
L 139.171746 130.282205 
L 141.433894 128.612145 
L 143.696041 126.942085 
L 145.958189 125.272025 
L 148.220336 123.601965 
L 150.482484 121.931905 
L 152.744631 120.261846 
L 155.006779 118.591786 
L 157.268926 116.921726 
L 159.531074 115.251666 
L 161.793221 113.581606 
L 164.055369 111.911546 
L 166.317516 110.241486 
L 168.579664 108.571426 
L 170.841811 106.901367 
L 173.103959 105.231307 
L 175.366106 103.561247 
L 177.628254 101.891187 
L 179.890401 100.221127 
L 182.152549 98.551067 
L 184.414696 96.881007 
L 186.676844 95.210948 
L 188.938991 93.540888 
L 191.201138 91.870828 
L 193.463286 90.200768 
L 195.725433 88.530708 
L 197.987581 86.860648 
L 200.249728 85.190588 
L 202.511876 83.520529 
L 204.774023 81.850469 
L 207.036171 80.180409 
L 209.298318 78.510349 
L 211.560466 76.840289 
L 213.822613 75.170229 
L 216.084761 73.500169 
L 218.346908 71.830109 
L 220.609056 70.16005 
L 222.871203 68.48999 
L 225.133351 66.81993 
L 227.395498 65.14987 
L 229.657646 63.47981 
L 231.919793 61.80975 
L 234.181941 60.13969 
L 236.444088 58.469631 
L 238.706236 56.799571 
L 240.968383 55.129511 
L 243.230531 53.459451 
L 245.492678 51.789391 
L 247.754825 50.119331 
L 250.016973 48.449271 
L 252.27912 46.779212 
L 254.541268 45.109152 
L 256.803415 43.439092 
L 259.065563 41.769032 
L 261.32771 40.098972 
L 263.589858 38.428912 
L 265.852005 36.758852 
L 268.114153 35.088792 
L 270.3763 33.418733 
" clip-path="url(#p47529f6e94)" style="fill: none; stroke: #2ca02c; stroke-width: 1.5; stroke-linecap: square"/>
   </g>
   <g id="line2d_5">
    <path d="M 46.4237 183.4214 
L 48.685847 182.117545 
L 50.947995 180.813689 
L 53.210142 179.509833 
L 55.47229 178.205977 
L 57.734437 176.902122 
L 59.996585 175.598266 
L 62.258732 174.29441 
L 64.52088 172.990554 
L 66.783027 171.686698 
L 69.045175 170.382843 
L 71.307322 169.078987 
L 73.569469 167.775131 
L 75.831617 166.471275 
L 78.093764 165.16742 
L 80.355912 163.863564 
L 82.618059 162.559708 
L 84.880207 161.255852 
L 87.142354 159.951997 
L 89.404502 158.648141 
L 91.666649 157.344285 
L 93.928797 156.040429 
L 96.190944 154.736574 
L 98.453092 153.432718 
L 100.715239 152.128862 
L 102.977387 150.825006 
L 105.239534 149.521151 
L 107.501682 148.217295 
L 109.763829 146.913439 
L 112.025977 145.609583 
L 114.288124 144.305728 
L 116.550272 143.001872 
L 118.812419 141.698016 
L 121.074567 140.39416 
L 123.336714 139.090304 
L 125.598862 137.786449 
L 127.861009 136.482593 
L 130.123156 135.178737 
L 132.385304 133.874881 
L 134.647451 132.571026 
L 136.909599 131.26717 
L 139.171746 129.963314 
L 141.433894 128.659458 
L 143.696041 127.355603 
L 145.958189 126.051747 
L 148.220336 124.747891 
L 150.482484 123.444035 
L 152.744631 122.14018 
L 155.006779 120.836324 
L 157.268926 119.532468 
L 159.531074 118.228612 
L 161.793221 116.924757 
L 164.055369 115.620901 
L 166.317516 114.317045 
L 168.579664 113.013189 
L 170.841811 111.709333 
L 173.103959 110.405478 
L 175.366106 109.101622 
L 177.628254 107.797766 
L 179.890401 106.49391 
L 182.152549 105.190055 
L 184.414696 103.886199 
L 186.676844 102.582343 
L 188.938991 101.278487 
L 191.201138 99.974632 
L 193.463286 98.670776 
L 195.725433 97.36692 
L 197.987581 96.063064 
L 200.249728 94.759209 
L 202.511876 93.455353 
L 204.774023 92.151497 
L 207.036171 90.847641 
L 209.298318 89.543786 
L 211.560466 88.23993 
L 213.822613 86.936074 
L 216.084761 85.632218 
L 218.346908 84.328362 
L 220.609056 83.024507 
L 222.871203 81.720651 
L 225.133351 80.416795 
L 227.395498 79.112939 
L 229.657646 77.809084 
L 231.919793 76.505228 
L 234.181941 75.201372 
L 236.444088 73.897516 
L 238.706236 72.593661 
L 240.968383 71.289805 
L 243.230531 69.985949 
L 245.492678 68.682093 
L 247.754825 67.378238 
L 250.016973 66.074382 
L 252.27912 64.770526 
L 254.541268 63.46667 
L 256.803415 62.162815 
L 259.065563 60.858959 
L 261.32771 59.555103 
L 263.589858 58.251247 
L 265.852005 56.947392 
L 268.114153 55.643536 
L 270.3763 54.33968 
" clip-path="url(#p47529f6e94)" style="fill: none; stroke: #d62728; stroke-width: 1.5; stroke-linecap: square"/>
   </g>
   <g id="line2d_6">
    <path d="M 46.4237 211.780298 
L 48.685847 209.719227 
L 50.947995 207.658156 
L 53.210142 205.597085 
L 55.47229 203.536013 
L 57.734437 201.474942 
L 59.996585 199.413871 
L 62.258732 197.3528 
L 64.52088 195.291729 
L 66.783027 193.230658 
L 69.045175 191.169586 
L 71.307322 189.108515 
L 73.569469 187.047444 
L 75.831617 184.986373 
L 78.093764 182.925302 
L 80.355912 180.86423 
L 82.618059 178.803159 
L 84.880207 176.742088 
L 87.142354 174.681017 
L 89.404502 172.619946 
L 91.666649 170.558875 
L 93.928797 168.497803 
L 96.190944 166.436732 
L 98.453092 164.375661 
L 100.715239 162.31459 
L 102.977387 160.253519 
L 105.239534 158.192447 
L 107.501682 156.131376 
L 109.763829 154.070305 
L 112.025977 152.009234 
L 114.288124 149.948163 
L 116.550272 147.887092 
L 118.812419 145.82602 
L 121.074567 143.764949 
L 123.336714 141.703878 
L 125.598862 139.642807 
L 127.861009 137.581736 
L 130.123156 135.520664 
L 132.385304 133.459593 
L 134.647451 131.398522 
L 136.909599 129.337451 
L 139.171746 127.27638 
L 141.433894 125.215309 
L 143.696041 123.154237 
L 145.958189 121.093166 
L 148.220336 119.032095 
L 150.482484 116.971024 
L 152.744631 114.909953 
L 155.006779 112.848881 
L 157.268926 110.78781 
L 159.531074 108.726739 
L 161.793221 106.665668 
L 164.055369 104.604597 
L 166.317516 102.543526 
L 168.579664 100.482454 
L 170.841811 98.421383 
L 173.103959 96.360312 
L 175.366106 94.299241 
L 177.628254 92.23817 
L 179.890401 90.177098 
L 182.152549 88.116027 
L 184.414696 86.054956 
L 186.676844 83.993885 
L 188.938991 81.932814 
L 191.201138 79.871743 
L 193.463286 77.810671 
L 195.725433 75.7496 
L 197.987581 73.688529 
L 200.249728 71.627458 
L 202.511876 69.566387 
L 204.774023 67.505315 
L 207.036171 65.444244 
L 209.298318 63.383173 
L 211.560466 61.322102 
L 213.822613 59.261031 
L 216.084761 57.19996 
L 218.346908 55.138888 
L 220.609056 53.077817 
L 222.871203 51.016746 
L 225.133351 48.955675 
L 227.395498 46.894604 
L 229.657646 44.833532 
L 231.919793 42.772461 
L 234.181941 40.71139 
L 236.444088 38.650319 
L 238.706236 36.589248 
L 240.968383 34.528177 
L 243.230531 32.467105 
L 245.492678 30.406034 
L 247.754825 28.344963 
L 250.016973 26.283892 
L 252.27912 24.222821 
L 254.541268 22.161749 
L 256.803415 20.100678 
L 259.065563 18.039607 
L 261.32771 15.978536 
L 263.589858 13.917465 
L 265.852005 11.856394 
L 268.114153 9.795322 
L 270.3763 7.734251 
" clip-path="url(#p47529f6e94)" style="fill: none; stroke: #9467bd; stroke-width: 1.5; stroke-linecap: square"/>
   </g>
   <g id="line2d_7">
    <path d="M 46.4237 153.834307 
L 48.685847 152.877682 
L 50.947995 151.921056 
L 53.210142 150.964431 
L 55.47229 150.007806 
L 57.734437 149.051181 
L 59.996585 148.094556 
L 62.258732 147.137931 
L 64.52088 146.181306 
L 66.783027 145.224681 
L 69.045175 144.268056 
L 71.307322 143.31143 
L 73.569469 142.354805 
L 75.831617 141.39818 
L 78.093764 140.441555 
L 80.355912 139.48493 
L 82.618059 138.528305 
L 84.880207 137.57168 
L 87.142354 136.615055 
L 89.404502 135.65843 
L 91.666649 134.701804 
L 93.928797 133.745179 
L 96.190944 132.788554 
L 98.453092 131.831929 
L 100.715239 130.875304 
L 102.977387 129.918679 
L 105.239534 128.962054 
L 107.501682 128.005429 
L 109.763829 127.048804 
L 112.025977 126.092178 
L 114.288124 125.135553 
L 116.550272 124.178928 
L 118.812419 123.222303 
L 121.074567 122.265678 
L 123.336714 121.309053 
L 125.598862 120.352428 
L 127.861009 119.395803 
L 130.123156 118.439177 
L 132.385304 117.482552 
L 134.647451 116.525927 
L 136.909599 115.569302 
L 139.171746 114.612677 
L 141.433894 113.656052 
L 143.696041 112.699427 
L 145.958189 111.742802 
L 148.220336 110.786177 
L 150.482484 109.829551 
L 152.744631 108.872926 
L 155.006779 107.916301 
L 157.268926 106.959676 
L 159.531074 106.003051 
L 161.793221 105.046426 
L 164.055369 104.089801 
L 166.317516 103.133176 
L 168.579664 102.176551 
L 170.841811 101.219925 
L 173.103959 100.2633 
L 175.366106 99.306675 
L 177.628254 98.35005 
L 179.890401 97.393425 
L 182.152549 96.4368 
L 184.414696 95.480175 
L 186.676844 94.52355 
L 188.938991 93.566925 
L 191.201138 92.610299 
L 193.463286 91.653674 
L 195.725433 90.697049 
L 197.987581 89.740424 
L 200.249728 88.783799 
L 202.511876 87.827174 
L 204.774023 86.870549 
L 207.036171 85.913924 
L 209.298318 84.957299 
L 211.560466 84.000673 
L 213.822613 83.044048 
L 216.084761 82.087423 
L 218.346908 81.130798 
L 220.609056 80.174173 
L 222.871203 79.217548 
L 225.133351 78.260923 
L 227.395498 77.304298 
L 229.657646 76.347673 
L 231.919793 75.391047 
L 234.181941 74.434422 
L 236.444088 73.477797 
L 238.706236 72.521172 
L 240.968383 71.564547 
L 243.230531 70.607922 
L 245.492678 69.651297 
L 247.754825 68.694672 
L 250.016973 67.738047 
L 252.27912 66.781421 
L 254.541268 65.824796 
L 256.803415 64.868171 
L 259.065563 63.911546 
L 261.32771 62.954921 
L 263.589858 61.998296 
L 265.852005 61.041671 
L 268.114153 60.085046 
L 270.3763 59.128421 
" clip-path="url(#p47529f6e94)" style="fill: none; stroke: #8c564b; stroke-width: 1.5; stroke-linecap: square"/>
   </g>
   <g id="patch_3">
    <path d="M 28.8 194.4 
L 28.8 0 
" style="fill: none; stroke: #000000; stroke-width: 0.8; stroke-linejoin: miter; stroke-linecap: square"/>
   </g>
   <g id="patch_4">
    <path d="M 28.8 194.4 
L 288 194.4 
" style="fill: none; stroke: #000000; stroke-width: 0.8; stroke-linejoin: miter; stroke-linecap: square"/>
   </g>
  </g>
 </g>
 <defs>
  <clipPath id="p47529f6e94">
   <rect x="28.8" y="0" width="259.2" height="194.4"/>
  </clipPath>
 </defs>
</svg>
