<?xml version="1.0" encoding="utf-8" standalone="no"?>
<!DOCTYPE svg PUBLIC "-//W3C//DTD SVG 1.1//EN"
  "http://www.w3.org/Graphics/SVG/1.1/DTD/svg11.dtd">
<svg xmlns:xlink="http://www.w3.org/1999/xlink" width="576pt" height="432pt" viewBox="0 0 576 432" xmlns="http://www.w3.org/2000/svg" version="1.1">
 <metadata>
  <rdf:RDF xmlns:dc="http://purl.org/dc/elements/1.1/" xmlns:cc="http://creativecommons.org/ns#" xmlns:rdf="http://www.w3.org/1999/02/22-rdf-syntax-ns#">
   <cc:Work>
    <dc:type rdf:resource="http://purl.org/dc/dcmitype/StillImage"/>
    <dc:date>2025-02-01T16:29:34.414101</dc:date>
    <dc:format>image/svg+xml</dc:format>
    <dc:creator>
     <cc:Agent>
      <dc:title>Matplotlib v3.10.0, https://matplotlib.org/</dc:title>
     </cc:Agent>
    </dc:creator>
   </cc:Work>
  </rdf:RDF>
 </metadata>
 <defs>
  <style type="text/css">*{stroke-linejoin: round; stroke-linecap: butt}</style>
 </defs>
 <g id="figure_1">
  <g id="patch_1">
   <path d="M 0 432 
L 576 432 
L 576 0 
L 0 0 
L 0 432 
z
" style="fill: none"/>
  </g>
  <g id="axes_1">
   <g id="patch_2">
    <path d="M 353.218605 200.337864 
C 369.208947 191.105835 382.101236 178.015331 389.056095 163.949381 
C 396.010955 149.883432 396.460551 135.990461 390.305865 125.330233 
C 384.15118 114.670005 371.894716 108.11288 356.235816 107.102991 
C 340.576917 106.093101 322.794063 110.712899 306.803721 119.944927 
C 290.813379 129.176955 277.92109 142.26746 270.96623 156.333409 
C 264.011371 170.399359 263.561775 184.29233 269.71646 194.952558 
C 275.871146 205.612786 288.12761 212.16991 303.786509 213.1798 
C 319.445408 214.18969 337.228263 209.569892 353.218605 200.337864 
z
" clip-path="url(#p21703bc164)" style="fill: #f08080; opacity: 0.5; stroke: #000000; stroke-width: 2; stroke-linejoin: miter"/>
   </g>
   <g id="patch_3">
    <path d="M 360.954419 213.736687 
C 382.274875 201.427316 399.464594 183.973309 408.73774 165.21871 
C 418.010886 146.464111 418.610347 127.940149 410.4041 113.726512 
C 402.197852 99.512874 385.8559 90.770042 364.977368 89.423522 
C 344.098835 88.077003 320.388363 94.236733 299.067907 106.546104 
C 277.747451 118.855475 260.557732 136.309481 251.284586 155.064081 
C 242.01144 173.81868 241.411979 192.342642 249.618226 206.556279 
C 257.824473 220.769916 274.166426 229.512749 295.044958 230.859268 
C 315.92349 232.205788 339.633963 226.046058 360.954419 213.736687 
z
" clip-path="url(#p21703bc164)" style="fill: #ffa07a; opacity: 0.5; stroke: #000000; stroke-width: 2; stroke-linejoin: miter"/>
   </g>
   <g id="patch_4">
    <path d="M 368.690233 227.135509 
C 395.340803 211.748796 416.827951 189.931288 428.419384 166.488039 
C 440.010816 143.04479 440.760143 119.889837 430.502334 102.122791 
C 420.244525 84.355744 399.817084 73.427204 373.718919 71.744054 
C 347.620753 70.060905 317.982663 77.760568 291.332093 93.147281 
C 264.681523 108.533995 243.194374 130.351503 231.602942 153.794752 
C 220.011509 177.238001 219.262183 200.392953 229.519992 218.16 
C 239.777801 235.927047 260.205242 246.855587 286.303407 248.538736 
C 312.401572 250.221886 342.039662 242.522223 368.690233 227.135509 
z
" clip-path="url(#p21703bc164)" style="fill: #fffacd; opacity: 0.5; stroke: #000000; stroke-width: 2; stroke-linejoin: miter"/>
   </g>
   <g id="patch_5">
    <path d="M 237.181395 339.612279 
L 292.879256 283.914419 
L 237.181395 228.216558 
L 181.483535 283.914419 
z
" clip-path="url(#p21703bc164)" style="fill: #228b22; opacity: 0.5; stroke: #228b22; stroke-width: 2; stroke-linejoin: miter"/>
   </g>
   <g id="line2d_1">
    <path d="M 5.106977 283.914419 
L 507.934884 283.914419 
" clip-path="url(#p21703bc164)" style="fill: none; stroke: #000000; stroke-width: 2; stroke-linecap: square"/>
   </g>
   <g id="line2d_2">
    <path d="M 237.181395 433 
L 237.181395 51.84 
" clip-path="url(#p21703bc164)" style="fill: none; stroke: #000000; stroke-width: 2; stroke-linecap: square"/>
   </g>
   <g id="line2d_3">
    <defs>
     <path id="m85a793b024" d="M 0 3 
C 0.795609 3 1.55874 2.683901 2.12132 2.12132 
C 2.683901 1.55874 3 0.795609 3 0 
C 3 -0.795609 2.683901 -1.55874 2.12132 -2.12132 
C 1.55874 -2.683901 0.795609 -3 0 -3 
C -0.795609 -3 -1.55874 -2.683901 -2.12132 -2.12132 
C -2.683901 -1.55874 -3 -0.795609 -3 0 
C -3 0.795609 -2.683901 1.55874 -2.12132 2.12132 
C -1.55874 2.683901 -0.795609 3 0 3 
z
" style="stroke: #000000"/>
    </defs>
    <g clip-path="url(#p21703bc164)">
     <use xlink:href="#m85a793b024" x="237.181395" y="283.914419" style="stroke: #000000"/>
    </g>
   </g>
   <g id="line2d_4">
    <defs>
     <path id="m465e8d6130" d="M -3 3 
L 3 -3 
M -3 -3 
L 3 3 
" style="stroke: #000000"/>
    </defs>
    <g clip-path="url(#p21703bc164)">
     <use xlink:href="#m465e8d6130" x="330.011163" y="160.141395" style="stroke: #000000"/>
    </g>
   </g>
   <g id="text_1">
    <!-- $\beta_0$ -->
    <g transform="translate(461.52 276.178605) scale(0.16 -0.16)">
     <defs>
      <path id="DejaVuSans-Oblique-3b2" d="M 872 216 
L 572 -1331 
L -6 -1331 
L 928 3478 
Q 1206 4903 2538 4903 
Q 3888 4903 3659 3700 
Q 3503 2844 2894 2531 
Q 3713 2250 3553 1416 
Q 3272 -69 1759 -66 
Q 1097 -63 872 216 
z
M 1019 966 
Q 1259 422 1875 425 
Q 2775 425 2966 1406 
Q 3138 2288 1675 2219 
L 1778 2750 
Q 2909 2731 3106 3750 
Q 3241 4438 2509 4434 
Q 1691 4434 1503 3459 
L 1019 966 
z
" transform="scale(0.015625)"/>
      <path id="DejaVuSans-30" d="M 2034 4250 
Q 1547 4250 1301 3770 
Q 1056 3291 1056 2328 
Q 1056 1369 1301 889 
Q 1547 409 2034 409 
Q 2525 409 2770 889 
Q 3016 1369 3016 2328 
Q 3016 3291 2770 3770 
Q 2525 4250 2034 4250 
z
M 2034 4750 
Q 2819 4750 3233 4129 
Q 3647 3509 3647 2328 
Q 3647 1150 3233 529 
Q 2819 -91 2034 -91 
Q 1250 -91 836 529 
Q 422 1150 422 2328 
Q 422 3509 836 4129 
Q 1250 4750 2034 4750 
z
" transform="scale(0.015625)"/>
     </defs>
     <use xlink:href="#DejaVuSans-Oblique-3b2" transform="translate(0 0.390625)"/>
     <use xlink:href="#DejaVuSans-30" transform="translate(63.818359 -16.015625) scale(0.7)"/>
    </g>
   </g>
   <g id="text_2">
    <!-- $\beta_1$ -->
    <g transform="translate(244.917209 105.990698) scale(0.16 -0.16)">
     <defs>
      <path id="DejaVuSans-31" d="M 794 531 
L 1825 531 
L 1825 4091 
L 703 3866 
L 703 4441 
L 1819 4666 
L 2450 4666 
L 2450 531 
L 3481 531 
L 3481 0 
L 794 0 
L 794 531 
z
" transform="scale(0.015625)"/>
     </defs>
     <use xlink:href="#DejaVuSans-Oblique-3b2" transform="translate(0 0.390625)"/>
     <use xlink:href="#DejaVuSans-31" transform="translate(63.818359 -16.015625) scale(0.7)"/>
    </g>
   </g>
   <g id="text_3">
    <!-- Min of MSE: $\hat{\beta}_{OLS}$ -->
    <g transform="translate(280.691163 150.613953) scale(0.12 -0.12)">
     <defs>
      <path id="DejaVuSans-4d" d="M 628 4666 
L 1569 4666 
L 2759 1491 
L 3956 4666 
L 4897 4666 
L 4897 0 
L 4281 0 
L 4281 4097 
L 3078 897 
L 2444 897 
L 1241 4097 
L 1241 0 
L 628 0 
L 628 4666 
z
" transform="scale(0.015625)"/>
      <path id="DejaVuSans-69" d="M 603 3500 
L 1178 3500 
L 1178 0 
L 603 0 
L 603 3500 
z
M 603 4863 
L 1178 4863 
L 1178 4134 
L 603 4134 
L 603 4863 
z
" transform="scale(0.015625)"/>
      <path id="DejaVuSans-6e" d="M 3513 2113 
L 3513 0 
L 2938 0 
L 2938 2094 
Q 2938 2591 2744 2837 
Q 2550 3084 2163 3084 
Q 1697 3084 1428 2787 
Q 1159 2491 1159 1978 
L 1159 0 
L 581 0 
L 581 3500 
L 1159 3500 
L 1159 2956 
Q 1366 3272 1645 3428 
Q 1925 3584 2291 3584 
Q 2894 3584 3203 3211 
Q 3513 2838 3513 2113 
z
" transform="scale(0.015625)"/>
      <path id="DejaVuSans-20" transform="scale(0.015625)"/>
      <path id="DejaVuSans-6f" d="M 1959 3097 
Q 1497 3097 1228 2736 
Q 959 2375 959 1747 
Q 959 1119 1226 758 
Q 1494 397 1959 397 
Q 2419 397 2687 759 
Q 2956 1122 2956 1747 
Q 2956 2369 2687 2733 
Q 2419 3097 1959 3097 
z
M 1959 3584 
Q 2709 3584 3137 3096 
Q 3566 2609 3566 1747 
Q 3566 888 3137 398 
Q 2709 -91 1959 -91 
Q 1206 -91 779 398 
Q 353 888 353 1747 
Q 353 2609 779 3096 
Q 1206 3584 1959 3584 
z
" transform="scale(0.015625)"/>
      <path id="DejaVuSans-66" d="M 2375 4863 
L 2375 4384 
L 1825 4384 
Q 1516 4384 1395 4259 
Q 1275 4134 1275 3809 
L 1275 3500 
L 2222 3500 
L 2222 3053 
L 1275 3053 
L 1275 0 
L 697 0 
L 697 3053 
L 147 3053 
L 147 3500 
L 697 3500 
L 697 3744 
Q 697 4328 969 4595 
Q 1241 4863 1831 4863 
L 2375 4863 
z
" transform="scale(0.015625)"/>
      <path id="DejaVuSans-53" d="M 3425 4513 
L 3425 3897 
Q 3066 4069 2747 4153 
Q 2428 4238 2131 4238 
Q 1616 4238 1336 4038 
Q 1056 3838 1056 3469 
Q 1056 3159 1242 3001 
Q 1428 2844 1947 2747 
L 2328 2669 
Q 3034 2534 3370 2195 
Q 3706 1856 3706 1288 
Q 3706 609 3251 259 
Q 2797 -91 1919 -91 
Q 1588 -91 1214 -16 
Q 841 59 441 206 
L 441 856 
Q 825 641 1194 531 
Q 1563 422 1919 422 
Q 2459 422 2753 634 
Q 3047 847 3047 1241 
Q 3047 1584 2836 1778 
Q 2625 1972 2144 2069 
L 1759 2144 
Q 1053 2284 737 2584 
Q 422 2884 422 3419 
Q 422 4038 858 4394 
Q 1294 4750 2059 4750 
Q 2388 4750 2728 4690 
Q 3069 4631 3425 4513 
z
" transform="scale(0.015625)"/>
      <path id="DejaVuSans-45" d="M 628 4666 
L 3578 4666 
L 3578 4134 
L 1259 4134 
L 1259 2753 
L 3481 2753 
L 3481 2222 
L 1259 2222 
L 1259 531 
L 3634 531 
L 3634 0 
L 628 0 
L 628 4666 
z
" transform="scale(0.015625)"/>
      <path id="DejaVuSans-3a" d="M 750 794 
L 1409 794 
L 1409 0 
L 750 0 
L 750 794 
z
M 750 3309 
L 1409 3309 
L 1409 2516 
L 750 2516 
L 750 3309 
z
" transform="scale(0.015625)"/>
      <path id="DejaVuSans-302" d="M -1831 5119 
L -1369 5119 
L -603 3944 
L -1038 3944 
L -1600 4709 
L -2163 3944 
L -2597 3944 
L -1831 5119 
z
M -1600 3584 
L -1600 3584 
z
" transform="scale(0.015625)"/>
      <path id="DejaVuSans-Oblique-4f" d="M 2919 4238 
Q 2400 4238 2003 3986 
Q 1606 3734 1313 3219 
Q 1125 2891 1026 2522 
Q 928 2153 928 1778 
Q 928 1128 1239 775 
Q 1550 422 2119 422 
Q 2631 422 3032 676 
Q 3434 931 3719 1434 
Q 3909 1772 4009 2142 
Q 4109 2513 4109 2881 
Q 4109 3528 3796 3883 
Q 3484 4238 2919 4238 
z
M 2100 -91 
Q 1241 -91 748 418 
Q 256 928 256 1813 
Q 256 2319 448 2847 
Q 641 3375 978 3788 
Q 1375 4272 1862 4511 
Q 2350 4750 2938 4750 
Q 3794 4750 4287 4245 
Q 4781 3741 4781 2869 
Q 4781 2331 4593 1812 
Q 4406 1294 4056 872 
Q 3656 384 3173 146 
Q 2691 -91 2100 -91 
z
" transform="scale(0.015625)"/>
      <path id="DejaVuSans-Oblique-4c" d="M 1075 4666 
L 1709 4666 
L 909 525 
L 3181 525 
L 3078 0 
L 172 0 
L 1075 4666 
z
" transform="scale(0.015625)"/>
      <path id="DejaVuSans-Oblique-53" d="M 3859 4513 
L 3738 3897 
Q 3422 4066 3111 4152 
Q 2800 4238 2509 4238 
Q 1944 4238 1609 3991 
Q 1275 3744 1275 3334 
Q 1275 3109 1398 2989 
Q 1522 2869 2034 2731 
L 2413 2638 
Q 3053 2472 3303 2217 
Q 3553 1963 3553 1503 
Q 3553 797 2998 353 
Q 2444 -91 1538 -91 
Q 1166 -91 791 -17 
Q 416 56 38 206 
L 166 856 
Q 513 641 861 531 
Q 1209 422 1556 422 
Q 2147 422 2503 684 
Q 2859 947 2859 1369 
Q 2859 1650 2717 1795 
Q 2575 1941 2106 2059 
L 1728 2156 
Q 1081 2325 845 2545 
Q 609 2766 609 3163 
Q 609 3859 1145 4304 
Q 1681 4750 2541 4750 
Q 2875 4750 3203 4690 
Q 3531 4631 3859 4513 
z
" transform="scale(0.015625)"/>
     </defs>
     <use xlink:href="#DejaVuSans-4d" transform="translate(0 0.90625)"/>
     <use xlink:href="#DejaVuSans-69" transform="translate(86.279297 0.90625)"/>
     <use xlink:href="#DejaVuSans-6e" transform="translate(114.0625 0.90625)"/>
     <use xlink:href="#DejaVuSans-20" transform="translate(177.441406 0.90625)"/>
     <use xlink:href="#DejaVuSans-6f" transform="translate(209.228516 0.90625)"/>
     <use xlink:href="#DejaVuSans-66" transform="translate(270.410156 0.90625)"/>
     <use xlink:href="#DejaVuSans-20" transform="translate(305.615234 0.90625)"/>
     <use xlink:href="#DejaVuSans-4d" transform="translate(337.402344 0.90625)"/>
     <use xlink:href="#DejaVuSans-53" transform="translate(423.681641 0.90625)"/>
     <use xlink:href="#DejaVuSans-45" transform="translate(487.158203 0.90625)"/>
     <use xlink:href="#DejaVuSans-3a" transform="translate(550.341797 0.90625)"/>
     <use xlink:href="#DejaVuSans-20" transform="translate(584.033203 0.90625)"/>
     <use xlink:href="#DejaVuSans-302" transform="translate(680.353027 34.015625)"/>
     <use xlink:href="#DejaVuSans-Oblique-3b2" transform="translate(615.820312 0.90625)"/>
     <use xlink:href="#DejaVuSans-Oblique-4f" transform="translate(680.595703 -15.5) scale(0.7)"/>
     <use xlink:href="#DejaVuSans-Oblique-4c" transform="translate(735.693359 -15.5) scale(0.7)"/>
     <use xlink:href="#DejaVuSans-Oblique-53" transform="translate(774.692383 -15.5) scale(0.7)"/>
    </g>
   </g>
   <g id="text_4">
    <!-- (0,0) -->
    <g transform="translate(206.23814 299.386047) scale(0.12 -0.12)">
     <defs>
      <path id="DejaVuSans-28" d="M 1984 4856 
Q 1566 4138 1362 3434 
Q 1159 2731 1159 2009 
Q 1159 1288 1364 580 
Q 1569 -128 1984 -844 
L 1484 -844 
Q 1016 -109 783 600 
Q 550 1309 550 2009 
Q 550 2706 781 3412 
Q 1013 4119 1484 4856 
L 1984 4856 
z
" transform="scale(0.015625)"/>
      <path id="DejaVuSans-2c" d="M 750 794 
L 1409 794 
L 1409 256 
L 897 -744 
L 494 -744 
L 750 256 
L 750 794 
z
" transform="scale(0.015625)"/>
      <path id="DejaVuSans-29" d="M 513 4856 
L 1013 4856 
Q 1481 4119 1714 3412 
Q 1947 2706 1947 2009 
Q 1947 1309 1714 600 
Q 1481 -109 1013 -844 
L 513 -844 
Q 928 -128 1133 580 
Q 1338 1288 1338 2009 
Q 1338 2731 1133 3434 
Q 928 4138 513 4856 
z
" transform="scale(0.015625)"/>
     </defs>
     <use xlink:href="#DejaVuSans-28"/>
     <use xlink:href="#DejaVuSans-30" transform="translate(39.013672 0)"/>
     <use xlink:href="#DejaVuSans-2c" transform="translate(102.636719 0)"/>
     <use xlink:href="#DejaVuSans-30" transform="translate(134.423828 0)"/>
     <use xlink:href="#DejaVuSans-29" transform="translate(198.046875 0)"/>
    </g>
   </g>
   <g id="text_5">
    <!-- $t$ -->
    <g transform="translate(242.751181 261.635274) scale(0.16 -0.16)">
     <defs>
      <path id="DejaVuSans-Oblique-74" d="M 2706 3500 
L 2619 3053 
L 1472 3053 
L 1100 1153 
Q 1081 1047 1072 975 
Q 1063 903 1063 863 
Q 1063 663 1183 572 
Q 1303 481 1569 481 
L 2150 481 
L 2053 0 
L 1503 0 
Q 991 0 739 200 
Q 488 400 488 806 
Q 488 878 497 964 
Q 506 1050 525 1153 
L 897 3053 
L 409 3053 
L 500 3500 
L 978 3500 
L 1172 4494 
L 1747 4494 
L 1556 3500 
L 2706 3500 
z
" transform="scale(0.015625)"/>
     </defs>
     <use xlink:href="#DejaVuSans-Oblique-74" transform="translate(0 0.78125)"/>
    </g>
   </g>
   <g id="text_6">
    <!--  -->
    <g transform="translate(275.860465 297.951993) scale(0.14 -0.14)"/>
    <!--     Lasso penalty: $|\beta_0|+|\beta_1| \leq t$ -->
    <g transform="translate(275.860465 313.799555) scale(0.14 -0.14)">
     <defs>
      <path id="DejaVuSans-4c" d="M 628 4666 
L 1259 4666 
L 1259 531 
L 3531 531 
L 3531 0 
L 628 0 
L 628 4666 
z
" transform="scale(0.015625)"/>
      <path id="DejaVuSans-61" d="M 2194 1759 
Q 1497 1759 1228 1600 
Q 959 1441 959 1056 
Q 959 750 1161 570 
Q 1363 391 1709 391 
Q 2188 391 2477 730 
Q 2766 1069 2766 1631 
L 2766 1759 
L 2194 1759 
z
M 3341 1997 
L 3341 0 
L 2766 0 
L 2766 531 
Q 2569 213 2275 61 
Q 1981 -91 1556 -91 
Q 1019 -91 701 211 
Q 384 513 384 1019 
Q 384 1609 779 1909 
Q 1175 2209 1959 2209 
L 2766 2209 
L 2766 2266 
Q 2766 2663 2505 2880 
Q 2244 3097 1772 3097 
Q 1472 3097 1187 3025 
Q 903 2953 641 2809 
L 641 3341 
Q 956 3463 1253 3523 
Q 1550 3584 1831 3584 
Q 2591 3584 2966 3190 
Q 3341 2797 3341 1997 
z
" transform="scale(0.015625)"/>
      <path id="DejaVuSans-73" d="M 2834 3397 
L 2834 2853 
Q 2591 2978 2328 3040 
Q 2066 3103 1784 3103 
Q 1356 3103 1142 2972 
Q 928 2841 928 2578 
Q 928 2378 1081 2264 
Q 1234 2150 1697 2047 
L 1894 2003 
Q 2506 1872 2764 1633 
Q 3022 1394 3022 966 
Q 3022 478 2636 193 
Q 2250 -91 1575 -91 
Q 1294 -91 989 -36 
Q 684 19 347 128 
L 347 722 
Q 666 556 975 473 
Q 1284 391 1588 391 
Q 1994 391 2212 530 
Q 2431 669 2431 922 
Q 2431 1156 2273 1281 
Q 2116 1406 1581 1522 
L 1381 1569 
Q 847 1681 609 1914 
Q 372 2147 372 2553 
Q 372 3047 722 3315 
Q 1072 3584 1716 3584 
Q 2034 3584 2315 3537 
Q 2597 3491 2834 3397 
z
" transform="scale(0.015625)"/>
      <path id="DejaVuSans-70" d="M 1159 525 
L 1159 -1331 
L 581 -1331 
L 581 3500 
L 1159 3500 
L 1159 2969 
Q 1341 3281 1617 3432 
Q 1894 3584 2278 3584 
Q 2916 3584 3314 3078 
Q 3713 2572 3713 1747 
Q 3713 922 3314 415 
Q 2916 -91 2278 -91 
Q 1894 -91 1617 61 
Q 1341 213 1159 525 
z
M 3116 1747 
Q 3116 2381 2855 2742 
Q 2594 3103 2138 3103 
Q 1681 3103 1420 2742 
Q 1159 2381 1159 1747 
Q 1159 1113 1420 752 
Q 1681 391 2138 391 
Q 2594 391 2855 752 
Q 3116 1113 3116 1747 
z
" transform="scale(0.015625)"/>
      <path id="DejaVuSans-65" d="M 3597 1894 
L 3597 1613 
L 953 1613 
Q 991 1019 1311 708 
Q 1631 397 2203 397 
Q 2534 397 2845 478 
Q 3156 559 3463 722 
L 3463 178 
Q 3153 47 2828 -22 
Q 2503 -91 2169 -91 
Q 1331 -91 842 396 
Q 353 884 353 1716 
Q 353 2575 817 3079 
Q 1281 3584 2069 3584 
Q 2775 3584 3186 3129 
Q 3597 2675 3597 1894 
z
M 3022 2063 
Q 3016 2534 2758 2815 
Q 2500 3097 2075 3097 
Q 1594 3097 1305 2825 
Q 1016 2553 972 2059 
L 3022 2063 
z
" transform="scale(0.015625)"/>
      <path id="DejaVuSans-6c" d="M 603 4863 
L 1178 4863 
L 1178 0 
L 603 0 
L 603 4863 
z
" transform="scale(0.015625)"/>
      <path id="DejaVuSans-74" d="M 1172 4494 
L 1172 3500 
L 2356 3500 
L 2356 3053 
L 1172 3053 
L 1172 1153 
Q 1172 725 1289 603 
Q 1406 481 1766 481 
L 2356 481 
L 2356 0 
L 1766 0 
Q 1100 0 847 248 
Q 594 497 594 1153 
L 594 3053 
L 172 3053 
L 172 3500 
L 594 3500 
L 594 4494 
L 1172 4494 
z
" transform="scale(0.015625)"/>
      <path id="DejaVuSans-79" d="M 2059 -325 
Q 1816 -950 1584 -1140 
Q 1353 -1331 966 -1331 
L 506 -1331 
L 506 -850 
L 844 -850 
Q 1081 -850 1212 -737 
Q 1344 -625 1503 -206 
L 1606 56 
L 191 3500 
L 800 3500 
L 1894 763 
L 2988 3500 
L 3597 3500 
L 2059 -325 
z
" transform="scale(0.015625)"/>
      <path id="DejaVuSans-7c" d="M 1344 4891 
L 1344 -1509 
L 813 -1509 
L 813 4891 
L 1344 4891 
z
" transform="scale(0.015625)"/>
      <path id="DejaVuSans-2b" d="M 2944 4013 
L 2944 2272 
L 4684 2272 
L 4684 1741 
L 2944 1741 
L 2944 0 
L 2419 0 
L 2419 1741 
L 678 1741 
L 678 2272 
L 2419 2272 
L 2419 4013 
L 2944 4013 
z
" transform="scale(0.015625)"/>
      <path id="DejaVuSans-2264" d="M 4684 3175 
L 1684 2309 
L 4684 1453 
L 4684 897 
L 678 2047 
L 678 2578 
L 4684 3725 
L 4684 3175 
z
M 678 531 
L 4684 531 
L 4684 0 
L 678 0 
L 678 531 
z
" transform="scale(0.015625)"/>
     </defs>
     <use xlink:href="#DejaVuSans-20" transform="translate(0 0.390625)"/>
     <use xlink:href="#DejaVuSans-20" transform="translate(31.787109 0.390625)"/>
     <use xlink:href="#DejaVuSans-20" transform="translate(63.574219 0.390625)"/>
     <use xlink:href="#DejaVuSans-20" transform="translate(95.361328 0.390625)"/>
     <use xlink:href="#DejaVuSans-4c" transform="translate(127.148438 0.390625)"/>
     <use xlink:href="#DejaVuSans-61" transform="translate(182.861328 0.390625)"/>
     <use xlink:href="#DejaVuSans-73" transform="translate(244.140625 0.390625)"/>
     <use xlink:href="#DejaVuSans-73" transform="translate(296.240234 0.390625)"/>
     <use xlink:href="#DejaVuSans-6f" transform="translate(348.339844 0.390625)"/>
     <use xlink:href="#DejaVuSans-20" transform="translate(409.521484 0.390625)"/>
     <use xlink:href="#DejaVuSans-70" transform="translate(441.308594 0.390625)"/>
     <use xlink:href="#DejaVuSans-65" transform="translate(504.785156 0.390625)"/>
     <use xlink:href="#DejaVuSans-6e" transform="translate(566.308594 0.390625)"/>
     <use xlink:href="#DejaVuSans-61" transform="translate(629.6875 0.390625)"/>
     <use xlink:href="#DejaVuSans-6c" transform="translate(690.966797 0.390625)"/>
     <use xlink:href="#DejaVuSans-74" transform="translate(718.75 0.390625)"/>
     <use xlink:href="#DejaVuSans-79" transform="translate(757.958984 0.390625)"/>
     <use xlink:href="#DejaVuSans-3a" transform="translate(817.138672 0.390625)"/>
     <use xlink:href="#DejaVuSans-20" transform="translate(850.830078 0.390625)"/>
     <use xlink:href="#DejaVuSans-7c" transform="translate(882.617188 0.390625)"/>
     <use xlink:href="#DejaVuSans-Oblique-3b2" transform="translate(916.308594 0.390625)"/>
     <use xlink:href="#DejaVuSans-30" transform="translate(980.126953 -16.015625) scale(0.7)"/>
     <use xlink:href="#DejaVuSans-7c" transform="translate(1027.397461 0.390625)"/>
     <use xlink:href="#DejaVuSans-2b" transform="translate(1080.571289 0.390625)"/>
     <use xlink:href="#DejaVuSans-7c" transform="translate(1183.842773 0.390625)"/>
     <use xlink:href="#DejaVuSans-Oblique-3b2" transform="translate(1217.53418 0.390625)"/>
     <use xlink:href="#DejaVuSans-31" transform="translate(1281.352539 -16.015625) scale(0.7)"/>
     <use xlink:href="#DejaVuSans-7c" transform="translate(1328.623047 0.390625)"/>
     <use xlink:href="#DejaVuSans-2264" transform="translate(1381.796875 0.390625)"/>
     <use xlink:href="#DejaVuSans-Oblique-74" transform="translate(1485.068359 0.390625)"/>
    </g>
    <!--     Yields: $\beta_0 = 0 \quad \beta_1 = 1$ -->
    <g transform="translate(275.860465 330.095555) scale(0.14 -0.14)">
     <defs>
      <path id="DejaVuSans-59" d="M -13 4666 
L 666 4666 
L 1959 2747 
L 3244 4666 
L 3922 4666 
L 2272 2222 
L 2272 0 
L 1638 0 
L 1638 2222 
L -13 4666 
z
" transform="scale(0.015625)"/>
      <path id="DejaVuSans-64" d="M 2906 2969 
L 2906 4863 
L 3481 4863 
L 3481 0 
L 2906 0 
L 2906 525 
Q 2725 213 2448 61 
Q 2172 -91 1784 -91 
Q 1150 -91 751 415 
Q 353 922 353 1747 
Q 353 2572 751 3078 
Q 1150 3584 1784 3584 
Q 2172 3584 2448 3432 
Q 2725 3281 2906 2969 
z
M 947 1747 
Q 947 1113 1208 752 
Q 1469 391 1925 391 
Q 2381 391 2643 752 
Q 2906 1113 2906 1747 
Q 2906 2381 2643 2742 
Q 2381 3103 1925 3103 
Q 1469 3103 1208 2742 
Q 947 2381 947 1747 
z
" transform="scale(0.015625)"/>
      <path id="DejaVuSans-3d" d="M 678 2906 
L 4684 2906 
L 4684 2381 
L 678 2381 
L 678 2906 
z
M 678 1631 
L 4684 1631 
L 4684 1100 
L 678 1100 
L 678 1631 
z
" transform="scale(0.015625)"/>
     </defs>
     <use xlink:href="#DejaVuSans-20" transform="translate(0 0.390625)"/>
     <use xlink:href="#DejaVuSans-20" transform="translate(31.787109 0.390625)"/>
     <use xlink:href="#DejaVuSans-20" transform="translate(63.574219 0.390625)"/>
     <use xlink:href="#DejaVuSans-20" transform="translate(95.361328 0.390625)"/>
     <use xlink:href="#DejaVuSans-59" transform="translate(127.148438 0.390625)"/>
     <use xlink:href="#DejaVuSans-69" transform="translate(188.232422 0.390625)"/>
     <use xlink:href="#DejaVuSans-65" transform="translate(216.015625 0.390625)"/>
     <use xlink:href="#DejaVuSans-6c" transform="translate(277.539062 0.390625)"/>
     <use xlink:href="#DejaVuSans-64" transform="translate(305.322266 0.390625)"/>
     <use xlink:href="#DejaVuSans-73" transform="translate(368.798828 0.390625)"/>
     <use xlink:href="#DejaVuSans-3a" transform="translate(420.898438 0.390625)"/>
     <use xlink:href="#DejaVuSans-20" transform="translate(454.589844 0.390625)"/>
     <use xlink:href="#DejaVuSans-Oblique-3b2" transform="translate(486.376953 0.390625)"/>
     <use xlink:href="#DejaVuSans-30" transform="translate(550.195312 -16.015625) scale(0.7)"/>
     <use xlink:href="#DejaVuSans-3d" transform="translate(616.948242 0.390625)"/>
     <use xlink:href="#DejaVuSans-30" transform="translate(720.219727 0.390625)"/>
     <use xlink:href="#DejaVuSans-Oblique-3b2" transform="translate(881.254883 0.390625)"/>
     <use xlink:href="#DejaVuSans-31" transform="translate(945.073242 -16.015625) scale(0.7)"/>
     <use xlink:href="#DejaVuSans-3d" transform="translate(1011.826172 0.390625)"/>
     <use xlink:href="#DejaVuSans-31" transform="translate(1115.097656 0.390625)"/>
    </g>
    <!--      -->
    <g transform="translate(275.860465 345.80093) scale(0.14 -0.14)">
     <use xlink:href="#DejaVuSans-20"/>
     <use xlink:href="#DejaVuSans-20" transform="translate(31.787109 0)"/>
     <use xlink:href="#DejaVuSans-20" transform="translate(63.574219 0)"/>
     <use xlink:href="#DejaVuSans-20" transform="translate(95.361328 0)"/>
    </g>
   </g>
  </g>
 </g>
 <defs>
  <clipPath id="p21703bc164">
   <rect x="121.144186" y="51.84" width="348.111628" height="332.64"/>
  </clipPath>
 </defs>
</svg>
