<?xml version="1.0" encoding="utf-8" standalone="no"?>
<!DOCTYPE svg PUBLIC "-//W3C//DTD SVG 1.1//EN"
  "http://www.w3.org/Graphics/SVG/1.1/DTD/svg11.dtd">
<svg xmlns:xlink="http://www.w3.org/1999/xlink" width="230.4pt" height="172.8pt" viewBox="0 0 230.4 172.8" xmlns="http://www.w3.org/2000/svg" version="1.1">
 <metadata>
  <rdf:RDF xmlns:dc="http://purl.org/dc/elements/1.1/" xmlns:cc="http://creativecommons.org/ns#" xmlns:rdf="http://www.w3.org/1999/02/22-rdf-syntax-ns#">
   <cc:Work>
    <dc:type rdf:resource="http://purl.org/dc/dcmitype/StillImage"/>
    <dc:date>2026-01-23T09:46:15.314702</dc:date>
    <dc:format>image/svg+xml</dc:format>
    <dc:creator>
     <cc:Agent>
      <dc:title>Matplotlib v3.10.8, https://matplotlib.org/</dc:title>
     </cc:Agent>
    </dc:creator>
   </cc:Work>
  </rdf:RDF>
 </metadata>
 <defs>
  <style type="text/css">*{stroke-linejoin: round; stroke-linecap: butt}</style>
 </defs>
 <g id="figure_1">
  <g id="patch_1">
   <path d="M 0 172.8 
L 230.4 172.8 
L 230.4 0 
L 0 0 
L 0 172.8 
z
" style="fill: none"/>
  </g>
  <g id="axes_1">
   <g id="patch_2">
    <path d="M 23.04 155.52 
L 230.4 155.52 
L 230.4 0 
L 23.04 0 
L 23.04 155.52 
z
" style="fill: none"/>
   </g>
   <g id="PathCollection_1">
    <defs>
     <path id="m3888a18186" d="M 0 1.5 
C 0.397805 1.5 0.77937 1.341951 1.06066 1.06066 
C 1.341951 0.77937 1.5 0.397805 1.5 0 
C 1.5 -0.397805 1.341951 -0.77937 1.06066 -1.06066 
C 0.77937 -1.341951 0.397805 -1.5 0 -1.5 
C -0.397805 -1.5 -0.77937 -1.341951 -1.06066 -1.06066 
C -1.341951 -0.77937 -1.5 -0.397805 -1.5 0 
C -1.5 0.397805 -1.341951 0.77937 -1.06066 1.06066 
C -0.77937 1.341951 -0.397805 1.5 0 1.5 
z
" style="stroke: #000000"/>
    </defs>
    <g clip-path="url(#p8979b2d205)">
     <use xlink:href="#m3888a18186" x="41.066485" y="142.776722" style="stroke: #000000"/>
     <use xlink:href="#m3888a18186" x="43.098259" y="131.901198" style="stroke: #000000"/>
     <use xlink:href="#m3888a18186" x="45.130032" y="133.319745" style="stroke: #000000"/>
     <use xlink:href="#m3888a18186" x="47.161806" y="123.626342" style="stroke: #000000"/>
     <use xlink:href="#m3888a18186" x="48.177693" y="148.450909" style="stroke: #000000"/>
     <use xlink:href="#m3888a18186" x="50.209467" y="119.134278" style="stroke: #000000"/>
     <use xlink:href="#m3888a18186" x="53.257127" y="46.788398" style="stroke: #000000"/>
     <use xlink:href="#m3888a18186" x="55.288901" y="147.505211" style="stroke: #000000"/>
     <use xlink:href="#m3888a18186" x="60.368335" y="124.808465" style="stroke: #000000"/>
     <use xlink:href="#m3888a18186" x="63.415996" y="100.693171" style="stroke: #000000"/>
     <use xlink:href="#m3888a18186" x="64.431883" y="106.367358" style="stroke: #000000"/>
     <use xlink:href="#m3888a18186" x="66.463657" y="132.374047" style="stroke: #000000"/>
     <use xlink:href="#m3888a18186" x="68.49543" y="104.475962" style="stroke: #000000"/>
     <use xlink:href="#m3888a18186" x="70.527204" y="135.21114" style="stroke: #000000"/>
     <use xlink:href="#m3888a18186" x="72.558978" y="105.42166" style="stroke: #000000"/>
     <use xlink:href="#m3888a18186" x="74.590752" y="109.6773" style="stroke: #000000"/>
     <use xlink:href="#m3888a18186" x="77.638412" y="140.885327" style="stroke: #000000"/>
     <use xlink:href="#m3888a18186" x="78.654299" y="120.710441" style="stroke: #000000"/>
     <use xlink:href="#m3888a18186" x="80.686073" y="81.306367" style="stroke: #000000"/>
     <use xlink:href="#m3888a18186" x="83.733733" y="83.197762" style="stroke: #000000"/>
     <use xlink:href="#m3888a18186" x="86.781394" y="142.303874" style="stroke: #000000"/>
     <use xlink:href="#m3888a18186" x="87.797281" y="74.213633" style="stroke: #000000"/>
     <use xlink:href="#m3888a18186" x="90.844941" y="90.054071" style="stroke: #000000"/>
     <use xlink:href="#m3888a18186" x="95.924376" y="90.290496" style="stroke: #000000"/>
     <use xlink:href="#m3888a18186" x="96.940263" y="68.539447" style="stroke: #000000"/>
     <use xlink:href="#m3888a18186" x="97.95615" y="137.102536" style="stroke: #000000"/>
     <use xlink:href="#m3888a18186" x="102.019697" y="102.584567" style="stroke: #000000"/>
     <use xlink:href="#m3888a18186" x="104.051471" y="103.766689" style="stroke: #000000"/>
     <use xlink:href="#m3888a18186" x="112.178566" y="108.258753" style="stroke: #000000"/>
     <use xlink:href="#m3888a18186" x="114.21034" y="34.967175" style="stroke: #000000"/>
     <use xlink:href="#m3888a18186" x="117.258" y="94.78256" style="stroke: #000000"/>
     <use xlink:href="#m3888a18186" x="121.321548" y="99.511049" style="stroke: #000000"/>
     <use xlink:href="#m3888a18186" x="123.353321" y="49.389067" style="stroke: #000000"/>
     <use xlink:href="#m3888a18186" x="129.448643" y="40.641362" style="stroke: #000000"/>
     <use xlink:href="#m3888a18186" x="131.480416" y="94.073287" style="stroke: #000000"/>
     <use xlink:href="#m3888a18186" x="133.51219" y="59.555318" style="stroke: #000000"/>
     <use xlink:href="#m3888a18186" x="134.528077" y="23.145953" style="stroke: #000000"/>
     <use xlink:href="#m3888a18186" x="136.559851" y="84.616309" style="stroke: #000000"/>
     <use xlink:href="#m3888a18186" x="138.591624" y="67.593749" style="stroke: #000000"/>
     <use xlink:href="#m3888a18186" x="140.623398" y="126.227011" style="stroke: #000000"/>
     <use xlink:href="#m3888a18186" x="141.639285" y="63.810958" style="stroke: #000000"/>
     <use xlink:href="#m3888a18186" x="144.686946" y="34.494327" style="stroke: #000000"/>
     <use xlink:href="#m3888a18186" x="147.734606" y="101.16602" style="stroke: #000000"/>
     <use xlink:href="#m3888a18186" x="148.750493" y="73.740784" style="stroke: #000000"/>
     <use xlink:href="#m3888a18186" x="149.76638" y="104.948811" style="stroke: #000000"/>
     <use xlink:href="#m3888a18186" x="150.782267" y="63.338109" style="stroke: #000000"/>
     <use xlink:href="#m3888a18186" x="151.798154" y="83.670611" style="stroke: #000000"/>
     <use xlink:href="#m3888a18186" x="152.814041" y="16.05322" style="stroke: #000000"/>
     <use xlink:href="#m3888a18186" x="158.909362" y="98.801776" style="stroke: #000000"/>
     <use xlink:href="#m3888a18186" x="160.941136" y="37.33142" style="stroke: #000000"/>
     <use xlink:href="#m3888a18186" x="163.988796" y="82.488489" style="stroke: #000000"/>
     <use xlink:href="#m3888a18186" x="166.02057" y="94.546136" style="stroke: #000000"/>
     <use xlink:href="#m3888a18186" x="174.147665" y="29.765838" style="stroke: #000000"/>
     <use xlink:href="#m3888a18186" x="178.211212" y="35.912873" style="stroke: #000000"/>
     <use xlink:href="#m3888a18186" x="195.481289" y="105.42166" style="stroke: #000000"/>
     <use xlink:href="#m3888a18186" x="211.735479" y="43.951304" style="stroke: #000000"/>
     <use xlink:href="#m3888a18186" x="212.751366" y="7.069091" style="stroke: #000000"/>
    </g>
   </g>
   <g id="matplotlib.axis_1">
    <g id="text_1">
     <!-- x -->
     <g transform="translate(121.56 171.6775) scale(0.16 -0.16)">
      <defs>
       <path id="DejaVuSans-Bold-78" d="M 1422 1791 
L 159 3500 
L 1344 3500 
L 2059 2463 
L 2784 3500 
L 3969 3500 
L 2706 1797 
L 4031 0 
L 2847 0 
L 2059 1106 
L 1281 0 
L 97 0 
L 1422 1791 
z
" transform="scale(0.015625)"/>
      </defs>
      <use xlink:href="#DejaVuSans-Bold-78"/>
     </g>
    </g>
   </g>
   <g id="matplotlib.axis_2">
    <g id="text_2">
     <!-- y -->
     <g transform="translate(15.5875 82.975) rotate(-90) scale(0.16 -0.16)">
      <defs>
       <path id="DejaVuSans-Bold-79" d="M 78 3500 
L 1197 3500 
L 2138 1125 
L 2938 3500 
L 4056 3500 
L 2584 -331 
Q 2363 -916 2067 -1148 
Q 1772 -1381 1288 -1381 
L 641 -1381 
L 641 -647 
L 991 -647 
Q 1275 -647 1404 -556 
Q 1534 -466 1606 -231 
L 1638 -134 
L 78 3500 
z
" transform="scale(0.015625)"/>
      </defs>
      <use xlink:href="#DejaVuSans-Bold-79"/>
     </g>
    </g>
   </g>
   <g id="line2d_1">
    <path d="M 32.465455 131.575778 
L 220.974545 31.327554 
" clip-path="url(#p8979b2d205)" style="fill: none; stroke: #1f77b4; stroke-width: 3; stroke-linecap: square"/>
   </g>
   <g id="patch_3">
    <path d="M 23.04 155.52 
L 23.04 -0 
" style="fill: none; stroke: #000000; stroke-width: 0.8; stroke-linejoin: miter; stroke-linecap: square"/>
   </g>
   <g id="patch_4">
    <path d="M 23.04 155.52 
L 230.4 155.52 
" style="fill: none; stroke: #000000; stroke-width: 0.8; stroke-linejoin: miter; stroke-linecap: square"/>
   </g>
   <g id="text_3">
    <g id="patch_5">
     <path d="M 29.448 23.34975 
L 117.691125 23.34975 
L 117.691125 3.816 
L 29.448 3.816 
z
" style="fill: #ffffff; opacity: 0.5; stroke: #000000; stroke-linejoin: miter"/>
    </g>
    <!-- Train R²: 0.34 -->
    <g transform="translate(33.408 16.894125) scale(0.12 -0.12)">
     <defs>
      <path id="DejaVuSans-54" d="M -19 4666 
L 3928 4666 
L 3928 4134 
L 2272 4134 
L 2272 0 
L 1638 0 
L 1638 4134 
L -19 4134 
L -19 4666 
z
" transform="scale(0.015625)"/>
      <path id="DejaVuSans-72" d="M 2631 2963 
Q 2534 3019 2420 3045 
Q 2306 3072 2169 3072 
Q 1681 3072 1420 2755 
Q 1159 2438 1159 1844 
L 1159 0 
L 581 0 
L 581 3500 
L 1159 3500 
L 1159 2956 
Q 1341 3275 1631 3429 
Q 1922 3584 2338 3584 
Q 2397 3584 2469 3576 
Q 2541 3569 2628 3553 
L 2631 2963 
z
" transform="scale(0.015625)"/>
      <path id="DejaVuSans-61" d="M 2194 1759 
Q 1497 1759 1228 1600 
Q 959 1441 959 1056 
Q 959 750 1161 570 
Q 1363 391 1709 391 
Q 2188 391 2477 730 
Q 2766 1069 2766 1631 
L 2766 1759 
L 2194 1759 
z
M 3341 1997 
L 3341 0 
L 2766 0 
L 2766 531 
Q 2569 213 2275 61 
Q 1981 -91 1556 -91 
Q 1019 -91 701 211 
Q 384 513 384 1019 
Q 384 1609 779 1909 
Q 1175 2209 1959 2209 
L 2766 2209 
L 2766 2266 
Q 2766 2663 2505 2880 
Q 2244 3097 1772 3097 
Q 1472 3097 1187 3025 
Q 903 2953 641 2809 
L 641 3341 
Q 956 3463 1253 3523 
Q 1550 3584 1831 3584 
Q 2591 3584 2966 3190 
Q 3341 2797 3341 1997 
z
" transform="scale(0.015625)"/>
      <path id="DejaVuSans-69" d="M 603 3500 
L 1178 3500 
L 1178 0 
L 603 0 
L 603 3500 
z
M 603 4863 
L 1178 4863 
L 1178 4134 
L 603 4134 
L 603 4863 
z
" transform="scale(0.015625)"/>
      <path id="DejaVuSans-6e" d="M 3513 2113 
L 3513 0 
L 2938 0 
L 2938 2094 
Q 2938 2591 2744 2837 
Q 2550 3084 2163 3084 
Q 1697 3084 1428 2787 
Q 1159 2491 1159 1978 
L 1159 0 
L 581 0 
L 581 3500 
L 1159 3500 
L 1159 2956 
Q 1366 3272 1645 3428 
Q 1925 3584 2291 3584 
Q 2894 3584 3203 3211 
Q 3513 2838 3513 2113 
z
" transform="scale(0.015625)"/>
      <path id="DejaVuSans-20" transform="scale(0.015625)"/>
      <path id="DejaVuSans-52" d="M 2841 2188 
Q 3044 2119 3236 1894 
Q 3428 1669 3622 1275 
L 4263 0 
L 3584 0 
L 2988 1197 
Q 2756 1666 2539 1819 
Q 2322 1972 1947 1972 
L 1259 1972 
L 1259 0 
L 628 0 
L 628 4666 
L 2053 4666 
Q 2853 4666 3247 4331 
Q 3641 3997 3641 3322 
Q 3641 2881 3436 2590 
Q 3231 2300 2841 2188 
z
M 1259 4147 
L 1259 2491 
L 2053 2491 
Q 2509 2491 2742 2702 
Q 2975 2913 2975 3322 
Q 2975 3731 2742 3939 
Q 2509 4147 2053 4147 
L 1259 4147 
z
" transform="scale(0.015625)"/>
      <path id="DejaVuSans-b2" d="M 838 2444 
L 2163 2444 
L 2163 2088 
L 294 2088 
L 294 2431 
Q 400 2528 597 2703 
Q 1672 3656 1672 3950 
Q 1672 4156 1509 4282 
Q 1347 4409 1081 4409 
Q 919 4409 728 4354 
Q 538 4300 313 4191 
L 313 4575 
Q 553 4663 761 4706 
Q 969 4750 1147 4750 
Q 1600 4750 1872 4544 
Q 2144 4338 2144 4000 
Q 2144 3566 1109 2678 
Q 934 2528 838 2444 
z
" transform="scale(0.015625)"/>
      <path id="DejaVuSans-3a" d="M 750 794 
L 1409 794 
L 1409 0 
L 750 0 
L 750 794 
z
M 750 3309 
L 1409 3309 
L 1409 2516 
L 750 2516 
L 750 3309 
z
" transform="scale(0.015625)"/>
      <path id="DejaVuSans-30" d="M 2034 4250 
Q 1547 4250 1301 3770 
Q 1056 3291 1056 2328 
Q 1056 1369 1301 889 
Q 1547 409 2034 409 
Q 2525 409 2770 889 
Q 3016 1369 3016 2328 
Q 3016 3291 2770 3770 
Q 2525 4250 2034 4250 
z
M 2034 4750 
Q 2819 4750 3233 4129 
Q 3647 3509 3647 2328 
Q 3647 1150 3233 529 
Q 2819 -91 2034 -91 
Q 1250 -91 836 529 
Q 422 1150 422 2328 
Q 422 3509 836 4129 
Q 1250 4750 2034 4750 
z
" transform="scale(0.015625)"/>
      <path id="DejaVuSans-2e" d="M 684 794 
L 1344 794 
L 1344 0 
L 684 0 
L 684 794 
z
" transform="scale(0.015625)"/>
      <path id="DejaVuSans-33" d="M 2597 2516 
Q 3050 2419 3304 2112 
Q 3559 1806 3559 1356 
Q 3559 666 3084 287 
Q 2609 -91 1734 -91 
Q 1441 -91 1130 -33 
Q 819 25 488 141 
L 488 750 
Q 750 597 1062 519 
Q 1375 441 1716 441 
Q 2309 441 2620 675 
Q 2931 909 2931 1356 
Q 2931 1769 2642 2001 
Q 2353 2234 1838 2234 
L 1294 2234 
L 1294 2753 
L 1863 2753 
Q 2328 2753 2575 2939 
Q 2822 3125 2822 3475 
Q 2822 3834 2567 4026 
Q 2313 4219 1838 4219 
Q 1578 4219 1281 4162 
Q 984 4106 628 3988 
L 628 4550 
Q 988 4650 1302 4700 
Q 1616 4750 1894 4750 
Q 2613 4750 3031 4423 
Q 3450 4097 3450 3541 
Q 3450 3153 3228 2886 
Q 3006 2619 2597 2516 
z
" transform="scale(0.015625)"/>
      <path id="DejaVuSans-34" d="M 2419 4116 
L 825 1625 
L 2419 1625 
L 2419 4116 
z
M 2253 4666 
L 3047 4666 
L 3047 1625 
L 3713 1625 
L 3713 1100 
L 3047 1100 
L 3047 0 
L 2419 0 
L 2419 1100 
L 313 1100 
L 313 1709 
L 2253 4666 
z
" transform="scale(0.015625)"/>
     </defs>
     <use xlink:href="#DejaVuSans-54"/>
     <use xlink:href="#DejaVuSans-72" transform="translate(46.333984 0)"/>
     <use xlink:href="#DejaVuSans-61" transform="translate(87.447266 0)"/>
     <use xlink:href="#DejaVuSans-69" transform="translate(148.726562 0)"/>
     <use xlink:href="#DejaVuSans-6e" transform="translate(176.509766 0)"/>
     <use xlink:href="#DejaVuSans-20" transform="translate(239.888672 0)"/>
     <use xlink:href="#DejaVuSans-52" transform="translate(271.675781 0)"/>
     <use xlink:href="#DejaVuSans-b2" transform="translate(341.158203 0)"/>
     <use xlink:href="#DejaVuSans-3a" transform="translate(381.246094 0)"/>
     <use xlink:href="#DejaVuSans-20" transform="translate(414.9375 0)"/>
     <use xlink:href="#DejaVuSans-30" transform="translate(446.724609 0)"/>
     <use xlink:href="#DejaVuSans-2e" transform="translate(510.347656 0)"/>
     <use xlink:href="#DejaVuSans-33" transform="translate(542.134766 0)"/>
     <use xlink:href="#DejaVuSans-34" transform="translate(605.757812 0)"/>
    </g>
   </g>
  </g>
 </g>
 <defs>
  <clipPath id="p8979b2d205">
   <rect x="23.04" y="0" width="207.36" height="155.52"/>
  </clipPath>
 </defs>
</svg>
