<?xml version="1.0" encoding="utf-8" standalone="no"?>
<!DOCTYPE svg PUBLIC "-//W3C//DTD SVG 1.1//EN"
  "http://www.w3.org/Graphics/SVG/1.1/DTD/svg11.dtd">
<svg xmlns:xlink="http://www.w3.org/1999/xlink" width="645.051989pt" height="317.95625pt" viewBox="0 0 645.051989 317.95625" xmlns="http://www.w3.org/2000/svg" version="1.1">
 <metadata>
  <rdf:RDF xmlns:dc="http://purl.org/dc/elements/1.1/" xmlns:cc="http://creativecommons.org/ns#" xmlns:rdf="http://www.w3.org/1999/02/22-rdf-syntax-ns#">
   <cc:Work>
    <dc:type rdf:resource="http://purl.org/dc/dcmitype/StillImage"/>
    <dc:date>2025-01-04T18:01:21.119162</dc:date>
    <dc:format>image/svg+xml</dc:format>
    <dc:creator>
     <cc:Agent>
      <dc:title>Matplotlib v3.10.0, https://matplotlib.org/</dc:title>
     </cc:Agent>
    </dc:creator>
   </cc:Work>
  </rdf:RDF>
 </metadata>
 <defs>
  <style type="text/css">*{stroke-linejoin: round; stroke-linecap: butt}</style>
 </defs>
 <g id="figure_1">
  <g id="patch_1">
   <path d="M 0 317.95625 
L 645.051989 317.95625 
L 645.051989 0 
L 0 0 
z
" style="fill: #ffffff"/>
  </g>
  <g id="axes_1">
   <g id="patch_2">
    <path d="M 79.765625 284.4 
L 637.765625 284.4 
L 637.765625 7.2 
L 79.765625 7.2 
L 79.765625 284.4 
z
" style="fill: none"/>
   </g>
   <g id="matplotlib.axis_1">
    <g id="xtick_1">
     <g id="line2d_1">
      <path d="M 105.129261 284.4 
L 105.129261 7.2 
" clip-path="url(#p5689fa1794)" style="fill: none; stroke: #b0b0b0; stroke-opacity: 0.3; stroke-width: 0.8; stroke-linecap: square"/>
     </g>
     <g id="line2d_2">
      <defs>
       <path id="mb74d3086f6" d="M 0 0 
L 0 3.5 
" style="stroke: #000000; stroke-width: 0.8"/>
      </defs>
      <g>
       <use xlink:href="#mb74d3086f6" x="105.129261" y="284.4" style="stroke: #000000; stroke-width: 0.8"/>
      </g>
     </g>
     <g id="text_1">
      <!-- 1970 -->
      <g transform="translate(79.679261 306.596875) scale(0.2 -0.2)">
       <defs>
        <path id="DejaVuSans-31" d="M 794 531 
L 1825 531 
L 1825 4091 
L 703 3866 
L 703 4441 
L 1819 4666 
L 2450 4666 
L 2450 531 
L 3481 531 
L 3481 0 
L 794 0 
L 794 531 
z
" transform="scale(0.015625)"/>
        <path id="DejaVuSans-39" d="M 703 97 
L 703 672 
Q 941 559 1184 500 
Q 1428 441 1663 441 
Q 2288 441 2617 861 
Q 2947 1281 2994 2138 
Q 2813 1869 2534 1725 
Q 2256 1581 1919 1581 
Q 1219 1581 811 2004 
Q 403 2428 403 3163 
Q 403 3881 828 4315 
Q 1253 4750 1959 4750 
Q 2769 4750 3195 4129 
Q 3622 3509 3622 2328 
Q 3622 1225 3098 567 
Q 2575 -91 1691 -91 
Q 1453 -91 1209 -44 
Q 966 3 703 97 
z
M 1959 2075 
Q 2384 2075 2632 2365 
Q 2881 2656 2881 3163 
Q 2881 3666 2632 3958 
Q 2384 4250 1959 4250 
Q 1534 4250 1286 3958 
Q 1038 3666 1038 3163 
Q 1038 2656 1286 2365 
Q 1534 2075 1959 2075 
z
" transform="scale(0.015625)"/>
        <path id="DejaVuSans-37" d="M 525 4666 
L 3525 4666 
L 3525 4397 
L 1831 0 
L 1172 0 
L 2766 4134 
L 525 4134 
L 525 4666 
z
" transform="scale(0.015625)"/>
        <path id="DejaVuSans-30" d="M 2034 4250 
Q 1547 4250 1301 3770 
Q 1056 3291 1056 2328 
Q 1056 1369 1301 889 
Q 1547 409 2034 409 
Q 2525 409 2770 889 
Q 3016 1369 3016 2328 
Q 3016 3291 2770 3770 
Q 2525 4250 2034 4250 
z
M 2034 4750 
Q 2819 4750 3233 4129 
Q 3647 3509 3647 2328 
Q 3647 1150 3233 529 
Q 2819 -91 2034 -91 
Q 1250 -91 836 529 
Q 422 1150 422 2328 
Q 422 3509 836 4129 
Q 1250 4750 2034 4750 
z
" transform="scale(0.015625)"/>
       </defs>
       <use xlink:href="#DejaVuSans-31"/>
       <use xlink:href="#DejaVuSans-39" transform="translate(63.623047 0)"/>
       <use xlink:href="#DejaVuSans-37" transform="translate(127.246094 0)"/>
       <use xlink:href="#DejaVuSans-30" transform="translate(190.869141 0)"/>
      </g>
     </g>
    </g>
    <g id="xtick_2">
     <g id="line2d_3">
      <path d="M 189.674716 284.4 
L 189.674716 7.2 
" clip-path="url(#p5689fa1794)" style="fill: none; stroke: #b0b0b0; stroke-opacity: 0.3; stroke-width: 0.8; stroke-linecap: square"/>
     </g>
     <g id="line2d_4">
      <g>
       <use xlink:href="#mb74d3086f6" x="189.674716" y="284.4" style="stroke: #000000; stroke-width: 0.8"/>
      </g>
     </g>
     <g id="text_2">
      <!-- 1975 -->
      <g transform="translate(164.224716 306.596875) scale(0.2 -0.2)">
       <defs>
        <path id="DejaVuSans-35" d="M 691 4666 
L 3169 4666 
L 3169 4134 
L 1269 4134 
L 1269 2991 
Q 1406 3038 1543 3061 
Q 1681 3084 1819 3084 
Q 2600 3084 3056 2656 
Q 3513 2228 3513 1497 
Q 3513 744 3044 326 
Q 2575 -91 1722 -91 
Q 1428 -91 1123 -41 
Q 819 9 494 109 
L 494 744 
Q 775 591 1075 516 
Q 1375 441 1709 441 
Q 2250 441 2565 725 
Q 2881 1009 2881 1497 
Q 2881 1984 2565 2268 
Q 2250 2553 1709 2553 
Q 1456 2553 1204 2497 
Q 953 2441 691 2322 
L 691 4666 
z
" transform="scale(0.015625)"/>
       </defs>
       <use xlink:href="#DejaVuSans-31"/>
       <use xlink:href="#DejaVuSans-39" transform="translate(63.623047 0)"/>
       <use xlink:href="#DejaVuSans-37" transform="translate(127.246094 0)"/>
       <use xlink:href="#DejaVuSans-35" transform="translate(190.869141 0)"/>
      </g>
     </g>
    </g>
    <g id="xtick_3">
     <g id="line2d_5">
      <path d="M 274.22017 284.4 
L 274.22017 7.2 
" clip-path="url(#p5689fa1794)" style="fill: none; stroke: #b0b0b0; stroke-opacity: 0.3; stroke-width: 0.8; stroke-linecap: square"/>
     </g>
     <g id="line2d_6">
      <g>
       <use xlink:href="#mb74d3086f6" x="274.22017" y="284.4" style="stroke: #000000; stroke-width: 0.8"/>
      </g>
     </g>
     <g id="text_3">
      <!-- 1980 -->
      <g transform="translate(248.77017 306.596875) scale(0.2 -0.2)">
       <defs>
        <path id="DejaVuSans-38" d="M 2034 2216 
Q 1584 2216 1326 1975 
Q 1069 1734 1069 1313 
Q 1069 891 1326 650 
Q 1584 409 2034 409 
Q 2484 409 2743 651 
Q 3003 894 3003 1313 
Q 3003 1734 2745 1975 
Q 2488 2216 2034 2216 
z
M 1403 2484 
Q 997 2584 770 2862 
Q 544 3141 544 3541 
Q 544 4100 942 4425 
Q 1341 4750 2034 4750 
Q 2731 4750 3128 4425 
Q 3525 4100 3525 3541 
Q 3525 3141 3298 2862 
Q 3072 2584 2669 2484 
Q 3125 2378 3379 2068 
Q 3634 1759 3634 1313 
Q 3634 634 3220 271 
Q 2806 -91 2034 -91 
Q 1263 -91 848 271 
Q 434 634 434 1313 
Q 434 1759 690 2068 
Q 947 2378 1403 2484 
z
M 1172 3481 
Q 1172 3119 1398 2916 
Q 1625 2713 2034 2713 
Q 2441 2713 2670 2916 
Q 2900 3119 2900 3481 
Q 2900 3844 2670 4047 
Q 2441 4250 2034 4250 
Q 1625 4250 1398 4047 
Q 1172 3844 1172 3481 
z
" transform="scale(0.015625)"/>
       </defs>
       <use xlink:href="#DejaVuSans-31"/>
       <use xlink:href="#DejaVuSans-39" transform="translate(63.623047 0)"/>
       <use xlink:href="#DejaVuSans-38" transform="translate(127.246094 0)"/>
       <use xlink:href="#DejaVuSans-30" transform="translate(190.869141 0)"/>
      </g>
     </g>
    </g>
    <g id="xtick_4">
     <g id="line2d_7">
      <path d="M 358.765625 284.4 
L 358.765625 7.2 
" clip-path="url(#p5689fa1794)" style="fill: none; stroke: #b0b0b0; stroke-opacity: 0.3; stroke-width: 0.8; stroke-linecap: square"/>
     </g>
     <g id="line2d_8">
      <g>
       <use xlink:href="#mb74d3086f6" x="358.765625" y="284.4" style="stroke: #000000; stroke-width: 0.8"/>
      </g>
     </g>
     <g id="text_4">
      <!-- 1985 -->
      <g transform="translate(333.315625 306.596875) scale(0.2 -0.2)">
       <use xlink:href="#DejaVuSans-31"/>
       <use xlink:href="#DejaVuSans-39" transform="translate(63.623047 0)"/>
       <use xlink:href="#DejaVuSans-38" transform="translate(127.246094 0)"/>
       <use xlink:href="#DejaVuSans-35" transform="translate(190.869141 0)"/>
      </g>
     </g>
    </g>
    <g id="xtick_5">
     <g id="line2d_9">
      <path d="M 443.31108 284.4 
L 443.31108 7.2 
" clip-path="url(#p5689fa1794)" style="fill: none; stroke: #b0b0b0; stroke-opacity: 0.3; stroke-width: 0.8; stroke-linecap: square"/>
     </g>
     <g id="line2d_10">
      <g>
       <use xlink:href="#mb74d3086f6" x="443.31108" y="284.4" style="stroke: #000000; stroke-width: 0.8"/>
      </g>
     </g>
     <g id="text_5">
      <!-- 1990 -->
      <g transform="translate(417.86108 306.596875) scale(0.2 -0.2)">
       <use xlink:href="#DejaVuSans-31"/>
       <use xlink:href="#DejaVuSans-39" transform="translate(63.623047 0)"/>
       <use xlink:href="#DejaVuSans-39" transform="translate(127.246094 0)"/>
       <use xlink:href="#DejaVuSans-30" transform="translate(190.869141 0)"/>
      </g>
     </g>
    </g>
    <g id="xtick_6">
     <g id="line2d_11">
      <path d="M 527.856534 284.4 
L 527.856534 7.2 
" clip-path="url(#p5689fa1794)" style="fill: none; stroke: #b0b0b0; stroke-opacity: 0.3; stroke-width: 0.8; stroke-linecap: square"/>
     </g>
     <g id="line2d_12">
      <g>
       <use xlink:href="#mb74d3086f6" x="527.856534" y="284.4" style="stroke: #000000; stroke-width: 0.8"/>
      </g>
     </g>
     <g id="text_6">
      <!-- 1995 -->
      <g transform="translate(502.406534 306.596875) scale(0.2 -0.2)">
       <use xlink:href="#DejaVuSans-31"/>
       <use xlink:href="#DejaVuSans-39" transform="translate(63.623047 0)"/>
       <use xlink:href="#DejaVuSans-39" transform="translate(127.246094 0)"/>
       <use xlink:href="#DejaVuSans-35" transform="translate(190.869141 0)"/>
      </g>
     </g>
    </g>
    <g id="xtick_7">
     <g id="line2d_13">
      <path d="M 612.401989 284.4 
L 612.401989 7.2 
" clip-path="url(#p5689fa1794)" style="fill: none; stroke: #b0b0b0; stroke-opacity: 0.3; stroke-width: 0.8; stroke-linecap: square"/>
     </g>
     <g id="line2d_14">
      <g>
       <use xlink:href="#mb74d3086f6" x="612.401989" y="284.4" style="stroke: #000000; stroke-width: 0.8"/>
      </g>
     </g>
     <g id="text_7">
      <!-- 2000 -->
      <g transform="translate(586.951989 306.596875) scale(0.2 -0.2)">
       <defs>
        <path id="DejaVuSans-32" d="M 1228 531 
L 3431 531 
L 3431 0 
L 469 0 
L 469 531 
Q 828 903 1448 1529 
Q 2069 2156 2228 2338 
Q 2531 2678 2651 2914 
Q 2772 3150 2772 3378 
Q 2772 3750 2511 3984 
Q 2250 4219 1831 4219 
Q 1534 4219 1204 4116 
Q 875 4013 500 3803 
L 500 4441 
Q 881 4594 1212 4672 
Q 1544 4750 1819 4750 
Q 2544 4750 2975 4387 
Q 3406 4025 3406 3419 
Q 3406 3131 3298 2873 
Q 3191 2616 2906 2266 
Q 2828 2175 2409 1742 
Q 1991 1309 1228 531 
z
" transform="scale(0.015625)"/>
       </defs>
       <use xlink:href="#DejaVuSans-32"/>
       <use xlink:href="#DejaVuSans-30" transform="translate(63.623047 0)"/>
       <use xlink:href="#DejaVuSans-30" transform="translate(127.246094 0)"/>
       <use xlink:href="#DejaVuSans-30" transform="translate(190.869141 0)"/>
      </g>
     </g>
    </g>
   </g>
   <g id="matplotlib.axis_2">
    <g id="ytick_1">
     <g id="line2d_15">
      <path d="M 79.765625 271.8 
L 637.765625 271.8 
" clip-path="url(#p5689fa1794)" style="fill: none; stroke: #b0b0b0; stroke-opacity: 0.3; stroke-width: 0.8; stroke-linecap: square"/>
     </g>
     <g id="line2d_16">
      <defs>
       <path id="m626d93b594" d="M 0 0 
L -3.5 0 
" style="stroke: #000000; stroke-width: 0.8"/>
      </defs>
      <g>
       <use xlink:href="#m626d93b594" x="79.765625" y="271.8" style="stroke: #000000; stroke-width: 0.8"/>
      </g>
     </g>
     <g id="text_8">
      <!-- −50 -->
      <g transform="translate(30.55625 279.398438) scale(0.2 -0.2)">
       <defs>
        <path id="DejaVuSans-2212" d="M 678 2272 
L 4684 2272 
L 4684 1741 
L 678 1741 
L 678 2272 
z
" transform="scale(0.015625)"/>
       </defs>
       <use xlink:href="#DejaVuSans-2212"/>
       <use xlink:href="#DejaVuSans-35" transform="translate(83.789062 0)"/>
       <use xlink:href="#DejaVuSans-30" transform="translate(147.412109 0)"/>
      </g>
     </g>
    </g>
    <g id="ytick_2">
     <g id="line2d_17">
      <path d="M 79.765625 191.256526 
L 637.765625 191.256526 
" clip-path="url(#p5689fa1794)" style="fill: none; stroke: #b0b0b0; stroke-opacity: 0.3; stroke-width: 0.8; stroke-linecap: square"/>
     </g>
     <g id="line2d_18">
      <g>
       <use xlink:href="#m626d93b594" x="79.765625" y="191.256526" style="stroke: #000000; stroke-width: 0.8"/>
      </g>
     </g>
     <g id="text_9">
      <!-- 0 -->
      <g transform="translate(60.040625 198.854964) scale(0.2 -0.2)">
       <use xlink:href="#DejaVuSans-30"/>
      </g>
     </g>
    </g>
    <g id="ytick_3">
     <g id="line2d_19">
      <path d="M 79.765625 110.713052 
L 637.765625 110.713052 
" clip-path="url(#p5689fa1794)" style="fill: none; stroke: #b0b0b0; stroke-opacity: 0.3; stroke-width: 0.8; stroke-linecap: square"/>
     </g>
     <g id="line2d_20">
      <g>
       <use xlink:href="#m626d93b594" x="79.765625" y="110.713052" style="stroke: #000000; stroke-width: 0.8"/>
      </g>
     </g>
     <g id="text_10">
      <!-- 50 -->
      <g transform="translate(47.315625 118.31149) scale(0.2 -0.2)">
       <use xlink:href="#DejaVuSans-35"/>
       <use xlink:href="#DejaVuSans-30" transform="translate(63.623047 0)"/>
      </g>
     </g>
    </g>
    <g id="ytick_4">
     <g id="line2d_21">
      <path d="M 79.765625 30.169579 
L 637.765625 30.169579 
" clip-path="url(#p5689fa1794)" style="fill: none; stroke: #b0b0b0; stroke-opacity: 0.3; stroke-width: 0.8; stroke-linecap: square"/>
     </g>
     <g id="line2d_22">
      <g>
       <use xlink:href="#m626d93b594" x="79.765625" y="30.169579" style="stroke: #000000; stroke-width: 0.8"/>
      </g>
     </g>
     <g id="text_11">
      <!-- 100 -->
      <g transform="translate(34.590625 37.768016) scale(0.2 -0.2)">
       <use xlink:href="#DejaVuSans-31"/>
       <use xlink:href="#DejaVuSans-30" transform="translate(63.623047 0)"/>
       <use xlink:href="#DejaVuSans-30" transform="translate(127.246094 0)"/>
      </g>
     </g>
    </g>
    <g id="text_12">
     <!-- Effect Estimate -->
     <g transform="translate(22.396875 222.078125) rotate(-90) scale(0.2 -0.2)">
      <defs>
       <path id="DejaVuSans-45" d="M 628 4666 
L 3578 4666 
L 3578 4134 
L 1259 4134 
L 1259 2753 
L 3481 2753 
L 3481 2222 
L 1259 2222 
L 1259 531 
L 3634 531 
L 3634 0 
L 628 0 
L 628 4666 
z
" transform="scale(0.015625)"/>
       <path id="DejaVuSans-66" d="M 2375 4863 
L 2375 4384 
L 1825 4384 
Q 1516 4384 1395 4259 
Q 1275 4134 1275 3809 
L 1275 3500 
L 2222 3500 
L 2222 3053 
L 1275 3053 
L 1275 0 
L 697 0 
L 697 3053 
L 147 3053 
L 147 3500 
L 697 3500 
L 697 3744 
Q 697 4328 969 4595 
Q 1241 4863 1831 4863 
L 2375 4863 
z
" transform="scale(0.015625)"/>
       <path id="DejaVuSans-65" d="M 3597 1894 
L 3597 1613 
L 953 1613 
Q 991 1019 1311 708 
Q 1631 397 2203 397 
Q 2534 397 2845 478 
Q 3156 559 3463 722 
L 3463 178 
Q 3153 47 2828 -22 
Q 2503 -91 2169 -91 
Q 1331 -91 842 396 
Q 353 884 353 1716 
Q 353 2575 817 3079 
Q 1281 3584 2069 3584 
Q 2775 3584 3186 3129 
Q 3597 2675 3597 1894 
z
M 3022 2063 
Q 3016 2534 2758 2815 
Q 2500 3097 2075 3097 
Q 1594 3097 1305 2825 
Q 1016 2553 972 2059 
L 3022 2063 
z
" transform="scale(0.015625)"/>
       <path id="DejaVuSans-63" d="M 3122 3366 
L 3122 2828 
Q 2878 2963 2633 3030 
Q 2388 3097 2138 3097 
Q 1578 3097 1268 2742 
Q 959 2388 959 1747 
Q 959 1106 1268 751 
Q 1578 397 2138 397 
Q 2388 397 2633 464 
Q 2878 531 3122 666 
L 3122 134 
Q 2881 22 2623 -34 
Q 2366 -91 2075 -91 
Q 1284 -91 818 406 
Q 353 903 353 1747 
Q 353 2603 823 3093 
Q 1294 3584 2113 3584 
Q 2378 3584 2631 3529 
Q 2884 3475 3122 3366 
z
" transform="scale(0.015625)"/>
       <path id="DejaVuSans-74" d="M 1172 4494 
L 1172 3500 
L 2356 3500 
L 2356 3053 
L 1172 3053 
L 1172 1153 
Q 1172 725 1289 603 
Q 1406 481 1766 481 
L 2356 481 
L 2356 0 
L 1766 0 
Q 1100 0 847 248 
Q 594 497 594 1153 
L 594 3053 
L 172 3053 
L 172 3500 
L 594 3500 
L 594 4494 
L 1172 4494 
z
" transform="scale(0.015625)"/>
       <path id="DejaVuSans-20" transform="scale(0.015625)"/>
       <path id="DejaVuSans-73" d="M 2834 3397 
L 2834 2853 
Q 2591 2978 2328 3040 
Q 2066 3103 1784 3103 
Q 1356 3103 1142 2972 
Q 928 2841 928 2578 
Q 928 2378 1081 2264 
Q 1234 2150 1697 2047 
L 1894 2003 
Q 2506 1872 2764 1633 
Q 3022 1394 3022 966 
Q 3022 478 2636 193 
Q 2250 -91 1575 -91 
Q 1294 -91 989 -36 
Q 684 19 347 128 
L 347 722 
Q 666 556 975 473 
Q 1284 391 1588 391 
Q 1994 391 2212 530 
Q 2431 669 2431 922 
Q 2431 1156 2273 1281 
Q 2116 1406 1581 1522 
L 1381 1569 
Q 847 1681 609 1914 
Q 372 2147 372 2553 
Q 372 3047 722 3315 
Q 1072 3584 1716 3584 
Q 2034 3584 2315 3537 
Q 2597 3491 2834 3397 
z
" transform="scale(0.015625)"/>
       <path id="DejaVuSans-69" d="M 603 3500 
L 1178 3500 
L 1178 0 
L 603 0 
L 603 3500 
z
M 603 4863 
L 1178 4863 
L 1178 4134 
L 603 4134 
L 603 4863 
z
" transform="scale(0.015625)"/>
       <path id="DejaVuSans-6d" d="M 3328 2828 
Q 3544 3216 3844 3400 
Q 4144 3584 4550 3584 
Q 5097 3584 5394 3201 
Q 5691 2819 5691 2113 
L 5691 0 
L 5113 0 
L 5113 2094 
Q 5113 2597 4934 2840 
Q 4756 3084 4391 3084 
Q 3944 3084 3684 2787 
Q 3425 2491 3425 1978 
L 3425 0 
L 2847 0 
L 2847 2094 
Q 2847 2600 2669 2842 
Q 2491 3084 2119 3084 
Q 1678 3084 1418 2786 
Q 1159 2488 1159 1978 
L 1159 0 
L 581 0 
L 581 3500 
L 1159 3500 
L 1159 2956 
Q 1356 3278 1631 3431 
Q 1906 3584 2284 3584 
Q 2666 3584 2933 3390 
Q 3200 3197 3328 2828 
z
" transform="scale(0.015625)"/>
       <path id="DejaVuSans-61" d="M 2194 1759 
Q 1497 1759 1228 1600 
Q 959 1441 959 1056 
Q 959 750 1161 570 
Q 1363 391 1709 391 
Q 2188 391 2477 730 
Q 2766 1069 2766 1631 
L 2766 1759 
L 2194 1759 
z
M 3341 1997 
L 3341 0 
L 2766 0 
L 2766 531 
Q 2569 213 2275 61 
Q 1981 -91 1556 -91 
Q 1019 -91 701 211 
Q 384 513 384 1019 
Q 384 1609 779 1909 
Q 1175 2209 1959 2209 
L 2766 2209 
L 2766 2266 
Q 2766 2663 2505 2880 
Q 2244 3097 1772 3097 
Q 1472 3097 1187 3025 
Q 903 2953 641 2809 
L 641 3341 
Q 956 3463 1253 3523 
Q 1550 3584 1831 3584 
Q 2591 3584 2966 3190 
Q 3341 2797 3341 1997 
z
" transform="scale(0.015625)"/>
      </defs>
      <use xlink:href="#DejaVuSans-45"/>
      <use xlink:href="#DejaVuSans-66" transform="translate(63.183594 0)"/>
      <use xlink:href="#DejaVuSans-66" transform="translate(98.388672 0)"/>
      <use xlink:href="#DejaVuSans-65" transform="translate(133.59375 0)"/>
      <use xlink:href="#DejaVuSans-63" transform="translate(195.117188 0)"/>
      <use xlink:href="#DejaVuSans-74" transform="translate(250.097656 0)"/>
      <use xlink:href="#DejaVuSans-20" transform="translate(289.306641 0)"/>
      <use xlink:href="#DejaVuSans-45" transform="translate(321.09375 0)"/>
      <use xlink:href="#DejaVuSans-73" transform="translate(384.277344 0)"/>
      <use xlink:href="#DejaVuSans-74" transform="translate(436.376953 0)"/>
      <use xlink:href="#DejaVuSans-69" transform="translate(475.585938 0)"/>
      <use xlink:href="#DejaVuSans-6d" transform="translate(503.369141 0)"/>
      <use xlink:href="#DejaVuSans-61" transform="translate(600.78125 0)"/>
      <use xlink:href="#DejaVuSans-74" transform="translate(662.060547 0)"/>
      <use xlink:href="#DejaVuSans-65" transform="translate(701.269531 0)"/>
     </g>
    </g>
   </g>
   <g id="LineCollection_1">
    <path d="M 105.129261 191.256526 
L 612.401989 191.256526 
" clip-path="url(#p5689fa1794)" style="fill: none; stroke: #000000; stroke-width: 2"/>
   </g>
   <g id="LineCollection_2">
    <path d="M 409.492898 271.8 
L 409.492898 30.169579 
" clip-path="url(#p5689fa1794)" style="fill: none; stroke-dasharray: 2,3.3; stroke-dashoffset: 0; stroke: #000000; stroke-width: 2"/>
   </g>
   <g id="line2d_23">
    <path d="M 105.129261 199.469179 
L 122.038352 197.193075 
L 138.947443 191.911796 
L 155.856534 192.762087 
L 172.765625 189.136149 
L 189.674716 189.214693 
L 206.583807 188.031104 
L 223.492898 190.581376 
L 240.401989 186.580185 
L 257.31108 188.040441 
L 274.22017 189.359124 
L 291.129261 193.388209 
L 308.038352 192.900404 
L 324.947443 194.416579 
L 341.856534 192.240236 
L 358.765625 192.66179 
L 375.674716 188.990939 
L 392.583807 189.908376 
L 409.492898 186.125454 
L 426.401989 192.946907 
L 443.31108 179.926763 
L 460.22017 183.699898 
L 477.129261 189.482642 
L 494.038352 180.593066 
L 510.947443 180.167413 
L 527.856534 192.412743 
L 544.765625 191.024363 
L 561.674716 184.795455 
L 578.583807 179.176694 
L 595.492898 183.161759 
L 612.401989 182.290911 
" clip-path="url(#p5689fa1794)" style="fill: none; stroke: #ff7f0e; stroke-opacity: 0.3; stroke-width: 3; stroke-linecap: square"/>
   </g>
   <g id="line2d_24">
    <path d="M 105.129261 192.447677 
L 122.038352 194.501677 
L 138.947443 199.891542 
L 155.856534 192.649278 
L 172.765625 197.689243 
L 189.674716 192.943436 
L 206.583807 193.280135 
L 223.492898 191.888777 
L 240.401989 189.022866 
L 257.31108 189.776658 
L 274.22017 185.815314 
L 291.129261 188.461832 
L 308.038352 193.177964 
L 324.947443 187.53214 
L 341.856534 187.690182 
L 358.765625 186.499474 
L 375.674716 185.720174 
L 392.583807 190.080019 
L 409.492898 182.145521 
L 426.401989 184.199721 
L 443.31108 186.595888 
L 460.22017 176.706439 
L 477.129261 161.434523 
L 494.038352 181.734939 
L 510.947443 186.54726 
L 527.856534 183.998531 
L 544.765625 181.076014 
L 561.674716 184.132888 
L 578.583807 184.034973 
L 595.492898 184.38818 
L 612.401989 185.946006 
" clip-path="url(#p5689fa1794)" style="fill: none; stroke: #ff7f0e; stroke-opacity: 0.3; stroke-width: 3; stroke-linecap: square"/>
   </g>
   <g id="line2d_25">
    <path d="M 105.129261 181.405911 
L 122.038352 187.573639 
L 138.947443 190.27609 
L 155.856534 180.808831 
L 172.765625 193.044713 
L 189.674716 196.705783 
L 206.583807 196.260854 
L 223.492898 200.194242 
L 240.401989 203.042523 
L 257.31108 190.433139 
L 274.22017 190.403887 
L 291.129261 184.767204 
L 308.038352 188.947205 
L 324.947443 189.763048 
L 341.856534 189.086666 
L 358.765625 193.45034 
L 375.674716 191.093241 
L 392.583807 197.354961 
L 409.492898 199.668171 
L 426.401989 202.458834 
L 443.31108 206.846002 
L 460.22017 196.307017 
L 477.129261 200.851563 
L 494.038352 200.209682 
L 510.947443 203.620329 
L 527.856534 205.019 
L 544.765625 203.51099 
L 561.674716 209.718449 
L 578.583807 211.108859 
L 595.492898 205.961906 
L 612.401989 204.632187 
" clip-path="url(#p5689fa1794)" style="fill: none; stroke: #ff7f0e; stroke-opacity: 0.3; stroke-width: 3; stroke-linecap: square"/>
   </g>
   <g id="line2d_26">
    <path d="M 105.129261 171.843268 
L 122.038352 184.052419 
L 138.947443 183.3577 
L 155.856534 193.364497 
L 172.765625 192.679971 
L 189.674716 197.94608 
L 206.583807 198.500162 
L 223.492898 194.064123 
L 240.401989 194.732156 
L 257.31108 194.353577 
L 274.22017 193.389243 
L 291.129261 200.227409 
L 308.038352 198.590405 
L 324.947443 187.187911 
L 341.856534 187.018776 
L 358.765625 192.188502 
L 375.674716 188.51874 
L 392.583807 191.304916 
L 409.492898 184.469913 
L 426.401989 187.633285 
L 443.31108 195.653511 
L 460.22017 200.696234 
L 477.129261 204.802396 
L 494.038352 206.562306 
L 510.947443 212.554134 
L 527.856534 210.17864 
L 544.765625 212.729611 
L 561.674716 214.099291 
L 578.583807 212.212579 
L 595.492898 210.860745 
L 612.401989 207.32193 
" clip-path="url(#p5689fa1794)" style="fill: none; stroke: #ff7f0e; stroke-opacity: 0.3; stroke-width: 3; stroke-linecap: square"/>
   </g>
   <g id="line2d_27">
    <path d="M 105.129261 186.442895 
L 122.038352 182.524022 
L 138.947443 193.74317 
L 155.856534 186.474823 
L 172.765625 191.50367 
L 189.674716 196.692496 
L 206.583807 198.662265 
L 223.492898 198.009542 
L 240.401989 194.640146 
L 257.31108 197.566185 
L 274.22017 197.156102 
L 291.129261 191.650035 
L 308.038352 187.595201 
L 324.947443 188.88106 
L 341.856534 188.540143 
L 358.765625 181.999431 
L 375.674716 182.191864 
L 392.583807 183.063896 
L 409.492898 180.482986 
L 426.401989 181.701413 
L 443.31108 175.33501 
L 460.22017 182.283808 
L 477.129261 177.897831 
L 494.038352 168.986237 
L 510.947443 165.627393 
L 527.856534 169.352841 
L 544.765625 162.50582 
L 561.674716 175.757345 
L 578.583807 159.619452 
L 595.492898 145.1373 
L 612.401989 130.302254 
" clip-path="url(#p5689fa1794)" style="fill: none; stroke: #ff7f0e; stroke-opacity: 0.3; stroke-width: 3; stroke-linecap: square"/>
   </g>
   <g id="line2d_28">
    <path d="M 105.129261 190.987261 
L 122.038352 191.084684 
L 138.947443 192.859725 
L 155.856534 188.382215 
L 172.765625 187.254272 
L 189.674716 191.610451 
L 206.583807 192.966851 
L 223.492898 193.27843 
L 240.401989 193.584369 
L 257.31108 191.285982 
L 274.22017 190.920795 
L 291.129261 192.221873 
L 308.038352 194.615032 
L 324.947443 193.930653 
L 341.856534 191.393342 
L 358.765625 189.613738 
L 375.674716 189.042321 
L 392.583807 187.780859 
L 409.492898 190.446074 
L 426.401989 197.914103 
L 443.31108 197.677454 
L 460.22017 203.564454 
L 477.129261 204.596788 
L 494.038352 200.232807 
L 510.947443 198.870633 
L 527.856534 217.656664 
L 544.765625 206.586486 
L 561.674716 213.061891 
L 578.583807 213.259264 
L 595.492898 210.597815 
L 612.401989 215.795908 
" clip-path="url(#p5689fa1794)" style="fill: none; stroke: #ff7f0e; stroke-opacity: 0.3; stroke-width: 3; stroke-linecap: square"/>
   </g>
   <g id="line2d_29">
    <path d="M 105.129261 195.004628 
L 122.038352 194.235429 
L 138.947443 181.268393 
L 155.856534 192.303248 
L 172.765625 187.984675 
L 189.674716 192.124899 
L 206.583807 193.654879 
L 223.492898 189.493467 
L 240.401989 190.448684 
L 257.31108 194.491939 
L 274.22017 193.267481 
L 291.129261 194.435181 
L 308.038352 193.788756 
L 324.947443 185.952087 
L 341.856534 189.146527 
L 358.765625 190.094299 
L 375.674716 193.366999 
L 392.583807 193.448168 
L 409.492898 197.250457 
L 426.401989 204.156174 
L 443.31108 178.2109 
L 460.22017 185.544798 
L 477.129261 186.161274 
L 494.038352 184.297822 
L 510.947443 169.293561 
L 527.856534 193.999134 
L 544.765625 203.036757 
L 561.674716 201.033812 
L 578.583807 185.690826 
L 595.492898 187.012642 
L 612.401989 191.758403 
" clip-path="url(#p5689fa1794)" style="fill: none; stroke: #ff7f0e; stroke-opacity: 0.3; stroke-width: 3; stroke-linecap: square"/>
   </g>
   <g id="line2d_30">
    <path d="M 105.129261 186.664657 
L 122.038352 190.312069 
L 138.947443 192.041668 
L 155.856534 195.888256 
L 172.765625 187.64722 
L 189.674716 191.280439 
L 206.583807 192.499965 
L 223.492898 193.546745 
L 240.401989 190.229192 
L 257.31108 189.888216 
L 274.22017 188.597335 
L 291.129261 194.377853 
L 308.038352 193.992473 
L 324.947443 190.859285 
L 341.856534 189.329297 
L 358.765625 189.310079 
L 375.674716 187.648041 
L 392.583807 198.462408 
L 409.492898 198.091716 
L 426.401989 196.342847 
L 443.31108 205.869593 
L 460.22017 201.912104 
L 477.129261 204.213085 
L 494.038352 202.083103 
L 510.947443 216.272961 
L 527.856534 221.081037 
L 544.765625 221.420119 
L 561.674716 221.724538 
L 578.583807 220.498969 
L 595.492898 230.877412 
L 612.401989 227.203596 
" clip-path="url(#p5689fa1794)" style="fill: none; stroke: #ff7f0e; stroke-opacity: 0.3; stroke-width: 3; stroke-linecap: square"/>
   </g>
   <g id="line2d_31">
    <path d="M 105.129261 190.218816 
L 122.038352 191.404984 
L 138.947443 193.929143 
L 155.856534 190.814627 
L 172.765625 190.693427 
L 189.674716 188.793424 
L 206.583807 190.42214 
L 223.492898 176.546667 
L 240.401989 206.024043 
L 257.31108 199.218595 
L 274.22017 197.480713 
L 291.129261 191.289633 
L 308.038352 191.1667 
L 324.947443 190.92937 
L 341.856534 188.544092 
L 358.765625 188.924142 
L 375.674716 186.189144 
L 392.583807 186.907057 
L 409.492898 182.833148 
L 426.401989 175.740658 
L 443.31108 177.206957 
L 460.22017 170.547712 
L 477.129261 166.111101 
L 494.038352 172.68991 
L 510.947443 161.075939 
L 527.856534 160.172866 
L 544.765625 159.706069 
L 561.674716 159.908759 
L 578.583807 158.729089 
L 595.492898 154.851792 
L 612.401989 160.068076 
" clip-path="url(#p5689fa1794)" style="fill: none; stroke: #ff7f0e; stroke-opacity: 0.3; stroke-width: 3; stroke-linecap: square"/>
   </g>
   <g id="line2d_32">
    <path d="M 105.129261 190.079343 
L 122.038352 191.896591 
L 138.947443 193.117192 
L 155.856534 195.383637 
L 172.765625 191.911196 
L 189.674716 191.806559 
L 206.583807 190.339763 
L 223.492898 189.166242 
L 240.401989 186.814815 
L 257.31108 192.988391 
L 274.22017 189.482799 
L 291.129261 180.15436 
L 308.038352 201.723468 
L 324.947443 191.363306 
L 341.856534 190.061849 
L 358.765625 191.299255 
L 375.674716 193.57421 
L 392.583807 193.621089 
L 409.492898 188.086118 
L 426.401989 192.030561 
L 443.31108 182.037705 
L 460.22017 181.292812 
L 477.129261 184.754597 
L 494.038352 184.732853 
L 510.947443 184.590029 
L 527.856534 187.520728 
L 544.765625 180.886903 
L 561.674716 179.911405 
L 578.583807 175.325262 
L 595.492898 175.384963 
L 612.401989 170.062474 
" clip-path="url(#p5689fa1794)" style="fill: none; stroke: #ff7f0e; stroke-opacity: 0.3; stroke-width: 3; stroke-linecap: square"/>
   </g>
   <g id="line2d_33">
    <path d="M 105.129261 179.293871 
L 122.038352 201.256499 
L 138.947443 194.570146 
L 155.856534 194.168561 
L 172.765625 192.173826 
L 189.674716 190.83348 
L 206.583807 193.801108 
L 223.492898 191.997346 
L 240.401989 192.987899 
L 257.31108 193.103847 
L 274.22017 194.475343 
L 291.129261 188.374444 
L 308.038352 189.148716 
L 324.947443 186.785073 
L 341.856534 184.122476 
L 358.765625 188.80939 
L 375.674716 194.065177 
L 392.583807 192.959913 
L 409.492898 188.537821 
L 426.401989 194.386513 
L 443.31108 190.890314 
L 460.22017 200.285284 
L 477.129261 197.692072 
L 494.038352 198.581633 
L 510.947443 197.199222 
L 527.856534 196.599973 
L 544.765625 194.400664 
L 561.674716 190.540747 
L 578.583807 192.844346 
L 595.492898 196.359822 
L 612.401989 194.784048 
" clip-path="url(#p5689fa1794)" style="fill: none; stroke: #ff7f0e; stroke-opacity: 0.3; stroke-width: 3; stroke-linecap: square"/>
   </g>
   <g id="line2d_34">
    <path d="M 105.129261 237.688061 
L 122.038352 239.913687 
L 138.947443 244.015066 
L 155.856534 209.153941 
L 172.765625 190.814675 
L 189.674716 175.077122 
L 206.583807 184.989328 
L 223.492898 174.279384 
L 240.401989 167.756824 
L 257.31108 170.664994 
L 274.22017 162.365048 
L 291.129261 167.670391 
L 308.038352 162.024758 
L 324.947443 164.589552 
L 341.856534 173.830669 
L 358.765625 165.571158 
L 375.674716 158.695656 
L 392.583807 168.593432 
L 409.492898 155.380113 
L 426.401989 146.089794 
L 443.31108 116.575698 
L 460.22017 128.91998 
L 477.129261 134.260332 
L 494.038352 132.030729 
L 510.947443 125.053129 
L 527.856534 126.229117 
L 544.765625 110.312818 
L 561.674716 102.43295 
L 578.583807 126.695159 
L 595.492898 127.720718 
L 612.401989 123.995948 
" clip-path="url(#p5689fa1794)" style="fill: none; stroke: #ff7f0e; stroke-opacity: 0.3; stroke-width: 3; stroke-linecap: square"/>
   </g>
   <g id="line2d_35">
    <path d="M 105.129261 191.33112 
L 122.038352 189.839533 
L 138.947443 190.836353 
L 155.856534 192.966931 
L 172.765625 193.363649 
L 189.674716 192.210576 
L 206.583807 193.13723 
L 223.492898 193.532409 
L 240.401989 189.258317 
L 257.31108 192.078724 
L 274.22017 187.061301 
L 291.129261 188.080656 
L 308.038352 187.428908 
L 324.947443 194.720881 
L 341.856534 189.580197 
L 358.765625 192.341004 
L 375.674716 191.016502 
L 392.583807 191.178445 
L 409.492898 194.772068 
L 426.401989 199.435518 
L 443.31108 192.865375 
L 460.22017 183.33943 
L 477.129261 182.242825 
L 494.038352 182.043699 
L 510.947443 188.085037 
L 527.856534 191.055632 
L 544.765625 182.367096 
L 561.674716 183.858385 
L 578.583807 186.211291 
L 595.492898 185.138543 
L 612.401989 171.373131 
" clip-path="url(#p5689fa1794)" style="fill: none; stroke: #ff7f0e; stroke-opacity: 0.3; stroke-width: 3; stroke-linecap: square"/>
   </g>
   <g id="line2d_36">
    <path d="M 105.129261 190.965559 
L 122.038352 195.17713 
L 138.947443 189.275813 
L 155.856534 190.132711 
L 172.765625 186.565412 
L 189.674716 189.363632 
L 206.583807 193.155414 
L 223.492898 190.327846 
L 240.401989 192.697262 
L 257.31108 196.928971 
L 274.22017 191.968682 
L 291.129261 195.722227 
L 308.038352 192.368827 
L 324.947443 191.610721 
L 341.856534 181.896648 
L 358.765625 190.162296 
L 375.674716 196.287209 
L 392.583807 185.128019 
L 409.492898 173.549457 
L 426.401989 172.427315 
L 443.31108 169.262097 
L 460.22017 168.474313 
L 477.129261 167.995708 
L 494.038352 177.340164 
L 510.947443 187.954291 
L 527.856534 189.798328 
L 544.765625 190.628157 
L 561.674716 192.41261 
L 578.583807 202.589992 
L 595.492898 211.361615 
L 612.401989 204.199858 
" clip-path="url(#p5689fa1794)" style="fill: none; stroke: #ff7f0e; stroke-opacity: 0.3; stroke-width: 3; stroke-linecap: square"/>
   </g>
   <g id="line2d_37">
    <path d="M 105.129261 196.247991 
L 122.038352 178.070137 
L 138.947443 206.377146 
L 155.856534 191.475295 
L 172.765625 190.836815 
L 189.674716 192.750344 
L 206.583807 190.155428 
L 223.492898 192.130519 
L 240.401989 191.256645 
L 257.31108 191.583668 
L 274.22017 193.611033 
L 291.129261 187.401443 
L 308.038352 187.372883 
L 324.947443 193.631457 
L 341.856534 192.499292 
L 358.765625 187.461668 
L 375.674716 196.818227 
L 392.583807 187.687943 
L 409.492898 203.997999 
L 426.401989 202.378215 
L 443.31108 196.891027 
L 460.22017 204.61985 
L 477.129261 209.124155 
L 494.038352 206.203993 
L 510.947443 199.414221 
L 527.856534 203.338978 
L 544.765625 201.635074 
L 561.674716 195.704097 
L 578.583807 195.893622 
L 595.492898 197.064062 
L 612.401989 195.528328 
" clip-path="url(#p5689fa1794)" style="fill: none; stroke: #ff7f0e; stroke-opacity: 0.3; stroke-width: 3; stroke-linecap: square"/>
   </g>
   <g id="line2d_38">
    <path d="M 105.129261 201.385331 
L 122.038352 190.096811 
L 138.947443 188.962156 
L 155.856534 185.817932 
L 172.765625 188.986478 
L 189.674716 194.445123 
L 206.583807 194.399392 
L 223.492898 194.028729 
L 240.401989 193.296501 
L 257.31108 192.888627 
L 274.22017 189.147573 
L 291.129261 191.212248 
L 308.038352 189.282134 
L 324.947443 189.463141 
L 341.856534 190.062532 
L 358.765625 190.841307 
L 375.674716 189.34167 
L 392.583807 190.711778 
L 409.492898 183.820958 
L 426.401989 178.014245 
L 443.31108 186.602165 
L 460.22017 182.748634 
L 477.129261 188.296231 
L 494.038352 181.91293 
L 510.947443 184.752102 
L 527.856534 183.974207 
L 544.765625 179.95614 
L 561.674716 180.323765 
L 578.583807 179.168191 
L 595.492898 177.903753 
L 612.401989 180.176736 
" clip-path="url(#p5689fa1794)" style="fill: none; stroke: #ff7f0e; stroke-opacity: 0.3; stroke-width: 3; stroke-linecap: square"/>
   </g>
   <g id="line2d_39">
    <path d="M 105.129261 190.463185 
L 122.038352 189.405577 
L 138.947443 191.333651 
L 155.856534 191.46696 
L 172.765625 191.994684 
L 189.674716 192.39316 
L 206.583807 193.272735 
L 223.492898 192.268348 
L 240.401989 192.10695 
L 257.31108 190.225683 
L 274.22017 188.193424 
L 291.129261 190.206705 
L 308.038352 190.801129 
L 324.947443 194.144987 
L 341.856534 192.778671 
L 358.765625 192.214509 
L 375.674716 190.387353 
L 392.583807 188.474628 
L 409.492898 185.173674 
L 426.401989 185.144473 
L 443.31108 183.953236 
L 460.22017 175.980858 
L 477.129261 171.183212 
L 494.038352 170.775737 
L 510.947443 172.777102 
L 527.856534 165.599456 
L 544.765625 163.499138 
L 561.674716 169.211058 
L 578.583807 169.686914 
L 595.492898 168.61597 
L 612.401989 168.412087 
" clip-path="url(#p5689fa1794)" style="fill: none; stroke: #ff7f0e; stroke-opacity: 0.3; stroke-width: 3; stroke-linecap: square"/>
   </g>
   <g id="line2d_40">
    <path d="M 105.129261 190.228955 
L 122.038352 188.172852 
L 138.947443 189.818936 
L 155.856534 193.58194 
L 172.765625 190.826645 
L 189.674716 191.071323 
L 206.583807 195.43151 
L 223.492898 188.963799 
L 240.401989 187.038249 
L 257.31108 195.179685 
L 274.22017 190.430436 
L 291.129261 193.726679 
L 308.038352 186.356636 
L 324.947443 192.86426 
L 341.856534 186.490259 
L 358.765625 190.53909 
L 375.674716 196.175077 
L 392.583807 199.421008 
L 409.492898 194.213382 
L 426.401989 190.024894 
L 443.31108 185.622008 
L 460.22017 189.376199 
L 477.129261 180.684112 
L 494.038352 183.818445 
L 510.947443 180.402411 
L 527.856534 172.769514 
L 544.765625 176.216972 
L 561.674716 173.748718 
L 578.583807 169.93535 
L 595.492898 177.159086 
L 612.401989 177.511541 
" clip-path="url(#p5689fa1794)" style="fill: none; stroke: #ff7f0e; stroke-opacity: 0.3; stroke-width: 3; stroke-linecap: square"/>
   </g>
   <g id="line2d_41">
    <path d="M 105.129261 185.784627 
L 122.038352 189.818815 
L 138.947443 193.206198 
L 155.856534 195.018209 
L 172.765625 192.983516 
L 189.674716 189.599169 
L 206.583807 188.929749 
L 223.492898 191.458719 
L 240.401989 192.760692 
L 257.31108 191.825727 
L 274.22017 191.025706 
L 291.129261 193.324666 
L 308.038352 189.992654 
L 324.947443 192.089342 
L 341.856534 191.445197 
L 358.765625 193.064514 
L 375.674716 189.637116 
L 392.583807 191.511697 
L 409.492898 193.161733 
L 426.401989 187.569962 
L 443.31108 190.614036 
L 460.22017 183.307926 
L 477.129261 185.154638 
L 494.038352 184.199143 
L 510.947443 192.703381 
L 527.856534 190.263401 
L 544.765625 191.330219 
L 561.674716 194.944823 
L 578.583807 193.576695 
L 595.492898 184.20037 
L 612.401989 191.408457 
" clip-path="url(#p5689fa1794)" style="fill: none; stroke: #ff7f0e; stroke-opacity: 0.3; stroke-width: 3; stroke-linecap: square"/>
   </g>
   <g id="line2d_42">
    <path d="M 105.129261 180.533082 
L 122.038352 188.691048 
L 138.947443 191.656229 
L 155.856534 179.941082 
L 172.765625 171.637641 
L 189.674716 169.279609 
L 206.583807 190.7898 
L 223.492898 198.432889 
L 240.401989 195.954015 
L 257.31108 189.391309 
L 274.22017 191.47928 
L 291.129261 195.874518 
L 308.038352 201.682 
L 324.947443 202.818595 
L 341.856534 223.557704 
L 358.765625 196.5731 
L 375.674716 197.526846 
L 392.583807 187.246911 
L 409.492898 182.498709 
L 426.401989 178.386916 
L 443.31108 160.431962 
L 460.22017 185.791054 
L 477.129261 191.229399 
L 494.038352 194.387111 
L 510.947443 194.638065 
L 527.856534 208.086061 
L 544.765625 210.172672 
L 561.674716 223.907473 
L 578.583807 212.047729 
L 595.492898 202.283494 
L 612.401989 201.335671 
" clip-path="url(#p5689fa1794)" style="fill: none; stroke: #ff7f0e; stroke-opacity: 0.3; stroke-width: 3; stroke-linecap: square"/>
   </g>
   <g id="line2d_43">
    <path d="M 105.129261 23.168484 
L 122.038352 19.8 
L 138.947443 21.807114 
L 155.856534 80.316947 
L 172.765625 106.824524 
L 189.674716 118.615329 
L 206.583807 94.875003 
L 223.492898 105.001335 
L 240.401989 108.585912 
L 257.31108 117.824334 
L 274.22017 124.088034 
L 291.129261 117.370428 
L 308.038352 127.194534 
L 324.947443 123.167776 
L 341.856534 127.694215 
L 358.765625 147.07175 
L 375.674716 151.637215 
L 392.583807 141.604801 
L 409.492898 165.004029 
L 426.401989 171.760117 
L 443.31108 213.450893 
L 460.22017 212.182789 
L 477.129261 208.905423 
L 494.038352 200.960005 
L 510.947443 186.58651 
L 527.856534 191.16402 
L 544.765625 198.522568 
L 561.674716 178.257075 
L 578.583807 162.822302 
L 595.492898 152.821798 
L 612.401989 180.162168 
" clip-path="url(#p5689fa1794)" style="fill: none; stroke: #ff7f0e; stroke-opacity: 0.3; stroke-width: 3; stroke-linecap: square"/>
   </g>
   <g id="line2d_44">
    <path d="M 105.129261 193.253816 
L 122.038352 191.713094 
L 138.947443 186.646646 
L 155.856534 188.752878 
L 172.765625 191.577539 
L 189.674716 187.583211 
L 206.583807 192.847194 
L 223.492898 193.405614 
L 240.401989 193.971597 
L 257.31108 194.632571 
L 274.22017 189.09443 
L 291.129261 189.672389 
L 308.038352 194.951925 
L 324.947443 189.896392 
L 341.856534 193.190876 
L 358.765625 193.124353 
L 375.674716 188.732077 
L 392.583807 196.599761 
L 409.492898 187.135614 
L 426.401989 189.595816 
L 443.31108 189.184594 
L 460.22017 184.462272 
L 477.129261 181.896019 
L 494.038352 186.884695 
L 510.947443 186.014563 
L 527.856534 181.186766 
L 544.765625 183.215422 
L 561.674716 190.890425 
L 578.583807 178.98492 
L 595.492898 180.314333 
L 612.401989 184.954428 
" clip-path="url(#p5689fa1794)" style="fill: none; stroke: #ff7f0e; stroke-opacity: 0.3; stroke-width: 3; stroke-linecap: square"/>
   </g>
   <g id="line2d_45">
    <path d="M 105.129261 206.081018 
L 122.038352 195.659895 
L 138.947443 180.205153 
L 155.856534 158.70671 
L 172.765625 158.773707 
L 189.674716 164.435731 
L 206.583807 175.133188 
L 223.492898 188.56556 
L 240.401989 197.144992 
L 257.31108 194.10461 
L 274.22017 204.144329 
L 291.129261 213.175691 
L 308.038352 209.229492 
L 324.947443 214.978538 
L 341.856534 206.216737 
L 358.765625 203.206703 
L 375.674716 200.053094 
L 392.583807 201.082065 
L 409.492898 195.336966 
L 426.401989 197.835949 
L 443.31108 204.741067 
L 460.22017 193.217151 
L 477.129261 197.107215 
L 494.038352 199.562018 
L 510.947443 233.947824 
L 527.856534 212.881516 
L 544.765625 204.349013 
L 561.674716 224.989452 
L 578.583807 218.879017 
L 595.492898 233.780366 
L 612.401989 216.93306 
" clip-path="url(#p5689fa1794)" style="fill: none; stroke: #ff7f0e; stroke-opacity: 0.3; stroke-width: 3; stroke-linecap: square"/>
   </g>
   <g id="line2d_46">
    <path d="M 105.129261 196.313287 
L 122.038352 193.672271 
L 138.947443 195.398273 
L 155.856534 192.19064 
L 172.765625 196.780658 
L 189.674716 189.189337 
L 206.583807 185.758278 
L 223.492898 191.703937 
L 240.401989 193.515957 
L 257.31108 193.464006 
L 274.22017 186.441935 
L 291.129261 187.427323 
L 308.038352 184.479825 
L 324.947443 185.276885 
L 341.856534 188.863845 
L 358.765625 195.796613 
L 375.674716 193.921147 
L 392.583807 201.017395 
L 409.492898 196.426613 
L 426.401989 196.124062 
L 443.31108 198.605272 
L 460.22017 185.279631 
L 477.129261 203.932951 
L 494.038352 188.456574 
L 510.947443 203.306876 
L 527.856534 205.531921 
L 544.765625 202.011184 
L 561.674716 208.384432 
L 578.583807 196.839003 
L 595.492898 203.312399 
L 612.401989 200.745284 
" clip-path="url(#p5689fa1794)" style="fill: none; stroke: #ff7f0e; stroke-opacity: 0.3; stroke-width: 3; stroke-linecap: square"/>
   </g>
   <g id="line2d_47">
    <path d="M 105.129261 183.011651 
L 122.038352 186.654762 
L 138.947443 188.704142 
L 155.856534 195.923633 
L 172.765625 196.318676 
L 189.674716 194.89244 
L 206.583807 197.768397 
L 223.492898 195.554238 
L 240.401989 192.407686 
L 257.31108 191.262194 
L 274.22017 189.683102 
L 291.129261 190.389287 
L 308.038352 188.921278 
L 324.947443 189.787066 
L 341.856534 188.467181 
L 358.765625 191.23411 
L 375.674716 190.699796 
L 392.583807 193.145222 
L 409.492898 187.555562 
L 426.401989 187.028338 
L 443.31108 186.493746 
L 460.22017 184.537733 
L 477.129261 186.193548 
L 494.038352 193.247623 
L 510.947443 192.653325 
L 527.856534 185.704782 
L 544.765625 191.595752 
L 561.674716 187.097588 
L 578.583807 192.625577 
L 595.492898 195.854225 
L 612.401989 193.64916 
" clip-path="url(#p5689fa1794)" style="fill: none; stroke: #ff7f0e; stroke-opacity: 0.3; stroke-width: 3; stroke-linecap: square"/>
   </g>
   <g id="line2d_48">
    <path d="M 105.129261 194.856083 
L 122.038352 190.343649 
L 138.947443 190.330367 
L 155.856534 194.642853 
L 172.765625 190.869355 
L 189.674716 192.247306 
L 206.583807 196.399547 
L 223.492898 193.818871 
L 240.401989 187.624324 
L 257.31108 188.740263 
L 274.22017 192.432967 
L 291.129261 189.313815 
L 308.038352 184.883433 
L 324.947443 185.356814 
L 341.856534 190.046436 
L 358.765625 193.500356 
L 375.674716 191.777577 
L 392.583807 193.518631 
L 409.492898 202.036837 
L 426.401989 205.508675 
L 443.31108 214.307647 
L 460.22017 213.107565 
L 477.129261 214.045492 
L 494.038352 214.296084 
L 510.947443 184.071172 
L 527.856534 176.497387 
L 544.765625 165.777024 
L 561.674716 160.621253 
L 578.583807 158.939117 
L 595.492898 153.676612 
L 612.401989 154.242774 
" clip-path="url(#p5689fa1794)" style="fill: none; stroke: #ff7f0e; stroke-opacity: 0.3; stroke-width: 3; stroke-linecap: square"/>
   </g>
   <g id="line2d_49">
    <path d="M 105.129261 189.933657 
L 122.038352 192.942517 
L 138.947443 191.870491 
L 155.856534 189.605994 
L 172.765625 190.010111 
L 189.674716 192.171835 
L 206.583807 191.550555 
L 223.492898 193.211144 
L 240.401989 192.175798 
L 257.31108 190.95974 
L 274.22017 192.408487 
L 291.129261 190.258003 
L 308.038352 193.638626 
L 324.947443 185.895171 
L 341.856534 192.784409 
L 358.765625 190.989278 
L 375.674716 191.104569 
L 392.583807 191.354466 
L 409.492898 187.159166 
L 426.401989 183.352801 
L 443.31108 183.583158 
L 460.22017 176.24644 
L 477.129261 184.69841 
L 494.038352 186.96113 
L 510.947443 182.757468 
L 527.856534 184.725435 
L 544.765625 183.63023 
L 561.674716 182.60156 
L 578.583807 184.096768 
L 595.492898 179.162558 
L 612.401989 179.599757 
" clip-path="url(#p5689fa1794)" style="fill: none; stroke: #ff7f0e; stroke-opacity: 0.3; stroke-width: 3; stroke-linecap: square"/>
   </g>
   <g id="line2d_50">
    <path d="M 105.129261 193.708628 
L 122.038352 198.560681 
L 138.947443 189.590883 
L 155.856534 187.320695 
L 172.765625 187.483516 
L 189.674716 179.063432 
L 206.583807 194.55992 
L 223.492898 196.832932 
L 240.401989 197.994114 
L 257.31108 195.68702 
L 274.22017 191.297921 
L 291.129261 185.462097 
L 308.038352 190.160359 
L 324.947443 198.073656 
L 341.856534 183.527179 
L 358.765625 191.149783 
L 375.674716 181.186382 
L 392.583807 196.78262 
L 409.492898 171.698205 
L 426.401989 193.391828 
L 443.31108 221.993063 
L 460.22017 211.753397 
L 477.129261 219.178404 
L 494.038352 220.425253 
L 510.947443 222.295054 
L 527.856534 227.992347 
L 544.765625 227.662373 
L 561.674716 223.443167 
L 578.583807 221.362351 
L 595.492898 217.929097 
L 612.401989 215.252736 
" clip-path="url(#p5689fa1794)" style="fill: none; stroke: #ff7f0e; stroke-opacity: 0.3; stroke-width: 3; stroke-linecap: square"/>
   </g>
   <g id="line2d_51">
    <path d="M 105.129261 201.622875 
L 122.038352 190.901812 
L 138.947443 196.106476 
L 155.856534 189.82696 
L 172.765625 192.180907 
L 189.674716 195.14781 
L 206.583807 192.561847 
L 223.492898 193.193558 
L 240.401989 188.18827 
L 257.31108 191.956533 
L 274.22017 186.278613 
L 291.129261 190.435066 
L 308.038352 189.009692 
L 324.947443 192.420193 
L 341.856534 189.353946 
L 358.765625 192.003506 
L 375.674716 190.97892 
L 392.583807 189.88919 
L 409.492898 185.33426 
L 426.401989 182.275628 
L 443.31108 182.98838 
L 460.22017 168.896028 
L 477.129261 182.566095 
L 494.038352 176.273521 
L 510.947443 180.642574 
L 527.856534 189.003391 
L 544.765625 194.130505 
L 561.674716 162.684933 
L 578.583807 154.790959 
L 595.492898 177.815755 
L 612.401989 177.488197 
" clip-path="url(#p5689fa1794)" style="fill: none; stroke: #ff7f0e; stroke-opacity: 0.3; stroke-width: 3; stroke-linecap: square"/>
   </g>
   <g id="line2d_52">
    <path d="M 105.129261 192.715842 
L 122.038352 193.077591 
L 138.947443 191.357287 
L 155.856534 195.433815 
L 172.765625 192.70439 
L 189.674716 187.826029 
L 206.583807 189.653401 
L 223.492898 191.548045 
L 240.401989 190.582547 
L 257.31108 189.13338 
L 274.22017 192.165674 
L 291.129261 192.691318 
L 308.038352 193.510051 
L 324.947443 190.349339 
L 341.856534 187.88501 
L 358.765625 188.491286 
L 375.674716 194.392841 
L 392.583807 193.003136 
L 409.492898 191.006385 
L 426.401989 195.465394 
L 443.31108 187.219102 
L 460.22017 183.383337 
L 477.129261 182.139539 
L 494.038352 183.365 
L 510.947443 178.447037 
L 527.856534 171.832035 
L 544.765625 177.721228 
L 561.674716 183.18858 
L 578.583807 176.494657 
L 595.492898 181.548723 
L 612.401989 186.545919 
" clip-path="url(#p5689fa1794)" style="fill: none; stroke: #ff7f0e; stroke-opacity: 0.3; stroke-width: 3; stroke-linecap: square"/>
   </g>
   <g id="line2d_53">
    <path d="M 105.129261 196.107624 
L 122.038352 194.50496 
L 138.947443 188.225953 
L 155.856534 197.201365 
L 172.765625 193.897206 
L 189.674716 193.780166 
L 206.583807 193.503144 
L 223.492898 192.704816 
L 240.401989 194.780512 
L 257.31108 193.430112 
L 274.22017 194.565563 
L 291.129261 192.177464 
L 308.038352 187.144977 
L 324.947443 188.749499 
L 341.856534 188.897002 
L 358.765625 186.354019 
L 375.674716 186.624959 
L 392.583807 181.092085 
L 409.492898 185.602745 
L 426.401989 179.140709 
L 443.31108 177.949456 
L 460.22017 180.875771 
L 477.129261 185.441961 
L 494.038352 177.018308 
L 510.947443 174.999289 
L 527.856534 162.317278 
L 544.765625 170.484836 
L 561.674716 172.951824 
L 578.583807 172.85569 
L 595.492898 170.053458 
L 612.401989 170.857889 
" clip-path="url(#p5689fa1794)" style="fill: none; stroke: #ff7f0e; stroke-opacity: 0.3; stroke-width: 3; stroke-linecap: square"/>
   </g>
   <g id="line2d_54">
    <path d="M 105.129261 191.366697 
L 122.038352 190.46947 
L 138.947443 193.390358 
L 155.856534 194.048339 
L 172.765625 192.611688 
L 189.674716 193.979978 
L 206.583807 193.025384 
L 223.492898 191.006046 
L 240.401989 190.530817 
L 257.31108 190.03061 
L 274.22017 187.630503 
L 291.129261 189.215901 
L 308.038352 185.065405 
L 324.947443 190.055241 
L 341.856534 191.915691 
L 358.765625 192.028936 
L 375.674716 191.809923 
L 392.583807 198.200029 
L 409.492898 206.099053 
L 426.401989 204.524722 
L 443.31108 207.572963 
L 460.22017 219.587629 
L 477.129261 218.454575 
L 494.038352 208.4983 
L 510.947443 215.8489 
L 527.856534 224.829914 
L 544.765625 223.567217 
L 561.674716 225.542371 
L 578.583807 224.749989 
L 595.492898 230.091853 
L 612.401989 222.346532 
" clip-path="url(#p5689fa1794)" style="fill: none; stroke: #ff7f0e; stroke-opacity: 0.3; stroke-width: 3; stroke-linecap: square"/>
   </g>
   <g id="line2d_55">
    <path d="M 105.129261 230.722821 
L 122.038352 231.367171 
L 138.947443 236.360863 
L 155.856534 233.461305 
L 172.765625 231.045001 
L 189.674716 235.233247 
L 206.583807 230.722819 
L 223.492898 230.561734 
L 240.401989 229.11195 
L 257.31108 226.534561 
L 274.22017 236.199766 
L 291.129261 232.172605 
L 308.038352 229.7563 
L 324.947443 235.233259 
L 341.856534 227.662166 
L 358.765625 225.890212 
L 375.674716 229.595205 
L 392.583807 214.775222 
L 409.492898 227.82325 
L 426.401989 219.28565 
L 443.31108 219.28565 
L 460.22017 217.674781 
L 477.129261 217.674781 
L 494.038352 211.875647 
L 510.947443 211.231297 
L 527.856534 215.419561 
L 544.765625 210.103687 
L 561.674716 198.98869 
L 578.583807 223.957167 
L 595.492898 216.708255 
L 612.401989 212.358906 
" clip-path="url(#p5689fa1794)" style="fill: none; stroke: #ff7f0e; stroke-opacity: 0.3; stroke-width: 3; stroke-linecap: square"/>
   </g>
   <g id="line2d_56">
    <path d="M 105.129261 194.247017 
L 122.038352 200.863744 
L 138.947443 191.71733 
L 155.856534 190.257116 
L 172.765625 193.004551 
L 189.674716 194.625219 
L 206.583807 179.508539 
L 223.492898 183.275664 
L 240.401989 195.200849 
L 257.31108 190.729689 
L 274.22017 190.971862 
L 291.129261 186.092125 
L 308.038352 191.051016 
L 324.947443 192.331937 
L 341.856534 189.110179 
L 358.765625 184.077688 
L 375.674716 199.624371 
L 392.583807 194.273642 
L 409.492898 185.849214 
L 426.401989 190.859547 
L 443.31108 182.178024 
L 460.22017 182.613485 
L 477.129261 170.730738 
L 494.038352 184.646103 
L 510.947443 192.95402 
L 527.856534 194.451944 
L 544.765625 230.267468 
L 561.674716 241.91133 
L 578.583807 235.252231 
L 595.492898 235.28635 
L 612.401989 238.055357 
" clip-path="url(#p5689fa1794)" style="fill: none; stroke: #ff7f0e; stroke-opacity: 0.3; stroke-width: 3; stroke-linecap: square"/>
   </g>
   <g id="line2d_57">
    <path d="M 105.129261 182.36366 
L 122.038352 192.8194 
L 138.947443 191.972592 
L 155.856534 196.768803 
L 172.765625 193.003815 
L 189.674716 190.732519 
L 206.583807 191.7062 
L 223.492898 190.388792 
L 240.401989 192.477444 
L 257.31108 190.611982 
L 274.22017 196.298625 
L 291.129261 190.024665 
L 308.038352 193.715653 
L 324.947443 188.529608 
L 341.856534 190.981597 
L 358.765625 191.243474 
L 375.674716 189.720028 
L 392.583807 191.280415 
L 409.492898 193.304975 
L 426.401989 200.47369 
L 443.31108 202.779096 
L 460.22017 219.385925 
L 477.129261 210.025573 
L 494.038352 217.283547 
L 510.947443 210.265813 
L 527.856534 209.400861 
L 544.765625 207.289883 
L 561.674716 226.295078 
L 578.583807 229.616854 
L 595.492898 212.361035 
L 612.401989 211.608689 
" clip-path="url(#p5689fa1794)" style="fill: none; stroke: #ff7f0e; stroke-opacity: 0.3; stroke-width: 3; stroke-linecap: square"/>
   </g>
   <g id="line2d_58">
    <path d="M 105.129261 189.184123 
L 122.038352 195.666329 
L 138.947443 190.083271 
L 155.856534 195.01262 
L 172.765625 195.399328 
L 189.674716 191.640286 
L 206.583807 187.37553 
L 223.492898 183.783106 
L 240.401989 181.758298 
L 257.31108 194.158214 
L 274.22017 192.410821 
L 291.129261 195.505016 
L 308.038352 192.069291 
L 324.947443 193.151439 
L 341.856534 192.443735 
L 358.765625 195.024 
L 375.674716 186.994832 
L 392.583807 192.663365 
L 409.492898 182.852961 
L 426.401989 184.902997 
L 443.31108 178.314823 
L 460.22017 179.309606 
L 477.129261 182.127641 
L 494.038352 156.771216 
L 510.947443 165.933724 
L 527.856534 149.774568 
L 544.765625 150.507578 
L 561.674716 148.697161 
L 578.583807 144.339268 
L 595.492898 143.701486 
L 612.401989 143.657378 
" clip-path="url(#p5689fa1794)" style="fill: none; stroke: #ff7f0e; stroke-opacity: 0.3; stroke-width: 3; stroke-linecap: square"/>
   </g>
   <g id="line2d_59">
    <path d="M 105.129261 190.576353 
L 122.038352 193.946293 
L 138.947443 188.070311 
L 155.856534 191.069659 
L 172.765625 192.840396 
L 189.674716 193.00582 
L 206.583807 192.08424 
L 223.492898 190.823726 
L 240.401989 192.349385 
L 257.31108 190.539789 
L 274.22017 189.790954 
L 291.129261 188.173047 
L 308.038352 189.305006 
L 324.947443 196.521693 
L 341.856534 194.781861 
L 358.765625 190.790746 
L 375.674716 190.436912 
L 392.583807 186.83872 
L 409.492898 187.537365 
L 426.401989 182.294545 
L 443.31108 179.015297 
L 460.22017 174.237019 
L 477.129261 170.219598 
L 494.038352 173.583965 
L 510.947443 170.690577 
L 527.856534 167.670807 
L 544.765625 167.276118 
L 561.674716 170.051327 
L 578.583807 168.44361 
L 595.492898 173.504376 
L 612.401989 175.394502 
" clip-path="url(#p5689fa1794)" style="fill: none; stroke: #ff7f0e; stroke-opacity: 0.3; stroke-width: 3; stroke-linecap: square"/>
   </g>
   <g id="line2d_60">
    <path d="M 105.129261 181.265028 
L 122.038352 190.569943 
L 138.947443 192.49346 
L 155.856534 202.342821 
L 172.765625 199.266895 
L 189.674716 184.485753 
L 206.583807 194.00888 
L 223.492898 192.243257 
L 240.401989 188.860355 
L 257.31108 168.469113 
L 274.22017 186.82686 
L 291.129261 177.789482 
L 308.038352 186.704406 
L 324.947443 200.783473 
L 341.856534 202.879154 
L 358.765625 199.47464 
L 375.674716 195.265171 
L 392.583807 206.770127 
L 409.492898 194.077499 
L 426.401989 194.064357 
L 443.31108 215.543416 
L 460.22017 195.229406 
L 477.129261 184.89001 
L 494.038352 194.492026 
L 510.947443 190.872168 
L 527.856534 186.877404 
L 544.765625 194.839268 
L 561.674716 199.886447 
L 578.583807 203.588645 
L 595.492898 193.032695 
L 612.401989 205.563263 
" clip-path="url(#p5689fa1794)" style="fill: none; stroke: #ff7f0e; stroke-opacity: 0.3; stroke-width: 3; stroke-linecap: square"/>
   </g>
   <g id="line2d_61">
    <path d="M 105.129261 181.238232 
L 122.038352 188.771256 
L 138.947443 194.218778 
L 155.856534 190.941056 
L 172.765625 189.212687 
L 189.674716 190.282809 
L 206.583807 191.878344 
L 223.492898 191.0698 
L 240.401989 190.508582 
L 257.31108 192.546695 
L 274.22017 192.718007 
L 291.129261 194.664002 
L 308.038352 191.889858 
L 324.947443 194.216243 
L 341.856534 189.792762 
L 358.765625 192.409313 
L 375.674716 194.62645 
L 392.583807 196.351555 
L 409.492898 196.129554 
L 426.401989 204.354929 
L 443.31108 203.374538 
L 460.22017 210.701207 
L 477.129261 212.399889 
L 494.038352 217.416543 
L 510.947443 224.127961 
L 527.856534 225.55172 
L 544.765625 227.41882 
L 561.674716 228.564806 
L 578.583807 227.334658 
L 595.492898 233.772883 
L 612.401989 231.176843 
" clip-path="url(#p5689fa1794)" style="fill: none; stroke: #1f77b4; stroke-width: 3; stroke-linecap: square"/>
   </g>
   <g id="patch_3">
    <path d="M 79.765625 284.4 
L 79.765625 7.2 
" style="fill: none; stroke: #000000; stroke-width: 0.8; stroke-linejoin: miter; stroke-linecap: square"/>
   </g>
   <g id="patch_4">
    <path d="M 637.765625 284.4 
L 637.765625 7.2 
" style="fill: none; stroke: #000000; stroke-width: 0.8; stroke-linejoin: miter; stroke-linecap: square"/>
   </g>
   <g id="patch_5">
    <path d="M 79.765625 284.4 
L 637.765625 284.4 
" style="fill: none; stroke: #000000; stroke-width: 0.8; stroke-linejoin: miter; stroke-linecap: square"/>
   </g>
   <g id="patch_6">
    <path d="M 79.765625 7.2 
L 637.765625 7.2 
" style="fill: none; stroke: #000000; stroke-width: 0.8; stroke-linejoin: miter; stroke-linecap: square"/>
   </g>
   <g id="legend_1">
    <g id="line2d_62">
     <path d="M 471.712812 30.777187 
L 485.212812 30.777187 
L 498.712812 30.777187 
" style="fill: none; stroke: #1f77b4; stroke-width: 2; stroke-linecap: square"/>
    </g>
    <g id="text_13">
     <!-- California -->
     <g transform="translate(507.712812 37.077187) scale(0.18 -0.18)">
      <defs>
       <path id="DejaVuSans-43" d="M 4122 4306 
L 4122 3641 
Q 3803 3938 3442 4084 
Q 3081 4231 2675 4231 
Q 1875 4231 1450 3742 
Q 1025 3253 1025 2328 
Q 1025 1406 1450 917 
Q 1875 428 2675 428 
Q 3081 428 3442 575 
Q 3803 722 4122 1019 
L 4122 359 
Q 3791 134 3420 21 
Q 3050 -91 2638 -91 
Q 1578 -91 968 557 
Q 359 1206 359 2328 
Q 359 3453 968 4101 
Q 1578 4750 2638 4750 
Q 3056 4750 3426 4639 
Q 3797 4528 4122 4306 
z
" transform="scale(0.015625)"/>
       <path id="DejaVuSans-6c" d="M 603 4863 
L 1178 4863 
L 1178 0 
L 603 0 
L 603 4863 
z
" transform="scale(0.015625)"/>
       <path id="DejaVuSans-6f" d="M 1959 3097 
Q 1497 3097 1228 2736 
Q 959 2375 959 1747 
Q 959 1119 1226 758 
Q 1494 397 1959 397 
Q 2419 397 2687 759 
Q 2956 1122 2956 1747 
Q 2956 2369 2687 2733 
Q 2419 3097 1959 3097 
z
M 1959 3584 
Q 2709 3584 3137 3096 
Q 3566 2609 3566 1747 
Q 3566 888 3137 398 
Q 2709 -91 1959 -91 
Q 1206 -91 779 398 
Q 353 888 353 1747 
Q 353 2609 779 3096 
Q 1206 3584 1959 3584 
z
" transform="scale(0.015625)"/>
       <path id="DejaVuSans-72" d="M 2631 2963 
Q 2534 3019 2420 3045 
Q 2306 3072 2169 3072 
Q 1681 3072 1420 2755 
Q 1159 2438 1159 1844 
L 1159 0 
L 581 0 
L 581 3500 
L 1159 3500 
L 1159 2956 
Q 1341 3275 1631 3429 
Q 1922 3584 2338 3584 
Q 2397 3584 2469 3576 
Q 2541 3569 2628 3553 
L 2631 2963 
z
" transform="scale(0.015625)"/>
       <path id="DejaVuSans-6e" d="M 3513 2113 
L 3513 0 
L 2938 0 
L 2938 2094 
Q 2938 2591 2744 2837 
Q 2550 3084 2163 3084 
Q 1697 3084 1428 2787 
Q 1159 2491 1159 1978 
L 1159 0 
L 581 0 
L 581 3500 
L 1159 3500 
L 1159 2956 
Q 1366 3272 1645 3428 
Q 1925 3584 2291 3584 
Q 2894 3584 3203 3211 
Q 3513 2838 3513 2113 
z
" transform="scale(0.015625)"/>
      </defs>
      <use xlink:href="#DejaVuSans-43"/>
      <use xlink:href="#DejaVuSans-61" transform="translate(69.824219 0)"/>
      <use xlink:href="#DejaVuSans-6c" transform="translate(131.103516 0)"/>
      <use xlink:href="#DejaVuSans-69" transform="translate(158.886719 0)"/>
      <use xlink:href="#DejaVuSans-66" transform="translate(186.669922 0)"/>
      <use xlink:href="#DejaVuSans-6f" transform="translate(221.875 0)"/>
      <use xlink:href="#DejaVuSans-72" transform="translate(283.056641 0)"/>
      <use xlink:href="#DejaVuSans-6e" transform="translate(322.419922 0)"/>
      <use xlink:href="#DejaVuSans-69" transform="translate(385.798828 0)"/>
      <use xlink:href="#DejaVuSans-61" transform="translate(413.582031 0)"/>
     </g>
    </g>
    <g id="line2d_63">
     <path d="M 471.712812 57.197812 
L 485.212812 57.197812 
L 498.712812 57.197812 
" style="fill: none; stroke-dasharray: 7.4,3.2; stroke-dashoffset: 0; stroke: #ff7f0e; stroke-width: 2"/>
    </g>
    <g id="text_14">
     <!-- Other States -->
     <g transform="translate(507.712812 63.497812) scale(0.18 -0.18)">
      <defs>
       <path id="DejaVuSans-4f" d="M 2522 4238 
Q 1834 4238 1429 3725 
Q 1025 3213 1025 2328 
Q 1025 1447 1429 934 
Q 1834 422 2522 422 
Q 3209 422 3611 934 
Q 4013 1447 4013 2328 
Q 4013 3213 3611 3725 
Q 3209 4238 2522 4238 
z
M 2522 4750 
Q 3503 4750 4090 4092 
Q 4678 3434 4678 2328 
Q 4678 1225 4090 567 
Q 3503 -91 2522 -91 
Q 1538 -91 948 565 
Q 359 1222 359 2328 
Q 359 3434 948 4092 
Q 1538 4750 2522 4750 
z
" transform="scale(0.015625)"/>
       <path id="DejaVuSans-68" d="M 3513 2113 
L 3513 0 
L 2938 0 
L 2938 2094 
Q 2938 2591 2744 2837 
Q 2550 3084 2163 3084 
Q 1697 3084 1428 2787 
Q 1159 2491 1159 1978 
L 1159 0 
L 581 0 
L 581 4863 
L 1159 4863 
L 1159 2956 
Q 1366 3272 1645 3428 
Q 1925 3584 2291 3584 
Q 2894 3584 3203 3211 
Q 3513 2838 3513 2113 
z
" transform="scale(0.015625)"/>
       <path id="DejaVuSans-53" d="M 3425 4513 
L 3425 3897 
Q 3066 4069 2747 4153 
Q 2428 4238 2131 4238 
Q 1616 4238 1336 4038 
Q 1056 3838 1056 3469 
Q 1056 3159 1242 3001 
Q 1428 2844 1947 2747 
L 2328 2669 
Q 3034 2534 3370 2195 
Q 3706 1856 3706 1288 
Q 3706 609 3251 259 
Q 2797 -91 1919 -91 
Q 1588 -91 1214 -16 
Q 841 59 441 206 
L 441 856 
Q 825 641 1194 531 
Q 1563 422 1919 422 
Q 2459 422 2753 634 
Q 3047 847 3047 1241 
Q 3047 1584 2836 1778 
Q 2625 1972 2144 2069 
L 1759 2144 
Q 1053 2284 737 2584 
Q 422 2884 422 3419 
Q 422 4038 858 4394 
Q 1294 4750 2059 4750 
Q 2388 4750 2728 4690 
Q 3069 4631 3425 4513 
z
" transform="scale(0.015625)"/>
      </defs>
      <use xlink:href="#DejaVuSans-4f"/>
      <use xlink:href="#DejaVuSans-74" transform="translate(78.710938 0)"/>
      <use xlink:href="#DejaVuSans-68" transform="translate(117.919922 0)"/>
      <use xlink:href="#DejaVuSans-65" transform="translate(181.298828 0)"/>
      <use xlink:href="#DejaVuSans-72" transform="translate(242.822266 0)"/>
      <use xlink:href="#DejaVuSans-20" transform="translate(283.935547 0)"/>
      <use xlink:href="#DejaVuSans-53" transform="translate(315.722656 0)"/>
      <use xlink:href="#DejaVuSans-74" transform="translate(379.199219 0)"/>
      <use xlink:href="#DejaVuSans-61" transform="translate(418.408203 0)"/>
      <use xlink:href="#DejaVuSans-74" transform="translate(479.6875 0)"/>
      <use xlink:href="#DejaVuSans-65" transform="translate(518.896484 0)"/>
      <use xlink:href="#DejaVuSans-73" transform="translate(580.419922 0)"/>
     </g>
    </g>
   </g>
  </g>
 </g>
 <defs>
  <clipPath id="p5689fa1794">
   <rect x="79.765625" y="7.2" width="558" height="277.2"/>
  </clipPath>
 </defs>
</svg>
