<?xml version="1.0" encoding="utf-8" standalone="no"?>
<!DOCTYPE svg PUBLIC "-//W3C//DTD SVG 1.1//EN"
  "http://www.w3.org/Graphics/SVG/1.1/DTD/svg11.dtd">
<svg xmlns:xlink="http://www.w3.org/1999/xlink" width="462.24705pt" height="308.928873pt" viewBox="0 0 462.24705 308.928873" xmlns="http://www.w3.org/2000/svg" version="1.1">
 <metadata>
  <rdf:RDF xmlns:dc="http://purl.org/dc/elements/1.1/" xmlns:cc="http://creativecommons.org/ns#" xmlns:rdf="http://www.w3.org/1999/02/22-rdf-syntax-ns#">
   <cc:Work>
    <dc:type rdf:resource="http://purl.org/dc/dcmitype/StillImage"/>
    <dc:date>2024-12-22T19:10:06.074009</dc:date>
    <dc:format>image/svg+xml</dc:format>
    <dc:creator>
     <cc:Agent>
      <dc:title>Matplotlib v3.9.3, https://matplotlib.org/</dc:title>
     </cc:Agent>
    </dc:creator>
   </cc:Work>
  </rdf:RDF>
 </metadata>
 <defs>
  <style type="text/css">*{stroke-linejoin: round; stroke-linecap: butt}</style>
 </defs>
 <g id="figure_1">
  <g id="patch_1">
   <path d="M 0 308.928873 
L 462.24705 308.928873 
L 462.24705 0 
L 0 0 
z
" style="fill: #ffffff"/>
  </g>
  <g id="axes_1">
   <g id="patch_2">
    <path d="M 67.040625 252.016372 
L 352.736625 252.016372 
L 352.736625 39.126773 
L 67.040625 39.126773 
L 67.040625 252.016372 
z
" style="fill: none"/>
   </g>
   <g id="QuadContourSet_1">
    <path d="M 69.926443 252.016372 
L 72.812261 252.016372 
L 75.69808 252.016372 
L 78.583898 252.016372 
L 81.469716 252.016372 
L 84.355534 252.016372 
L 87.241352 252.016372 
L 90.12717 252.016372 
L 93.012989 252.016372 
L 95.898807 252.016372 
L 98.784625 252.016372 
L 101.670443 252.016372 
L 104.556261 252.016372 
L 107.44208 252.016372 
L 110.327898 252.016372 
L 113.213716 252.016372 
L 116.099534 252.016372 
L 118.985352 252.016372 
L 121.87117 252.016372 
L 124.756989 252.016372 
L 127.642807 252.016372 
L 130.528625 252.016372 
L 133.414443 252.016372 
L 136.300261 252.016372 
L 139.18608 252.016372 
L 142.071898 252.016372 
L 144.957716 252.016372 
L 147.843534 252.016372 
L 150.729352 252.016372 
L 153.61517 252.016372 
L 156.500989 252.016372 
L 159.386807 252.016372 
L 162.272625 252.016372 
L 165.158443 252.016372 
L 168.044261 252.016372 
L 170.93008 252.016372 
L 173.815898 252.016372 
L 176.701716 252.016372 
L 177.134589 252.016372 
L 177.134589 249.865972 
L 177.134589 247.715572 
L 177.134589 245.565172 
L 177.134589 243.414772 
L 177.134589 241.264372 
L 177.134589 239.113972 
L 177.134589 236.963572 
L 177.134589 234.813172 
L 177.134589 232.662772 
L 177.134589 230.512372 
L 177.134589 228.361972 
L 177.134589 226.211572 
L 177.134589 224.061172 
L 177.134589 221.910773 
L 177.134589 219.760372 
L 177.134589 217.609972 
L 177.134589 215.459572 
L 177.134589 213.309172 
L 177.134589 211.158772 
L 177.134589 209.008372 
L 177.134589 206.857972 
L 177.134589 204.707572 
L 177.134589 202.557172 
L 177.134589 200.406772 
L 177.134589 198.256372 
L 177.134589 196.105972 
L 177.134589 193.955572 
L 177.134589 191.805172 
L 177.134589 189.654772 
L 177.134589 187.504372 
L 177.134589 185.353972 
L 177.134589 183.203572 
L 177.134589 181.053172 
L 177.134589 178.902772 
L 177.134589 176.752372 
L 177.134589 174.601972 
L 177.134589 172.451572 
L 177.134589 170.301173 
L 177.134589 168.150772 
L 177.134589 166.000372 
L 177.134589 163.849972 
L 177.134589 161.699572 
L 177.134589 159.549172 
L 177.134589 157.398773 
L 177.134589 155.248372 
L 177.134589 153.097972 
L 177.134589 150.947572 
L 177.134589 148.797172 
L 177.134589 146.646772 
L 177.134589 144.496372 
L 177.134589 142.345972 
L 177.134589 140.195572 
L 177.134589 138.045173 
L 177.134589 135.894772 
L 177.134589 133.744372 
L 177.134589 131.593973 
L 177.134589 129.443572 
L 177.134589 127.293172 
L 177.134589 125.142772 
L 177.134589 122.992373 
L 177.134589 120.841972 
L 177.134589 118.691572 
L 177.134589 116.541172 
L 177.134589 114.390772 
L 177.134589 112.240373 
L 177.134589 110.089972 
L 177.134589 107.939572 
L 177.134589 105.789172 
L 177.134589 103.638773 
L 177.134589 101.488372 
L 177.134589 99.337973 
L 177.134589 97.187572 
L 177.134589 95.037172 
L 177.134589 92.886773 
L 177.134589 90.736372 
L 177.134589 88.585972 
L 177.134589 86.435572 
L 177.134589 84.285173 
L 177.134589 82.134772 
L 177.134589 79.984373 
L 177.134589 77.833973 
L 177.134589 75.683572 
L 177.134589 73.533173 
L 177.134589 71.382772 
L 177.134589 69.232372 
L 177.134589 67.081972 
L 177.134589 64.931573 
L 177.134589 62.781173 
L 177.134589 60.630772 
L 177.134589 58.480373 
L 177.134589 56.329972 
L 177.134589 54.179573 
L 177.134589 52.029172 
L 177.134589 49.878772 
L 177.134589 47.728372 
L 177.134589 45.577973 
L 177.134589 43.427572 
L 177.134589 41.277173 
L 177.134589 39.126773 
L 176.701716 39.126773 
L 173.815898 39.126773 
L 170.93008 39.126773 
L 168.044261 39.126773 
L 165.158443 39.126773 
L 162.272625 39.126773 
L 159.386807 39.126773 
L 156.500989 39.126773 
L 153.61517 39.126773 
L 150.729352 39.126773 
L 147.843534 39.126773 
L 144.957716 39.126773 
L 142.071898 39.126773 
L 139.18608 39.126773 
L 136.300261 39.126773 
L 133.414443 39.126773 
L 130.528625 39.126773 
L 127.642807 39.126773 
L 124.756989 39.126773 
L 121.87117 39.126773 
L 118.985352 39.126773 
L 116.099534 39.126773 
L 113.213716 39.126773 
L 110.327898 39.126773 
L 107.44208 39.126773 
L 104.556261 39.126773 
L 101.670443 39.126773 
L 98.784625 39.126773 
L 95.898807 39.126773 
L 93.012989 39.126773 
L 90.12717 39.126773 
L 87.241352 39.126773 
L 84.355534 39.126773 
L 81.469716 39.126773 
L 78.583898 39.126773 
L 75.69808 39.126773 
L 72.812261 39.126773 
L 69.926443 39.126773 
L 67.040625 39.126773 
L 67.040625 41.277173 
L 67.040625 43.427572 
L 67.040625 45.577973 
L 67.040625 47.728372 
L 67.040625 49.878772 
L 67.040625 52.029172 
L 67.040625 54.179573 
L 67.040625 56.329972 
L 67.040625 58.480373 
L 67.040625 60.630772 
L 67.040625 62.781173 
L 67.040625 64.931573 
L 67.040625 67.081972 
L 67.040625 69.232372 
L 67.040625 71.382772 
L 67.040625 73.533173 
L 67.040625 75.683572 
L 67.040625 77.833973 
L 67.040625 79.984373 
L 67.040625 82.134772 
L 67.040625 84.285173 
L 67.040625 86.435572 
L 67.040625 88.585972 
L 67.040625 90.736372 
L 67.040625 92.886773 
L 67.040625 95.037172 
L 67.040625 97.187572 
L 67.040625 99.337973 
L 67.040625 101.488372 
L 67.040625 103.638773 
L 67.040625 105.789172 
L 67.040625 107.939572 
L 67.040625 110.089972 
L 67.040625 112.240373 
L 67.040625 114.390772 
L 67.040625 116.541172 
L 67.040625 118.691572 
L 67.040625 120.841972 
L 67.040625 122.992373 
L 67.040625 125.142772 
L 67.040625 127.293172 
L 67.040625 129.443572 
L 67.040625 131.593973 
L 67.040625 133.744372 
L 67.040625 135.894772 
L 67.040625 138.045173 
L 67.040625 140.195572 
L 67.040625 142.345972 
L 67.040625 144.496372 
L 67.040625 146.646772 
L 67.040625 148.797172 
L 67.040625 150.947572 
L 67.040625 153.097972 
L 67.040625 155.248372 
L 67.040625 157.398773 
L 67.040625 159.549172 
L 67.040625 161.699572 
L 67.040625 163.849972 
L 67.040625 166.000372 
L 67.040625 168.150772 
L 67.040625 170.301173 
L 67.040625 172.451572 
L 67.040625 174.601972 
L 67.040625 176.752372 
L 67.040625 178.902772 
L 67.040625 181.053172 
L 67.040625 183.203572 
L 67.040625 185.353972 
L 67.040625 187.504372 
L 67.040625 189.654772 
L 67.040625 191.805172 
L 67.040625 193.955572 
L 67.040625 196.105972 
L 67.040625 198.256372 
L 67.040625 200.406772 
L 67.040625 202.557172 
L 67.040625 204.707572 
L 67.040625 206.857972 
L 67.040625 209.008372 
L 67.040625 211.158772 
L 67.040625 213.309172 
L 67.040625 215.459572 
L 67.040625 217.609972 
L 67.040625 219.760372 
L 67.040625 221.910773 
L 67.040625 224.061172 
L 67.040625 226.211572 
L 67.040625 228.361972 
L 67.040625 230.512372 
L 67.040625 232.662772 
L 67.040625 234.813172 
L 67.040625 236.963572 
L 67.040625 239.113972 
L 67.040625 241.264372 
L 67.040625 243.414772 
L 67.040625 245.565172 
L 67.040625 247.715572 
L 67.040625 249.865972 
L 67.040625 252.016372 
z
" clip-path="url(#p0979c19876)" style="fill: #9c1127; fill-opacity: 0.5"/>
    <path d="M 177.567461 249.865972 
L 177.567461 247.715572 
L 177.567461 245.565172 
L 177.567461 243.414772 
L 177.567461 241.264372 
L 177.567461 239.113972 
L 177.567461 236.963572 
L 177.567461 234.813172 
L 177.567461 232.662772 
L 177.567461 230.512372 
L 177.567461 228.361972 
L 177.567461 226.211572 
L 177.567461 224.061172 
L 177.567461 221.910773 
L 177.567461 219.760372 
L 177.567461 217.609972 
L 177.567461 215.459572 
L 177.567461 213.309172 
L 177.567461 211.158772 
L 177.567461 209.008372 
L 177.567461 206.857972 
L 177.567461 204.707572 
L 177.567461 202.557172 
L 177.567461 200.406772 
L 177.567461 198.256372 
L 177.567461 196.105972 
L 177.567461 193.955572 
L 177.567461 191.805172 
L 177.567461 189.654772 
L 177.567461 187.504372 
L 177.567461 185.353972 
L 177.567461 183.203572 
L 177.567461 181.053172 
L 177.567461 178.902772 
L 177.567461 176.752372 
L 177.567461 174.601972 
L 177.567461 172.451572 
L 177.567461 170.301173 
L 177.567461 168.150772 
L 177.567461 166.000372 
L 177.567461 163.849972 
L 177.567461 161.699572 
L 177.567461 159.549172 
L 177.567461 157.398773 
L 177.567461 155.248372 
L 177.567461 153.097972 
L 177.567461 150.947572 
L 177.567461 148.797172 
L 177.567461 146.646772 
L 177.567461 144.496372 
L 177.567461 142.345972 
L 177.567461 140.195572 
L 177.567461 138.045173 
L 177.567461 135.894772 
L 177.567461 133.744372 
L 177.567461 131.593973 
L 177.567461 129.443572 
L 177.567461 127.293172 
L 177.567461 125.142772 
L 177.567461 122.992373 
L 177.567461 120.841972 
L 177.567461 118.691572 
L 177.567461 116.541172 
L 177.567461 114.390772 
L 177.567461 112.240373 
L 177.567461 110.089972 
L 177.567461 107.939572 
L 177.567461 105.789172 
L 177.567461 103.638773 
L 177.567461 101.488372 
L 177.567461 99.337973 
L 177.567461 97.187572 
L 177.567461 95.037172 
L 177.567461 92.886773 
L 177.567461 90.736372 
L 177.567461 88.585972 
L 177.567461 86.435572 
L 177.567461 84.285173 
L 177.567461 82.134772 
L 177.567461 79.984373 
L 177.567461 77.833973 
L 177.567461 75.683572 
L 177.567461 73.533173 
L 177.567461 71.382772 
L 177.567461 69.232372 
L 177.567461 67.081972 
L 177.567461 64.931573 
L 177.567461 62.781173 
L 177.567461 60.630772 
L 177.567461 58.480373 
L 177.567461 56.329972 
L 177.567461 54.179573 
L 177.567461 52.029172 
L 177.567461 49.878772 
L 177.567461 47.728372 
L 177.567461 45.577973 
L 177.567461 43.427572 
L 177.567461 41.277173 
L 177.567461 39.126773 
L 177.134589 39.126773 
L 177.134589 41.277173 
L 177.134589 43.427572 
L 177.134589 45.577973 
L 177.134589 47.728372 
L 177.134589 49.878772 
L 177.134589 52.029172 
L 177.134589 54.179573 
L 177.134589 56.329972 
L 177.134589 58.480373 
L 177.134589 60.630772 
L 177.134589 62.781173 
L 177.134589 64.931573 
L 177.134589 67.081972 
L 177.134589 69.232372 
L 177.134589 71.382772 
L 177.134589 73.533173 
L 177.134589 75.683572 
L 177.134589 77.833973 
L 177.134589 79.984373 
L 177.134589 82.134772 
L 177.134589 84.285173 
L 177.134589 86.435572 
L 177.134589 88.585972 
L 177.134589 90.736372 
L 177.134589 92.886773 
L 177.134589 95.037172 
L 177.134589 97.187572 
L 177.134589 99.337973 
L 177.134589 101.488372 
L 177.134589 103.638773 
L 177.134589 105.789172 
L 177.134589 107.939572 
L 177.134589 110.089972 
L 177.134589 112.240373 
L 177.134589 114.390772 
L 177.134589 116.541172 
L 177.134589 118.691572 
L 177.134589 120.841972 
L 177.134589 122.992373 
L 177.134589 125.142772 
L 177.134589 127.293172 
L 177.134589 129.443572 
L 177.134589 131.593973 
L 177.134589 133.744372 
L 177.134589 135.894772 
L 177.134589 138.045173 
L 177.134589 140.195572 
L 177.134589 142.345972 
L 177.134589 144.496372 
L 177.134589 146.646772 
L 177.134589 148.797172 
L 177.134589 150.947572 
L 177.134589 153.097972 
L 177.134589 155.248372 
L 177.134589 157.398773 
L 177.134589 159.549172 
L 177.134589 161.699572 
L 177.134589 163.849972 
L 177.134589 166.000372 
L 177.134589 168.150772 
L 177.134589 170.301173 
L 177.134589 172.451572 
L 177.134589 174.601972 
L 177.134589 176.752372 
L 177.134589 178.902772 
L 177.134589 181.053172 
L 177.134589 183.203572 
L 177.134589 185.353972 
L 177.134589 187.504372 
L 177.134589 189.654772 
L 177.134589 191.805172 
L 177.134589 193.955572 
L 177.134589 196.105972 
L 177.134589 198.256372 
L 177.134589 200.406772 
L 177.134589 202.557172 
L 177.134589 204.707572 
L 177.134589 206.857972 
L 177.134589 209.008372 
L 177.134589 211.158772 
L 177.134589 213.309172 
L 177.134589 215.459572 
L 177.134589 217.609972 
L 177.134589 219.760372 
L 177.134589 221.910773 
L 177.134589 224.061172 
L 177.134589 226.211572 
L 177.134589 228.361972 
L 177.134589 230.512372 
L 177.134589 232.662772 
L 177.134589 234.813172 
L 177.134589 236.963572 
L 177.134589 239.113972 
L 177.134589 241.264372 
L 177.134589 243.414772 
L 177.134589 245.565172 
L 177.134589 247.715572 
L 177.134589 249.865972 
L 177.134589 252.016372 
L 177.567461 252.016372 
z
" clip-path="url(#p0979c19876)" style="fill: #da6853; fill-opacity: 0.5"/>
    <path d="M 178.000334 249.865972 
L 178.000334 247.715572 
L 178.000334 245.565172 
L 178.000334 243.414772 
L 178.000334 241.264372 
L 178.000334 239.113972 
L 178.000334 236.963572 
L 178.000334 234.813172 
L 178.000334 232.662772 
L 178.000334 230.512372 
L 178.000334 228.361972 
L 178.000334 226.211572 
L 178.000334 224.061172 
L 178.000334 221.910773 
L 178.000334 219.760372 
L 178.000334 217.609972 
L 178.000334 215.459572 
L 178.000334 213.309172 
L 178.000334 211.158772 
L 178.000334 209.008372 
L 178.000334 206.857972 
L 178.000334 204.707572 
L 178.000334 202.557172 
L 178.000334 200.406772 
L 178.000334 198.256372 
L 178.000334 196.105972 
L 178.000334 193.955572 
L 178.000334 191.805172 
L 178.000334 189.654772 
L 178.000334 187.504372 
L 178.000334 185.353972 
L 178.000334 183.203572 
L 178.000334 181.053172 
L 178.000334 178.902772 
L 178.000334 176.752372 
L 178.000334 174.601972 
L 178.000334 172.451572 
L 178.000334 170.301173 
L 178.000334 168.150772 
L 178.000334 166.000372 
L 178.000334 163.849972 
L 178.000334 161.699572 
L 178.000334 159.549172 
L 178.000334 157.398773 
L 178.000334 155.248372 
L 178.000334 153.097972 
L 178.000334 150.947572 
L 178.000334 148.797172 
L 178.000334 146.646772 
L 178.000334 144.496372 
L 178.000334 142.345972 
L 178.000334 140.195572 
L 178.000334 138.045173 
L 178.000334 135.894772 
L 178.000334 133.744372 
L 178.000334 131.593973 
L 178.000334 129.443572 
L 178.000334 127.293172 
L 178.000334 125.142772 
L 178.000334 122.992373 
L 178.000334 120.841972 
L 178.000334 118.691572 
L 178.000334 116.541172 
L 178.000334 114.390772 
L 178.000334 112.240373 
L 178.000334 110.089972 
L 178.000334 107.939572 
L 178.000334 105.789172 
L 178.000334 103.638773 
L 178.000334 101.488372 
L 178.000334 99.337973 
L 178.000334 97.187572 
L 178.000334 95.037172 
L 178.000334 92.886773 
L 178.000334 90.736372 
L 178.000334 88.585972 
L 178.000334 86.435572 
L 178.000334 84.285173 
L 178.000334 82.134772 
L 178.000334 79.984373 
L 178.000334 77.833973 
L 178.000334 75.683572 
L 178.000334 73.533173 
L 178.000334 71.382772 
L 178.000334 69.232372 
L 178.000334 67.081972 
L 178.000334 64.931573 
L 178.000334 62.781173 
L 178.000334 60.630772 
L 178.000334 58.480373 
L 178.000334 56.329972 
L 178.000334 54.179573 
L 178.000334 52.029172 
L 178.000334 49.878772 
L 178.000334 47.728372 
L 178.000334 45.577973 
L 178.000334 43.427572 
L 178.000334 41.277173 
L 178.000334 39.126773 
L 177.567461 39.126773 
L 177.567461 41.277173 
L 177.567461 43.427572 
L 177.567461 45.577973 
L 177.567461 47.728372 
L 177.567461 49.878772 
L 177.567461 52.029172 
L 177.567461 54.179573 
L 177.567461 56.329972 
L 177.567461 58.480373 
L 177.567461 60.630772 
L 177.567461 62.781173 
L 177.567461 64.931573 
L 177.567461 67.081972 
L 177.567461 69.232372 
L 177.567461 71.382772 
L 177.567461 73.533173 
L 177.567461 75.683572 
L 177.567461 77.833973 
L 177.567461 79.984373 
L 177.567461 82.134772 
L 177.567461 84.285173 
L 177.567461 86.435572 
L 177.567461 88.585972 
L 177.567461 90.736372 
L 177.567461 92.886773 
L 177.567461 95.037172 
L 177.567461 97.187572 
L 177.567461 99.337973 
L 177.567461 101.488372 
L 177.567461 103.638773 
L 177.567461 105.789172 
L 177.567461 107.939572 
L 177.567461 110.089972 
L 177.567461 112.240373 
L 177.567461 114.390772 
L 177.567461 116.541172 
L 177.567461 118.691572 
L 177.567461 120.841972 
L 177.567461 122.992373 
L 177.567461 125.142772 
L 177.567461 127.293172 
L 177.567461 129.443572 
L 177.567461 131.593973 
L 177.567461 133.744372 
L 177.567461 135.894772 
L 177.567461 138.045173 
L 177.567461 140.195572 
L 177.567461 142.345972 
L 177.567461 144.496372 
L 177.567461 146.646772 
L 177.567461 148.797172 
L 177.567461 150.947572 
L 177.567461 153.097972 
L 177.567461 155.248372 
L 177.567461 157.398773 
L 177.567461 159.549172 
L 177.567461 161.699572 
L 177.567461 163.849972 
L 177.567461 166.000372 
L 177.567461 168.150772 
L 177.567461 170.301173 
L 177.567461 172.451572 
L 177.567461 174.601972 
L 177.567461 176.752372 
L 177.567461 178.902772 
L 177.567461 181.053172 
L 177.567461 183.203572 
L 177.567461 185.353972 
L 177.567461 187.504372 
L 177.567461 189.654772 
L 177.567461 191.805172 
L 177.567461 193.955572 
L 177.567461 196.105972 
L 177.567461 198.256372 
L 177.567461 200.406772 
L 177.567461 202.557172 
L 177.567461 204.707572 
L 177.567461 206.857972 
L 177.567461 209.008372 
L 177.567461 211.158772 
L 177.567461 213.309172 
L 177.567461 215.459572 
L 177.567461 217.609972 
L 177.567461 219.760372 
L 177.567461 221.910773 
L 177.567461 224.061172 
L 177.567461 226.211572 
L 177.567461 228.361972 
L 177.567461 230.512372 
L 177.567461 232.662772 
L 177.567461 234.813172 
L 177.567461 236.963572 
L 177.567461 239.113972 
L 177.567461 241.264372 
L 177.567461 243.414772 
L 177.567461 245.565172 
L 177.567461 247.715572 
L 177.567461 249.865972 
L 177.567461 252.016372 
L 178.000334 252.016372 
z
" clip-path="url(#p0979c19876)" style="fill: #f9c4a9; fill-opacity: 0.5"/>
    <path d="M 178.433207 249.865972 
L 178.433207 247.715572 
L 178.433207 245.565172 
L 178.433207 243.414772 
L 178.433207 241.264372 
L 178.433207 239.113972 
L 178.433207 236.963572 
L 178.433207 234.813172 
L 178.433207 232.662772 
L 178.433207 230.512372 
L 178.433207 228.361972 
L 178.433207 226.211572 
L 178.433207 224.061172 
L 178.433207 221.910773 
L 178.433207 219.760372 
L 178.433207 217.609972 
L 178.433207 215.459572 
L 178.433207 213.309172 
L 178.433207 211.158772 
L 178.433207 209.008372 
L 178.433207 206.857972 
L 178.433207 204.707572 
L 178.433207 202.557172 
L 178.433207 200.406772 
L 178.433207 198.256372 
L 178.433207 196.105972 
L 178.433207 193.955572 
L 178.433207 191.805172 
L 178.433207 189.654772 
L 178.433207 187.504372 
L 178.433207 185.353972 
L 178.433207 183.203572 
L 178.433207 181.053172 
L 178.433207 178.902772 
L 178.433207 176.752372 
L 178.433207 174.601972 
L 178.433207 172.451572 
L 178.433207 170.301173 
L 178.433207 168.150772 
L 178.433207 166.000372 
L 178.433207 163.849972 
L 178.433207 161.699572 
L 178.433207 159.549172 
L 178.433207 157.398773 
L 178.433207 155.248372 
L 178.433207 153.097972 
L 178.433207 150.947572 
L 178.433207 148.797172 
L 178.433207 146.646772 
L 178.433207 144.496372 
L 178.433207 142.345972 
L 178.433207 140.195572 
L 178.433207 138.045173 
L 178.433207 135.894772 
L 178.433207 133.744372 
L 178.433207 131.593973 
L 178.433207 129.443572 
L 178.433207 127.293172 
L 178.433207 125.142772 
L 178.433207 122.992373 
L 178.433207 120.841972 
L 178.433207 118.691572 
L 178.433207 116.541172 
L 178.433207 114.390772 
L 178.433207 112.240373 
L 178.433207 110.089972 
L 178.433207 107.939572 
L 178.433207 105.789172 
L 178.433207 103.638773 
L 178.433207 101.488372 
L 178.433207 99.337973 
L 178.433207 97.187572 
L 178.433207 95.037172 
L 178.433207 92.886773 
L 178.433207 90.736372 
L 178.433207 88.585972 
L 178.433207 86.435572 
L 178.433207 84.285173 
L 178.433207 82.134772 
L 178.433207 79.984373 
L 178.433207 77.833973 
L 178.433207 75.683572 
L 178.433207 73.533173 
L 178.433207 71.382772 
L 178.433207 69.232372 
L 178.433207 67.081972 
L 178.433207 64.931573 
L 178.433207 62.781173 
L 178.433207 60.630772 
L 178.433207 58.480373 
L 178.433207 56.329972 
L 178.433207 54.179573 
L 178.433207 52.029172 
L 178.433207 49.878772 
L 178.433207 47.728372 
L 178.433207 45.577973 
L 178.433207 43.427572 
L 178.433207 41.277173 
L 178.433207 39.126773 
L 178.000334 39.126773 
L 178.000334 41.277173 
L 178.000334 43.427572 
L 178.000334 45.577973 
L 178.000334 47.728372 
L 178.000334 49.878772 
L 178.000334 52.029172 
L 178.000334 54.179573 
L 178.000334 56.329972 
L 178.000334 58.480373 
L 178.000334 60.630772 
L 178.000334 62.781173 
L 178.000334 64.931573 
L 178.000334 67.081972 
L 178.000334 69.232372 
L 178.000334 71.382772 
L 178.000334 73.533173 
L 178.000334 75.683572 
L 178.000334 77.833973 
L 178.000334 79.984373 
L 178.000334 82.134772 
L 178.000334 84.285173 
L 178.000334 86.435572 
L 178.000334 88.585972 
L 178.000334 90.736372 
L 178.000334 92.886773 
L 178.000334 95.037172 
L 178.000334 97.187572 
L 178.000334 99.337973 
L 178.000334 101.488372 
L 178.000334 103.638773 
L 178.000334 105.789172 
L 178.000334 107.939572 
L 178.000334 110.089972 
L 178.000334 112.240373 
L 178.000334 114.390772 
L 178.000334 116.541172 
L 178.000334 118.691572 
L 178.000334 120.841972 
L 178.000334 122.992373 
L 178.000334 125.142772 
L 178.000334 127.293172 
L 178.000334 129.443572 
L 178.000334 131.593973 
L 178.000334 133.744372 
L 178.000334 135.894772 
L 178.000334 138.045173 
L 178.000334 140.195572 
L 178.000334 142.345972 
L 178.000334 144.496372 
L 178.000334 146.646772 
L 178.000334 148.797172 
L 178.000334 150.947572 
L 178.000334 153.097972 
L 178.000334 155.248372 
L 178.000334 157.398773 
L 178.000334 159.549172 
L 178.000334 161.699572 
L 178.000334 163.849972 
L 178.000334 166.000372 
L 178.000334 168.150772 
L 178.000334 170.301173 
L 178.000334 172.451572 
L 178.000334 174.601972 
L 178.000334 176.752372 
L 178.000334 178.902772 
L 178.000334 181.053172 
L 178.000334 183.203572 
L 178.000334 185.353972 
L 178.000334 187.504372 
L 178.000334 189.654772 
L 178.000334 191.805172 
L 178.000334 193.955572 
L 178.000334 196.105972 
L 178.000334 198.256372 
L 178.000334 200.406772 
L 178.000334 202.557172 
L 178.000334 204.707572 
L 178.000334 206.857972 
L 178.000334 209.008372 
L 178.000334 211.158772 
L 178.000334 213.309172 
L 178.000334 215.459572 
L 178.000334 217.609972 
L 178.000334 219.760372 
L 178.000334 221.910773 
L 178.000334 224.061172 
L 178.000334 226.211572 
L 178.000334 228.361972 
L 178.000334 230.512372 
L 178.000334 232.662772 
L 178.000334 234.813172 
L 178.000334 236.963572 
L 178.000334 239.113972 
L 178.000334 241.264372 
L 178.000334 243.414772 
L 178.000334 245.565172 
L 178.000334 247.715572 
L 178.000334 249.865972 
L 178.000334 252.016372 
L 178.433207 252.016372 
z
" clip-path="url(#p0979c19876)" style="fill: #f6f7f7; fill-opacity: 0.5"/>
    <path d="M 178.86608 249.865972 
L 178.86608 247.715572 
L 178.86608 245.565172 
L 178.86608 243.414772 
L 178.86608 241.264372 
L 178.86608 239.113972 
L 178.86608 236.963572 
L 178.86608 234.813172 
L 178.86608 232.662772 
L 178.86608 230.512372 
L 178.86608 228.361972 
L 178.86608 226.211572 
L 178.86608 224.061172 
L 178.86608 221.910773 
L 178.86608 219.760373 
L 178.86608 217.609972 
L 178.86608 215.459572 
L 178.86608 213.309172 
L 178.86608 211.158772 
L 178.86608 209.008372 
L 178.86608 206.857972 
L 178.86608 204.707572 
L 178.86608 202.557172 
L 178.86608 200.406772 
L 178.86608 198.256372 
L 178.86608 196.105972 
L 178.86608 193.955572 
L 178.86608 191.805172 
L 178.86608 189.654772 
L 178.86608 187.504372 
L 178.86608 185.353972 
L 178.86608 183.203572 
L 178.86608 181.053172 
L 178.86608 178.902772 
L 178.86608 176.752372 
L 178.86608 174.601972 
L 178.86608 172.451572 
L 178.86608 170.301173 
L 178.86608 168.150772 
L 178.86608 166.000372 
L 178.86608 163.849972 
L 178.86608 161.699572 
L 178.86608 159.549172 
L 178.86608 157.398773 
L 178.86608 155.248372 
L 178.86608 153.097972 
L 178.86608 150.947572 
L 178.86608 148.797172 
L 178.86608 146.646772 
L 178.86608 144.496372 
L 178.86608 142.345972 
L 178.86608 140.195572 
L 178.86608 138.045173 
L 178.86608 135.894772 
L 178.86608 133.744372 
L 178.86608 131.593973 
L 178.86608 129.443572 
L 178.86608 127.293172 
L 178.86608 125.142772 
L 178.86608 122.992373 
L 178.86608 120.841972 
L 178.86608 118.691572 
L 178.86608 116.541172 
L 178.86608 114.390772 
L 178.86608 112.240373 
L 178.86608 110.089972 
L 178.86608 107.939572 
L 178.86608 105.789172 
L 178.86608 103.638773 
L 178.86608 101.488372 
L 178.86608 99.337973 
L 178.86608 97.187572 
L 178.86608 95.037172 
L 178.86608 92.886773 
L 178.86608 90.736372 
L 178.86608 88.585972 
L 178.86608 86.435572 
L 178.86608 84.285173 
L 178.86608 82.134772 
L 178.86608 79.984373 
L 178.86608 77.833973 
L 178.86608 75.683572 
L 178.86608 73.533173 
L 178.86608 71.382772 
L 178.86608 69.232372 
L 178.86608 67.081972 
L 178.86608 64.931573 
L 178.86608 62.781173 
L 178.86608 60.630772 
L 178.86608 58.480373 
L 178.86608 56.329972 
L 178.86608 54.179573 
L 178.86608 52.029172 
L 178.86608 49.878772 
L 178.86608 47.728372 
L 178.86608 45.577973 
L 178.86608 43.427572 
L 178.86608 41.277173 
L 178.86608 39.126773 
L 178.433207 39.126773 
L 178.433207 41.277173 
L 178.433207 43.427572 
L 178.433207 45.577973 
L 178.433207 47.728372 
L 178.433207 49.878772 
L 178.433207 52.029172 
L 178.433207 54.179573 
L 178.433207 56.329972 
L 178.433207 58.480373 
L 178.433207 60.630772 
L 178.433207 62.781173 
L 178.433207 64.931573 
L 178.433207 67.081972 
L 178.433207 69.232372 
L 178.433207 71.382772 
L 178.433207 73.533173 
L 178.433207 75.683572 
L 178.433207 77.833973 
L 178.433207 79.984373 
L 178.433207 82.134772 
L 178.433207 84.285173 
L 178.433207 86.435572 
L 178.433207 88.585972 
L 178.433207 90.736372 
L 178.433207 92.886773 
L 178.433207 95.037172 
L 178.433207 97.187572 
L 178.433207 99.337973 
L 178.433207 101.488372 
L 178.433207 103.638773 
L 178.433207 105.789172 
L 178.433207 107.939572 
L 178.433207 110.089972 
L 178.433207 112.240373 
L 178.433207 114.390772 
L 178.433207 116.541172 
L 178.433207 118.691572 
L 178.433207 120.841972 
L 178.433207 122.992373 
L 178.433207 125.142772 
L 178.433207 127.293172 
L 178.433207 129.443572 
L 178.433207 131.593973 
L 178.433207 133.744372 
L 178.433207 135.894772 
L 178.433207 138.045173 
L 178.433207 140.195572 
L 178.433207 142.345972 
L 178.433207 144.496372 
L 178.433207 146.646772 
L 178.433207 148.797172 
L 178.433207 150.947572 
L 178.433207 153.097972 
L 178.433207 155.248372 
L 178.433207 157.398773 
L 178.433207 159.549172 
L 178.433207 161.699572 
L 178.433207 163.849972 
L 178.433207 166.000372 
L 178.433207 168.150772 
L 178.433207 170.301173 
L 178.433207 172.451572 
L 178.433207 174.601972 
L 178.433207 176.752372 
L 178.433207 178.902772 
L 178.433207 181.053172 
L 178.433207 183.203572 
L 178.433207 185.353972 
L 178.433207 187.504372 
L 178.433207 189.654772 
L 178.433207 191.805172 
L 178.433207 193.955572 
L 178.433207 196.105972 
L 178.433207 198.256372 
L 178.433207 200.406772 
L 178.433207 202.557172 
L 178.433207 204.707572 
L 178.433207 206.857972 
L 178.433207 209.008372 
L 178.433207 211.158772 
L 178.433207 213.309172 
L 178.433207 215.459572 
L 178.433207 217.609972 
L 178.433207 219.760372 
L 178.433207 221.910773 
L 178.433207 224.061172 
L 178.433207 226.211572 
L 178.433207 228.361972 
L 178.433207 230.512372 
L 178.433207 232.662772 
L 178.433207 234.813172 
L 178.433207 236.963572 
L 178.433207 239.113972 
L 178.433207 241.264372 
L 178.433207 243.414772 
L 178.433207 245.565172 
L 178.433207 247.715572 
L 178.433207 249.865972 
L 178.433207 252.016372 
L 178.86608 252.016372 
z
" clip-path="url(#p0979c19876)" style="fill: #b6d7e8; fill-opacity: 0.5"/>
    <path d="M 179.298952 249.865972 
L 179.298952 247.715572 
L 179.298952 245.565172 
L 179.298952 243.414772 
L 179.298952 241.264372 
L 179.298952 239.113972 
L 179.298952 236.963572 
L 179.298952 234.813172 
L 179.298952 232.662772 
L 179.298952 230.512372 
L 179.298952 228.361972 
L 179.298952 226.211572 
L 179.298952 224.061172 
L 179.298952 221.910773 
L 179.298952 219.760372 
L 179.298952 217.609972 
L 179.298952 215.459572 
L 179.298952 213.309172 
L 179.298952 211.158772 
L 179.298952 209.008372 
L 179.298952 206.857972 
L 179.298952 204.707572 
L 179.298952 202.557172 
L 179.298952 200.406772 
L 179.298952 198.256372 
L 179.298952 196.105972 
L 179.298952 193.955572 
L 179.298952 191.805172 
L 179.298952 189.654772 
L 179.298952 187.504372 
L 179.298952 185.353972 
L 179.298952 183.203572 
L 179.298952 181.053172 
L 179.298952 178.902772 
L 179.298952 176.752372 
L 179.298952 174.601972 
L 179.298952 172.451572 
L 179.298952 170.301173 
L 179.298952 168.150772 
L 179.298952 166.000372 
L 179.298952 163.849972 
L 179.298952 161.699572 
L 179.298952 159.549172 
L 179.298952 157.398773 
L 179.298952 155.248372 
L 179.298952 153.097972 
L 179.298952 150.947572 
L 179.298952 148.797172 
L 179.298952 146.646772 
L 179.298952 144.496372 
L 179.298952 142.345972 
L 179.298952 140.195572 
L 179.298952 138.045173 
L 179.298952 135.894772 
L 179.298952 133.744372 
L 179.298952 131.593973 
L 179.298952 129.443572 
L 179.298952 127.293172 
L 179.298952 125.142772 
L 179.298952 122.992373 
L 179.298952 120.841972 
L 179.298952 118.691572 
L 179.298952 116.541172 
L 179.298952 114.390772 
L 179.298952 112.240373 
L 179.298952 110.089972 
L 179.298952 107.939572 
L 179.298952 105.789172 
L 179.298952 103.638773 
L 179.298952 101.488372 
L 179.298952 99.337973 
L 179.298952 97.187572 
L 179.298952 95.037172 
L 179.298952 92.886773 
L 179.298952 90.736372 
L 179.298952 88.585972 
L 179.298952 86.435572 
L 179.298952 84.285173 
L 179.298952 82.134772 
L 179.298952 79.984373 
L 179.298952 77.833973 
L 179.298952 75.683572 
L 179.298952 73.533173 
L 179.298952 71.382772 
L 179.298952 69.232372 
L 179.298952 67.081972 
L 179.298952 64.931573 
L 179.298952 62.781173 
L 179.298952 60.630772 
L 179.298952 58.480373 
L 179.298952 56.329972 
L 179.298952 54.179573 
L 179.298952 52.029172 
L 179.298952 49.878772 
L 179.298952 47.728372 
L 179.298952 45.577973 
L 179.298952 43.427572 
L 179.298952 41.277173 
L 179.298952 39.126773 
L 178.86608 39.126773 
L 178.86608 41.277173 
L 178.86608 43.427572 
L 178.86608 45.577973 
L 178.86608 47.728372 
L 178.86608 49.878772 
L 178.86608 52.029172 
L 178.86608 54.179573 
L 178.86608 56.329972 
L 178.86608 58.480373 
L 178.86608 60.630772 
L 178.86608 62.781173 
L 178.86608 64.931573 
L 178.86608 67.081972 
L 178.86608 69.232372 
L 178.86608 71.382772 
L 178.86608 73.533173 
L 178.86608 75.683572 
L 178.86608 77.833973 
L 178.86608 79.984373 
L 178.86608 82.134772 
L 178.86608 84.285173 
L 178.86608 86.435572 
L 178.86608 88.585972 
L 178.86608 90.736372 
L 178.86608 92.886773 
L 178.86608 95.037172 
L 178.86608 97.187572 
L 178.86608 99.337973 
L 178.86608 101.488372 
L 178.86608 103.638773 
L 178.86608 105.789172 
L 178.86608 107.939572 
L 178.86608 110.089972 
L 178.86608 112.240373 
L 178.86608 114.390772 
L 178.86608 116.541172 
L 178.86608 118.691572 
L 178.86608 120.841972 
L 178.86608 122.992373 
L 178.86608 125.142772 
L 178.86608 127.293172 
L 178.86608 129.443572 
L 178.86608 131.593973 
L 178.86608 133.744372 
L 178.86608 135.894772 
L 178.86608 138.045173 
L 178.86608 140.195572 
L 178.86608 142.345972 
L 178.86608 144.496372 
L 178.86608 146.646772 
L 178.86608 148.797172 
L 178.86608 150.947572 
L 178.86608 153.097972 
L 178.86608 155.248372 
L 178.86608 157.398773 
L 178.86608 159.549172 
L 178.86608 161.699572 
L 178.86608 163.849972 
L 178.86608 166.000372 
L 178.86608 168.150772 
L 178.86608 170.301173 
L 178.86608 172.451572 
L 178.86608 174.601972 
L 178.86608 176.752372 
L 178.86608 178.902772 
L 178.86608 181.053172 
L 178.86608 183.203572 
L 178.86608 185.353972 
L 178.86608 187.504372 
L 178.86608 189.654772 
L 178.86608 191.805172 
L 178.86608 193.955572 
L 178.86608 196.105972 
L 178.86608 198.256372 
L 178.86608 200.406772 
L 178.86608 202.557172 
L 178.86608 204.707572 
L 178.86608 206.857972 
L 178.86608 209.008372 
L 178.86608 211.158772 
L 178.86608 213.309172 
L 178.86608 215.459572 
L 178.86608 217.609972 
L 178.86608 219.760373 
L 178.86608 221.910773 
L 178.86608 224.061172 
L 178.86608 226.211572 
L 178.86608 228.361972 
L 178.86608 230.512372 
L 178.86608 232.662772 
L 178.86608 234.813172 
L 178.86608 236.963572 
L 178.86608 239.113972 
L 178.86608 241.264372 
L 178.86608 243.414772 
L 178.86608 245.565172 
L 178.86608 247.715572 
L 178.86608 249.865972 
L 178.86608 252.016372 
L 179.298952 252.016372 
z
" clip-path="url(#p0979c19876)" style="fill: #4c99c6; fill-opacity: 0.5"/>
    <path d="M 179.587534 252.016372 
L 182.473352 252.016372 
L 185.35917 252.016372 
L 188.244989 252.016372 
L 191.130807 252.016372 
L 194.016625 252.016372 
L 196.902443 252.016372 
L 199.788261 252.016372 
L 202.67408 252.016372 
L 205.559898 252.016372 
L 208.445716 252.016372 
L 211.331534 252.016372 
L 214.217352 252.016372 
L 217.10317 252.016372 
L 219.988989 252.016372 
L 222.874807 252.016372 
L 225.760625 252.016372 
L 228.646443 252.016372 
L 231.532261 252.016372 
L 234.41808 252.016372 
L 237.303898 252.016372 
L 240.189716 252.016372 
L 243.075534 252.016372 
L 245.961352 252.016372 
L 248.84717 252.016372 
L 251.732989 252.016372 
L 254.618807 252.016372 
L 257.504625 252.016372 
L 260.390443 252.016372 
L 263.276261 252.016372 
L 266.16208 252.016372 
L 269.047898 252.016372 
L 271.933716 252.016372 
L 274.819534 252.016372 
L 277.705352 252.016372 
L 280.59117 252.016372 
L 283.476989 252.016372 
L 286.362807 252.016372 
L 289.248625 252.016372 
L 292.134443 252.016372 
L 295.020261 252.016372 
L 297.90608 252.016372 
L 300.791898 252.016372 
L 303.677716 252.016372 
L 306.563534 252.016372 
L 309.449352 252.016372 
L 312.33517 252.016372 
L 315.220989 252.016372 
L 318.106807 252.016372 
L 320.992625 252.016372 
L 323.878443 252.016372 
L 326.764261 252.016372 
L 329.65008 252.016372 
L 332.535898 252.016372 
L 335.421716 252.016372 
L 338.307534 252.016372 
L 341.193352 252.016372 
L 344.07917 252.016372 
L 346.964989 252.016372 
L 349.850807 252.016372 
L 352.736625 252.016372 
L 352.736625 249.865972 
L 352.736625 247.715572 
L 352.736625 245.565172 
L 352.736625 243.414772 
L 352.736625 241.264372 
L 352.736625 239.113972 
L 352.736625 236.963572 
L 352.736625 234.813172 
L 352.736625 232.662772 
L 352.736625 230.512372 
L 352.736625 228.361972 
L 352.736625 226.211572 
L 352.736625 224.061172 
L 352.736625 221.910773 
L 352.736625 219.760372 
L 352.736625 217.609972 
L 352.736625 215.459572 
L 352.736625 213.309172 
L 352.736625 211.158772 
L 352.736625 209.008372 
L 352.736625 206.857972 
L 352.736625 204.707572 
L 352.736625 202.557172 
L 352.736625 200.406772 
L 352.736625 198.256372 
L 352.736625 196.105972 
L 352.736625 193.955572 
L 352.736625 191.805172 
L 352.736625 189.654772 
L 352.736625 187.504372 
L 352.736625 185.353972 
L 352.736625 183.203572 
L 352.736625 181.053172 
L 352.736625 178.902772 
L 352.736625 176.752372 
L 352.736625 174.601972 
L 352.736625 172.451572 
L 352.736625 170.301173 
L 352.736625 168.150772 
L 352.736625 166.000372 
L 352.736625 163.849972 
L 352.736625 161.699572 
L 352.736625 159.549172 
L 352.736625 157.398773 
L 352.736625 155.248372 
L 352.736625 153.097972 
L 352.736625 150.947572 
L 352.736625 148.797172 
L 352.736625 146.646772 
L 352.736625 144.496372 
L 352.736625 142.345972 
L 352.736625 140.195572 
L 352.736625 138.045173 
L 352.736625 135.894772 
L 352.736625 133.744372 
L 352.736625 131.593973 
L 352.736625 129.443572 
L 352.736625 127.293172 
L 352.736625 125.142772 
L 352.736625 122.992373 
L 352.736625 120.841972 
L 352.736625 118.691572 
L 352.736625 116.541172 
L 352.736625 114.390772 
L 352.736625 112.240373 
L 352.736625 110.089972 
L 352.736625 107.939572 
L 352.736625 105.789172 
L 352.736625 103.638773 
L 352.736625 101.488372 
L 352.736625 99.337973 
L 352.736625 97.187572 
L 352.736625 95.037172 
L 352.736625 92.886773 
L 352.736625 90.736372 
L 352.736625 88.585972 
L 352.736625 86.435572 
L 352.736625 84.285173 
L 352.736625 82.134772 
L 352.736625 79.984373 
L 352.736625 77.833973 
L 352.736625 75.683572 
L 352.736625 73.533173 
L 352.736625 71.382772 
L 352.736625 69.232372 
L 352.736625 67.081972 
L 352.736625 64.931573 
L 352.736625 62.781173 
L 352.736625 60.630772 
L 352.736625 58.480373 
L 352.736625 56.329972 
L 352.736625 54.179573 
L 352.736625 52.029172 
L 352.736625 49.878772 
L 352.736625 47.728372 
L 352.736625 45.577973 
L 352.736625 43.427572 
L 352.736625 41.277173 
L 352.736625 39.126773 
L 349.850807 39.126773 
L 346.964989 39.126773 
L 344.07917 39.126773 
L 341.193352 39.126773 
L 338.307534 39.126773 
L 335.421716 39.126773 
L 332.535898 39.126773 
L 329.65008 39.126773 
L 326.764261 39.126773 
L 323.878443 39.126773 
L 320.992625 39.126773 
L 318.106807 39.126773 
L 315.220989 39.126773 
L 312.33517 39.126773 
L 309.449352 39.126773 
L 306.563534 39.126773 
L 303.677716 39.126773 
L 300.791898 39.126773 
L 297.90608 39.126773 
L 295.020261 39.126773 
L 292.134443 39.126773 
L 289.248625 39.126773 
L 286.362807 39.126773 
L 283.476989 39.126773 
L 280.59117 39.126773 
L 277.705352 39.126773 
L 274.819534 39.126773 
L 271.933716 39.126773 
L 269.047898 39.126773 
L 266.16208 39.126773 
L 263.276261 39.126773 
L 260.390443 39.126773 
L 257.504625 39.126773 
L 254.618807 39.126773 
L 251.732989 39.126773 
L 248.84717 39.126773 
L 245.961352 39.126773 
L 243.075534 39.126773 
L 240.189716 39.126773 
L 237.303898 39.126773 
L 234.41808 39.126773 
L 231.532261 39.126773 
L 228.646443 39.126773 
L 225.760625 39.126773 
L 222.874807 39.126773 
L 219.988989 39.126773 
L 217.10317 39.126773 
L 214.217352 39.126773 
L 211.331534 39.126773 
L 208.445716 39.126773 
L 205.559898 39.126773 
L 202.67408 39.126773 
L 199.788261 39.126773 
L 196.902443 39.126773 
L 194.016625 39.126773 
L 191.130807 39.126773 
L 188.244989 39.126773 
L 185.35917 39.126773 
L 182.473352 39.126773 
L 179.587534 39.126773 
L 179.298952 39.126773 
L 179.298952 41.277173 
L 179.298952 43.427572 
L 179.298952 45.577973 
L 179.298952 47.728372 
L 179.298952 49.878772 
L 179.298952 52.029172 
L 179.298952 54.179573 
L 179.298952 56.329972 
L 179.298952 58.480373 
L 179.298952 60.630772 
L 179.298952 62.781173 
L 179.298952 64.931573 
L 179.298952 67.081972 
L 179.298952 69.232372 
L 179.298952 71.382772 
L 179.298952 73.533173 
L 179.298952 75.683572 
L 179.298952 77.833973 
L 179.298952 79.984373 
L 179.298952 82.134772 
L 179.298952 84.285173 
L 179.298952 86.435572 
L 179.298952 88.585972 
L 179.298952 90.736372 
L 179.298952 92.886773 
L 179.298952 95.037172 
L 179.298952 97.187572 
L 179.298952 99.337973 
L 179.298952 101.488372 
L 179.298952 103.638773 
L 179.298952 105.789172 
L 179.298952 107.939572 
L 179.298952 110.089972 
L 179.298952 112.240373 
L 179.298952 114.390772 
L 179.298952 116.541172 
L 179.298952 118.691572 
L 179.298952 120.841972 
L 179.298952 122.992373 
L 179.298952 125.142772 
L 179.298952 127.293172 
L 179.298952 129.443572 
L 179.298952 131.593973 
L 179.298952 133.744372 
L 179.298952 135.894772 
L 179.298952 138.045173 
L 179.298952 140.195572 
L 179.298952 142.345972 
L 179.298952 144.496372 
L 179.298952 146.646772 
L 179.298952 148.797172 
L 179.298952 150.947572 
L 179.298952 153.097972 
L 179.298952 155.248372 
L 179.298952 157.398773 
L 179.298952 159.549172 
L 179.298952 161.699572 
L 179.298952 163.849972 
L 179.298952 166.000372 
L 179.298952 168.150772 
L 179.298952 170.301173 
L 179.298952 172.451572 
L 179.298952 174.601972 
L 179.298952 176.752372 
L 179.298952 178.902772 
L 179.298952 181.053172 
L 179.298952 183.203572 
L 179.298952 185.353972 
L 179.298952 187.504372 
L 179.298952 189.654772 
L 179.298952 191.805172 
L 179.298952 193.955572 
L 179.298952 196.105972 
L 179.298952 198.256372 
L 179.298952 200.406772 
L 179.298952 202.557172 
L 179.298952 204.707572 
L 179.298952 206.857972 
L 179.298952 209.008372 
L 179.298952 211.158772 
L 179.298952 213.309172 
L 179.298952 215.459572 
L 179.298952 217.609972 
L 179.298952 219.760372 
L 179.298952 221.910773 
L 179.298952 224.061172 
L 179.298952 226.211572 
L 179.298952 228.361972 
L 179.298952 230.512372 
L 179.298952 232.662772 
L 179.298952 234.813172 
L 179.298952 236.963572 
L 179.298952 239.113972 
L 179.298952 241.264372 
L 179.298952 243.414772 
L 179.298952 245.565172 
L 179.298952 247.715572 
L 179.298952 249.865972 
L 179.298952 252.016372 
z
" clip-path="url(#p0979c19876)" style="fill: #195696; fill-opacity: 0.5"/>
   </g>
   <g id="PathCollection_1">
    <defs>
     <path id="C0_0_709cc0797c" d="M 0 3 
C 0.795609 3 1.55874 2.683901 2.12132 2.12132 
C 2.683901 1.55874 3 0.795609 3 -0 
C 3 -0.795609 2.683901 -1.55874 2.12132 -2.12132 
C 1.55874 -2.683901 0.795609 -3 0 -3 
C -0.795609 -3 -1.55874 -2.683901 -2.12132 -2.12132 
C -2.683901 -1.55874 -3 -0.795609 -3 0 
C -3 0.795609 -2.683901 1.55874 -2.12132 2.12132 
C -1.55874 2.683901 -0.795609 3 0 3 
z
"/>
    </defs>
    <g clip-path="url(#p0979c19876)">
     <use xlink:href="#C0_0_709cc0797c" x="175.25911" y="127.289303" style="fill: #d62728; stroke: #ffffff; stroke-width: 0.48"/>
    </g>
    <g clip-path="url(#p0979c19876)">
     <use xlink:href="#C0_0_709cc0797c" x="170.393088" y="133.822181" style="fill: #d62728; stroke: #ffffff; stroke-width: 0.48"/>
    </g>
    <g clip-path="url(#p0979c19876)">
     <use xlink:href="#C0_0_709cc0797c" x="168.305726" y="139.306332" style="fill: #d62728; stroke: #ffffff; stroke-width: 0.48"/>
    </g>
    <g clip-path="url(#p0979c19876)">
     <use xlink:href="#C0_0_709cc0797c" x="253.301495" y="160.20047" style="fill: #1f77b4; stroke: #ffffff; stroke-width: 0.48"/>
    </g>
    <g clip-path="url(#p0979c19876)">
     <use xlink:href="#C0_0_709cc0797c" x="262.084073" y="86.582481" style="fill: #1f77b4; stroke: #ffffff; stroke-width: 0.48"/>
    </g>
    <g clip-path="url(#p0979c19876)">
     <use xlink:href="#C0_0_709cc0797c" x="321.20635" y="64.681615" style="fill: #1f77b4; stroke: #ffffff; stroke-width: 0.48"/>
    </g>
    <g clip-path="url(#p0979c19876)">
     <use xlink:href="#C0_0_709cc0797c" x="163.83552" y="142.777742" style="fill: #d62728; stroke: #ffffff; stroke-width: 0.48"/>
    </g>
    <g clip-path="url(#p0979c19876)">
     <use xlink:href="#C0_0_709cc0797c" x="164.706328" y="197.405515" style="fill: #d62728; stroke: #ffffff; stroke-width: 0.48"/>
    </g>
    <g clip-path="url(#p0979c19876)">
     <use xlink:href="#C0_0_709cc0797c" x="150.945806" y="103.735359" style="fill: #1f77b4; stroke: #ffffff; stroke-width: 0.48"/>
    </g>
    <g clip-path="url(#p0979c19876)">
     <use xlink:href="#C0_0_709cc0797c" x="189.205826" y="117.758751" style="fill: #1f77b4; stroke: #ffffff; stroke-width: 0.48"/>
    </g>
    <g clip-path="url(#p0979c19876)">
     <use xlink:href="#C0_0_709cc0797c" x="158.886254" y="165.404769" style="fill: #d62728; stroke: #ffffff; stroke-width: 0.48"/>
    </g>
    <g clip-path="url(#p0979c19876)">
     <use xlink:href="#C0_0_709cc0797c" x="305.346317" y="177.8467" style="fill: #1f77b4; stroke: #ffffff; stroke-width: 0.48"/>
    </g>
    <g clip-path="url(#p0979c19876)">
     <use xlink:href="#C0_0_709cc0797c" x="159.358545" y="99.575595" style="fill: #d62728; stroke: #ffffff; stroke-width: 0.48"/>
    </g>
    <g clip-path="url(#p0979c19876)">
     <use xlink:href="#C0_0_709cc0797c" x="177.019163" y="160.865983" style="fill: #d62728; stroke: #ffffff; stroke-width: 0.48"/>
    </g>
    <g clip-path="url(#p0979c19876)">
     <use xlink:href="#C0_0_709cc0797c" x="163.804906" y="114.401049" style="fill: #d62728; stroke: #ffffff; stroke-width: 0.48"/>
    </g>
    <g clip-path="url(#p0979c19876)">
     <use xlink:href="#C0_0_709cc0797c" x="207.239052" y="145.001809" style="fill: #1f77b4; stroke: #ffffff; stroke-width: 0.48"/>
    </g>
    <g clip-path="url(#p0979c19876)">
     <use xlink:href="#C0_0_709cc0797c" x="121.450165" y="144.409441" style="fill: #d62728; stroke: #ffffff; stroke-width: 0.48"/>
    </g>
    <g clip-path="url(#p0979c19876)">
     <use xlink:href="#C0_0_709cc0797c" x="164.233618" y="95.336128" style="fill: #d62728; stroke: #ffffff; stroke-width: 0.48"/>
    </g>
    <g clip-path="url(#p0979c19876)">
     <use xlink:href="#C0_0_709cc0797c" x="161.130624" y="81.452494" style="fill: #d62728; stroke: #ffffff; stroke-width: 0.48"/>
    </g>
    <g clip-path="url(#p0979c19876)">
     <use xlink:href="#C0_0_709cc0797c" x="159.72875" y="136.648028" style="fill: #d62728; stroke: #ffffff; stroke-width: 0.48"/>
    </g>
    <g clip-path="url(#p0979c19876)">
     <use xlink:href="#C0_0_709cc0797c" x="182.518029" y="103.685274" style="fill: #1f77b4; stroke: #ffffff; stroke-width: 0.48"/>
    </g>
    <g clip-path="url(#p0979c19876)">
     <use xlink:href="#C0_0_709cc0797c" x="228.524344" y="165.403308" style="fill: #1f77b4; stroke: #ffffff; stroke-width: 0.48"/>
    </g>
    <g clip-path="url(#p0979c19876)">
     <use xlink:href="#C0_0_709cc0797c" x="263.341052" y="142.279308" style="fill: #1f77b4; stroke: #ffffff; stroke-width: 0.48"/>
    </g>
    <g clip-path="url(#p0979c19876)">
     <use xlink:href="#C0_0_709cc0797c" x="268.375457" y="80.047508" style="fill: #1f77b4; stroke: #ffffff; stroke-width: 0.48"/>
    </g>
    <g clip-path="url(#p0979c19876)">
     <use xlink:href="#C0_0_709cc0797c" x="215.58221" y="120.90903" style="fill: #1f77b4; stroke: #ffffff; stroke-width: 0.48"/>
    </g>
    <g clip-path="url(#p0979c19876)">
     <use xlink:href="#C0_0_709cc0797c" x="110.755973" y="140.804307" style="fill: #d62728; stroke: #ffffff; stroke-width: 0.48"/>
    </g>
    <g clip-path="url(#p0979c19876)">
     <use xlink:href="#C0_0_709cc0797c" x="209.294004" y="103.333935" style="fill: #1f77b4; stroke: #ffffff; stroke-width: 0.48"/>
    </g>
    <g clip-path="url(#p0979c19876)">
     <use xlink:href="#C0_0_709cc0797c" x="208.020494" y="140.179934" style="fill: #1f77b4; stroke: #ffffff; stroke-width: 0.48"/>
    </g>
    <g clip-path="url(#p0979c19876)">
     <use xlink:href="#C0_0_709cc0797c" x="161.896328" y="121.130065" style="fill: #d62728; stroke: #ffffff; stroke-width: 0.48"/>
    </g>
    <g clip-path="url(#p0979c19876)">
     <use xlink:href="#C0_0_709cc0797c" x="195.877442" y="155.157424" style="fill: #1f77b4; stroke: #ffffff; stroke-width: 0.48"/>
    </g>
    <g clip-path="url(#p0979c19876)">
     <use xlink:href="#C0_0_709cc0797c" x="238.374087" y="92.229953" style="fill: #1f77b4; stroke: #ffffff; stroke-width: 0.48"/>
    </g>
    <g clip-path="url(#p0979c19876)">
     <use xlink:href="#C0_0_709cc0797c" x="177.238038" y="147.445442" style="fill: #d62728; stroke: #ffffff; stroke-width: 0.48"/>
    </g>
    <g clip-path="url(#p0979c19876)">
     <use xlink:href="#C0_0_709cc0797c" x="241.609419" y="157.174599" style="fill: #1f77b4; stroke: #ffffff; stroke-width: 0.48"/>
    </g>
    <g clip-path="url(#p0979c19876)">
     <use xlink:href="#C0_0_709cc0797c" x="98.5709" y="164.104768" style="fill: #d62728; stroke: #ffffff; stroke-width: 0.48"/>
    </g>
    <g clip-path="url(#p0979c19876)">
     <use xlink:href="#C0_0_709cc0797c" x="223.514438" y="149.341157" style="fill: #1f77b4; stroke: #ffffff; stroke-width: 0.48"/>
    </g>
    <g clip-path="url(#p0979c19876)">
     <use xlink:href="#C0_0_709cc0797c" x="229.446547" y="152.251142" style="fill: #d62728; stroke: #ffffff; stroke-width: 0.48"/>
    </g>
    <g clip-path="url(#p0979c19876)">
     <use xlink:href="#C0_0_709cc0797c" x="185.604872" y="163.758771" style="fill: #d62728; stroke: #ffffff; stroke-width: 0.48"/>
    </g>
    <g clip-path="url(#p0979c19876)">
     <use xlink:href="#C0_0_709cc0797c" x="275.281336" y="134.533994" style="fill: #1f77b4; stroke: #ffffff; stroke-width: 0.48"/>
    </g>
    <g clip-path="url(#p0979c19876)">
     <use xlink:href="#C0_0_709cc0797c" x="220.90156" y="121.907929" style="fill: #1f77b4; stroke: #ffffff; stroke-width: 0.48"/>
    </g>
    <g clip-path="url(#p0979c19876)">
     <use xlink:href="#C0_0_709cc0797c" x="213.645617" y="132.037398" style="fill: #1f77b4; stroke: #ffffff; stroke-width: 0.48"/>
    </g>
    <g clip-path="url(#p0979c19876)">
     <use xlink:href="#C0_0_709cc0797c" x="153.470575" y="119.537076" style="fill: #d62728; stroke: #ffffff; stroke-width: 0.48"/>
    </g>
    <g clip-path="url(#p0979c19876)">
     <use xlink:href="#C0_0_709cc0797c" x="253.011064" y="174.428409" style="fill: #1f77b4; stroke: #ffffff; stroke-width: 0.48"/>
    </g>
    <g clip-path="url(#p0979c19876)">
     <use xlink:href="#C0_0_709cc0797c" x="168.502053" y="167.814007" style="fill: #d62728; stroke: #ffffff; stroke-width: 0.48"/>
    </g>
    <g clip-path="url(#p0979c19876)">
     <use xlink:href="#C0_0_709cc0797c" x="190.955809" y="130.801346" style="fill: #1f77b4; stroke: #ffffff; stroke-width: 0.48"/>
    </g>
    <g clip-path="url(#p0979c19876)">
     <use xlink:href="#C0_0_709cc0797c" x="141.076702" y="223.653314" style="fill: #d62728; stroke: #ffffff; stroke-width: 0.48"/>
    </g>
    <g clip-path="url(#p0979c19876)">
     <use xlink:href="#C0_0_709cc0797c" x="196.01108" y="97.715922" style="fill: #1f77b4; stroke: #ffffff; stroke-width: 0.48"/>
    </g>
    <g clip-path="url(#p0979c19876)">
     <use xlink:href="#C0_0_709cc0797c" x="239.600998" y="196.413112" style="fill: #1f77b4; stroke: #ffffff; stroke-width: 0.48"/>
    </g>
    <g clip-path="url(#p0979c19876)">
     <use xlink:href="#C0_0_709cc0797c" x="185.307348" y="138.824143" style="fill: #d62728; stroke: #ffffff; stroke-width: 0.48"/>
    </g>
    <g clip-path="url(#p0979c19876)">
     <use xlink:href="#C0_0_709cc0797c" x="199.157058" y="77.909103" style="fill: #1f77b4; stroke: #ffffff; stroke-width: 0.48"/>
    </g>
    <g clip-path="url(#p0979c19876)">
     <use xlink:href="#C0_0_709cc0797c" x="129.338771" y="173.391732" style="fill: #d62728; stroke: #ffffff; stroke-width: 0.48"/>
    </g>
    <g clip-path="url(#p0979c19876)">
     <use xlink:href="#C0_0_709cc0797c" x="171.213423" y="108.209403" style="fill: #d62728; stroke: #ffffff; stroke-width: 0.48"/>
    </g>
    <g clip-path="url(#p0979c19876)">
     <use xlink:href="#C0_0_709cc0797c" x="191.797609" y="120.322496" style="fill: #1f77b4; stroke: #ffffff; stroke-width: 0.48"/>
    </g>
    <g clip-path="url(#p0979c19876)">
     <use xlink:href="#C0_0_709cc0797c" x="226.226739" y="137.297512" style="fill: #1f77b4; stroke: #ffffff; stroke-width: 0.48"/>
    </g>
    <g clip-path="url(#p0979c19876)">
     <use xlink:href="#C0_0_709cc0797c" x="165.695089" y="121.313158" style="fill: #d62728; stroke: #ffffff; stroke-width: 0.48"/>
    </g>
    <g clip-path="url(#p0979c19876)">
     <use xlink:href="#C0_0_709cc0797c" x="168.037081" y="100.491835" style="fill: #d62728; stroke: #ffffff; stroke-width: 0.48"/>
    </g>
    <g clip-path="url(#p0979c19876)">
     <use xlink:href="#C0_0_709cc0797c" x="173.184885" y="113.531986" style="fill: #d62728; stroke: #ffffff; stroke-width: 0.48"/>
    </g>
    <g clip-path="url(#p0979c19876)">
     <use xlink:href="#C0_0_709cc0797c" x="160.08119" y="113.850218" style="fill: #d62728; stroke: #ffffff; stroke-width: 0.48"/>
    </g>
    <g clip-path="url(#p0979c19876)">
     <use xlink:href="#C0_0_709cc0797c" x="238.184029" y="156.546179" style="fill: #1f77b4; stroke: #ffffff; stroke-width: 0.48"/>
    </g>
    <g clip-path="url(#p0979c19876)">
     <use xlink:href="#C0_0_709cc0797c" x="171.031296" y="86.476941" style="fill: #d62728; stroke: #ffffff; stroke-width: 0.48"/>
    </g>
    <g clip-path="url(#p0979c19876)">
     <use xlink:href="#C0_0_709cc0797c" x="217.418963" y="163.474925" style="fill: #d62728; stroke: #ffffff; stroke-width: 0.48"/>
    </g>
    <g clip-path="url(#p0979c19876)">
     <use xlink:href="#C0_0_709cc0797c" x="206.2407" y="133.802848" style="fill: #1f77b4; stroke: #ffffff; stroke-width: 0.48"/>
    </g>
    <g clip-path="url(#p0979c19876)">
     <use xlink:href="#C0_0_709cc0797c" x="194.398844" y="192.814183" style="fill: #d62728; stroke: #ffffff; stroke-width: 0.48"/>
    </g>
    <g clip-path="url(#p0979c19876)">
     <use xlink:href="#C0_0_709cc0797c" x="180.579303" y="162.669191" style="fill: #d62728; stroke: #ffffff; stroke-width: 0.48"/>
    </g>
    <g clip-path="url(#p0979c19876)">
     <use xlink:href="#C0_0_709cc0797c" x="232.337395" y="80.123611" style="fill: #1f77b4; stroke: #ffffff; stroke-width: 0.48"/>
    </g>
    <g clip-path="url(#p0979c19876)">
     <use xlink:href="#C0_0_709cc0797c" x="229.527083" y="173.420056" style="fill: #1f77b4; stroke: #ffffff; stroke-width: 0.48"/>
    </g>
    <g clip-path="url(#p0979c19876)">
     <use xlink:href="#C0_0_709cc0797c" x="170.930342" y="86.117221" style="fill: #d62728; stroke: #ffffff; stroke-width: 0.48"/>
    </g>
    <g clip-path="url(#p0979c19876)">
     <use xlink:href="#C0_0_709cc0797c" x="159.244726" y="133.093038" style="fill: #d62728; stroke: #ffffff; stroke-width: 0.48"/>
    </g>
    <g clip-path="url(#p0979c19876)">
     <use xlink:href="#C0_0_709cc0797c" x="207.301972" y="134.653869" style="fill: #1f77b4; stroke: #ffffff; stroke-width: 0.48"/>
    </g>
    <g clip-path="url(#p0979c19876)">
     <use xlink:href="#C0_0_709cc0797c" x="171.176838" y="122.999955" style="fill: #d62728; stroke: #ffffff; stroke-width: 0.48"/>
    </g>
    <g clip-path="url(#p0979c19876)">
     <use xlink:href="#C0_0_709cc0797c" x="162.232111" y="118.051378" style="fill: #1f77b4; stroke: #ffffff; stroke-width: 0.48"/>
    </g>
    <g clip-path="url(#p0979c19876)">
     <use xlink:href="#C0_0_709cc0797c" x="161.458716" y="139.37963" style="fill: #d62728; stroke: #ffffff; stroke-width: 0.48"/>
    </g>
    <g clip-path="url(#p0979c19876)">
     <use xlink:href="#C0_0_709cc0797c" x="237.882167" y="153.112654" style="fill: #1f77b4; stroke: #ffffff; stroke-width: 0.48"/>
    </g>
    <g clip-path="url(#p0979c19876)">
     <use xlink:href="#C0_0_709cc0797c" x="273.237263" y="94.395769" style="fill: #1f77b4; stroke: #ffffff; stroke-width: 0.48"/>
    </g>
    <g clip-path="url(#p0979c19876)">
     <use xlink:href="#C0_0_709cc0797c" x="180.012667" y="154.053728" style="fill: #d62728; stroke: #ffffff; stroke-width: 0.48"/>
    </g>
    <g clip-path="url(#p0979c19876)">
     <use xlink:href="#C0_0_709cc0797c" x="256.033388" y="83.973227" style="fill: #1f77b4; stroke: #ffffff; stroke-width: 0.48"/>
    </g>
    <g clip-path="url(#p0979c19876)">
     <use xlink:href="#C0_0_709cc0797c" x="174.790697" y="84.676623" style="fill: #d62728; stroke: #ffffff; stroke-width: 0.48"/>
    </g>
    <g clip-path="url(#p0979c19876)">
     <use xlink:href="#C0_0_709cc0797c" x="195.108873" y="113.219439" style="fill: #1f77b4; stroke: #ffffff; stroke-width: 0.48"/>
    </g>
    <g clip-path="url(#p0979c19876)">
     <use xlink:href="#C0_0_709cc0797c" x="254.146536" y="154.195016" style="fill: #1f77b4; stroke: #ffffff; stroke-width: 0.48"/>
    </g>
    <g clip-path="url(#p0979c19876)">
     <use xlink:href="#C0_0_709cc0797c" x="179.365692" y="97.390864" style="fill: #d62728; stroke: #ffffff; stroke-width: 0.48"/>
    </g>
    <g clip-path="url(#p0979c19876)">
     <use xlink:href="#C0_0_709cc0797c" x="177.876291" y="152.42366" style="fill: #1f77b4; stroke: #ffffff; stroke-width: 0.48"/>
    </g>
    <g clip-path="url(#p0979c19876)">
     <use xlink:href="#C0_0_709cc0797c" x="226.259174" y="69.991356" style="fill: #1f77b4; stroke: #ffffff; stroke-width: 0.48"/>
    </g>
    <g clip-path="url(#p0979c19876)">
     <use xlink:href="#C0_0_709cc0797c" x="164.179413" y="99.606017" style="fill: #d62728; stroke: #ffffff; stroke-width: 0.48"/>
    </g>
    <g clip-path="url(#p0979c19876)">
     <use xlink:href="#C0_0_709cc0797c" x="220.636525" y="117.680976" style="fill: #1f77b4; stroke: #ffffff; stroke-width: 0.48"/>
    </g>
    <g clip-path="url(#p0979c19876)">
     <use xlink:href="#C0_0_709cc0797c" x="163.198683" y="109.848104" style="fill: #d62728; stroke: #ffffff; stroke-width: 0.48"/>
    </g>
    <g clip-path="url(#p0979c19876)">
     <use xlink:href="#C0_0_709cc0797c" x="153.654416" y="151.469527" style="fill: #d62728; stroke: #ffffff; stroke-width: 0.48"/>
    </g>
    <g clip-path="url(#p0979c19876)">
     <use xlink:href="#C0_0_709cc0797c" x="226.425003" y="143.30986" style="fill: #1f77b4; stroke: #ffffff; stroke-width: 0.48"/>
    </g>
    <g clip-path="url(#p0979c19876)">
     <use xlink:href="#C0_0_709cc0797c" x="259.636752" y="188.225204" style="fill: #1f77b4; stroke: #ffffff; stroke-width: 0.48"/>
    </g>
    <g clip-path="url(#p0979c19876)">
     <use xlink:href="#C0_0_709cc0797c" x="166.306352" y="85.147224" style="fill: #d62728; stroke: #ffffff; stroke-width: 0.48"/>
    </g>
    <g clip-path="url(#p0979c19876)">
     <use xlink:href="#C0_0_709cc0797c" x="196.947763" y="141.034066" style="fill: #1f77b4; stroke: #ffffff; stroke-width: 0.48"/>
    </g>
    <g clip-path="url(#p0979c19876)">
     <use xlink:href="#C0_0_709cc0797c" x="215.931819" y="182.379212" style="fill: #1f77b4; stroke: #ffffff; stroke-width: 0.48"/>
    </g>
    <g clip-path="url(#p0979c19876)">
     <use xlink:href="#C0_0_709cc0797c" x="156.319964" y="158.879961" style="fill: #d62728; stroke: #ffffff; stroke-width: 0.48"/>
    </g>
    <g clip-path="url(#p0979c19876)">
     <use xlink:href="#C0_0_709cc0797c" x="206.263349" y="144.031529" style="fill: #1f77b4; stroke: #ffffff; stroke-width: 0.48"/>
    </g>
    <g clip-path="url(#p0979c19876)">
     <use xlink:href="#C0_0_709cc0797c" x="242.004591" y="136.94823" style="fill: #1f77b4; stroke: #ffffff; stroke-width: 0.48"/>
    </g>
    <g clip-path="url(#p0979c19876)">
     <use xlink:href="#C0_0_709cc0797c" x="154.840705" y="141.173044" style="fill: #d62728; stroke: #ffffff; stroke-width: 0.48"/>
    </g>
    <g clip-path="url(#p0979c19876)">
     <use xlink:href="#C0_0_709cc0797c" x="258.296454" y="137.231321" style="fill: #1f77b4; stroke: #ffffff; stroke-width: 0.48"/>
    </g>
    <g clip-path="url(#p0979c19876)">
     <use xlink:href="#C0_0_709cc0797c" x="168.215417" y="122.431034" style="fill: #d62728; stroke: #ffffff; stroke-width: 0.48"/>
    </g>
    <g clip-path="url(#p0979c19876)">
     <use xlink:href="#C0_0_709cc0797c" x="172.001077" y="153.96918" style="fill: #d62728; stroke: #ffffff; stroke-width: 0.48"/>
    </g>
    <g clip-path="url(#p0979c19876)">
     <use xlink:href="#C0_0_709cc0797c" x="279.193106" y="122.256868" style="fill: #1f77b4; stroke: #ffffff; stroke-width: 0.48"/>
    </g>
    <g clip-path="url(#p0979c19876)">
     <use xlink:href="#C0_0_709cc0797c" x="184.870628" y="226.46153" style="fill: #d62728; stroke: #ffffff; stroke-width: 0.48"/>
    </g>
    <g clip-path="url(#p0979c19876)">
     <use xlink:href="#C0_0_709cc0797c" x="134.674566" y="121.181268" style="fill: #d62728; stroke: #ffffff; stroke-width: 0.48"/>
    </g>
   </g>
   <g id="matplotlib.axis_1">
    <g id="xtick_1">
     <g id="line2d_1">
      <defs>
       <path id="m5084cac941" d="M 0 0 
L 0 3.5 
" style="stroke: #000000; stroke-width: 0.8"/>
      </defs>
      <g>
       <use xlink:href="#m5084cac941" x="120.587337" y="252.016372" style="stroke: #000000; stroke-width: 0.8"/>
      </g>
     </g>
     <g id="text_1">
      <!-- 2.5 -->
      <g transform="translate(96.304525 274.213248) scale(0.2 -0.2)">
       <defs>
        <path id="DejaVuSans-2212" d="M 678 2272 
L 4684 2272 
L 4684 1741 
L 678 1741 
L 678 2272 
z
" transform="scale(0.015625)"/>
        <path id="DejaVuSans-32" d="M 1228 531 
L 3431 531 
L 3431 0 
L 469 0 
L 469 531 
Q 828 903 1448 1529 
Q 2069 2156 2228 2338 
Q 2531 2678 2651 2914 
Q 2772 3150 2772 3378 
Q 2772 3750 2511 3984 
Q 2250 4219 1831 4219 
Q 1534 4219 1204 4116 
Q 875 4013 500 3803 
L 500 4441 
Q 881 4594 1212 4672 
Q 1544 4750 1819 4750 
Q 2544 4750 2975 4387 
Q 3406 4025 3406 3419 
Q 3406 3131 3298 2873 
Q 3191 2616 2906 2266 
Q 2828 2175 2409 1742 
Q 1991 1309 1228 531 
z
" transform="scale(0.015625)"/>
        <path id="DejaVuSans-2e" d="M 684 794 
L 1344 794 
L 1344 0 
L 684 0 
L 684 794 
z
" transform="scale(0.015625)"/>
        <path id="DejaVuSans-35" d="M 691 4666 
L 3169 4666 
L 3169 4134 
L 1269 4134 
L 1269 2991 
Q 1406 3038 1543 3061 
Q 1681 3084 1819 3084 
Q 2600 3084 3056 2656 
Q 3513 2228 3513 1497 
Q 3513 744 3044 326 
Q 2575 -91 1722 -91 
Q 1428 -91 1123 -41 
Q 819 9 494 109 
L 494 744 
Q 775 591 1075 516 
Q 1375 441 1709 441 
Q 2250 441 2565 725 
Q 2881 1009 2881 1497 
Q 2881 1984 2565 2268 
Q 2250 2553 1709 2553 
Q 1456 2553 1204 2497 
Q 953 2441 691 2322 
L 691 4666 
z
" transform="scale(0.015625)"/>
       </defs>
       <use xlink:href="#DejaVuSans-2212"/>
       <use xlink:href="#DejaVuSans-32" x="83.789062"/>
       <use xlink:href="#DejaVuSans-2e" x="147.412109"/>
       <use xlink:href="#DejaVuSans-35" x="179.199219"/>
      </g>
     </g>
    </g>
    <g id="xtick_2">
     <g id="line2d_2">
      <g>
       <use xlink:href="#m5084cac941" x="199.413025" y="252.016372" style="stroke: #000000; stroke-width: 0.8"/>
      </g>
     </g>
     <g id="text_2">
      <!-- 0.0 -->
      <g transform="translate(183.5099 274.213248) scale(0.2 -0.2)">
       <defs>
        <path id="DejaVuSans-30" d="M 2034 4250 
Q 1547 4250 1301 3770 
Q 1056 3291 1056 2328 
Q 1056 1369 1301 889 
Q 1547 409 2034 409 
Q 2525 409 2770 889 
Q 3016 1369 3016 2328 
Q 3016 3291 2770 3770 
Q 2525 4250 2034 4250 
z
M 2034 4750 
Q 2819 4750 3233 4129 
Q 3647 3509 3647 2328 
Q 3647 1150 3233 529 
Q 2819 -91 2034 -91 
Q 1250 -91 836 529 
Q 422 1150 422 2328 
Q 422 3509 836 4129 
Q 1250 4750 2034 4750 
z
" transform="scale(0.015625)"/>
       </defs>
       <use xlink:href="#DejaVuSans-30"/>
       <use xlink:href="#DejaVuSans-2e" x="63.623047"/>
       <use xlink:href="#DejaVuSans-30" x="95.410156"/>
      </g>
     </g>
    </g>
    <g id="xtick_3">
     <g id="line2d_3">
      <g>
       <use xlink:href="#m5084cac941" x="278.238713" y="252.016372" style="stroke: #000000; stroke-width: 0.8"/>
      </g>
     </g>
     <g id="text_3">
      <!-- 2.5 -->
      <g transform="translate(262.335588 274.213248) scale(0.2 -0.2)">
       <use xlink:href="#DejaVuSans-32"/>
       <use xlink:href="#DejaVuSans-2e" x="63.623047"/>
       <use xlink:href="#DejaVuSans-35" x="95.410156"/>
      </g>
     </g>
    </g>
    <g id="text_4">
     <!-- feature1 -->
     <g transform="translate(167.427688 297.569498) scale(0.2 -0.2)">
      <defs>
       <path id="DejaVuSans-66" d="M 2375 4863 
L 2375 4384 
L 1825 4384 
Q 1516 4384 1395 4259 
Q 1275 4134 1275 3809 
L 1275 3500 
L 2222 3500 
L 2222 3053 
L 1275 3053 
L 1275 0 
L 697 0 
L 697 3053 
L 147 3053 
L 147 3500 
L 697 3500 
L 697 3744 
Q 697 4328 969 4595 
Q 1241 4863 1831 4863 
L 2375 4863 
z
" transform="scale(0.015625)"/>
       <path id="DejaVuSans-65" d="M 3597 1894 
L 3597 1613 
L 953 1613 
Q 991 1019 1311 708 
Q 1631 397 2203 397 
Q 2534 397 2845 478 
Q 3156 559 3463 722 
L 3463 178 
Q 3153 47 2828 -22 
Q 2503 -91 2169 -91 
Q 1331 -91 842 396 
Q 353 884 353 1716 
Q 353 2575 817 3079 
Q 1281 3584 2069 3584 
Q 2775 3584 3186 3129 
Q 3597 2675 3597 1894 
z
M 3022 2063 
Q 3016 2534 2758 2815 
Q 2500 3097 2075 3097 
Q 1594 3097 1305 2825 
Q 1016 2553 972 2059 
L 3022 2063 
z
" transform="scale(0.015625)"/>
       <path id="DejaVuSans-61" d="M 2194 1759 
Q 1497 1759 1228 1600 
Q 959 1441 959 1056 
Q 959 750 1161 570 
Q 1363 391 1709 391 
Q 2188 391 2477 730 
Q 2766 1069 2766 1631 
L 2766 1759 
L 2194 1759 
z
M 3341 1997 
L 3341 0 
L 2766 0 
L 2766 531 
Q 2569 213 2275 61 
Q 1981 -91 1556 -91 
Q 1019 -91 701 211 
Q 384 513 384 1019 
Q 384 1609 779 1909 
Q 1175 2209 1959 2209 
L 2766 2209 
L 2766 2266 
Q 2766 2663 2505 2880 
Q 2244 3097 1772 3097 
Q 1472 3097 1187 3025 
Q 903 2953 641 2809 
L 641 3341 
Q 956 3463 1253 3523 
Q 1550 3584 1831 3584 
Q 2591 3584 2966 3190 
Q 3341 2797 3341 1997 
z
" transform="scale(0.015625)"/>
       <path id="DejaVuSans-74" d="M 1172 4494 
L 1172 3500 
L 2356 3500 
L 2356 3053 
L 1172 3053 
L 1172 1153 
Q 1172 725 1289 603 
Q 1406 481 1766 481 
L 2356 481 
L 2356 0 
L 1766 0 
Q 1100 0 847 248 
Q 594 497 594 1153 
L 594 3053 
L 172 3053 
L 172 3500 
L 594 3500 
L 594 4494 
L 1172 4494 
z
" transform="scale(0.015625)"/>
       <path id="DejaVuSans-75" d="M 544 1381 
L 544 3500 
L 1119 3500 
L 1119 1403 
Q 1119 906 1312 657 
Q 1506 409 1894 409 
Q 2359 409 2629 706 
Q 2900 1003 2900 1516 
L 2900 3500 
L 3475 3500 
L 3475 0 
L 2900 0 
L 2900 538 
Q 2691 219 2414 64 
Q 2138 -91 1772 -91 
Q 1169 -91 856 284 
Q 544 659 544 1381 
z
M 1991 3584 
L 1991 3584 
z
" transform="scale(0.015625)"/>
       <path id="DejaVuSans-72" d="M 2631 2963 
Q 2534 3019 2420 3045 
Q 2306 3072 2169 3072 
Q 1681 3072 1420 2755 
Q 1159 2438 1159 1844 
L 1159 0 
L 581 0 
L 581 3500 
L 1159 3500 
L 1159 2956 
Q 1341 3275 1631 3429 
Q 1922 3584 2338 3584 
Q 2397 3584 2469 3576 
Q 2541 3569 2628 3553 
L 2631 2963 
z
" transform="scale(0.015625)"/>
       <path id="DejaVuSans-31" d="M 794 531 
L 1825 531 
L 1825 4091 
L 703 3866 
L 703 4441 
L 1819 4666 
L 2450 4666 
L 2450 531 
L 3481 531 
L 3481 0 
L 794 0 
L 794 531 
z
" transform="scale(0.015625)"/>
      </defs>
      <use xlink:href="#DejaVuSans-66"/>
      <use xlink:href="#DejaVuSans-65" x="35.205078"/>
      <use xlink:href="#DejaVuSans-61" x="96.728516"/>
      <use xlink:href="#DejaVuSans-74" x="158.007812"/>
      <use xlink:href="#DejaVuSans-75" x="197.216797"/>
      <use xlink:href="#DejaVuSans-72" x="260.595703"/>
      <use xlink:href="#DejaVuSans-65" x="299.458984"/>
      <use xlink:href="#DejaVuSans-31" x="360.982422"/>
     </g>
    </g>
   </g>
   <g id="matplotlib.axis_2">
    <g id="ytick_1">
     <g id="line2d_4">
      <defs>
       <path id="m50c57e9582" d="M 0 0 
L -3.5 0 
" style="stroke: #000000; stroke-width: 0.8"/>
      </defs>
      <g>
       <use xlink:href="#m50c57e9582" x="67.040625" y="234.193506" style="stroke: #000000; stroke-width: 0.8"/>
      </g>
     </g>
     <g id="text_5">
      <!-- 4 -->
      <g transform="translate(30.55625 241.791943) scale(0.2 -0.2)">
       <defs>
        <path id="DejaVuSans-34" d="M 2419 4116 
L 825 1625 
L 2419 1625 
L 2419 4116 
z
M 2253 4666 
L 3047 4666 
L 3047 1625 
L 3713 1625 
L 3713 1100 
L 3047 1100 
L 3047 0 
L 2419 0 
L 2419 1100 
L 313 1100 
L 313 1709 
L 2253 4666 
z
" transform="scale(0.015625)"/>
       </defs>
       <use xlink:href="#DejaVuSans-2212"/>
       <use xlink:href="#DejaVuSans-34" x="83.789062"/>
      </g>
     </g>
    </g>
    <g id="ytick_2">
     <g id="line2d_5">
      <g>
       <use xlink:href="#m50c57e9582" x="67.040625" y="183.083821" style="stroke: #000000; stroke-width: 0.8"/>
      </g>
     </g>
     <g id="text_6">
      <!-- 2 -->
      <g transform="translate(30.55625 190.682259) scale(0.2 -0.2)">
       <use xlink:href="#DejaVuSans-2212"/>
       <use xlink:href="#DejaVuSans-32" x="83.789062"/>
      </g>
     </g>
    </g>
    <g id="ytick_3">
     <g id="line2d_6">
      <g>
       <use xlink:href="#m50c57e9582" x="67.040625" y="131.974137" style="stroke: #000000; stroke-width: 0.8"/>
      </g>
     </g>
     <g id="text_7">
      <!-- 0 -->
      <g transform="translate(47.315625 139.572574) scale(0.2 -0.2)">
       <use xlink:href="#DejaVuSans-30"/>
      </g>
     </g>
    </g>
    <g id="ytick_4">
     <g id="line2d_7">
      <g>
       <use xlink:href="#m50c57e9582" x="67.040625" y="80.864452" style="stroke: #000000; stroke-width: 0.8"/>
      </g>
     </g>
     <g id="text_8">
      <!-- 2 -->
      <g transform="translate(47.315625 88.46289) scale(0.2 -0.2)">
       <use xlink:href="#DejaVuSans-32"/>
      </g>
     </g>
    </g>
    <g id="text_9">
     <!-- feature2 -->
     <g transform="translate(22.396875 188.03251) rotate(-90) scale(0.2 -0.2)">
      <use xlink:href="#DejaVuSans-66"/>
      <use xlink:href="#DejaVuSans-65" x="35.205078"/>
      <use xlink:href="#DejaVuSans-61" x="96.728516"/>
      <use xlink:href="#DejaVuSans-74" x="158.007812"/>
      <use xlink:href="#DejaVuSans-75" x="197.216797"/>
      <use xlink:href="#DejaVuSans-72" x="260.595703"/>
      <use xlink:href="#DejaVuSans-65" x="299.458984"/>
      <use xlink:href="#DejaVuSans-32" x="360.982422"/>
     </g>
    </g>
   </g>
   <g id="line2d_8"/>
   <g id="line2d_9"/>
   <g id="patch_3">
    <path d="M 67.040625 252.016372 
L 67.040625 39.126773 
" style="fill: none; stroke: #000000; stroke-width: 0.8; stroke-linejoin: miter; stroke-linecap: square"/>
   </g>
   <g id="patch_4">
    <path d="M 352.736625 252.016372 
L 352.736625 39.126773 
" style="fill: none; stroke: #000000; stroke-width: 0.8; stroke-linejoin: miter; stroke-linecap: square"/>
   </g>
   <g id="patch_5">
    <path d="M 67.040625 252.016372 
L 352.736625 252.016372 
" style="fill: none; stroke: #000000; stroke-width: 0.8; stroke-linejoin: miter; stroke-linecap: square"/>
   </g>
   <g id="patch_6">
    <path d="M 67.040625 39.126773 
L 352.736625 39.126773 
" style="fill: none; stroke: #000000; stroke-width: 0.8; stroke-linejoin: miter; stroke-linecap: square"/>
   </g>
   <g id="text_10">
    <!-- Left impurity: 0.09 -->
    <g style="fill: #ff0000" transform="translate(69.897585 36.997877) scale(0.14 -0.14)">
     <defs>
      <path id="DejaVuSans-4c" d="M 628 4666 
L 1259 4666 
L 1259 531 
L 3531 531 
L 3531 0 
L 628 0 
L 628 4666 
z
" transform="scale(0.015625)"/>
      <path id="DejaVuSans-20" transform="scale(0.015625)"/>
      <path id="DejaVuSans-69" d="M 603 3500 
L 1178 3500 
L 1178 0 
L 603 0 
L 603 3500 
z
M 603 4863 
L 1178 4863 
L 1178 4134 
L 603 4134 
L 603 4863 
z
" transform="scale(0.015625)"/>
      <path id="DejaVuSans-6d" d="M 3328 2828 
Q 3544 3216 3844 3400 
Q 4144 3584 4550 3584 
Q 5097 3584 5394 3201 
Q 5691 2819 5691 2113 
L 5691 0 
L 5113 0 
L 5113 2094 
Q 5113 2597 4934 2840 
Q 4756 3084 4391 3084 
Q 3944 3084 3684 2787 
Q 3425 2491 3425 1978 
L 3425 0 
L 2847 0 
L 2847 2094 
Q 2847 2600 2669 2842 
Q 2491 3084 2119 3084 
Q 1678 3084 1418 2786 
Q 1159 2488 1159 1978 
L 1159 0 
L 581 0 
L 581 3500 
L 1159 3500 
L 1159 2956 
Q 1356 3278 1631 3431 
Q 1906 3584 2284 3584 
Q 2666 3584 2933 3390 
Q 3200 3197 3328 2828 
z
" transform="scale(0.015625)"/>
      <path id="DejaVuSans-70" d="M 1159 525 
L 1159 -1331 
L 581 -1331 
L 581 3500 
L 1159 3500 
L 1159 2969 
Q 1341 3281 1617 3432 
Q 1894 3584 2278 3584 
Q 2916 3584 3314 3078 
Q 3713 2572 3713 1747 
Q 3713 922 3314 415 
Q 2916 -91 2278 -91 
Q 1894 -91 1617 61 
Q 1341 213 1159 525 
z
M 3116 1747 
Q 3116 2381 2855 2742 
Q 2594 3103 2138 3103 
Q 1681 3103 1420 2742 
Q 1159 2381 1159 1747 
Q 1159 1113 1420 752 
Q 1681 391 2138 391 
Q 2594 391 2855 752 
Q 3116 1113 3116 1747 
z
" transform="scale(0.015625)"/>
      <path id="DejaVuSans-79" d="M 2059 -325 
Q 1816 -950 1584 -1140 
Q 1353 -1331 966 -1331 
L 506 -1331 
L 506 -850 
L 844 -850 
Q 1081 -850 1212 -737 
Q 1344 -625 1503 -206 
L 1606 56 
L 191 3500 
L 800 3500 
L 1894 763 
L 2988 3500 
L 3597 3500 
L 2059 -325 
z
" transform="scale(0.015625)"/>
      <path id="DejaVuSans-3a" d="M 750 794 
L 1409 794 
L 1409 0 
L 750 0 
L 750 794 
z
M 750 3309 
L 1409 3309 
L 1409 2516 
L 750 2516 
L 750 3309 
z
" transform="scale(0.015625)"/>
      <path id="DejaVuSans-39" d="M 703 97 
L 703 672 
Q 941 559 1184 500 
Q 1428 441 1663 441 
Q 2288 441 2617 861 
Q 2947 1281 2994 2138 
Q 2813 1869 2534 1725 
Q 2256 1581 1919 1581 
Q 1219 1581 811 2004 
Q 403 2428 403 3163 
Q 403 3881 828 4315 
Q 1253 4750 1959 4750 
Q 2769 4750 3195 4129 
Q 3622 3509 3622 2328 
Q 3622 1225 3098 567 
Q 2575 -91 1691 -91 
Q 1453 -91 1209 -44 
Q 966 3 703 97 
z
M 1959 2075 
Q 2384 2075 2632 2365 
Q 2881 2656 2881 3163 
Q 2881 3666 2632 3958 
Q 2384 4250 1959 4250 
Q 1534 4250 1286 3958 
Q 1038 3666 1038 3163 
Q 1038 2656 1286 2365 
Q 1534 2075 1959 2075 
z
" transform="scale(0.015625)"/>
     </defs>
     <use xlink:href="#DejaVuSans-4c"/>
     <use xlink:href="#DejaVuSans-65" x="53.962891"/>
     <use xlink:href="#DejaVuSans-66" x="115.486328"/>
     <use xlink:href="#DejaVuSans-74" x="148.941406"/>
     <use xlink:href="#DejaVuSans-20" x="188.150391"/>
     <use xlink:href="#DejaVuSans-69" x="219.9375"/>
     <use xlink:href="#DejaVuSans-6d" x="247.720703"/>
     <use xlink:href="#DejaVuSans-70" x="345.132812"/>
     <use xlink:href="#DejaVuSans-75" x="408.609375"/>
     <use xlink:href="#DejaVuSans-72" x="471.988281"/>
     <use xlink:href="#DejaVuSans-69" x="513.101562"/>
     <use xlink:href="#DejaVuSans-74" x="540.884766"/>
     <use xlink:href="#DejaVuSans-79" x="580.09375"/>
     <use xlink:href="#DejaVuSans-3a" x="632.023438"/>
     <use xlink:href="#DejaVuSans-20" x="665.714844"/>
     <use xlink:href="#DejaVuSans-30" x="697.501953"/>
     <use xlink:href="#DejaVuSans-2e" x="761.125"/>
     <use xlink:href="#DejaVuSans-30" x="792.912109"/>
     <use xlink:href="#DejaVuSans-39" x="856.535156"/>
    </g>
   </g>
   <g id="text_11">
    <!-- Right impurity: 0.27 -->
    <g style="fill: #0000ff" transform="translate(213.392875 36.997877) scale(0.14 -0.14)">
     <defs>
      <path id="DejaVuSans-52" d="M 2841 2188 
Q 3044 2119 3236 1894 
Q 3428 1669 3622 1275 
L 4263 0 
L 3584 0 
L 2988 1197 
Q 2756 1666 2539 1819 
Q 2322 1972 1947 1972 
L 1259 1972 
L 1259 0 
L 628 0 
L 628 4666 
L 2053 4666 
Q 2853 4666 3247 4331 
Q 3641 3997 3641 3322 
Q 3641 2881 3436 2590 
Q 3231 2300 2841 2188 
z
M 1259 4147 
L 1259 2491 
L 2053 2491 
Q 2509 2491 2742 2702 
Q 2975 2913 2975 3322 
Q 2975 3731 2742 3939 
Q 2509 4147 2053 4147 
L 1259 4147 
z
" transform="scale(0.015625)"/>
      <path id="DejaVuSans-67" d="M 2906 1791 
Q 2906 2416 2648 2759 
Q 2391 3103 1925 3103 
Q 1463 3103 1205 2759 
Q 947 2416 947 1791 
Q 947 1169 1205 825 
Q 1463 481 1925 481 
Q 2391 481 2648 825 
Q 2906 1169 2906 1791 
z
M 3481 434 
Q 3481 -459 3084 -895 
Q 2688 -1331 1869 -1331 
Q 1566 -1331 1297 -1286 
Q 1028 -1241 775 -1147 
L 775 -588 
Q 1028 -725 1275 -790 
Q 1522 -856 1778 -856 
Q 2344 -856 2625 -561 
Q 2906 -266 2906 331 
L 2906 616 
Q 2728 306 2450 153 
Q 2172 0 1784 0 
Q 1141 0 747 490 
Q 353 981 353 1791 
Q 353 2603 747 3093 
Q 1141 3584 1784 3584 
Q 2172 3584 2450 3431 
Q 2728 3278 2906 2969 
L 2906 3500 
L 3481 3500 
L 3481 434 
z
" transform="scale(0.015625)"/>
      <path id="DejaVuSans-68" d="M 3513 2113 
L 3513 0 
L 2938 0 
L 2938 2094 
Q 2938 2591 2744 2837 
Q 2550 3084 2163 3084 
Q 1697 3084 1428 2787 
Q 1159 2491 1159 1978 
L 1159 0 
L 581 0 
L 581 4863 
L 1159 4863 
L 1159 2956 
Q 1366 3272 1645 3428 
Q 1925 3584 2291 3584 
Q 2894 3584 3203 3211 
Q 3513 2838 3513 2113 
z
" transform="scale(0.015625)"/>
      <path id="DejaVuSans-37" d="M 525 4666 
L 3525 4666 
L 3525 4397 
L 1831 0 
L 1172 0 
L 2766 4134 
L 525 4134 
L 525 4666 
z
" transform="scale(0.015625)"/>
     </defs>
     <use xlink:href="#DejaVuSans-52"/>
     <use xlink:href="#DejaVuSans-69" x="69.482422"/>
     <use xlink:href="#DejaVuSans-67" x="97.265625"/>
     <use xlink:href="#DejaVuSans-68" x="160.742188"/>
     <use xlink:href="#DejaVuSans-74" x="224.121094"/>
     <use xlink:href="#DejaVuSans-20" x="263.330078"/>
     <use xlink:href="#DejaVuSans-69" x="295.117188"/>
     <use xlink:href="#DejaVuSans-6d" x="322.900391"/>
     <use xlink:href="#DejaVuSans-70" x="420.3125"/>
     <use xlink:href="#DejaVuSans-75" x="483.789062"/>
     <use xlink:href="#DejaVuSans-72" x="547.167969"/>
     <use xlink:href="#DejaVuSans-69" x="588.28125"/>
     <use xlink:href="#DejaVuSans-74" x="616.064453"/>
     <use xlink:href="#DejaVuSans-79" x="655.273438"/>
     <use xlink:href="#DejaVuSans-3a" x="707.203125"/>
     <use xlink:href="#DejaVuSans-20" x="740.894531"/>
     <use xlink:href="#DejaVuSans-30" x="772.681641"/>
     <use xlink:href="#DejaVuSans-2e" x="836.304688"/>
     <use xlink:href="#DejaVuSans-32" x="868.091797"/>
     <use xlink:href="#DejaVuSans-37" x="931.714844"/>
    </g>
   </g>
   <g id="text_12">
    <!-- Full impurity: 0.19 -->
    <g transform="translate(146.683 17.837813) scale(0.14 -0.14)">
     <defs>
      <path id="DejaVuSans-46" d="M 628 4666 
L 3309 4666 
L 3309 4134 
L 1259 4134 
L 1259 2759 
L 3109 2759 
L 3109 2228 
L 1259 2228 
L 1259 0 
L 628 0 
L 628 4666 
z
" transform="scale(0.015625)"/>
      <path id="DejaVuSans-6c" d="M 603 4863 
L 1178 4863 
L 1178 0 
L 603 0 
L 603 4863 
z
" transform="scale(0.015625)"/>
     </defs>
     <use xlink:href="#DejaVuSans-46"/>
     <use xlink:href="#DejaVuSans-75" x="52.019531"/>
     <use xlink:href="#DejaVuSans-6c" x="115.398438"/>
     <use xlink:href="#DejaVuSans-6c" x="143.181641"/>
     <use xlink:href="#DejaVuSans-20" x="170.964844"/>
     <use xlink:href="#DejaVuSans-69" x="202.751953"/>
     <use xlink:href="#DejaVuSans-6d" x="230.535156"/>
     <use xlink:href="#DejaVuSans-70" x="327.947266"/>
     <use xlink:href="#DejaVuSans-75" x="391.423828"/>
     <use xlink:href="#DejaVuSans-72" x="454.802734"/>
     <use xlink:href="#DejaVuSans-69" x="495.916016"/>
     <use xlink:href="#DejaVuSans-74" x="523.699219"/>
     <use xlink:href="#DejaVuSans-79" x="562.908203"/>
     <use xlink:href="#DejaVuSans-3a" x="614.837891"/>
     <use xlink:href="#DejaVuSans-20" x="648.529297"/>
     <use xlink:href="#DejaVuSans-30" x="680.316406"/>
     <use xlink:href="#DejaVuSans-2e" x="743.939453"/>
     <use xlink:href="#DejaVuSans-31" x="775.726562"/>
     <use xlink:href="#DejaVuSans-39" x="839.349609"/>
    </g>
   </g>
   <g id="legend_1">
    <g id="line2d_10">
     <defs>
      <path id="mbafe0f0dab" d="M 0 3 
C 0.795609 3 1.55874 2.683901 2.12132 2.12132 
C 2.683901 1.55874 3 0.795609 3 0 
C 3 -0.795609 2.683901 -1.55874 2.12132 -2.12132 
C 1.55874 -2.683901 0.795609 -3 0 -3 
C -0.795609 -3 -1.55874 -2.683901 -2.12132 -2.12132 
C -2.683901 -1.55874 -3 -0.795609 -3 0 
C -3 0.795609 -2.683901 1.55874 -2.12132 2.12132 
C -1.55874 2.683901 -0.795609 3 0 3 
z
" style="stroke: #ffffff; stroke-width: 0.48"/>
     </defs>
     <g>
      <use xlink:href="#mbafe0f0dab" x="396.721425" y="62.70396" style="fill: #d62728; stroke: #ffffff; stroke-width: 0.48"/>
     </g>
    </g>
    <g id="text_13">
     <!-- 0.0 -->
     <g transform="translate(419.221425 69.00396) scale(0.18 -0.18)">
      <use xlink:href="#DejaVuSans-30"/>
      <use xlink:href="#DejaVuSans-2e" x="63.623047"/>
      <use xlink:href="#DejaVuSans-30" x="95.410156"/>
     </g>
    </g>
    <g id="line2d_11">
     <defs>
      <path id="m3bf2de7f5c" d="M 0 3 
C 0.795609 3 1.55874 2.683901 2.12132 2.12132 
C 2.683901 1.55874 3 0.795609 3 0 
C 3 -0.795609 2.683901 -1.55874 2.12132 -2.12132 
C 1.55874 -2.683901 0.795609 -3 0 -3 
C -0.795609 -3 -1.55874 -2.683901 -2.12132 -2.12132 
C -2.683901 -1.55874 -3 -0.795609 -3 0 
C -3 0.795609 -2.683901 1.55874 -2.12132 2.12132 
C -1.55874 2.683901 -0.795609 3 0 3 
z
" style="stroke: #ffffff; stroke-width: 0.48"/>
     </defs>
     <g>
      <use xlink:href="#m3bf2de7f5c" x="396.721425" y="89.124585" style="fill: #1f77b4; stroke: #ffffff; stroke-width: 0.48"/>
     </g>
    </g>
    <g id="text_14">
     <!-- 1.0 -->
     <g transform="translate(419.221425 95.424585) scale(0.18 -0.18)">
      <use xlink:href="#DejaVuSans-31"/>
      <use xlink:href="#DejaVuSans-2e" x="63.623047"/>
      <use xlink:href="#DejaVuSans-30" x="95.410156"/>
     </g>
    </g>
   </g>
  </g>
 </g>
 <defs>
  <clipPath id="p0979c19876">
   <rect x="67.040625" y="39.126773" width="285.696" height="212.8896"/>
  </clipPath>
 </defs>
</svg>
