<svg width="800" height="300" xmlns="http://www.w3.org/2000/svg">
    <!-- X Axis -->
    <line x1="50" y1="250" x2="750" y2="250" stroke="black" />
    <!-- Y Axis -->
    <line x1="50" y1="250" x2="50" y2="50" stroke="black" />

    <!-- X Axis Labels -->
    <text x="50" y="270" font-size="12">T1</text>
    <text x="100" y="270" font-size="12">T2</text>
    <text x="150" y="270" font-size="12">T3</text>
    <text x="200" y="270" font-size="12">T4</text>
    <text x="250" y="270" font-size="12">T5</text>
    <text x="300" y="270" font-size="12">T6</text>
    <text x="350" y="270" font-size="12">T7</text>
    <text x="400" y="270" font-size="12">T8</text>
    <text x="450" y="270" font-size="12">T9</text>
    <text x="500" y="270" font-size="12">T10</text>
    <text x="550" y="270" font-size="12">T11</text>
    <text x="600" y="270" font-size="12">T12</text>
    <text x="650" y="270" font-size="12">T13</text>
    <text x="700" y="270" font-size="12">T14</text>
    <text x="750" y="270" font-size="12">T15</text>

    <!-- Y Axis Labels -->
    <text x="30" y="250" font-size="12">0</text>
    <text x="30" y="200" font-size="12">20</text>
    <text x="30" y="150" font-size="12">40</text>
    <text x="30" y="100" font-size="12">60</text>
    <text x="30" y="50" font-size="12">80</text>

   
    <!-- Seasonality Data -->
    <polyline points="50,170 100,180 150,160 200,170 250,150 300,160 350,140 400,160 450,120 500,130 550,100 600,110 650,90 700,180 750,160" stroke="red" fill="none" stroke-width="2" stroke-dasharray="5,5" />
    <!-- Dot Markers -->
    <circle cx="50" cy="170" r="3" fill="red" />
    <circle cx="100" cy="180" r="3" fill="red" />
    <circle cx="150" cy="160" r="3" fill="red" />
    <circle cx="200" cy="170" r="3" fill="red" />
    <circle cx="250" cy="150" r="3" fill="red" />
    <circle cx="300" cy="160" r="3" fill="red" />
    <circle cx="350" cy="140" r="3" fill="red" />
    <circle cx="400" cy="160" r="3" fill="red" />
    <circle cx="450" cy="120" r="3" fill="red" />
    <circle cx="500" cy="130" r="3" fill="red" />
    <circle cx="550" cy="100" r="3" fill="red" />
    <circle cx="600" cy="110" r="3" fill="red" />
    <circle cx="650" cy="90" r="3" fill="red" />
    <circle cx="700" cy="180" r="3" fill="red" />
    <circle cx="750" cy="160" r="3" fill="red" />

</svg>